<?xml version="1.0" standalone="no"?>
<!DOCTYPE svg PUBLIC "-//W3C//DTD SVG 1.1//EN" "http://www.w3.org/Graphics/SVG/1.1/DTD/svg11.dtd" >
<svg xmlns="http://www.w3.org/2000/svg" xmlns:xlink="http://www.w3.org/1999/xlink" version="1.1">
<metadata>
Created by FontForge 20201107 at Fri Jan 20 19:44:27 2023
 By Unknown
Copyright 2014 - 2023 Adobe (http://www.adobe.com/), with Reserved Font Name 'Source'.
</metadata>
<defs>
<font id="SourceSerif4-SemiboldIt" horiz-adv-x="0" >
  <font-face 
    font-family="Source Serif 4"
    font-weight="600"
    font-style="italic"
    font-stretch="normal"
    units-per-em="1000"
    panose-1="2 4 6 3 5 4 5 2 2 4"
    ascent="800"
    descent="-200"
    x-height="493"
    cap-height="664"
    bbox="-256 -314 2269 1013"
    underline-thickness="50"
    underline-position="-75"
    slope="-12"
    stemh="52"
    stemv="123"
    unicode-range="U+0021-1F16B"
  />
<missing-glyph horiz-adv-x="640" 
d="M87 0v664h480v-664h-480zM197 57h260l-130 214zM154 554v-444l136 222zM364 332l136 -222v444zM197 606l130 -213l130 213h-260z" />
    <glyph glyph-name="f_b" unicode="fb" horiz-adv-x="808" 
d="M457 106c0 -32 17 -52 49 -52c35 0 69 18 103 57c43 48 75 135 75 209c0 59 -22 89 -57 89c-37 0 -81 -30 -130 -82l-20 -92c-14 -67 -20 -97 -20 -129zM-61 -244c-55 0 -92 22 -105 65c4 28 24 48 53 48c32 0 53 -20 75 -48l13 -17c12 13 24 29 36 51
c22 42 36 99 52 186c21 129 38 255 59 387h-90l9 42l89 9c31 170 124 264 239 264c45 0 82 -19 101 -46l95 33l13 -11l-73 -343c58 72 132 117 190 117c56 0 98 -35 98 -130c0 -181 -176 -377 -344 -377c-57 0 -100 33 -100 98c0 46 13 102 26 164l42 218
c11 54 21 109 30 163c-3 -1 -6 -1 -9 -1c-32 0 -53 16 -79 51l-16 24c-43 -26 -84 -79 -105 -207c-1 -6 -2 -11 -3 -17h124l-10 -57l-122 4c-21 -130 -39 -263 -63 -385c-19 -102 -47 -177 -99 -227c-41 -40 -86 -58 -126 -58z" />
    <glyph glyph-name="f_f" unicode="ff" horiz-adv-x="603" 
d="M-61 -244c-55 0 -92 22 -105 65c4 28 24 48 53 48c32 0 53 -20 75 -48l13 -16c12 12 24 28 36 50c22 42 36 99 52 186c21 129 38 255 59 387h-90l9 42l89 9c31 170 124 264 239 264c59 0 104 -33 113 -72c-6 -27 -24 -43 -44 -43c-32 0 -53 16 -79 51l-17 26
c-44 -27 -83 -81 -104 -209c-1 -6 -2 -11 -3 -17h176h4c32 197 138 264 229 264c60 0 112 -34 122 -75c-5 -29 -29 -46 -53 -46c-31 0 -51 17 -77 53l-20 29c-40 -25 -73 -78 -93 -208c-1 -6 -2 -11 -3 -17h125l-12 -57l-121 4c-20 -130 -39 -263 -63 -385
c-19 -102 -47 -177 -99 -227c-41 -40 -86 -58 -126 -58c-55 0 -92 22 -105 65c4 28 24 48 53 48c32 0 53 -20 75 -48l13 -17c12 13 24 29 36 51c22 42 36 99 52 186c21 129 39 255 59 387h-180c-20 -130 -39 -264 -63 -387c-19 -102 -47 -177 -99 -227
c-41 -40 -86 -58 -126 -58z" />
    <glyph glyph-name="f_h" unicode="fh" horiz-adv-x="857" 
d="M-61 -244c-55 0 -92 22 -105 65c4 28 24 48 53 48c32 0 53 -20 75 -48l13 -17c12 13 24 29 36 51c22 42 36 99 52 186c21 129 38 255 59 387h-90l9 42l89 9c31 170 124 264 239 264c46 0 84 -20 103 -48l98 35l12 -11l-70 -336c67 65 144 110 206 110c43 0 70 -25 70 -76
c0 -29 -6 -60 -14 -92l-46 -188c-6 -24 -11 -40 -11 -50c0 -14 7 -21 18 -21c21 0 52 24 86 67l27 -20c-39 -63 -106 -127 -183 -127c-39 0 -62 20 -62 53c0 27 7 51 16 87l40 163c8 33 15 63 15 81c0 29 -12 39 -31 39c-33 0 -81 -24 -140 -75l-26 -121
c-16 -78 -28 -142 -40 -213l-98 -8l-12 10l93 450c10 52 23 119 32 179c-4 -2 -9 -3 -14 -3c-32 0 -53 16 -79 51l-16 24c-43 -26 -84 -79 -105 -207c-1 -6 -2 -11 -3 -17h124l-10 -57l-122 4c-21 -130 -39 -263 -63 -385c-19 -102 -47 -177 -99 -227
c-41 -40 -86 -58 -126 -58z" />
    <glyph glyph-name="f_i" unicode="fi" horiz-adv-x="583" 
d="M-61 -244c-55 0 -92 22 -105 65c4 28 24 48 53 48c32 0 53 -20 75 -48l13 -17c12 13 24 29 36 51c22 42 36 99 52 186c21 129 39 255 59 387h-90l9 42l89 9c30 171 129 264 277 264c76 0 128 -35 140 -78c-6 -30 -24 -45 -53 -45c-33 0 -52 19 -79 55l-20 29
c-74 -10 -137 -76 -159 -215c-1 -3 -1 -7 -2 -10h216l61 15l14 -12l-73 -345c-5 -22 -8 -39 -8 -50c0 -13 9 -21 20 -21c20 0 46 22 83 67l28 -20c-43 -63 -100 -127 -179 -127c-37 0 -65 20 -65 58c0 22 5 51 12 86l61 293l-177 4c-19 -127 -39 -263 -63 -386
c-19 -102 -47 -177 -99 -227c-41 -40 -86 -58 -126 -58z" />
    <glyph glyph-name="f_j" unicode="fj" horiz-adv-x="540" 
d="M-61 -244c-55 0 -92 22 -105 65c4 28 24 48 53 48c32 0 53 -20 75 -48l13 -17c12 13 24 29 36 51c22 42 36 99 52 186c21 129 39 255 59 387h-90l9 42l89 9c30 171 129 264 277 264c76 0 128 -35 140 -78c-6 -30 -24 -45 -53 -45c-33 0 -52 19 -79 55l-20 29
c-74 -10 -137 -76 -159 -215c-1 -3 -1 -7 -2 -10h218l56 15l16 -12l-86 -439c-20 -98 -54 -170 -106 -219c-36 -37 -82 -61 -138 -66l-8 30c34 14 58 28 78 56c28 38 49 92 70 205l70 374l-177 4c-19 -127 -39 -263 -63 -386c-19 -102 -47 -177 -99 -227
c-41 -40 -86 -58 -126 -58z" />
    <glyph glyph-name="f_k" unicode="fk" horiz-adv-x="796" 
d="M-61 -244c-55 0 -92 22 -105 65c4 28 24 48 53 48c32 0 53 -20 75 -48l13 -17c12 13 24 29 36 51c22 42 36 99 52 186c21 129 38 255 59 387h-90l9 42l89 9c31 170 124 264 239 264c47 0 84 -21 103 -49l99 36l9 -11l-89 -436l253 205c31 -3 52 -28 52 -57
c0 -28 -21 -47 -73 -66l-227 -104l33 -4c62 -9 100 -43 124 -98l30 -67c19 -43 33 -53 61 -56l40 -4l-6 -32c-29 -10 -54 -14 -82 -14c-56 0 -94 15 -121 89l-31 83c-21 54 -33 70 -62 80l-5 -25c-17 -78 -28 -142 -40 -213l-99 -8l-11 10l92 450c11 54 24 115 34 179
c-5 -2 -10 -3 -15 -3c-32 0 -53 16 -79 51l-16 24c-43 -26 -84 -79 -105 -207c-1 -6 -2 -11 -3 -17h124l-10 -57l-122 4c-21 -130 -39 -263 -63 -385c-19 -102 -47 -177 -99 -227c-41 -40 -86 -58 -126 -58z" />
    <glyph glyph-name="f_l" unicode="fl" horiz-adv-x="587" 
d="M-61 -244c-55 0 -92 22 -105 65c4 28 24 48 53 48c32 0 53 -20 75 -48l13 -17c12 13 24 29 36 51c22 42 36 99 52 186c21 129 38 255 59 387h-90l9 42l89 9c31 170 124 264 239 264c46 0 83 -20 102 -47l97 34l14 -11l-121 -581c-5 -23 -8 -40 -8 -50
c0 -14 10 -22 22 -22c18 0 46 23 82 67l27 -20c-41 -63 -98 -127 -176 -127c-40 0 -67 21 -67 63c0 20 5 47 14 94l63 309c11 53 22 114 33 178c-4 -1 -9 -2 -13 -2c-32 0 -53 16 -79 51l-16 24c-43 -26 -84 -79 -105 -207c-1 -6 -2 -11 -3 -17h124l-10 -57l-122 4
c-21 -130 -39 -263 -63 -385c-19 -102 -47 -177 -99 -227c-41 -40 -86 -58 -126 -58z" />
    <glyph glyph-name="f_t" unicode="ft" horiz-adv-x="622" 
d="M-61 -244c-55 0 -92 22 -105 65c4 28 24 48 53 48c32 0 53 -20 75 -48l13 -17c12 13 24 29 36 51c22 42 36 99 52 186c21 129 38 255 59 387h-90l9 42l89 9c31 170 124 264 239 264c59 0 104 -33 113 -72c-6 -27 -24 -43 -44 -43c-32 0 -53 16 -79 51l-16 24
c-43 -26 -84 -79 -105 -207c-1 -6 -2 -11 -3 -17h192l9 1l57 135h72l-29 -136h116l-11 -58l-116 3l-60 -286c-5 -23 -8 -40 -8 -50c0 -14 10 -22 21 -22c23 0 48 22 85 67l28 -20c-40 -63 -104 -127 -180 -127c-38 0 -67 20 -67 60c0 22 4 49 12 86l64 296h-193
c-20 -130 -39 -264 -63 -387c-19 -102 -47 -177 -99 -227c-41 -40 -86 -58 -126 -58z" />
    <glyph glyph-name="f_f_b" unicode="ffb" horiz-adv-x="1093" 
d="M-61 -244c-55 0 -92 22 -105 65c4 28 24 48 53 48c32 0 53 -20 75 -48l13 -17c12 13 24 29 36 51c22 42 36 99 52 186c21 129 38 255 59 387h-90l9 42l89 9c31 170 124 264 239 264c59 0 104 -33 113 -72c-6 -27 -24 -43 -44 -43c-32 0 -53 16 -79 51l-16 24
c-43 -26 -84 -79 -105 -207c-1 -6 -2 -11 -3 -17h176h4c31 170 124 264 239 264c45 0 82 -19 101 -46l95 33l13 -11l-73 -343c58 72 132 117 190 117c56 0 98 -35 98 -130c0 -181 -176 -377 -344 -377c-57 0 -100 33 -100 98c0 46 13 102 26 164l42 218c11 54 21 109 30 163
c-3 -1 -6 -1 -9 -1c-32 0 -53 16 -79 51l-16 24c-43 -26 -84 -79 -105 -207c-1 -6 -2 -11 -3 -17h124l-10 -57l-122 4c-21 -130 -39 -263 -63 -385c-19 -102 -47 -177 -99 -227c-41 -40 -86 -58 -126 -58c-55 0 -92 22 -105 65c4 28 24 48 53 48c32 0 53 -20 75 -48l13 -17
c12 13 24 29 36 51c22 42 36 99 52 186c21 129 38 255 59 387h-180c-20 -130 -39 -264 -63 -387c-19 -102 -47 -177 -99 -227c-41 -40 -86 -58 -126 -58zM742 106c0 -32 17 -52 49 -52c35 0 69 18 103 57c43 48 75 135 75 209c0 59 -22 89 -57 89c-37 0 -81 -30 -130 -82
l-20 -92c-14 -67 -20 -97 -20 -129z" />
    <glyph glyph-name="f_f_f" unicode="fff" horiz-adv-x="888" 
d="M509 -244c-55 0 -92 22 -105 65c4 28 24 48 53 48c32 0 53 -20 75 -48l13 -17c12 13 24 29 36 51c22 42 36 99 52 186c21 129 39 255 59 387h-180c-20 -130 -39 -264 -63 -387c-19 -102 -47 -177 -99 -227c-41 -40 -86 -58 -126 -58c-55 0 -92 22 -105 65
c4 28 24 48 53 48c32 0 53 -20 75 -48l13 -16c12 12 24 28 36 50c22 42 36 99 52 186c21 129 38 255 59 387h-180c-20 -130 -39 -264 -63 -387c-19 -102 -47 -177 -99 -227c-41 -40 -86 -58 -126 -58c-55 0 -92 22 -105 65c4 28 24 48 53 48c32 0 53 -20 75 -48l13 -17
c12 13 24 29 36 51c22 42 36 99 52 186c21 129 38 255 59 387h-90l9 42l89 9c31 170 124 264 239 264c59 0 104 -33 113 -72c-6 -27 -24 -43 -44 -43c-32 0 -53 16 -79 51l-16 24c-43 -26 -84 -79 -105 -207c-1 -6 -2 -11 -3 -17h176h4c31 170 124 264 239 264
c59 0 104 -33 113 -72c-6 -27 -24 -43 -44 -43c-32 0 -53 16 -79 51l-17 26c-44 -27 -83 -81 -104 -209c-1 -6 -2 -11 -3 -17h176h4c32 197 138 264 229 264c60 0 112 -34 122 -75c-5 -29 -29 -46 -53 -46c-31 0 -51 17 -77 53l-20 29c-40 -25 -73 -78 -93 -208
c-1 -6 -2 -11 -3 -17h125l-12 -57l-121 4c-20 -130 -39 -263 -63 -385c-19 -102 -47 -177 -99 -227c-41 -40 -86 -58 -126 -58z" />
    <glyph glyph-name="f_f_h" unicode="ffh" horiz-adv-x="1142" 
d="M-61 -244c-55 0 -92 22 -105 65c4 28 24 48 53 48c32 0 53 -20 75 -48l13 -17c12 13 24 29 36 51c22 42 36 99 52 186c21 129 38 255 59 387h-90l9 42l89 9c31 170 124 264 239 264c59 0 104 -33 113 -72c-6 -27 -24 -43 -44 -43c-32 0 -53 16 -79 51l-16 24
c-43 -26 -84 -79 -105 -207c-1 -6 -2 -11 -3 -17h176h4c31 170 124 264 239 264c46 0 84 -20 103 -48l98 35l12 -11l-70 -336c67 65 144 110 206 110c43 0 70 -25 70 -76c0 -29 -6 -60 -14 -92l-46 -188c-6 -24 -11 -40 -11 -50c0 -14 7 -21 18 -21c21 0 52 24 86 67l27 -20
c-39 -63 -106 -127 -183 -127c-39 0 -62 20 -62 53c0 27 7 51 16 87l40 163c8 33 15 63 15 81c0 29 -12 39 -31 39c-33 0 -81 -24 -140 -75l-26 -121c-16 -78 -28 -142 -40 -213l-98 -8l-12 10l93 450c10 52 23 119 32 179c-4 -2 -9 -3 -14 -3c-32 0 -53 16 -79 51l-16 24
c-43 -26 -84 -79 -105 -207c-1 -6 -2 -11 -3 -17h124l-10 -57l-122 4c-21 -130 -39 -263 -63 -385c-19 -102 -47 -177 -99 -227c-41 -40 -86 -58 -126 -58c-55 0 -92 22 -105 65c4 28 24 48 53 48c32 0 53 -20 75 -48l13 -17c12 13 24 29 36 51c22 42 36 99 52 186
c21 129 38 255 59 387h-180c-20 -130 -39 -264 -63 -387c-19 -102 -47 -177 -99 -227c-41 -40 -86 -58 -126 -58z" />
    <glyph glyph-name="f_f_i" unicode="ffi" horiz-adv-x="868" 
d="M-61 -244c-55 0 -92 22 -105 65c4 28 24 48 53 48c32 0 53 -20 75 -48l13 -17c12 13 24 29 36 51c22 42 36 99 52 186c21 129 38 255 59 387h-90l9 42l89 9c31 170 124 264 239 264c59 0 104 -33 113 -72c-6 -27 -24 -43 -44 -43c-32 0 -53 16 -79 51l-16 24
c-43 -26 -84 -79 -105 -207c-1 -6 -2 -11 -3 -17h176h4c30 171 129 264 277 264c76 0 128 -35 140 -78c-6 -30 -24 -45 -53 -45c-33 0 -52 19 -79 55l-20 29c-74 -10 -137 -76 -159 -215c-1 -3 -1 -7 -2 -10h216l61 15l14 -12l-73 -345c-5 -22 -8 -39 -8 -50
c0 -13 9 -21 20 -21c20 0 46 22 83 67l28 -20c-43 -63 -100 -127 -179 -127c-37 0 -65 20 -65 58c0 22 5 51 12 86l61 293l-177 4c-19 -127 -39 -263 -63 -386c-19 -102 -47 -177 -99 -227c-41 -40 -86 -58 -126 -58c-55 0 -92 22 -105 65c4 28 24 48 53 48
c32 0 53 -20 75 -48l13 -17c12 13 24 29 36 51c22 42 36 99 52 186c21 129 39 255 59 387h-180c-20 -130 -39 -264 -63 -387c-19 -102 -47 -177 -99 -227c-41 -40 -86 -58 -126 -58z" />
    <glyph glyph-name="f_f_j" unicode="ffj" horiz-adv-x="825" 
d="M-61 -244c-55 0 -92 22 -105 65c4 28 24 48 53 48c32 0 53 -20 75 -48l13 -17c12 13 24 29 36 51c22 42 36 99 52 186c21 129 38 255 59 387h-90l9 42l89 9c31 170 124 264 239 264c59 0 104 -33 113 -72c-6 -27 -24 -43 -44 -43c-32 0 -53 16 -79 51l-16 24
c-43 -26 -84 -79 -105 -207c-1 -6 -2 -11 -3 -17h176h4c30 171 129 264 277 264c76 0 128 -35 140 -78c-6 -30 -24 -45 -53 -45c-33 0 -52 19 -79 55l-20 29c-74 -10 -137 -76 -159 -215c-1 -3 -1 -7 -2 -10h218l56 15l16 -12l-86 -439c-20 -98 -54 -170 -106 -219
c-36 -37 -82 -61 -138 -66l-8 30c34 14 58 28 78 56c28 38 49 92 70 205l70 374l-177 4c-19 -127 -39 -263 -63 -386c-19 -102 -47 -177 -99 -227c-41 -40 -86 -58 -126 -58c-55 0 -92 22 -105 65c4 28 24 48 53 48c32 0 53 -20 75 -48l13 -17c12 13 24 29 36 51
c22 42 36 99 52 186c21 129 39 255 59 387h-180c-20 -130 -39 -264 -63 -387c-19 -102 -47 -177 -99 -227c-41 -40 -86 -58 -126 -58z" />
    <glyph glyph-name="f_f_k" unicode="ffk" horiz-adv-x="1081" 
d="M-61 -244c-55 0 -92 22 -105 65c4 28 24 48 53 48c32 0 53 -20 75 -48l13 -17c12 13 24 29 36 51c22 42 36 99 52 186c21 129 38 255 59 387h-90l9 42l89 9c31 170 124 264 239 264c59 0 104 -33 113 -72c-6 -27 -24 -43 -44 -43c-32 0 -53 16 -79 51l-16 24
c-43 -26 -84 -79 -105 -207c-1 -6 -2 -11 -3 -17h176h4c31 170 124 264 239 264c47 0 84 -21 103 -49l99 36l9 -11l-89 -436l253 205c31 -3 52 -28 52 -57c0 -28 -21 -47 -73 -66l-227 -104l33 -4c62 -9 100 -43 124 -98l30 -67c19 -43 33 -53 61 -56l40 -4l-6 -32
c-29 -10 -54 -14 -82 -14c-56 0 -94 15 -121 89l-31 83c-21 54 -33 70 -62 80l-5 -25c-17 -78 -28 -142 -40 -213l-99 -8l-11 10l92 450c11 54 24 115 34 179c-5 -2 -10 -3 -15 -3c-32 0 -53 16 -79 51l-16 24c-43 -26 -84 -79 -105 -207c-1 -6 -2 -11 -3 -17h124l-10 -57
l-122 4c-21 -130 -39 -263 -63 -385c-19 -102 -47 -177 -99 -227c-41 -40 -86 -58 -126 -58c-55 0 -92 22 -105 65c4 28 24 48 53 48c32 0 53 -20 75 -48l13 -17c12 13 24 29 36 51c22 42 36 99 52 186c21 129 38 255 59 387h-180c-20 -130 -39 -264 -63 -387
c-19 -102 -47 -177 -99 -227c-41 -40 -86 -58 -126 -58z" />
    <glyph glyph-name="f_f_l" unicode="ffl" horiz-adv-x="872" 
d="M-61 -244c-55 0 -92 22 -105 65c4 28 24 48 53 48c32 0 53 -20 75 -48l13 -17c12 13 24 29 36 51c22 42 36 99 52 186c21 129 38 255 59 387h-90l9 42l89 9c31 170 124 264 239 264c59 0 104 -33 113 -72c-6 -27 -24 -43 -44 -43c-32 0 -53 16 -79 51l-16 24
c-43 -26 -84 -79 -105 -207c-1 -6 -2 -11 -3 -17h176h4c31 170 124 264 239 264c46 0 83 -20 102 -47l97 34l14 -11l-121 -581c-5 -23 -8 -40 -8 -50c0 -14 10 -22 22 -22c18 0 46 23 82 67l27 -20c-41 -63 -98 -127 -176 -127c-40 0 -67 21 -67 63c0 20 5 47 14 94l63 309
c11 53 22 114 33 178c-4 -1 -9 -2 -13 -2c-32 0 -53 16 -79 51l-16 24c-43 -26 -84 -79 -105 -207c-1 -6 -2 -11 -3 -17h124l-10 -57l-122 4c-21 -130 -39 -263 -63 -385c-19 -102 -47 -177 -99 -227c-41 -40 -86 -58 -126 -58c-55 0 -92 22 -105 65c4 28 24 48 53 48
c32 0 53 -20 75 -48l13 -17c12 13 24 29 36 51c22 42 36 99 52 186c21 129 38 255 59 387h-180c-20 -130 -39 -264 -63 -387c-19 -102 -47 -177 -99 -227c-41 -40 -86 -58 -126 -58z" />
    <glyph glyph-name="f_f_t" unicode="fft" horiz-adv-x="907" 
d="M-61 -244c-55 0 -92 22 -105 65c4 28 24 48 53 48c32 0 53 -20 75 -48l13 -17c12 13 24 29 36 51c22 42 36 99 52 186c21 129 38 255 59 387h-90l9 42l89 9c31 170 124 264 239 264c59 0 104 -33 113 -72c-6 -27 -24 -43 -44 -43c-32 0 -53 16 -79 51l-16 24
c-43 -26 -84 -79 -105 -207c-1 -6 -2 -11 -3 -17h176h4c31 170 124 264 239 264c59 0 104 -33 113 -72c-6 -27 -24 -43 -44 -43c-32 0 -53 16 -79 51l-16 24c-43 -26 -84 -79 -105 -207c-1 -6 -2 -11 -3 -17h192l9 1l57 135h72l-29 -136h116l-11 -58l-116 3l-60 -286
c-5 -23 -8 -40 -8 -50c0 -14 10 -22 21 -22c23 0 48 22 85 67l28 -20c-40 -63 -104 -127 -180 -127c-38 0 -67 20 -67 60c0 22 4 49 12 86l64 296h-193c-20 -130 -39 -264 -63 -387c-19 -102 -47 -177 -99 -227c-41 -40 -86 -58 -126 -58c-55 0 -92 22 -105 65
c4 28 24 48 53 48c32 0 53 -20 75 -48l13 -17c12 13 24 29 36 51c22 42 36 99 52 186c21 129 38 255 59 387h-180c-20 -130 -39 -264 -63 -387c-19 -102 -47 -177 -99 -227c-41 -40 -86 -58 -126 -58z" />
    <glyph glyph-name=".notdef" horiz-adv-x="640" 
d="M87 0v664h480v-664h-480zM197 57h260l-130 214zM154 554v-444l136 222zM364 332l136 -222v444zM197 606l130 -213l130 213h-260z" />
    <glyph glyph-name="space" unicode="&#xa0;" horiz-adv-x="225" 
 />
    <glyph glyph-name="space" unicode=" " horiz-adv-x="225" 
 />
    <glyph glyph-name="A" unicode="A" horiz-adv-x="682" 
d="M-48 0l9 47l85 12l327 605h78l92 -607l84 -10l-9 -47h-288l10 47l84 9l-23 164h-215l-84 -160l84 -13l-9 -47h-225zM213 273h181l-38 274z" />
    <glyph glyph-name="B" unicode="B" horiz-adv-x="629" 
d="M96 616l10 48h264c149 0 207 -69 207 -149c0 -79 -60 -142 -162 -165c101 -21 152 -88 152 -166c0 -101 -93 -184 -284 -184h-296l10 47l83 9l56 298c15 84 30 168 44 252zM245 310c-17 -86 -32 -173 -46 -259h68c123 0 178 63 178 149c0 79 -55 123 -136 123h-62z
M348 612h-46l-45 -240h41c109 0 161 53 161 134c0 64 -35 106 -111 106z" />
    <glyph glyph-name="C" unicode="C" horiz-adv-x="597" 
d="M320 -17c-173 0 -287 110 -287 289c0 228 167 408 387 408c63 0 119 -14 182 -52l-23 -146h-68l-1 124c-28 13 -58 20 -89 20c-154 0 -264 -162 -264 -350c0 -150 81 -239 196 -239c26 0 52 5 77 14l46 129h69l-28 -150c-50 -25 -112 -47 -197 -47z" />
    <glyph glyph-name="D" unicode="D" horiz-adv-x="695" 
d="M96 616l10 48h270c185 0 293 -114 293 -278c0 -249 -186 -386 -400 -386h-282l10 47l83 10l56 297c15 84 30 168 44 252zM245 310c-17 -86 -32 -173 -46 -259h71c175 0 272 165 272 341c0 141 -74 220 -209 220h-31z" />
    <glyph glyph-name="E" unicode="E" horiz-adv-x="587" 
d="M96 616l10 48h473l-24 -176h-65l1 122h-189l-46 -244h133l30 88h49l-43 -226h-49l3 86h-133l-1 -4c-17 -85 -32 -171 -46 -257h230l43 122h65l-39 -175h-511l10 47l83 9l56 298c15 84 30 168 44 252z" />
    <glyph glyph-name="F" unicode="F" horiz-adv-x="554" 
d="M96 616l10 48h485l-28 -176h-65l1 122h-197l-46 -244h133l30 88h49l-43 -236h-49l3 96h-133l-1 -4c-16 -84 -31 -168 -45 -252l94 -11l-10 -47h-297l10 47l83 9l56 298c15 84 30 168 44 252z" />
    <glyph glyph-name="G" unicode="G" horiz-adv-x="658" 
d="M33 268c0 237 171 412 388 412c72 0 131 -14 193 -54l-23 -148h-66l-4 132c-29 12 -60 17 -91 17c-165 0 -273 -167 -273 -353c0 -151 89 -238 204 -238c19 0 37 2 55 6l8 45c10 59 20 119 29 177l-94 13l8 47h284l-8 -47l-70 -9l-45 -241c-60 -27 -116 -43 -194 -43
c-186 0 -301 110 -301 284z" />
    <glyph glyph-name="H" unicode="H" horiz-adv-x="759" 
d="M487 616l9 48h287l-9 -48l-83 -9l-56 -297c-15 -84 -30 -169 -44 -253l85 -10l-10 -47h-287l10 47l81 9l49 258h-273l-1 -4c-16 -84 -31 -169 -45 -253l85 -10l-9 -47h-288l10 47l82 9l56 298c15 84 31 168 45 252l-85 10l10 48h287l-10 -48l-82 -9l-45 -241h272
c16 80 30 160 43 240z" />
    <glyph glyph-name="I" unicode="I" horiz-adv-x="367" 
d="M96 616l10 48h287l-10 -48l-82 -9l-56 -297c-16 -84 -31 -169 -45 -253l85 -10l-10 -47h-288l10 47l83 9l56 298c15 84 30 168 44 252z" />
    <glyph glyph-name="J" unicode="J" horiz-adv-x="359" 
d="M96 616l9 48h296l-9 -48l-84 -9l-75 -385c-21 -108 -36 -173 -63 -219c-47 -92 -121 -143 -192 -143c-49 0 -92 17 -99 57c5 34 35 54 72 54c25 0 46 -11 90 -48c24 30 39 76 50 133c13 70 22 130 44 263c14 85 33 178 52 287z" />
    <glyph glyph-name="K" unicode="K" horiz-adv-x="672" 
d="M474 616l9 48h222l-10 -48l-98 -13l-212 -198l184 -349l73 -9l-8 -47h-264l7 47l63 8l-139 271l-68 -64c-13 -68 -25 -137 -36 -205l77 -10l-10 -47h-278l10 47l81 9l56 298c15 84 30 168 44 252l-82 10l9 48h283l-10 -48l-79 -9l-52 -276l289 274z" />
    <glyph glyph-name="L" unicode="L" horiz-adv-x="567" 
d="M96 616l10 48h296l-9 -48l-92 -10l-56 -296c-17 -85 -32 -171 -45 -256h217l50 138h66l-41 -192h-505l10 47l83 10l56 297c15 84 30 168 44 252z" />
    <glyph glyph-name="M" unicode="M" horiz-adv-x="917" 
d="M-30 0l9 47l94 14l129 546l-82 9l10 48h200l102 -497l291 497h199l-7 -48l-87 -10l-44 -294c-12 -85 -24 -170 -34 -254l83 -10l-8 -48h-283l8 48l79 9l71 475l-309 -531h-40l-118 528l-50 -217l-59 -252l90 -13l-9 -47h-235z" />
    <glyph glyph-name="N" unicode="N" horiz-adv-x="714" 
d="M505 616l10 48h245l-9 -48l-81 -13l-114 -609h-56l-284 532l-37 -197l-51 -269l104 -13l-8 -47h-243l9 47l82 12l104 545l-2 3l-83 9l9 48h180l256 -486l27 151l52 274z" />
    <glyph glyph-name="O" unicode="O" horiz-adv-x="664" 
d="M283 -17c-145 0 -246 98 -246 275c0 225 141 422 361 422c149 0 247 -106 247 -275c0 -227 -140 -422 -362 -422zM296 37c131 0 227 172 227 385c0 129 -39 205 -136 205c-131 0 -229 -171 -229 -384c0 -129 43 -206 138 -206z" />
    <glyph glyph-name="P" unicode="P" horiz-adv-x="579" 
d="M96 616l10 48h240c165 0 239 -72 239 -179c0 -126 -101 -230 -298 -230h-52c-13 -66 -24 -132 -35 -197l94 -11l-10 -47h-297l10 47l83 9l56 298c15 84 30 168 44 252zM245 310c0 -1 -1 -3 -1 -4h44c110 0 175 70 175 178c0 83 -46 127 -130 127h-31z" />
    <glyph glyph-name="Q" unicode="Q" horiz-adv-x="664" 
d="M296 37c131 0 227 172 227 385c0 129 -39 205 -136 205c-131 0 -229 -171 -229 -384c0 -129 43 -206 138 -206zM457 -243c-146 0 -232 84 -233 232c-113 24 -187 117 -187 269c0 225 141 422 361 422c149 0 247 -106 247 -275c0 -210 -120 -393 -314 -419
c4 -104 60 -155 158 -155c50 0 82 8 119 25l17 -37c-43 -34 -97 -62 -168 -62z" />
    <glyph glyph-name="R" unicode="R" horiz-adv-x="657" 
d="M365 611h-63l-48 -254l54 1c122 1 168 68 168 153c0 65 -39 100 -111 100zM96 616l10 48h289c127 0 201 -59 201 -156c0 -86 -58 -162 -199 -186c60 -22 78 -64 100 -142l38 -122l92 -11l-8 -47c-33 -8 -52 -12 -91 -12c-69 0 -105 22 -120 87l-38 136
c-20 73 -39 95 -96 95h-30c-16 -83 -31 -166 -44 -249l87 -10l-9 -47h-291l10 47l83 9l56 298c15 84 30 168 44 252z" />
    <glyph glyph-name="S" unicode="S" horiz-adv-x="497" 
d="M10 31l17 145h71l12 -127c26 -7 53 -11 78 -11c87 0 133 43 133 108c0 41 -14 76 -99 139c-104 77 -132 138 -132 203c0 114 96 192 230 192c61 0 125 -15 176 -48l-20 -140h-73l-8 123c-21 8 -40 11 -60 11c-84 0 -137 -37 -137 -103c0 -47 24 -83 97 -136
c109 -80 139 -135 139 -204c0 -122 -99 -200 -240 -200c-66 0 -139 18 -184 48z" />
    <glyph glyph-name="T" unicode="T" horiz-adv-x="588" 
d="M55 481l37 183h542l-31 -183h-64l3 129h-127l-57 -300c-15 -84 -31 -168 -45 -253l94 -10l-9 -47h-307l10 47l93 10l55 297c16 85 31 171 45 256h-130l-44 -129h-65z" />
    <glyph glyph-name="U" unicode="U" horiz-adv-x="699" 
d="M309 -17c-139 0 -220 67 -220 197c0 31 5 64 12 98l14 81c15 81 30 164 44 248l-82 9l9 48h288l-9 -48l-82 -9l-60 -325c-6 -30 -11 -56 -11 -96c0 -80 51 -125 127 -125c113 0 168 53 200 222l61 323l-95 10l9 48h237l-9 -48l-83 -10l-63 -337
c-39 -206 -141 -286 -287 -286z" />
    <glyph glyph-name="V" unicode="V" horiz-adv-x="604" 
d="M463 618l9 46h220l-10 -48l-83 -13l-321 -609h-67l-101 614l-68 8l10 48h285l-9 -46l-90 -12l65 -460l238 459z" />
    <glyph glyph-name="W" unicode="W" horiz-adv-x="880" 
d="M167 -6l-58 614l-67 8l10 48h278l-10 -48l-86 -10l27 -447l209 446l-85 11l10 48h275l-9 -48l-90 -11l50 -453l201 452l-82 12l9 48h219l-9 -48l-80 -12l-278 -610h-67l-62 497l-237 -497h-68z" />
    <glyph glyph-name="X" unicode="X" horiz-adv-x="655" 
d="M458 616l8 48h230l-9 -48l-86 -12l-207 -246l125 -301l86 -10l-10 -47h-290l9 47l77 8l-89 215l-170 -211l80 -12l-8 -47h-230l9 47l84 11l216 258l-121 291l-73 9l10 48h282l-10 -48l-81 -9l84 -203l162 200z" />
    <glyph glyph-name="Y" unicode="Y" horiz-adv-x="564" 
d="M42 616l10 48h286l-9 -48l-82 -10l83 -273l174 271l-75 12l9 48h213l-9 -48l-81 -13l-215 -326c-13 -73 -26 -146 -38 -220l94 -10l-10 -47h-306l9 47l92 10l41 213l-114 338z" />
    <glyph glyph-name="Z" unicode="Z" horiz-adv-x="541" 
d="M-22 0l8 40l438 570h-248l-47 -129h-69l39 183h476l-8 -41l-439 -569h264l46 128h69l-39 -182h-490z" />
    <glyph glyph-name="a" unicode="a" horiz-adv-x="546" 
d="M138 161c0 -62 23 -89 57 -89c31 0 66 21 115 72l57 263c-18 9 -37 16 -57 16c-27 0 -59 -15 -90 -45c-47 -47 -82 -138 -82 -217zM367 -14c-38 0 -66 25 -67 74c0 12 1 23 3 34c-57 -64 -122 -108 -176 -108c-52 0 -100 36 -100 129c0 176 185 378 323 378
c26 0 47 -11 66 -28l61 35l18 -11l-80 -352c-5 -22 -8 -39 -8 -50c0 -13 9 -21 21 -21c22 0 52 26 85 67l27 -19c-37 -61 -102 -128 -173 -128z" />
    <glyph glyph-name="b" unicode="b" horiz-adv-x="517" 
d="M166 106c0 -32 17 -52 49 -52c35 0 69 18 103 57c44 48 75 135 75 209c0 59 -22 89 -57 89c-37 0 -80 -30 -129 -81l-21 -93c-14 -67 -20 -97 -20 -129zM159 -14c-58 0 -100 33 -100 98c0 46 13 102 25 164l77 385l-84 10l6 33l191 54l13 -11l-73 -344
c58 73 132 118 191 118c55 0 97 -35 97 -130c0 -181 -176 -377 -343 -377z" />
    <glyph glyph-name="c" unicode="c" horiz-adv-x="438" 
d="M194 -14c-95 0 -161 67 -161 188c0 170 129 319 275 319c67 0 110 -32 124 -83c-3 -31 -28 -50 -56 -50s-47 21 -64 45l-30 44c-84 -42 -140 -148 -140 -254c0 -84 43 -123 109 -123c47 0 91 33 125 73l25 -19c-41 -75 -121 -140 -207 -140z" />
    <glyph glyph-name="d" unicode="d" horiz-adv-x="548" 
d="M139 164c0 -65 24 -92 59 -92c32 0 68 22 117 76l53 257c-18 13 -36 18 -58 18c-34 0 -70 -19 -95 -47c-45 -47 -76 -138 -76 -212zM369 -14c-40 0 -66 26 -66 68c0 11 0 23 3 42c-57 -66 -126 -110 -181 -110c-51 0 -97 36 -97 134c0 171 177 373 319 373
c15 0 29 -2 41 -8l30 148l-86 10l4 33l191 54l14 -11l-121 -581c-5 -24 -7 -40 -7 -51c0 -13 8 -21 19 -21c21 0 54 25 86 67l27 -20c-39 -64 -105 -127 -176 -127z" />
    <glyph glyph-name="e" unicode="e" horiz-adv-x="439" 
d="M293 445c-58 0 -147 -105 -154 -226c151 47 200 117 200 172c0 35 -19 54 -46 54zM195 -14c-95 0 -162 64 -162 187c0 167 124 320 279 320c76 0 119 -38 119 -100c0 -73 -80 -157 -292 -215c6 -74 43 -106 101 -106c61 0 106 37 135 73l26 -19
c-42 -73 -115 -140 -206 -140z" />
    <glyph glyph-name="f" unicode="f" horiz-adv-x="318" 
d="M-61 -244c-55 0 -92 22 -105 65c4 28 24 48 53 48c32 0 53 -20 75 -48l13 -17c12 13 24 29 36 51c22 42 36 99 52 186c21 129 39 255 59 387h-90l9 42l89 9c32 197 138 264 229 264c60 0 112 -34 122 -75c-5 -29 -29 -46 -53 -46c-31 0 -51 17 -77 53l-20 29
c-40 -25 -73 -78 -93 -208c-1 -6 -2 -11 -3 -17h125l-12 -57l-121 4c-20 -130 -39 -263 -63 -385c-19 -102 -47 -177 -99 -227c-41 -40 -86 -58 -126 -58z" />
    <glyph glyph-name="g" unicode="g" horiz-adv-x="509" 
d="M217 153c-29 0 -53 5 -74 14c-20 -22 -22 -33 -22 -45c0 -17 10 -37 50 -42l117 -12c111 -12 149 -55 149 -115c0 -107 -132 -191 -309 -191c-105 0 -174 35 -174 104c0 56 57 106 122 136c-34 14 -48 40 -48 67c0 45 33 79 87 114c-35 25 -53 65 -53 110
c0 109 90 200 202 200c70 0 119 -37 134 -91c20 83 56 109 98 109c16 0 27 -3 37 -8c4 -7 8 -14 8 -24c0 -50 -37 -66 -109 -85c-6 -16 -10 -33 -15 -53c-29 -122 -94 -188 -200 -188zM235 190c49 0 87 48 87 157c0 68 -30 109 -68 109c-59 0 -88 -62 -88 -152
c0 -66 21 -114 69 -114zM49 -100c0 -54 49 -85 130 -85c99 0 161 36 161 91c0 35 -26 62 -112 72l-98 10c-7 1 -15 1 -22 2c-38 -27 -59 -55 -59 -90z" />
    <glyph glyph-name="h" unicode="h" horiz-adv-x="562" 
d="M43 -8l-12 10l93 450c13 61 25 121 35 182l-80 9l4 33l191 54l12 -11l-70 -336c67 65 145 110 207 110c43 0 71 -25 71 -76c0 -29 -7 -60 -15 -92l-46 -188c-6 -24 -11 -40 -11 -50c0 -14 7 -21 18 -21c20 0 52 24 86 67l27 -20c-39 -63 -106 -127 -183 -127
c-40 0 -63 20 -63 53c0 27 8 51 17 87l40 163c8 33 14 63 14 81c0 29 -12 39 -30 39c-33 0 -80 -24 -140 -75l-26 -121c-17 -78 -29 -142 -40 -213z" />
    <glyph glyph-name="i" unicode="i" horiz-adv-x="312" 
d="M60 44c0 22 5 51 12 86l56 268l-84 9l5 33l190 54l15 -12l-73 -345c-5 -22 -8 -39 -8 -50c0 -13 9 -21 19 -21c21 0 48 22 84 67l28 -20c-42 -63 -100 -127 -179 -127c-37 0 -65 20 -65 58zM230 610c-34 0 -62 24 -62 62c0 41 34 73 70 73s62 -25 62 -61
c0 -42 -34 -74 -70 -74z" />
    <glyph glyph-name="j" unicode="j" horiz-adv-x="269" 
d="M-79 -242l-7 30c33 14 57 28 78 56c28 38 49 92 70 205l66 349l-84 9l5 33l187 54l15 -12l-85 -439c-20 -98 -54 -170 -107 -219c-35 -37 -82 -61 -138 -66zM230 610c-34 0 -62 24 -62 62c0 41 34 73 70 73s62 -25 62 -61c0 -42 -34 -74 -70 -74z" />
    <glyph glyph-name="k" unicode="k" horiz-adv-x="500" 
d="M31 2l93 450c12 61 24 121 34 182l-80 9l5 33l189 54l13 -11l-90 -436l254 205c30 -3 51 -28 51 -57c0 -28 -21 -47 -72 -66l-228 -104l34 -4c61 -9 99 -43 123 -98l30 -67c19 -43 33 -53 61 -56l40 -4l-5 -32c-30 -10 -55 -14 -83 -14c-55 0 -93 15 -121 89l-31 83
c-21 54 -32 70 -62 80l-5 -25c-16 -78 -28 -142 -40 -213l-98 -8z" />
    <glyph glyph-name="l" unicode="l" horiz-adv-x="293" 
d="M114 -14c-39 0 -67 21 -67 63c0 20 5 47 14 94l62 309c13 60 25 121 35 182l-80 9l5 33l191 54l13 -11l-120 -581c-6 -23 -8 -40 -8 -50c0 -14 10 -22 21 -22c19 0 47 23 83 67l27 -20c-41 -63 -98 -127 -176 -127z" />
    <glyph glyph-name="m" unicode="m" horiz-adv-x="840" 
d="M57 -8l-13 10l83 396l-83 9l5 33l187 54l16 -13l-20 -96c67 64 143 108 205 108c42 0 70 -25 70 -76c0 -11 -1 -22 -3 -32c65 64 137 108 198 108c43 0 70 -25 70 -76c0 -29 -7 -60 -15 -92l-46 -188c-6 -24 -10 -40 -10 -50c0 -14 7 -21 17 -21c23 0 50 22 86 67l27 -20
c-42 -64 -104 -127 -182 -127c-40 0 -63 20 -63 53c0 27 7 51 16 87l40 163c8 33 15 63 15 81c0 29 -11 39 -31 39c-31 0 -75 -24 -133 -74l-25 -123c-15 -71 -29 -140 -42 -212l-97 -8l-12 10l66 312c4 22 8 43 8 59c0 26 -11 36 -29 36c-33 0 -80 -23 -139 -73l-27 -124
c-15 -71 -28 -140 -41 -212z" />
    <glyph glyph-name="n" unicode="n" horiz-adv-x="577" 
d="M57 -8l-13 10l83 396l-83 9l5 33l187 54l16 -13l-20 -97c67 64 145 109 207 109c42 0 70 -25 70 -76c0 -29 -7 -60 -15 -92l-46 -188c-6 -24 -10 -40 -10 -50c0 -14 6 -21 17 -21c21 0 52 24 86 67l28 -20c-39 -63 -107 -127 -184 -127c-39 0 -62 20 -62 53
c0 27 7 51 16 87l40 163c8 33 15 63 15 81c0 29 -12 39 -31 39c-32 0 -81 -25 -141 -76l-26 -121c-15 -71 -28 -140 -41 -212z" />
    <glyph glyph-name="o" unicode="o" horiz-adv-x="511" 
d="M211 -14c-100 0 -180 61 -180 183c0 174 123 324 277 324c102 0 177 -60 177 -183c0 -170 -120 -324 -274 -324zM223 33c89 0 149 148 149 285c0 94 -31 128 -76 128c-87 0 -152 -142 -152 -284c0 -95 34 -129 79 -129z" />
    <glyph glyph-name="p" unicode="p" horiz-adv-x="532" 
d="M201 -14c-19 0 -35 3 -51 11c-16 -76 -26 -131 -35 -181l83 -13l-8 -37h-265l7 37l74 12l122 582l-84 10l5 33l187 54l16 -13l-21 -99c57 69 131 111 188 111c54 0 98 -33 98 -130c0 -178 -168 -377 -316 -377zM348 409c-35 0 -81 -29 -128 -77l-51 -248
c21 -18 43 -27 65 -27c44 0 82 25 115 73c34 49 58 125 58 189c0 62 -21 90 -59 90z" />
    <glyph glyph-name="q" unicode="q" horiz-adv-x="521" 
d="M138 162c0 -59 20 -90 59 -90c31 0 73 20 122 68l56 267c-21 11 -40 16 -58 16c-36 0 -73 -20 -100 -48c-48 -49 -79 -138 -79 -213zM125 -14c-52 0 -97 36 -97 134c0 171 180 373 326 373c28 0 50 -7 71 -25l55 30l18 -11l-108 -514c-11 -54 -20 -106 -29 -158l78 -12
l-8 -37h-266l7 37l81 13l57 273c-58 -62 -131 -103 -185 -103z" />
    <glyph glyph-name="r" unicode="r" horiz-adv-x="429" 
d="M44 2l83 396l-83 9l5 33l178 54l16 -13l-24 -144c44 85 102 156 158 156c32 0 60 -12 73 -39c0 -40 -22 -70 -60 -70c-23 0 -45 12 -67 34c-52 -50 -89 -110 -120 -174l-7 -32c-15 -71 -28 -140 -41 -212l-98 -8z" />
    <glyph glyph-name="s" unicode="s" horiz-adv-x="390" 
d="M152 -14c-82 0 -128 38 -137 103c5 24 23 40 47 40c32 0 51 -17 60 -54l11 -49h10c59 0 94 30 94 76c0 32 -14 58 -67 98c-53 42 -90 80 -90 144c0 82 65 149 174 149c75 0 119 -31 133 -93c-5 -24 -21 -38 -47 -38c-25 0 -48 17 -61 54l-12 37h-2c-61 0 -84 -36 -84 -76
c0 -41 22 -66 77 -107c60 -47 83 -79 83 -137c0 -82 -69 -147 -189 -147z" />
    <glyph glyph-name="t" unicode="t" horiz-adv-x="337" 
d="M126 -14c-38 0 -67 20 -67 60c0 22 4 49 12 86l64 296h-89l9 42l96 10l57 135h72l-29 -136h116l-11 -58l-116 3l-60 -286c-5 -23 -8 -40 -8 -50c0 -14 10 -22 21 -22c23 0 48 22 85 67l28 -20c-40 -63 -104 -127 -180 -127z" />
    <glyph glyph-name="u" unicode="u" horiz-adv-x="581" 
d="M399 -14c-36 0 -65 25 -65 72c0 9 1 19 5 37c-71 -69 -135 -109 -194 -109c-46 0 -80 28 -80 79c0 32 9 74 17 110l50 223l-86 9l5 34l192 53l15 -13l-65 -286c-8 -34 -13 -61 -13 -82c0 -29 14 -41 36 -41c35 0 72 21 130 69l32 152c11 56 22 113 32 170l99 31l16 -13
l-73 -344c-5 -22 -8 -39 -8 -50c0 -13 9 -21 20 -21c22 0 48 22 85 67l27 -20c-42 -63 -100 -127 -177 -127z" />
    <glyph glyph-name="v" unicode="v" horiz-adv-x="500" 
d="M158 -1c-8 143 -19 257 -34 367c-5 35 -13 40 -26 40c-15 0 -30 -12 -57 -50l-23 21c44 77 90 116 139 116c46 0 66 -27 74 -88c12 -91 19 -202 22 -312c61 76 107 146 153 231l-9 34c-6 20 -13 42 -13 60c0 53 28 77 68 77c19 0 35 -6 43 -14c7 -10 10 -20 10 -44
c0 -25 -5 -53 -47 -130c-48 -89 -139 -206 -241 -310l-50 -5z" />
    <glyph glyph-name="w" unicode="w" horiz-adv-x="762" 
d="M157 -1c-7 146 -18 262 -33 369c-5 34 -13 38 -26 38c-16 0 -32 -15 -57 -50l-23 21c44 77 89 116 137 116c47 0 67 -24 74 -80c12 -83 18 -193 21 -294c64 108 125 228 182 357h64c9 -125 19 -250 28 -373c57 74 99 139 144 219l-10 35c-6 19 -13 44 -13 61
c0 53 33 77 73 77c17 0 30 -6 38 -14c8 -10 11 -21 11 -45c0 -25 -7 -54 -48 -129c-48 -90 -131 -204 -232 -310l-51 -5l-9 7c-9 101 -17 201 -25 300c-48 -94 -113 -211 -180 -302l-56 -5z" />
    <glyph glyph-name="x" unicode="x" horiz-adv-x="549" 
d="M-17 63c8 31 32 46 56 46c27 0 43 -12 65 -51l4 -7c3 3 6 6 9 10c42 48 79 98 117 150l-46 147c-12 38 -21 49 -42 49c-15 0 -40 -9 -68 -51l-23 22c46 79 92 115 139 115c46 0 67 -26 87 -89l30 -99c39 62 75 111 98 140c29 36 54 48 88 48c31 0 64 -18 73 -57
c-1 -36 -24 -61 -53 -61c-25 0 -44 11 -63 40l-4 7c-3 -3 -5 -5 -7 -8c-42 -49 -81 -100 -119 -152l45 -142c14 -44 25 -54 48 -54s53 25 85 67l28 -20c-45 -73 -104 -129 -164 -129c-38 0 -65 18 -84 78l-35 108c-35 -58 -66 -105 -99 -144c-23 -27 -46 -40 -78 -40
c-41 0 -83 24 -87 77z" />
    <glyph glyph-name="y" unicode="y" horiz-adv-x="505" 
d="M-10 -234c-46 0 -77 27 -79 70c7 32 31 50 63 50s54 -17 85 -50c30 21 65 51 94 80c10 10 19 20 28 30c-14 125 -32 223 -51 360c-12 90 -17 100 -33 100c-14 0 -28 -11 -56 -50l-23 21c47 81 94 116 139 116s65 -25 75 -122c12 -115 22 -220 29 -320
c55 116 86 198 116 306c31 113 48 140 87 140c27 0 48 -17 48 -44c0 -30 -10 -52 -31 -94c-22 -41 -45 -85 -81 -145c-37 -62 -77 -133 -133 -212c-29 -41 -59 -84 -106 -134c-58 -62 -113 -102 -171 -102z" />
    <glyph glyph-name="z" unicode="z" horiz-adv-x="480" 
d="M46 271l21 159l79 64c84 -26 160 -51 243 -87l34 72l63 11l10 -10c-13 -38 -51 -86 -108 -138c-80 -74 -163 -141 -243 -210c75 -46 130 -60 176 -60c25 0 46 5 65 14c-27 31 -35 47 -35 68c0 35 26 57 57 60c27 -9 39 -34 39 -63c0 -84 -92 -177 -175 -177
c-57 0 -110 25 -176 108l-33 -82l-69 -7l-8 7c21 40 42 74 88 115c82 75 168 146 252 223c-66 19 -125 32 -198 47l-37 -121z" />
    <glyph glyph-name="Agrave" unicode="&#xc0;" horiz-adv-x="682" 
d="M213 273h181l-38 274zM-48 0l9 47l85 12l327 605h78l92 -607l84 -10l-9 -47h-288l10 47l84 9l-23 164h-215l-84 -160l84 -13l-9 -47h-225zM457 740l-20 -29c-47 20 -95 41 -142 64c-42 21 -53 43 -53 61c0 23 19 42 46 42c20 0 38 -10 68 -38c34 -32 68 -66 101 -100z
" />
    <glyph glyph-name="Aacute" unicode="&#xc1;" horiz-adv-x="682" 
d="M213 273h181l-38 274zM-48 0l9 47l85 12l327 605h78l92 -607l84 -10l-9 -47h-288l10 47l84 9l-23 164h-215l-84 -160l84 -13l-9 -47h-225zM340 733c38 34 76 68 115 101c33 28 47 37 73 37c27 0 45 -18 45 -42c0 -19 -8 -40 -58 -61c-52 -21 -105 -42 -158 -63z" />
    <glyph glyph-name="Acircumflex" unicode="&#xc2;" horiz-adv-x="682" 
d="M-48 0l9 47l85 12l327 605h78l92 -607l84 -10l-9 -47h-288l10 47l84 9l-23 164h-215l-84 -160l84 -13l-9 -47h-225zM213 273h181l-38 274zM467 867l117 -137l-25 -26l-127 89l-153 -89l-16 27l157 136h47z" />
    <glyph glyph-name="Atilde" unicode="&#xc3;" horiz-adv-x="682" 
d="M-48 0l9 47l85 12l327 605h78l92 -607l84 -10l-9 -47h-288l10 47l84 9l-23 164h-215l-84 -160l84 -13l-9 -47h-225zM213 273h181l-38 274zM249 727c25 84 71 134 128 134c31 0 50 -14 70 -32c18 -15 33 -38 60 -38c29 0 54 27 75 70l31 -14c-26 -82 -70 -133 -126 -133
c-32 0 -52 14 -70 29c-19 17 -35 40 -62 40c-29 0 -54 -26 -74 -68z" />
    <glyph glyph-name="Adieresis" unicode="&#xc4;" horiz-adv-x="682" 
d="M-48 0l9 47l85 12l327 605h78l92 -607l84 -10l-9 -47h-288l10 47l84 9l-23 164h-215l-84 -160l84 -13l-9 -47h-225zM213 273h181l-38 274zM309 732c-27 0 -54 19 -54 51c0 42 34 66 65 66c30 0 53 -21 53 -50c0 -41 -31 -67 -64 -67zM534 732c-26 0 -52 19 -52 51
c0 42 32 66 63 66s54 -21 54 -50c0 -41 -31 -67 -65 -67z" />
    <glyph glyph-name="Amacron" unicode="&#x100;" horiz-adv-x="682" 
d="M-48 0l9 47l85 12l327 605h78l92 -607l84 -10l-9 -47h-288l10 47l84 9l-23 164h-215l-84 -160l84 -13l-9 -47h-225zM279 745l15 70h286l-16 -70h-285zM213 273h181l-38 274z" />
    <glyph glyph-name="Abreve" unicode="&#x102;" horiz-adv-x="682" 
d="M-48 0l9 47l85 12l327 605h78l92 -607l84 -10l-9 -47h-288l10 47l84 9l-23 164h-215l-84 -160l84 -13l-9 -47h-225zM213 273h181l-38 274zM413 719c-77 0 -127 52 -141 129l32 15c21 -42 66 -71 121 -71s97 29 127 72l32 -16c-23 -63 -77 -129 -171 -129z" />
    <glyph glyph-name="uni1EAE" unicode="&#x1eae;" horiz-adv-x="682" 
d="M-48 0l9 47l85 12l327 605h78l92 -607l84 -10l-9 -47h-288l10 47l84 9l-23 164h-215l-84 -160l84 -13l-9 -47h-225zM213 273h181l-38 274zM414 719c-76 0 -126 53 -139 129l31 15c22 -43 65 -74 120 -74c58 0 96 29 128 75l32 -16c-23 -63 -79 -129 -172 -129zM418 838
l-28 31l72 96c27 35 44 48 72 48c23 0 42 -16 42 -40c0 -22 -5 -36 -46 -62z" />
    <glyph glyph-name="uni1EB6" unicode="&#x1eb6;" horiz-adv-x="682" 
d="M-48 0l9 47l85 12l327 605h78l92 -607l84 -10l-9 -47h-288l10 47l84 9l-23 164h-215l-84 -160l84 -13l-9 -47h-225zM213 273h181l-38 274zM413 719c-77 0 -127 52 -141 129l32 15c21 -42 66 -71 121 -71s97 29 127 72l32 -16c-23 -63 -77 -129 -171 -129zM225 -202
c-33 0 -58 23 -58 61c0 41 33 74 69 74c34 0 58 -25 58 -62c0 -40 -33 -73 -69 -73z" />
    <glyph glyph-name="uni1EB0" unicode="&#x1eb0;" horiz-adv-x="682" 
d="M-48 0l9 47l85 12l327 605h78l92 -607l84 -10l-9 -47h-288l10 47l84 9l-23 164h-215l-84 -160l84 -13l-9 -47h-225zM213 273h181l-38 274zM414 719c-76 0 -126 53 -139 129l31 15c22 -43 65 -74 120 -74c58 0 96 29 128 75l32 -16c-23 -63 -79 -129 -172 -129zM465 838
l-113 73c-41 26 -46 40 -46 62c0 24 19 40 43 40c27 0 45 -13 71 -48l72 -96z" />
    <glyph glyph-name="uni1EB2" unicode="&#x1eb2;" horiz-adv-x="682" 
d="M-48 0l9 47l85 12l327 605h78l92 -607l84 -10l-9 -47h-288l10 47l84 9l-23 164h-215l-84 -160l84 -13l-9 -47h-225zM213 273h181l-38 274zM414 719c-76 0 -126 53 -139 129l31 15c22 -43 65 -74 120 -74c58 0 96 29 128 75l32 -16c-23 -63 -79 -129 -172 -129zM404 821
l-5 36c41 9 56 18 56 33s-21 24 -79 29l19 84c89 -8 125 -41 125 -88c0 -56 -48 -86 -116 -94z" />
    <glyph glyph-name="uni1EB4" unicode="&#x1eb4;" horiz-adv-x="682" 
d="M-48 0l9 47l85 12l327 605h78l92 -607l84 -10l-9 -47h-288l10 47l84 9l-23 164h-215l-84 -160l84 -13l-9 -47h-225zM213 273h181l-38 274zM414 719c-76 0 -126 53 -139 129l31 15c22 -43 65 -74 120 -74c58 0 96 29 128 75l32 -16c-23 -63 -79 -129 -172 -129zM305 877
l-30 12c12 60 50 98 105 98c32 0 50 -10 70 -22c23 -13 41 -25 65 -25c27 0 46 15 61 48l30 -12c-12 -62 -46 -98 -99 -98c-31 0 -53 11 -71 23c-22 14 -43 25 -68 25c-28 0 -48 -17 -63 -49z" />
    <glyph glyph-name="uni01CD" unicode="&#x1cd;" horiz-adv-x="682" 
d="M-48 0l9 47l85 12l327 605h78l92 -607l84 -10l-9 -47h-288l10 47l84 9l-23 164h-215l-84 -160l84 -13l-9 -47h-225zM213 273h181l-38 274zM311 877l118 -94l144 95l21 -25l-140 -136h-67l-105 137z" />
    <glyph glyph-name="uni1EA4" unicode="&#x1ea4;" horiz-adv-x="682" 
d="M-48 0l9 47l85 12l327 605h78l92 -607l84 -10l-9 -47h-288l10 47l84 9l-23 164h-215l-84 -160l84 -13l-9 -47h-225zM213 273h181l-38 274zM280 700l-18 27l153 136h47l117 -137l-25 -26l-125 86zM547 794l-26 29l51 70c23 31 40 39 59 39c22 0 39 -16 39 -41
c0 -17 -12 -36 -40 -51z" />
    <glyph glyph-name="uni1EAC" unicode="&#x1eac;" horiz-adv-x="682" 
d="M-48 0l9 47l85 12l327 605h78l92 -607l84 -10l-9 -47h-288l10 47l84 9l-23 164h-215l-84 -160l84 -13l-9 -47h-225zM213 273h181l-38 274zM467 867l117 -137l-25 -26l-127 89l-153 -89l-16 27l157 136h47zM225 -202c-33 0 -58 23 -58 61c0 41 33 74 69 74
c34 0 58 -25 58 -62c0 -40 -33 -73 -69 -73z" />
    <glyph glyph-name="uni1EA6" unicode="&#x1ea6;" horiz-adv-x="682" 
d="M-48 0l9 47l85 12l327 605h78l92 -607l84 -10l-9 -47h-288l10 47l84 9l-23 164h-215l-84 -160l84 -13l-9 -47h-225zM213 273h181l-38 274zM280 700l-18 27l153 136h47l117 -137l-25 -26l-125 86zM319 804l-49 24c-44 23 -53 40 -53 59c0 20 18 38 41 38
c20 0 39 -9 57 -41l33 -52z" />
    <glyph glyph-name="uni1EA8" unicode="&#x1ea8;" horiz-adv-x="682" 
d="M-48 0l9 47l85 12l327 605h78l92 -607l84 -10l-9 -47h-288l10 47l84 9l-23 164h-215l-84 -160l84 -13l-9 -47h-225zM213 273h181l-38 274zM280 700l-18 27l153 136h47l117 -137l-25 -26l-125 86zM551 789l-5 37c38 8 51 17 51 31c0 18 -19 27 -71 32l18 83
c81 -8 112 -39 112 -93c0 -49 -44 -81 -105 -90z" />
    <glyph glyph-name="uni1EAA" unicode="&#x1eaa;" horiz-adv-x="682" 
d="M-48 0l9 47l85 12l327 605h78l92 -607l84 -10l-9 -47h-288l10 47l84 9l-23 164h-215l-84 -160l84 -13l-9 -47h-225zM213 273h181l-38 274zM280 700l-18 27l153 132h47l117 -133l-25 -26l-125 83zM305 860l-30 12c12 60 50 99 105 99c32 0 50 -11 70 -23
c23 -13 41 -24 65 -24c27 0 46 14 61 48l30 -13c-12 -63 -46 -98 -99 -98c-31 0 -53 11 -71 23c-22 13 -43 24 -68 24c-28 0 -48 -16 -63 -48z" />
    <glyph glyph-name="uni1EA0" unicode="&#x1ea0;" horiz-adv-x="682" 
d="M-48 0l9 47l85 12l327 605h78l92 -607l84 -10l-9 -47h-288l10 47l84 9l-23 164h-215l-84 -160l84 -13l-9 -47h-225zM213 273h181l-38 274zM225 -202c-33 0 -58 23 -58 61c0 41 33 74 69 74c34 0 58 -25 58 -62c0 -40 -33 -73 -69 -73z" />
    <glyph glyph-name="uni1EA2" unicode="&#x1ea2;" horiz-adv-x="682" 
d="M-48 0l9 47l85 12l327 605h78l92 -607l84 -10l-9 -47h-288l10 47l84 9l-23 164h-215l-84 -160l84 -13l-9 -47h-225zM213 273h181l-38 274zM410 713l-4 36c41 8 55 17 55 33c0 15 -21 24 -79 29l19 84c89 -8 125 -42 125 -88c0 -56 -48 -86 -116 -94z" />
    <glyph glyph-name="Aring" unicode="&#xc5;" horiz-adv-x="682" 
d="M-48 0l9 47l85 12l327 605h78l92 -607l84 -10l-9 -47h-288l10 47l84 9l-23 164h-215l-84 -160l84 -13l-9 -47h-225zM213 273h181l-38 274zM429 745c34 0 57 28 57 64c0 26 -15 49 -47 49c-33 0 -60 -27 -60 -64c0 -28 18 -49 50 -49zM426 705c-50 0 -93 31 -93 85
c0 68 54 107 108 107s92 -32 92 -85c0 -68 -52 -107 -107 -107z" />
    <glyph glyph-name="Aogonek" unicode="&#x104;" horiz-adv-x="682" 
d="M-48 0l9 47l85 12l327 605h78l92 -607l84 -10l-9 -47h-91c-38 -43 -66 -86 -66 -130c0 -38 20 -53 49 -53c15 0 31 3 47 11l12 -28c-25 -20 -58 -37 -96 -37c-57 0 -89 30 -89 77c0 57 50 109 108 160h-162l10 47l84 9l-23 164h-215l-84 -160l84 -13l-9 -47h-225z
M213 273h181l-38 274z" />
    <glyph glyph-name="AE" unicode="&#xc6;" horiz-adv-x="889" 
d="M438 354c16 82 31 165 44 247h-7l-219 -321h168zM792 488l1 122h-189l-46 -244h133l30 88h49l-42 -226h-50l3 86h-133l-1 -4c-16 -85 -31 -171 -45 -257h229l44 122h65l-40 -175h-510l9 47l83 9l32 172h-194l-115 -169l77 -12l-9 -47h-227l10 47l85 12l380 546l-94 11
l9 48h546l-25 -176h-65z" />
    <glyph glyph-name="Ccedilla" unicode="&#xc7;" horiz-adv-x="597" 
d="M274 -88l36 71c-168 4 -277 114 -277 289c0 228 167 408 387 408c63 0 119 -14 182 -52l-23 -146h-68l-1 124c-28 13 -58 20 -89 20c-154 0 -264 -162 -264 -350c0 -150 81 -239 196 -239c26 0 52 5 77 14l46 129h69l-28 -150c-45 -22 -100 -43 -172 -46l-24 -49
c63 -22 92 -45 92 -88c0 -42 -40 -78 -109 -78c-36 0 -70 10 -91 23l15 31c20 -9 40 -14 62 -14c33 0 55 16 55 44c0 33 -27 49 -71 59z" />
    <glyph glyph-name="Cacute" unicode="&#x106;" horiz-adv-x="597" 
d="M320 -17c-173 0 -287 110 -287 289c0 228 167 408 387 408c63 0 119 -14 182 -52l-23 -146h-68l-1 124c-28 13 -58 20 -89 20c-154 0 -264 -162 -264 -350c0 -150 81 -239 196 -239c26 0 52 5 77 14l46 129h69l-28 -150c-50 -25 -112 -47 -197 -47zM349 733
c38 34 76 68 115 101c33 28 47 37 73 37c27 0 45 -18 45 -42c0 -19 -8 -40 -58 -61c-52 -21 -105 -42 -158 -63z" />
    <glyph glyph-name="Ccaron" unicode="&#x10c;" horiz-adv-x="597" 
d="M320 -17c-173 0 -287 110 -287 289c0 228 167 408 387 408c63 0 119 -14 182 -52l-23 -146h-68l-1 124c-28 13 -58 20 -89 20c-154 0 -264 -162 -264 -350c0 -150 81 -239 196 -239c26 0 52 5 77 14l46 129h69l-28 -150c-50 -25 -112 -47 -197 -47zM320 877l118 -94
l144 95l21 -25l-140 -136h-67l-105 137z" />
    <glyph glyph-name="Ccircumflex" unicode="&#x108;" horiz-adv-x="597" 
d="M320 -17c-173 0 -287 110 -287 289c0 228 167 408 387 408c63 0 119 -14 182 -52l-23 -146h-68l-1 124c-28 13 -58 20 -89 20c-154 0 -264 -162 -264 -350c0 -150 81 -239 196 -239c26 0 52 5 77 14l46 129h69l-28 -150c-50 -25 -112 -47 -197 -47zM476 867l117 -137
l-25 -26l-127 89l-153 -89l-16 27l157 136h47z" />
    <glyph glyph-name="Cdotaccent" unicode="&#x10a;" horiz-adv-x="597" 
d="M320 -17c-173 0 -287 110 -287 289c0 228 167 408 387 408c63 0 119 -14 182 -52l-23 -146h-68l-1 124c-28 13 -58 20 -89 20c-154 0 -264 -162 -264 -350c0 -150 81 -239 196 -239c26 0 52 5 77 14l46 129h69l-28 -150c-50 -25 -112 -47 -197 -47zM435 722
c-34 0 -58 23 -58 61c0 41 32 73 68 73c35 0 58 -25 58 -61c0 -40 -33 -73 -68 -73z" />
    <glyph glyph-name="Dcaron" unicode="&#x10e;" horiz-adv-x="695" 
d="M96 616l10 48h270c185 0 293 -114 293 -278c0 -249 -186 -386 -400 -386h-282l10 47l83 10l56 297c15 84 30 168 44 252zM245 310c-17 -86 -32 -173 -46 -259h71c175 0 272 165 272 341c0 141 -74 220 -209 220h-31zM280 877l118 -94l144 95l21 -25l-140 -136h-67
l-105 137z" />
    <glyph glyph-name="Dcroat" unicode="&#x110;" horiz-adv-x="695" 
d="M96 616l10 48h270c185 0 293 -114 293 -278c0 -249 -186 -386 -400 -386h-282l10 47l83 10l48 257h-95l10 52h95c15 80 29 160 42 240zM384 314h-138l-1 -4c-17 -86 -32 -173 -46 -259h71c175 0 272 165 272 341c0 141 -74 220 -209 220h-31l-46 -246h137z" />
    <glyph glyph-name="uni1E0C" unicode="&#x1e0c;" horiz-adv-x="695" 
d="M96 616l10 48h270c185 0 293 -114 293 -278c0 -249 -186 -386 -400 -386h-282l10 47l83 10l56 297c15 84 30 168 44 252zM243 -202c-33 0 -58 23 -58 61c0 41 33 74 69 74c34 0 58 -25 58 -62c0 -40 -33 -73 -69 -73zM245 310c-17 -86 -32 -173 -46 -259h71
c175 0 272 165 272 341c0 141 -74 220 -209 220h-31z" />
    <glyph glyph-name="uni1E0E" unicode="&#x1e0e;" horiz-adv-x="695" 
d="M96 616l10 48h270c185 0 293 -114 293 -278c0 -249 -186 -386 -400 -386h-282l10 47l83 10l56 297c15 84 30 168 44 252zM245 310c-17 -86 -32 -173 -46 -259h71c175 0 272 165 272 341c0 141 -74 220 -209 220h-31zM124 -175l15 70h240l-15 -70h-240z" />
    <glyph glyph-name="Egrave" unicode="&#xc8;" horiz-adv-x="587" 
d="M96 616l10 48h473l-24 -176h-65l1 122h-189l-46 -244h133l30 88h49l-43 -226h-49l3 86h-133l-1 -4c-17 -85 -32 -171 -46 -257h230l43 122h65l-39 -175h-511l10 47l83 9l56 298c15 84 30 168 44 252zM413 740l-20 -29c-47 20 -95 41 -142 64c-42 21 -53 43 -53 61
c0 23 19 42 46 42c20 0 38 -10 68 -38c34 -32 68 -66 101 -100z" />
    <glyph glyph-name="Eacute" unicode="&#xc9;" horiz-adv-x="587" 
d="M96 616l10 48h473l-24 -176h-65l1 122h-189l-46 -244h133l30 88h49l-43 -226h-49l3 86h-133l-1 -4c-17 -85 -32 -171 -46 -257h230l43 122h65l-39 -175h-511l10 47l83 9l56 298c15 84 30 168 44 252zM296 733c38 34 76 68 115 101c33 28 47 37 73 37c27 0 45 -18 45 -42
c0 -19 -8 -40 -58 -61c-52 -21 -105 -42 -158 -63z" />
    <glyph glyph-name="Ecircumflex" unicode="&#xca;" horiz-adv-x="587" 
d="M96 616l10 48h473l-24 -176h-65l1 122h-189l-46 -244h133l30 88h49l-43 -226h-49l3 86h-133l-1 -4c-17 -85 -32 -171 -46 -257h230l43 122h65l-39 -175h-511l10 47l83 9l56 298c15 84 30 168 44 252zM423 867l117 -137l-25 -26l-127 89l-153 -89l-16 27l157 136h47z" />
    <glyph glyph-name="Ecaron" unicode="&#x11a;" horiz-adv-x="587" 
d="M96 616l10 48h473l-24 -176h-65l1 122h-189l-46 -244h133l30 88h49l-43 -226h-49l3 86h-133l-1 -4c-17 -85 -32 -171 -46 -257h230l43 122h65l-39 -175h-511l10 47l83 9l56 298c15 84 30 168 44 252zM267 877l118 -94l144 95l21 -25l-140 -136h-67l-105 137z" />
    <glyph glyph-name="Edieresis" unicode="&#xcb;" horiz-adv-x="587" 
d="M96 616l10 48h473l-24 -176h-65l1 122h-189l-46 -244h133l30 88h49l-43 -226h-49l3 86h-133l-1 -4c-17 -85 -32 -171 -46 -257h230l43 122h65l-39 -175h-511l10 47l83 9l56 298c15 84 30 168 44 252zM265 732c-27 0 -54 19 -54 51c0 42 34 66 65 66c30 0 53 -21 53 -50
c0 -41 -31 -67 -64 -67zM490 732c-26 0 -52 19 -52 51c0 42 32 66 63 66s54 -21 54 -50c0 -41 -31 -67 -65 -67z" />
    <glyph glyph-name="Emacron" unicode="&#x112;" horiz-adv-x="587" 
d="M96 616l10 48h473l-24 -176h-65l1 122h-189l-46 -244h133l30 88h49l-43 -226h-49l3 86h-133l-1 -4c-17 -85 -32 -171 -46 -257h230l43 122h65l-39 -175h-511l10 47l83 9l56 298c15 84 30 168 44 252zM235 745l15 70h286l-16 -70h-285z" />
    <glyph glyph-name="Edotaccent" unicode="&#x116;" horiz-adv-x="587" 
d="M96 616l10 48h473l-24 -176h-65l1 122h-189l-46 -244h133l30 88h49l-43 -226h-49l3 86h-133l-1 -4c-17 -85 -32 -171 -46 -257h230l43 122h65l-39 -175h-511l10 47l83 9l56 298c15 84 30 168 44 252zM382 722c-34 0 -58 23 -58 61c0 41 32 73 68 73c35 0 58 -25 58 -61
c0 -40 -33 -73 -68 -73z" />
    <glyph glyph-name="Eogonek" unicode="&#x118;" horiz-adv-x="587" 
d="M96 616l10 48h473l-24 -176h-65l1 122h-189l-46 -244h133l30 88h49l-43 -226h-49l3 86h-133l-1 -4c-17 -85 -32 -171 -46 -257h230l43 122h65l-39 -175h-87c-38 -43 -66 -86 -66 -130c0 -38 20 -53 49 -53c15 0 31 3 47 11l12 -28c-25 -20 -58 -37 -96 -37
c-57 0 -89 30 -89 77c0 57 50 109 108 160h-389l10 47l83 9l56 298c15 84 30 168 44 252z" />
    <glyph glyph-name="Ebreve" unicode="&#x114;" horiz-adv-x="587" 
d="M96 616l10 48h473l-24 -176h-65l1 122h-189l-46 -244h133l30 88h49l-43 -226h-49l3 86h-133l-1 -4c-17 -85 -32 -171 -46 -257h230l43 122h65l-39 -175h-511l10 47l83 9l56 298c15 84 30 168 44 252zM369 719c-77 0 -127 52 -141 129l32 15c21 -42 66 -71 121 -71
s97 29 127 72l32 -16c-23 -63 -77 -129 -171 -129z" />
    <glyph glyph-name="uni1EBE" unicode="&#x1ebe;" horiz-adv-x="587" 
d="M96 616l10 48h473l-24 -176h-65l1 122h-189l-46 -244h133l30 88h49l-43 -226h-49l3 86h-133l-1 -4c-17 -85 -32 -171 -46 -257h230l43 122h65l-39 -175h-511l10 47l83 9l56 298c15 84 30 168 44 252zM236 700l-18 27l153 136h47l117 -137l-25 -26l-125 86zM503 794
l-26 29l51 70c23 31 40 39 59 39c22 0 39 -16 39 -41c0 -17 -12 -36 -40 -51z" />
    <glyph glyph-name="uni1EC6" unicode="&#x1ec6;" horiz-adv-x="587" 
d="M96 616l10 48h473l-24 -176h-65l1 122h-189l-46 -244h133l30 88h49l-43 -226h-49l3 86h-133l-1 -4c-17 -85 -32 -171 -46 -257h230l43 122h65l-39 -175h-511l10 47l83 9l56 298c15 84 30 168 44 252zM423 867l117 -137l-25 -26l-127 89l-153 -89l-16 27l157 136h47z
M238 -202c-33 0 -58 23 -58 61c0 41 33 74 69 74c34 0 58 -25 58 -62c0 -40 -33 -73 -69 -73z" />
    <glyph glyph-name="uni1EC0" unicode="&#x1ec0;" horiz-adv-x="587" 
d="M96 616l10 48h473l-24 -176h-65l1 122h-189l-46 -244h133l30 88h49l-43 -226h-49l3 86h-133l-1 -4c-17 -85 -32 -171 -46 -257h230l43 122h65l-39 -175h-511l10 47l83 9l56 298c15 84 30 168 44 252zM236 700l-18 27l153 136h47l117 -137l-25 -26l-125 86zM275 804
l-49 24c-44 23 -53 40 -53 59c0 20 18 38 41 38c20 0 39 -9 57 -41l33 -52z" />
    <glyph glyph-name="uni1EC2" unicode="&#x1ec2;" horiz-adv-x="587" 
d="M96 616l10 48h473l-24 -176h-65l1 122h-189l-46 -244h133l30 88h49l-43 -226h-49l3 86h-133l-1 -4c-17 -85 -32 -171 -46 -257h230l43 122h65l-39 -175h-511l10 47l83 9l56 298c15 84 30 168 44 252zM236 700l-18 27l153 136h47l117 -137l-25 -26l-125 86zM507 789l-5 37
c38 8 51 17 51 31c0 18 -19 27 -71 32l18 83c81 -8 112 -39 112 -93c0 -49 -44 -81 -105 -90z" />
    <glyph glyph-name="uni1EC4" unicode="&#x1ec4;" horiz-adv-x="587" 
d="M96 616l10 48h473l-24 -176h-65l1 122h-189l-46 -244h133l30 88h49l-43 -226h-49l3 86h-133l-1 -4c-17 -85 -32 -171 -46 -257h230l43 122h65l-39 -175h-511l10 47l83 9l56 298c15 84 30 168 44 252zM236 700l-18 27l153 132h47l117 -133l-25 -26l-125 83zM261 860
l-30 12c12 60 50 99 105 99c32 0 50 -11 70 -23c23 -13 41 -24 65 -24c27 0 46 14 61 48l30 -13c-12 -63 -46 -98 -99 -98c-31 0 -53 11 -71 23c-22 13 -43 24 -68 24c-28 0 -48 -16 -63 -48z" />
    <glyph glyph-name="uni1EB8" unicode="&#x1eb8;" horiz-adv-x="587" 
d="M96 616l10 48h473l-24 -176h-65l1 122h-189l-46 -244h133l30 88h49l-43 -226h-49l3 86h-133l-1 -4c-17 -85 -32 -171 -46 -257h230l43 122h65l-39 -175h-511l10 47l83 9l56 298c15 84 30 168 44 252zM238 -202c-33 0 -58 23 -58 61c0 41 33 74 69 74c34 0 58 -25 58 -62
c0 -40 -33 -73 -69 -73z" />
    <glyph glyph-name="uni1EBA" unicode="&#x1eba;" horiz-adv-x="587" 
d="M96 616l10 48h473l-24 -176h-65l1 122h-189l-46 -244h133l30 88h49l-43 -226h-49l3 86h-133l-1 -4c-17 -85 -32 -171 -46 -257h230l43 122h65l-39 -175h-511l10 47l83 9l56 298c15 84 30 168 44 252zM366 713l-4 36c41 8 55 17 55 33c0 15 -21 24 -79 29l19 84
c89 -8 125 -42 125 -88c0 -56 -48 -86 -116 -94z" />
    <glyph glyph-name="uni1EBC" unicode="&#x1ebc;" horiz-adv-x="587" 
d="M96 616l10 48h473l-24 -176h-65l1 122h-189l-46 -244h133l30 88h49l-43 -226h-49l3 86h-133l-1 -4c-17 -85 -32 -171 -46 -257h230l43 122h65l-39 -175h-511l10 47l83 9l56 298c15 84 30 168 44 252zM205 727c25 84 71 134 128 134c31 0 50 -14 70 -32
c18 -15 33 -38 60 -38c29 0 54 27 75 70l31 -14c-26 -82 -70 -133 -126 -133c-32 0 -52 14 -70 29c-19 17 -35 40 -62 40c-29 0 -54 -26 -74 -68z" />
    <glyph glyph-name="Gbreve" unicode="&#x11e;" horiz-adv-x="658" 
d="M33 268c0 237 171 412 388 412c72 0 131 -14 193 -54l-23 -148h-66l-4 132c-29 12 -60 17 -91 17c-165 0 -273 -167 -273 -353c0 -151 89 -238 204 -238c19 0 37 2 55 6l8 45c10 59 20 119 29 177l-94 13l8 47h284l-8 -47l-70 -9l-45 -241c-60 -27 -116 -43 -194 -43
c-186 0 -301 110 -301 284zM424 719c-77 0 -127 52 -141 129l32 15c21 -42 66 -71 121 -71s97 29 127 72l32 -16c-23 -63 -77 -129 -171 -129z" />
    <glyph glyph-name="Gdotaccent" unicode="&#x120;" horiz-adv-x="658" 
d="M33 268c0 237 171 412 388 412c72 0 131 -14 193 -54l-23 -148h-66l-4 132c-29 12 -60 17 -91 17c-165 0 -273 -167 -273 -353c0 -151 89 -238 204 -238c19 0 37 2 55 6l8 45c10 59 20 119 29 177l-94 13l8 47h284l-8 -47l-70 -9l-45 -241c-60 -27 -116 -43 -194 -43
c-186 0 -301 110 -301 284zM437 722c-34 0 -58 23 -58 61c0 41 32 73 68 73c35 0 58 -25 58 -61c0 -40 -33 -73 -68 -73z" />
    <glyph glyph-name="uni0122" unicode="&#x122;" horiz-adv-x="658" 
d="M33 268c0 237 171 412 388 412c72 0 131 -14 193 -54l-23 -148h-66l-4 132c-29 12 -60 17 -91 17c-165 0 -273 -167 -273 -353c0 -151 89 -238 204 -238c19 0 37 2 55 6l8 45c10 59 20 119 29 177l-94 13l8 47h284l-8 -47l-70 -9l-45 -241c-60 -27 -116 -43 -194 -43
c-186 0 -301 110 -301 284zM368 -112c0 -83 -41 -130 -121 -155l-13 34c36 15 53 28 65 47c-31 13 -44 36 -44 61c0 32 22 62 65 62c18 0 31 -6 43 -18c3 -11 5 -20 5 -31z" />
    <glyph glyph-name="Gcaron" unicode="&#x1e6;" horiz-adv-x="658" 
d="M33 268c0 237 171 412 388 412c72 0 131 -14 193 -54l-23 -148h-66l-4 132c-29 12 -60 17 -91 17c-165 0 -273 -167 -273 -353c0 -151 89 -238 204 -238c19 0 37 2 55 6l8 45c10 59 20 119 29 177l-94 13l8 47h284l-8 -47l-70 -9l-45 -241c-60 -27 -116 -43 -194 -43
c-186 0 -301 110 -301 284zM322 877l118 -94l144 95l21 -25l-140 -136h-67l-105 137z" />
    <glyph glyph-name="Gcircumflex" unicode="&#x11c;" horiz-adv-x="658" 
d="M33 268c0 237 171 412 388 412c72 0 131 -14 193 -54l-23 -148h-66l-4 132c-29 12 -60 17 -91 17c-165 0 -273 -167 -273 -353c0 -151 89 -238 204 -238c19 0 37 2 55 6l8 45c10 59 20 119 29 177l-94 13l8 47h284l-8 -47l-70 -9l-45 -241c-60 -27 -116 -43 -194 -43
c-186 0 -301 110 -301 284zM478 867l117 -137l-25 -26l-127 89l-153 -89l-16 27l157 136h47z" />
    <glyph glyph-name="uni1E20" unicode="&#x1e20;" horiz-adv-x="658" 
d="M33 268c0 237 171 412 388 412c72 0 131 -14 193 -54l-23 -148h-66l-4 132c-29 12 -60 17 -91 17c-165 0 -273 -167 -273 -353c0 -151 89 -238 204 -238c19 0 37 2 55 6l8 45c10 59 20 119 29 177l-94 13l8 47h284l-8 -47l-70 -9l-45 -241c-60 -27 -116 -43 -194 -43
c-186 0 -301 110 -301 284zM290 745l15 70h286l-16 -70h-285z" />
    <glyph glyph-name="uni00470303" horiz-adv-x="658" 
d="M33 268c0 237 171 412 388 412c72 0 131 -14 193 -54l-23 -148h-66l-4 132c-29 12 -60 17 -91 17c-165 0 -273 -167 -273 -353c0 -151 89 -238 204 -238c19 0 37 2 55 6l8 45c10 59 20 119 29 177l-94 13l8 47h284l-8 -47l-70 -9l-45 -241c-60 -27 -116 -43 -194 -43
c-186 0 -301 110 -301 284zM260 727c25 84 71 134 128 134c31 0 50 -14 70 -32c18 -15 33 -38 60 -38c29 0 54 27 75 70l31 -14c-26 -82 -70 -133 -126 -133c-32 0 -52 14 -70 29c-19 17 -35 40 -62 40c-29 0 -54 -26 -74 -68z" />
    <glyph glyph-name="Hbar" unicode="&#x126;" horiz-adv-x="759" 
d="M526 354c6 33 13 67 19 100h-273l-20 -108h273zM487 616l9 48h287l-9 -48l-83 -9l-19 -100h114l-10 -53h-114l-27 -144c-15 -84 -30 -169 -44 -253l85 -10l-10 -47h-287l10 47l81 9l45 238h-273c-15 -79 -29 -158 -42 -237l85 -10l-9 -47h-288l10 47l82 9l56 298
c6 33 12 67 18 100h-103l10 53h103c6 33 11 66 17 99l-85 10l10 48h287l-10 -48l-82 -9l-19 -100h272c6 33 11 66 17 99z" />
    <glyph glyph-name="uni1E2A" unicode="&#x1e2a;" horiz-adv-x="759" 
d="M487 616l9 48h287l-9 -48l-83 -9l-56 -297c-15 -84 -30 -169 -44 -253l85 -10l-10 -47h-287l10 47l81 9l49 258h-273l-1 -4c-16 -84 -31 -169 -45 -253l85 -10l-9 -47h-288l10 47l82 9l56 298c15 84 31 168 45 252l-85 10l10 48h287l-10 -48l-82 -9l-45 -241h272
c16 80 30 160 43 240zM294 -227c-99 0 -138 70 -141 149l38 15c18 -50 51 -87 109 -87c60 0 104 35 131 87l37 -12c-20 -70 -73 -152 -174 -152z" />
    <glyph glyph-name="Hcircumflex" unicode="&#x124;" horiz-adv-x="759" 
d="M487 616l9 48h287l-9 -48l-83 -9l-56 -297c-15 -84 -30 -169 -44 -253l85 -10l-10 -47h-287l10 47l81 9l49 258h-273l-1 -4c-16 -84 -31 -169 -45 -253l85 -10l-9 -47h-288l10 47l82 9l56 298c15 84 31 168 45 252l-85 10l10 48h287l-10 -48l-82 -9l-45 -241h272
c16 80 30 160 43 240zM497 867l117 -137l-25 -26l-127 89l-153 -89l-16 27l157 136h47z" />
    <glyph glyph-name="uni1E24" unicode="&#x1e24;" horiz-adv-x="759" 
d="M487 616l9 48h287l-9 -48l-83 -9l-56 -297c-15 -84 -30 -169 -44 -253l85 -10l-10 -47h-287l10 47l81 9l49 258h-273l-1 -4c-16 -84 -31 -169 -45 -253l85 -10l-9 -47h-288l10 47l82 9l56 298c15 84 31 168 45 252l-85 10l10 48h287l-10 -48l-82 -9l-45 -241h272
c16 80 30 160 43 240zM301 -202c-33 0 -58 23 -58 61c0 41 33 74 69 74c34 0 58 -25 58 -62c0 -40 -33 -73 -69 -73z" />
    <glyph glyph-name="Igrave" unicode="&#xcc;" horiz-adv-x="367" 
d="M96 616l10 48h287l-10 -48l-82 -9l-56 -297c-16 -84 -31 -169 -45 -253l85 -10l-10 -47h-288l10 47l83 9l56 298c15 84 30 168 44 252zM298 740l-20 -29c-47 20 -95 41 -142 64c-42 21 -53 43 -53 61c0 23 19 42 46 42c20 0 38 -10 68 -38c34 -32 68 -66 101 -100z" />
    <glyph glyph-name="Iacute" unicode="&#xcd;" horiz-adv-x="367" 
d="M96 616l10 48h287l-10 -48l-82 -9l-56 -297c-16 -84 -31 -169 -45 -253l85 -10l-10 -47h-288l10 47l83 9l56 298c15 84 30 168 44 252zM181 733c38 34 76 68 115 101c33 28 47 37 73 37c27 0 45 -18 45 -42c0 -19 -8 -40 -58 -61c-52 -21 -105 -42 -158 -63z" />
    <glyph glyph-name="Icircumflex" unicode="&#xce;" horiz-adv-x="367" 
d="M96 616l10 48h287l-10 -48l-82 -9l-56 -297c-16 -84 -31 -169 -45 -253l85 -10l-10 -47h-288l10 47l83 9l56 298c15 84 30 168 44 252zM308 867l117 -137l-25 -26l-127 89l-153 -89l-16 27l157 136h47z" />
    <glyph glyph-name="Idieresis" unicode="&#xcf;" horiz-adv-x="367" 
d="M177 732c-27 0 -53 19 -53 51c0 42 33 66 64 66c30 0 53 -21 53 -50c0 -41 -30 -67 -64 -67zM360 732c-26 0 -52 19 -52 51c0 42 32 66 63 66s54 -21 54 -50c0 -41 -31 -67 -65 -67zM96 616l10 48h287l-10 -48l-82 -9l-56 -297c-16 -84 -31 -169 -45 -253l85 -10l-10 -47
h-288l10 47l83 9l56 298c15 84 30 168 44 252z" />
    <glyph glyph-name="Imacron" unicode="&#x12a;" horiz-adv-x="367" 
d="M96 616l10 48h287l-10 -48l-82 -9l-56 -297c-16 -84 -31 -169 -45 -253l85 -10l-10 -47h-288l10 47l83 9l56 298c15 84 30 168 44 252zM120 745l15 70h286l-16 -70h-285z" />
    <glyph glyph-name="Idotaccent" unicode="&#x130;" horiz-adv-x="367" 
d="M96 616l10 48h287l-10 -48l-82 -9l-56 -297c-16 -84 -31 -169 -45 -253l85 -10l-10 -47h-288l10 47l83 9l56 298c15 84 30 168 44 252zM267 722c-34 0 -58 23 -58 61c0 41 32 73 68 73c35 0 58 -25 58 -61c0 -40 -33 -73 -68 -73z" />
    <glyph glyph-name="Iogonek" unicode="&#x12e;" horiz-adv-x="367" 
d="M96 616l10 48h287l-10 -48l-82 -9l-56 -297c-16 -84 -31 -169 -45 -253l85 -10l-10 -47h-117c-38 -43 -66 -86 -66 -130c0 -38 20 -53 49 -53c15 0 31 3 47 11l12 -28c-25 -20 -58 -37 -96 -37c-57 0 -89 30 -89 77c0 57 50 109 108 160h-136l10 47l83 9l56 298
c15 84 30 168 44 252z" />
    <glyph glyph-name="uni01CF" unicode="&#x1cf;" horiz-adv-x="367" 
d="M96 616l10 48h287l-10 -48l-82 -9l-56 -297c-16 -84 -31 -169 -45 -253l85 -10l-10 -47h-288l10 47l83 9l56 298c15 84 30 168 44 252zM152 877l118 -94l144 95l21 -25l-140 -136h-67l-105 137z" />
    <glyph glyph-name="uni1ECA" unicode="&#x1eca;" horiz-adv-x="367" 
d="M96 616l10 48h287l-10 -48l-82 -9l-56 -297c-16 -84 -31 -169 -45 -253l85 -10l-10 -47h-288l10 47l83 9l56 298c15 84 30 168 44 252zM102 -202c-33 0 -58 23 -58 61c0 41 33 74 69 74c34 0 58 -25 58 -62c0 -40 -33 -73 -69 -73z" />
    <glyph glyph-name="uni1EC8" unicode="&#x1ec8;" horiz-adv-x="367" 
d="M96 616l10 48h287l-10 -48l-82 -9l-56 -297c-16 -84 -31 -169 -45 -253l85 -10l-10 -47h-288l10 47l83 9l56 298c15 84 30 168 44 252zM251 713l-4 36c41 8 55 17 55 33c0 15 -21 24 -79 29l19 84c89 -8 125 -42 125 -88c0 -56 -48 -86 -116 -94z" />
    <glyph glyph-name="Itilde" unicode="&#x128;" horiz-adv-x="367" 
d="M96 616l10 48h287l-10 -48l-82 -9l-56 -297c-16 -84 -31 -169 -45 -253l85 -10l-10 -47h-288l10 47l83 9l56 298c15 84 30 168 44 252zM90 727c25 84 71 134 128 134c31 0 50 -14 70 -32c18 -15 33 -38 60 -38c29 0 54 27 75 70l31 -14c-26 -82 -70 -133 -126 -133
c-32 0 -52 14 -70 29c-19 17 -35 40 -62 40c-29 0 -54 -26 -74 -68z" />
    <glyph glyph-name="Jcircumflex" unicode="&#x134;" horiz-adv-x="359" 
d="M96 616l9 48h296l-9 -48l-84 -9l-75 -385c-21 -108 -36 -173 -63 -219c-47 -92 -121 -143 -192 -143c-49 0 -92 17 -99 57c5 34 35 54 72 54c25 0 46 -11 90 -48c24 30 39 76 50 133c13 70 22 130 44 263c14 85 33 178 52 287zM313 867l117 -137l-25 -26l-127 89
l-153 -89l-16 27l157 136h47z" />
    <glyph glyph-name="uni0136" unicode="&#x136;" horiz-adv-x="672" 
d="M474 616l9 48h222l-10 -48l-98 -13l-212 -198l184 -349l73 -9l-8 -47h-264l7 47l63 8l-139 271l-68 -64c-13 -68 -25 -137 -36 -205l77 -10l-10 -47h-278l10 47l81 9l56 298c15 84 30 168 44 252l-82 10l9 48h283l-10 -48l-79 -9l-52 -276l289 274zM348 -112
c0 -83 -41 -130 -121 -155l-13 34c36 15 53 28 65 47c-31 13 -44 36 -44 61c0 32 22 62 65 62c18 0 31 -6 43 -18c3 -11 5 -20 5 -31z" />
    <glyph glyph-name="Lacute" unicode="&#x139;" horiz-adv-x="567" 
d="M96 616l10 48h296l-9 -48l-92 -10l-56 -296c-17 -85 -32 -171 -45 -256h217l50 138h66l-41 -192h-505l10 47l83 10l56 297c15 84 30 168 44 252zM181 733c38 34 76 68 115 101c33 28 47 37 73 37c27 0 45 -18 45 -42c0 -19 -8 -40 -58 -61c-52 -21 -105 -42 -158 -63z
" />
    <glyph glyph-name="Lcaron" unicode="&#x13d;" horiz-adv-x="567" 
d="M96 616l10 48h296l-9 -48l-92 -10l-56 -296c-17 -85 -32 -171 -45 -256h217l50 138h66l-41 -192h-505l10 47l83 10l56 297c15 84 30 168 44 252zM558 703c32 0 40 -18 40 -34c0 -33 -28 -85 -53 -131l-39 -70l-39 4l45 221c17 7 29 10 46 10z" />
    <glyph glyph-name="uni013B" unicode="&#x13b;" horiz-adv-x="567" 
d="M296 -112c0 -83 -41 -130 -121 -155l-13 34c36 15 53 28 65 47c-31 13 -44 36 -44 61c0 32 22 62 65 62c18 0 31 -6 43 -18c3 -11 5 -20 5 -31zM-13 0l10 47l83 10l56 297c15 84 30 168 44 252l-84 10l10 48h296l-9 -48l-92 -10l-56 -296c-17 -85 -32 -171 -45 -256h217
l50 138h66l-41 -192h-505z" />
    <glyph glyph-name="Ldot" unicode="&#x13f;" horiz-adv-x="567" 
d="M96 616l10 48h296l-9 -48l-92 -10l-56 -296c-17 -85 -32 -171 -45 -256h217l50 138h66l-41 -192h-505l10 47l83 10l56 297c15 84 30 168 44 252zM474 291c-42 0 -71 30 -71 68c0 47 39 82 84 82c42 0 70 -31 70 -68c0 -47 -39 -82 -83 -82z" />
    <glyph glyph-name="uni1E36" unicode="&#x1e36;" horiz-adv-x="567" 
d="M96 616l10 48h296l-9 -48l-92 -10l-56 -296c-17 -85 -32 -171 -45 -256h217l50 138h66l-41 -192h-505l10 47l83 10l56 297c15 84 30 168 44 252zM229 -202c-33 0 -58 23 -58 61c0 41 33 74 69 74c34 0 58 -25 58 -62c0 -40 -33 -73 -69 -73z" />
    <glyph glyph-name="uni1E38" unicode="&#x1e38;" horiz-adv-x="567" 
d="M96 616l10 48h296l-9 -48l-92 -10l-56 -296c-17 -85 -32 -171 -45 -256h217l50 138h66l-41 -192h-505l10 47l83 10l56 297c15 84 30 168 44 252zM229 -202c-33 0 -58 23 -58 61c0 41 33 74 69 74c34 0 58 -25 58 -62c0 -40 -33 -73 -69 -73zM120 745l15 70h286l-16 -70
h-285z" />
    <glyph glyph-name="uni1E3A" unicode="&#x1e3a;" horiz-adv-x="567" 
d="M96 616l10 48h296l-9 -48l-92 -10l-56 -296c-17 -85 -32 -171 -45 -256h217l50 138h66l-41 -192h-505l10 47l83 10l56 297c15 84 30 168 44 252zM110 -175l15 70h240l-15 -70h-240z" />
    <glyph glyph-name="Lslash" unicode="&#x141;" horiz-adv-x="567" 
d="M96 616l10 48h296l-9 -48l-92 -10l-41 -215l165 83l-13 -69l-165 -82l-2 -13c-17 -85 -32 -171 -45 -256h217l50 138h66l-41 -192h-505l10 47l83 10l39 209l-108 -53l14 68l107 53l4 20c15 84 30 168 44 252z" />
    <glyph glyph-name="uni1E3E" unicode="&#x1e3e;" horiz-adv-x="917" 
d="M449 733c38 34 76 68 115 101c33 28 47 37 73 37c27 0 45 -18 45 -42c0 -19 -8 -40 -58 -61c-52 -21 -105 -42 -158 -63zM-30 0l9 47l94 14l129 546l-82 9l10 48h200l102 -497l291 497h199l-7 -48l-87 -10l-44 -294c-12 -85 -24 -170 -34 -254l83 -10l-8 -48h-283l8 48
l79 9l71 475l-309 -531h-40l-118 528l-50 -217l-59 -252l90 -13l-9 -47h-235z" />
    <glyph glyph-name="uni1E42" unicode="&#x1e42;" horiz-adv-x="917" 
d="M-30 0l9 47l94 14l129 546l-82 9l10 48h200l102 -497l291 497h199l-7 -48l-87 -10l-44 -294c-12 -85 -24 -170 -34 -254l83 -10l-8 -48h-283l8 48l79 9l71 475l-309 -531h-40l-118 528l-50 -217l-59 -252l90 -13l-9 -47h-235zM342 -202c-33 0 -58 23 -58 61
c0 41 33 74 69 74c34 0 58 -25 58 -62c0 -40 -33 -73 -69 -73z" />
    <glyph glyph-name="Nacute" unicode="&#x143;" horiz-adv-x="714" 
d="M505 616l10 48h245l-9 -48l-81 -13l-114 -609h-56l-284 532l-37 -197l-51 -269l104 -13l-8 -47h-243l9 47l82 12l104 545l-2 3l-83 9l9 48h180l256 -486l27 151l52 274zM348 733c38 34 76 68 115 101c33 28 47 37 73 37c27 0 45 -18 45 -42c0 -19 -8 -40 -58 -61
c-52 -21 -105 -42 -158 -63z" />
    <glyph glyph-name="Ncaron" unicode="&#x147;" horiz-adv-x="714" 
d="M505 616l10 48h245l-9 -48l-81 -13l-114 -609h-56l-284 532l-37 -197l-51 -269l104 -13l-8 -47h-243l9 47l82 12l104 545l-2 3l-83 9l9 48h180l256 -486l27 151l52 274zM319 877l118 -94l144 95l21 -25l-140 -136h-67l-105 137z" />
    <glyph glyph-name="uni01F8" unicode="&#x1f8;" horiz-adv-x="714" 
d="M505 616l10 48h245l-9 -48l-81 -13l-114 -609h-56l-284 532l-37 -197l-51 -269l104 -13l-8 -47h-243l9 47l82 12l104 545l-2 3l-83 9l9 48h180l256 -486l27 151l52 274zM465 740l-20 -29c-47 20 -95 41 -142 64c-42 21 -53 43 -53 61c0 23 19 42 46 42
c20 0 38 -10 68 -38c34 -32 68 -66 101 -100z" />
    <glyph glyph-name="Ntilde" unicode="&#xd1;" horiz-adv-x="714" 
d="M505 616l10 48h245l-9 -48l-81 -13l-114 -609h-56l-284 532l-37 -197l-51 -269l104 -13l-8 -47h-243l9 47l82 12l104 545l-2 3l-83 9l9 48h180l256 -486l27 151l52 274zM257 727c25 84 71 134 128 134c31 0 50 -14 70 -32c18 -15 33 -38 60 -38c29 0 54 27 75 70l31 -14
c-26 -82 -70 -133 -126 -133c-32 0 -52 14 -70 29c-19 17 -35 40 -62 40c-29 0 -54 -26 -74 -68z" />
    <glyph glyph-name="uni0145" unicode="&#x145;" horiz-adv-x="714" 
d="M505 616l10 48h245l-9 -48l-81 -13l-114 -609h-56l-284 532l-37 -197l-51 -269l104 -13l-8 -47h-243l9 47l82 12l104 545l-2 3l-83 9l9 48h180l256 -486l27 151l52 274zM358 -112c0 -83 -41 -130 -121 -155l-13 34c36 15 53 28 65 47c-31 13 -44 36 -44 61
c0 32 22 62 65 62c18 0 31 -6 43 -18c3 -11 5 -20 5 -31z" />
    <glyph glyph-name="uni1E44" unicode="&#x1e44;" horiz-adv-x="714" 
d="M505 616l10 48h245l-9 -48l-81 -13l-114 -609h-56l-284 532l-37 -197l-51 -269l104 -13l-8 -47h-243l9 47l82 12l104 545l-2 3l-83 9l9 48h180l256 -486l27 151l52 274zM434 722c-34 0 -58 23 -58 61c0 41 32 73 68 73c35 0 58 -25 58 -61c0 -40 -33 -73 -68 -73z" />
    <glyph glyph-name="uni1E46" unicode="&#x1e46;" horiz-adv-x="714" 
d="M505 616l10 48h245l-9 -48l-81 -13l-114 -609h-56l-284 532l-37 -197l-51 -269l104 -13l-8 -47h-243l9 47l82 12l104 545l-2 3l-83 9l9 48h180l256 -486l27 151l52 274zM291 -202c-33 0 -58 23 -58 61c0 41 33 74 69 74c34 0 58 -25 58 -62c0 -40 -33 -73 -69 -73z" />
    <glyph glyph-name="uni1E48" unicode="&#x1e48;" horiz-adv-x="714" 
d="M505 616l10 48h245l-9 -48l-81 -13l-114 -609h-56l-284 532l-37 -197l-51 -269l104 -13l-8 -47h-243l9 47l82 12l104 545l-2 3l-83 9l9 48h180l256 -486l27 151l52 274zM172 -175l15 70h240l-15 -70h-240z" />
    <glyph glyph-name="Ograve" unicode="&#xd2;" horiz-adv-x="664" 
d="M283 -17c-145 0 -246 98 -246 275c0 225 141 422 361 422c149 0 247 -106 247 -275c0 -227 -140 -422 -362 -422zM296 37c131 0 227 172 227 385c0 129 -39 205 -136 205c-131 0 -229 -171 -229 -384c0 -129 43 -206 138 -206zM442 740l-20 -29c-47 20 -95 41 -142 64
c-42 21 -53 43 -53 61c0 23 19 42 46 42c20 0 38 -10 68 -38c34 -32 68 -66 101 -100z" />
    <glyph glyph-name="Oacute" unicode="&#xd3;" horiz-adv-x="664" 
d="M283 -17c-145 0 -246 98 -246 275c0 225 141 422 361 422c149 0 247 -106 247 -275c0 -227 -140 -422 -362 -422zM296 37c131 0 227 172 227 385c0 129 -39 205 -136 205c-131 0 -229 -171 -229 -384c0 -129 43 -206 138 -206zM325 733c38 34 76 68 115 101
c33 28 47 37 73 37c27 0 45 -18 45 -42c0 -19 -8 -40 -58 -61c-52 -21 -105 -42 -158 -63z" />
    <glyph glyph-name="uni014E" unicode="&#x14e;" horiz-adv-x="664" 
d="M283 -17c-145 0 -246 98 -246 275c0 225 141 422 361 422c149 0 247 -106 247 -275c0 -227 -140 -422 -362 -422zM296 37c131 0 227 172 227 385c0 129 -39 205 -136 205c-131 0 -229 -171 -229 -384c0 -129 43 -206 138 -206zM398 719c-77 0 -127 52 -141 129l32 15
c21 -42 66 -71 121 -71s97 29 127 72l32 -16c-23 -63 -77 -129 -171 -129z" />
    <glyph glyph-name="Ocircumflex" unicode="&#xd4;" horiz-adv-x="664" 
d="M296 37c131 0 227 172 227 385c0 129 -39 205 -136 205c-131 0 -229 -171 -229 -384c0 -129 43 -206 138 -206zM283 -17c-145 0 -246 98 -246 275c0 225 141 422 361 422c149 0 247 -106 247 -275c0 -227 -140 -422 -362 -422zM452 867l117 -137l-25 -26l-127 89
l-153 -89l-16 27l157 136h47z" />
    <glyph glyph-name="Otilde" unicode="&#xd5;" horiz-adv-x="664" 
d="M283 -17c-145 0 -246 98 -246 275c0 225 141 422 361 422c149 0 247 -106 247 -275c0 -227 -140 -422 -362 -422zM296 37c131 0 227 172 227 385c0 129 -39 205 -136 205c-131 0 -229 -171 -229 -384c0 -129 43 -206 138 -206zM234 727c25 84 71 134 128 134
c31 0 50 -14 70 -32c18 -15 33 -38 60 -38c29 0 54 27 75 70l31 -14c-26 -82 -70 -133 -126 -133c-32 0 -52 14 -70 29c-19 17 -35 40 -62 40c-29 0 -54 -26 -74 -68z" />
    <glyph glyph-name="Odieresis" unicode="&#xd6;" horiz-adv-x="664" 
d="M283 -17c-145 0 -246 98 -246 275c0 225 141 422 361 422c149 0 247 -106 247 -275c0 -227 -140 -422 -362 -422zM296 37c131 0 227 172 227 385c0 129 -39 205 -136 205c-131 0 -229 -171 -229 -384c0 -129 43 -206 138 -206zM294 732c-27 0 -54 19 -54 51
c0 42 34 66 65 66c30 0 53 -21 53 -50c0 -41 -31 -67 -64 -67zM519 732c-26 0 -52 19 -52 51c0 42 32 66 63 66s54 -21 54 -50c0 -41 -31 -67 -65 -67z" />
    <glyph glyph-name="Omacron" unicode="&#x14c;" horiz-adv-x="664" 
d="M283 -17c-145 0 -246 98 -246 275c0 225 141 422 361 422c149 0 247 -106 247 -275c0 -227 -140 -422 -362 -422zM296 37c131 0 227 172 227 385c0 129 -39 205 -136 205c-131 0 -229 -171 -229 -384c0 -129 43 -206 138 -206zM264 745l15 70h286l-16 -70h-285z" />
    <glyph glyph-name="Ohungarumlaut" unicode="&#x150;" horiz-adv-x="664" 
d="M283 -17c-145 0 -246 98 -246 275c0 225 141 422 361 422c149 0 247 -106 247 -275c0 -227 -140 -422 -362 -422zM296 37c131 0 227 172 227 385c0 129 -39 205 -136 205c-131 0 -229 -171 -229 -384c0 -129 43 -206 138 -206zM279 731l78 119c18 27 38 38 57 38
c23 0 40 -11 40 -32c0 -20 -8 -34 -30 -52l-116 -96zM448 731l78 119c18 27 38 38 57 38c22 0 40 -11 40 -32c0 -20 -9 -34 -31 -52l-116 -96z" />
    <glyph glyph-name="uni01D1" unicode="&#x1d1;" horiz-adv-x="664" 
d="M296 37c131 0 227 172 227 385c0 129 -39 205 -136 205c-131 0 -229 -171 -229 -384c0 -129 43 -206 138 -206zM283 -17c-145 0 -246 98 -246 275c0 225 141 422 361 422c149 0 247 -106 247 -275c0 -227 -140 -422 -362 -422zM296 877l118 -94l144 95l21 -25l-140 -136
h-67l-105 137z" />
    <glyph glyph-name="uni1ED0" unicode="&#x1ed0;" horiz-adv-x="664" 
d="M296 37c131 0 227 172 227 385c0 129 -39 205 -136 205c-131 0 -229 -171 -229 -384c0 -129 43 -206 138 -206zM283 -17c-145 0 -246 98 -246 275c0 225 141 422 361 422c149 0 247 -106 247 -275c0 -227 -140 -422 -362 -422zM532 794l-26 29l51 70c23 31 40 39 59 39
c22 0 39 -16 39 -41c0 -17 -12 -36 -40 -51zM265 700l-18 27l153 136h47l117 -137l-25 -26l-125 86z" />
    <glyph glyph-name="uni1ED8" unicode="&#x1ed8;" horiz-adv-x="664" 
d="M262 -202c-33 0 -58 23 -58 61c0 41 33 74 69 74c34 0 58 -25 58 -62c0 -40 -33 -73 -69 -73zM296 37c131 0 227 172 227 385c0 129 -39 205 -136 205c-131 0 -229 -171 -229 -384c0 -129 43 -206 138 -206zM283 -17c-145 0 -246 98 -246 275c0 225 141 422 361 422
c149 0 247 -106 247 -275c0 -227 -140 -422 -362 -422zM452 867l117 -137l-25 -26l-127 89l-153 -89l-16 27l157 136h47z" />
    <glyph glyph-name="uni1ED2" unicode="&#x1ed2;" horiz-adv-x="664" 
d="M296 37c131 0 227 172 227 385c0 129 -39 205 -136 205c-131 0 -229 -171 -229 -384c0 -129 43 -206 138 -206zM283 -17c-145 0 -246 98 -246 275c0 225 141 422 361 422c149 0 247 -106 247 -275c0 -227 -140 -422 -362 -422zM304 804l-49 24c-44 23 -53 40 -53 59
c0 20 18 38 41 38c20 0 39 -9 57 -41l33 -52zM265 700l-18 27l153 136h47l117 -137l-25 -26l-125 86z" />
    <glyph glyph-name="uni1ED4" unicode="&#x1ed4;" horiz-adv-x="664" 
d="M296 37c131 0 227 172 227 385c0 129 -39 205 -136 205c-131 0 -229 -171 -229 -384c0 -129 43 -206 138 -206zM283 -17c-145 0 -246 98 -246 275c0 225 141 422 361 422c149 0 247 -106 247 -275c0 -227 -140 -422 -362 -422zM265 700l-18 27l153 136h47l117 -137
l-25 -26l-125 86zM536 789l-5 37c38 8 51 17 51 31c0 18 -19 27 -71 32l18 83c81 -8 112 -39 112 -93c0 -49 -44 -81 -105 -90z" />
    <glyph glyph-name="uni1ED6" unicode="&#x1ed6;" horiz-adv-x="664" 
d="M296 37c131 0 227 172 227 385c0 129 -39 205 -136 205c-131 0 -229 -171 -229 -384c0 -129 43 -206 138 -206zM283 -17c-145 0 -246 98 -246 275c0 225 141 422 361 422c149 0 247 -106 247 -275c0 -227 -140 -422 -362 -422zM265 700l-18 27l153 132h47l117 -133
l-25 -26l-125 83zM290 860l-30 12c12 60 50 99 105 99c32 0 50 -11 70 -23c23 -13 41 -24 65 -24c27 0 46 14 61 48l30 -13c-12 -63 -46 -98 -99 -98c-31 0 -53 11 -71 23c-22 13 -43 24 -68 24c-28 0 -48 -16 -63 -48z" />
    <glyph glyph-name="uni1ECC" unicode="&#x1ecc;" horiz-adv-x="664" 
d="M283 -17c-145 0 -246 98 -246 275c0 225 141 422 361 422c149 0 247 -106 247 -275c0 -227 -140 -422 -362 -422zM296 37c131 0 227 172 227 385c0 129 -39 205 -136 205c-131 0 -229 -171 -229 -384c0 -129 43 -206 138 -206zM262 -202c-33 0 -58 23 -58 61
c0 41 33 74 69 74c34 0 58 -25 58 -62c0 -40 -33 -73 -69 -73z" />
    <glyph glyph-name="uni1ECE" unicode="&#x1ece;" horiz-adv-x="664" 
d="M283 -17c-145 0 -246 98 -246 275c0 225 141 422 361 422c149 0 247 -106 247 -275c0 -227 -140 -422 -362 -422zM296 37c131 0 227 172 227 385c0 129 -39 205 -136 205c-131 0 -229 -171 -229 -384c0 -129 43 -206 138 -206zM395 713l-4 36c41 8 55 17 55 33
c0 15 -21 24 -79 29l19 84c89 -8 125 -42 125 -88c0 -56 -48 -86 -116 -94z" />
    <glyph glyph-name="Ohorn" unicode="&#x1a0;" horiz-adv-x="664" 
d="M296 37c131 0 227 172 227 385c0 129 -39 205 -136 205c-131 0 -229 -171 -229 -384c0 -129 43 -206 138 -206zM283 -17c-145 0 -246 98 -246 275c0 225 141 422 361 422c73 0 133 -25 176 -71c33 13 55 38 55 69c0 28 -17 46 -17 71c0 30 22 52 52 52c14 0 24 -3 37 -14
c4 -15 5 -26 5 -39c0 -73 -49 -139 -109 -167c31 -45 48 -105 48 -176c0 -227 -140 -422 -362 -422z" />
    <glyph glyph-name="uni1EDA" unicode="&#x1eda;" horiz-adv-x="664" 
d="M296 37c131 0 227 172 227 385c0 129 -39 205 -136 205c-131 0 -229 -171 -229 -384c0 -129 43 -206 138 -206zM283 -17c-145 0 -246 98 -246 275c0 225 141 422 361 422c73 0 133 -25 176 -71c33 13 55 38 55 69c0 28 -17 46 -17 71c0 30 22 52 52 52c14 0 24 -3 37 -14
c4 -15 5 -26 5 -39c0 -73 -49 -139 -109 -167c31 -45 48 -105 48 -176c0 -227 -140 -422 -362 -422zM325 733c38 34 76 68 115 101c33 28 47 37 73 37c27 0 45 -18 45 -42c0 -19 -8 -40 -58 -61c-52 -21 -105 -42 -158 -63z" />
    <glyph glyph-name="uni1EE2" unicode="&#x1ee2;" horiz-adv-x="664" 
d="M262 -202c-33 0 -58 23 -58 61c0 41 33 74 69 74c34 0 58 -25 58 -62c0 -40 -33 -73 -69 -73zM296 37c131 0 227 172 227 385c0 129 -39 205 -136 205c-131 0 -229 -171 -229 -384c0 -129 43 -206 138 -206zM283 -17c-145 0 -246 98 -246 275c0 225 141 422 361 422
c73 0 133 -25 176 -71c33 13 55 38 55 69c0 28 -17 46 -17 71c0 30 22 52 52 52c14 0 24 -3 37 -14c4 -15 5 -26 5 -39c0 -73 -49 -139 -109 -167c31 -45 48 -105 48 -176c0 -227 -140 -422 -362 -422z" />
    <glyph glyph-name="uni1EDC" unicode="&#x1edc;" horiz-adv-x="664" 
d="M296 37c131 0 227 172 227 385c0 129 -39 205 -136 205c-131 0 -229 -171 -229 -384c0 -129 43 -206 138 -206zM283 -17c-145 0 -246 98 -246 275c0 225 141 422 361 422c73 0 133 -25 176 -71c33 13 55 38 55 69c0 28 -17 46 -17 71c0 30 22 52 52 52c14 0 24 -3 37 -14
c4 -15 5 -26 5 -39c0 -73 -49 -139 -109 -167c31 -45 48 -105 48 -176c0 -227 -140 -422 -362 -422zM442 740l-20 -29c-47 20 -95 41 -142 64c-42 21 -53 43 -53 61c0 23 19 42 46 42c20 0 38 -10 68 -38c34 -32 68 -66 101 -100z" />
    <glyph glyph-name="uni1EDE" unicode="&#x1ede;" horiz-adv-x="664" 
d="M296 37c131 0 227 172 227 385c0 129 -39 205 -136 205c-131 0 -229 -171 -229 -384c0 -129 43 -206 138 -206zM283 -17c-145 0 -246 98 -246 275c0 225 141 422 361 422c73 0 133 -25 176 -71c33 13 55 38 55 69c0 28 -17 46 -17 71c0 30 22 52 52 52c14 0 24 -3 37 -14
c4 -15 5 -26 5 -39c0 -73 -49 -139 -109 -167c31 -45 48 -105 48 -176c0 -227 -140 -422 -362 -422zM395 713l-4 36c41 8 55 17 55 33c0 15 -21 24 -79 29l19 84c89 -8 125 -42 125 -88c0 -56 -48 -86 -116 -94z" />
    <glyph glyph-name="uni1EE0" unicode="&#x1ee0;" horiz-adv-x="664" 
d="M296 37c131 0 227 172 227 385c0 129 -39 205 -136 205c-131 0 -229 -171 -229 -384c0 -129 43 -206 138 -206zM283 -17c-145 0 -246 98 -246 275c0 225 141 422 361 422c73 0 133 -25 176 -71c33 13 55 38 55 69c0 28 -17 46 -17 71c0 30 22 52 52 52c14 0 24 -3 37 -14
c4 -15 5 -26 5 -39c0 -73 -49 -139 -109 -167c31 -45 48 -105 48 -176c0 -227 -140 -422 -362 -422zM234 727c25 84 71 134 128 134c31 0 50 -14 70 -32c18 -15 33 -38 60 -38c29 0 54 27 75 70l31 -14c-26 -82 -70 -133 -126 -133c-32 0 -52 14 -70 29
c-19 17 -35 40 -62 40c-29 0 -54 -26 -74 -68z" />
    <glyph glyph-name="Oslash" unicode="&#xd8;" horiz-adv-x="664" 
d="M674 651l-73 -77c28 -45 44 -102 44 -169c0 -227 -146 -422 -364 -422c-71 0 -132 24 -175 71l-77 -81l-43 40l85 90c-22 41 -34 93 -34 155c0 225 148 422 363 422c66 0 122 -22 163 -60l68 71zM153 245c0 -19 1 -37 3 -54l350 368c-22 47 -60 68 -116 68
c-130 0 -237 -171 -237 -382zM292 36c131 0 237 175 237 385c0 27 -2 51 -5 73l-354 -373c21 -58 62 -85 122 -85z" />
    <glyph glyph-name="OE" unicode="&#x152;" horiz-adv-x="888" 
d="M160 253c0 -143 70 -216 171 -216c14 0 30 1 46 4l59 313c17 89 33 179 48 269c-16 3 -32 4 -50 4c-159 0 -274 -161 -274 -374zM429 0c-40 -10 -72 -17 -118 -17c-160 0 -274 92 -274 279c0 219 162 418 395 418c44 0 81 -6 122 -16h326l-25 -176h-65l2 122h-190
l-46 -244h133l31 88h48l-42 -230h-49l3 90h-134l-1 -4c-16 -85 -31 -171 -45 -257h229l44 122h65l-40 -175h-369z" />
    <glyph glyph-name="Racute" unicode="&#x154;" horiz-adv-x="657" 
d="M96 616l10 48h289c127 0 201 -59 201 -156c0 -86 -58 -162 -199 -186c60 -22 78 -64 100 -142l38 -122l92 -11l-8 -47c-33 -8 -52 -12 -91 -12c-69 0 -105 22 -120 87l-38 136c-20 73 -39 95 -96 95h-30c-16 -83 -31 -166 -44 -249l87 -10l-9 -47h-291l10 47l83 9l56 298
c15 84 30 168 44 252zM365 611h-63l-48 -254l54 1c122 1 168 68 168 153c0 65 -39 100 -111 100zM287 733c38 34 76 68 115 101c33 28 47 37 73 37c27 0 45 -18 45 -42c0 -19 -8 -40 -58 -61c-52 -21 -105 -42 -158 -63z" />
    <glyph glyph-name="Rcaron" unicode="&#x158;" horiz-adv-x="657" 
d="M96 616l10 48h289c127 0 201 -59 201 -156c0 -86 -58 -162 -199 -186c60 -22 78 -64 100 -142l38 -122l92 -11l-8 -47c-33 -8 -52 -12 -91 -12c-69 0 -105 22 -120 87l-38 136c-20 73 -39 95 -96 95h-30c-16 -83 -31 -166 -44 -249l87 -10l-9 -47h-291l10 47l83 9l56 298
c15 84 30 168 44 252zM365 611h-63l-48 -254l54 1c122 1 168 68 168 153c0 65 -39 100 -111 100zM258 877l118 -94l144 95l21 -25l-140 -136h-67l-105 137z" />
    <glyph glyph-name="uni0156" unicode="&#x156;" horiz-adv-x="657" 
d="M96 616l10 48h289c127 0 201 -59 201 -156c0 -86 -58 -162 -199 -186c60 -22 78 -64 100 -142l38 -122l92 -11l-8 -47c-33 -8 -52 -12 -91 -12c-69 0 -105 22 -120 87l-38 136c-20 73 -39 95 -96 95h-30c-16 -83 -31 -166 -44 -249l87 -10l-9 -47h-291l10 47l83 9l56 298
c15 84 30 168 44 252zM365 611h-63l-48 -254l54 1c122 1 168 68 168 153c0 65 -39 100 -111 100zM361 -112c0 -83 -41 -130 -121 -155l-13 34c36 15 53 28 65 47c-31 13 -44 36 -44 61c0 32 22 62 65 62c18 0 31 -6 43 -18c3 -11 5 -20 5 -31z" />
    <glyph glyph-name="uni1E5A" unicode="&#x1e5a;" horiz-adv-x="657" 
d="M96 616l10 48h289c127 0 201 -59 201 -156c0 -86 -58 -162 -199 -186c60 -22 78 -64 100 -142l38 -122l92 -11l-8 -47c-33 -8 -52 -12 -91 -12c-69 0 -105 22 -120 87l-38 136c-20 73 -39 95 -96 95h-30c-16 -83 -31 -166 -44 -249l87 -10l-9 -47h-291l10 47l83 9l56 298
c15 84 30 168 44 252zM365 611h-63l-48 -254l54 1c122 1 168 68 168 153c0 65 -39 100 -111 100zM294 -202c-33 0 -58 23 -58 61c0 41 33 74 69 74c34 0 58 -25 58 -62c0 -40 -33 -73 -69 -73z" />
    <glyph glyph-name="uni1E5C" unicode="&#x1e5c;" horiz-adv-x="657" 
d="M96 616l10 48h289c127 0 201 -59 201 -156c0 -86 -58 -162 -199 -186c60 -22 78 -64 100 -142l38 -122l92 -11l-8 -47c-33 -8 -52 -12 -91 -12c-69 0 -105 22 -120 87l-38 136c-20 73 -39 95 -96 95h-30c-16 -83 -31 -166 -44 -249l87 -10l-9 -47h-291l10 47l83 9l56 298
c15 84 30 168 44 252zM294 -202c-33 0 -58 23 -58 61c0 41 33 74 69 74c34 0 58 -25 58 -62c0 -40 -33 -73 -69 -73zM365 611h-63l-48 -254l54 1c122 1 168 68 168 153c0 65 -39 100 -111 100zM226 745l15 70h286l-16 -70h-285z" />
    <glyph glyph-name="uni1E5E" unicode="&#x1e5e;" horiz-adv-x="657" 
d="M96 616l10 48h289c127 0 201 -59 201 -156c0 -86 -58 -162 -199 -186c60 -22 78 -64 100 -142l38 -122l92 -11l-8 -47c-33 -8 -52 -12 -91 -12c-69 0 -105 22 -120 87l-38 136c-20 73 -39 95 -96 95h-30c-16 -83 -31 -166 -44 -249l87 -10l-9 -47h-291l10 47l83 9l56 298
c15 84 30 168 44 252zM365 611h-63l-48 -254l54 1c122 1 168 68 168 153c0 65 -39 100 -111 100zM175 -175l15 70h240l-15 -70h-240z" />
    <glyph glyph-name="Sacute" unicode="&#x15a;" horiz-adv-x="497" 
d="M10 31l17 145h71l12 -127c26 -7 53 -11 78 -11c87 0 133 43 133 108c0 41 -14 76 -99 139c-104 77 -132 138 -132 203c0 114 96 192 230 192c61 0 125 -15 176 -48l-20 -140h-73l-8 123c-21 8 -40 11 -60 11c-84 0 -137 -37 -137 -103c0 -47 24 -83 97 -136
c109 -80 139 -135 139 -204c0 -122 -99 -200 -240 -200c-66 0 -139 18 -184 48zM253 733c38 34 76 68 115 101c33 28 47 37 73 37c27 0 45 -18 45 -42c0 -19 -8 -40 -58 -61c-52 -21 -105 -42 -158 -63z" />
    <glyph glyph-name="Scaron" unicode="&#x160;" horiz-adv-x="497" 
d="M10 31l17 145h71l12 -127c26 -7 53 -11 78 -11c87 0 133 43 133 108c0 41 -14 76 -99 139c-104 77 -132 138 -132 203c0 114 96 192 230 192c61 0 125 -15 176 -48l-20 -140h-73l-8 123c-21 8 -40 11 -60 11c-84 0 -137 -37 -137 -103c0 -47 24 -83 97 -136
c109 -80 139 -135 139 -204c0 -122 -99 -200 -240 -200c-66 0 -139 18 -184 48zM224 877l118 -94l144 95l21 -25l-140 -136h-67l-105 137z" />
    <glyph glyph-name="uni015E" unicode="&#x15e;" horiz-adv-x="497" 
d="M10 31l17 145h71l12 -127c26 -7 53 -11 78 -11c87 0 133 43 133 108c0 41 -14 76 -99 139c-104 77 -132 138 -132 203c0 114 96 192 230 192c61 0 125 -15 176 -48l-20 -140h-73l-8 123c-21 8 -40 11 -60 11c-84 0 -137 -37 -137 -103c0 -47 24 -83 97 -136
c109 -80 139 -135 139 -204c0 -116 -90 -192 -220 -199l-24 -49c63 -22 92 -45 92 -88c0 -42 -40 -78 -109 -78c-36 0 -70 10 -91 23l15 31c20 -9 40 -14 62 -14c33 0 55 16 55 44c0 33 -27 49 -71 59l36 71c-62 3 -127 20 -169 48z" />
    <glyph glyph-name="uni0218" unicode="&#x218;" horiz-adv-x="497" 
d="M10 31l17 145h71l12 -127c26 -7 53 -11 78 -11c87 0 133 43 133 108c0 41 -14 76 -99 139c-104 77 -132 138 -132 203c0 114 96 192 230 192c61 0 125 -15 176 -48l-20 -140h-73l-8 123c-21 8 -40 11 -60 11c-84 0 -137 -37 -137 -103c0 -47 24 -83 97 -136
c109 -80 139 -135 139 -204c0 -122 -99 -200 -240 -200c-66 0 -139 18 -184 48zM242 -112c0 -83 -41 -130 -121 -155l-13 34c36 15 53 28 65 47c-31 13 -44 36 -44 61c0 32 22 62 65 62c18 0 31 -6 43 -18c3 -11 5 -20 5 -31z" />
    <glyph glyph-name="Scircumflex" unicode="&#x15c;" horiz-adv-x="497" 
d="M10 31l17 145h71l12 -127c26 -7 53 -11 78 -11c87 0 133 43 133 108c0 41 -14 76 -99 139c-104 77 -132 138 -132 203c0 114 96 192 230 192c61 0 125 -15 176 -48l-20 -140h-73l-8 123c-21 8 -40 11 -60 11c-84 0 -137 -37 -137 -103c0 -47 24 -83 97 -136
c109 -80 139 -135 139 -204c0 -122 -99 -200 -240 -200c-66 0 -139 18 -184 48zM380 867l117 -137l-25 -26l-127 89l-153 -89l-16 27l157 136h47z" />
    <glyph glyph-name="uni1E60" unicode="&#x1e60;" horiz-adv-x="497" 
d="M10 31l17 145h71l12 -127c26 -7 53 -11 78 -11c87 0 133 43 133 108c0 41 -14 76 -99 139c-104 77 -132 138 -132 203c0 114 96 192 230 192c61 0 125 -15 176 -48l-20 -140h-73l-8 123c-21 8 -40 11 -60 11c-84 0 -137 -37 -137 -103c0 -47 24 -83 97 -136
c109 -80 139 -135 139 -204c0 -122 -99 -200 -240 -200c-66 0 -139 18 -184 48zM339 722c-34 0 -58 23 -58 61c0 41 32 73 68 73c35 0 58 -25 58 -61c0 -40 -33 -73 -68 -73z" />
    <glyph glyph-name="uni1E62" unicode="&#x1e62;" horiz-adv-x="497" 
d="M10 31l17 145h71l12 -127c26 -7 53 -11 78 -11c87 0 133 43 133 108c0 41 -14 76 -99 139c-104 77 -132 138 -132 203c0 114 96 192 230 192c61 0 125 -15 176 -48l-20 -140h-73l-8 123c-21 8 -40 11 -60 11c-84 0 -137 -37 -137 -103c0 -47 24 -83 97 -136
c109 -80 139 -135 139 -204c0 -122 -99 -200 -240 -200c-66 0 -139 18 -184 48zM175 -202c-33 0 -58 23 -58 61c0 41 33 74 69 74c34 0 58 -25 58 -62c0 -40 -33 -73 -69 -73z" />
    <glyph glyph-name="uni1E9E" unicode="&#x1e9e;" horiz-adv-x="707" 
d="M-18 0l9 47l83 9l66 356c35 186 141 268 316 268c60 0 135 -15 184 -46l-5 -34c-72 -27 -110 -69 -110 -120s19 -76 70 -137c48 -59 71 -104 71 -169c0 -110 -80 -191 -214 -191c-58 0 -110 14 -153 46l11 147h69l15 -128c18 -7 36 -10 55 -10c62 0 102 42 102 100
c0 47 -14 73 -63 131c-42 50 -71 96 -71 162c0 77 51 142 146 179c-30 10 -59 16 -92 16c-113 0 -180 -55 -209 -202l-25 -125c-17 -91 -36 -195 -52 -299h-203z" />
    <glyph glyph-name="Tcaron" unicode="&#x164;" horiz-adv-x="588" 
d="M55 481l37 183h542l-31 -183h-64l3 129h-127l-57 -300c-15 -84 -31 -168 -45 -253l94 -10l-9 -47h-307l10 47l93 10l55 297c16 85 31 171 45 256h-130l-44 -129h-65zM262 877l118 -94l144 95l21 -25l-140 -136h-67l-105 137z" />
    <glyph glyph-name="uni0162" unicode="&#x162;" horiz-adv-x="588" 
d="M55 481l37 183h542l-31 -183h-64l3 129h-127l-57 -300c-15 -84 -31 -168 -45 -253l94 -10l-9 -47h-130l-32 -65c63 -22 92 -45 92 -88c0 -42 -40 -78 -109 -78c-36 0 -70 10 -91 23l15 31c20 -9 40 -14 62 -14c33 0 55 16 55 44c0 33 -27 49 -71 59l44 88h-142l10 47
l93 10l55 297c16 85 31 171 45 256h-130l-44 -129h-65z" />
    <glyph glyph-name="uni021A" unicode="&#x21a;" horiz-adv-x="588" 
d="M55 481l37 183h542l-31 -183h-64l3 129h-127l-57 -300c-15 -84 -31 -168 -45 -253l94 -10l-9 -47h-307l10 47l93 10l55 297c16 85 31 171 45 256h-130l-44 -129h-65zM285 -112c0 -83 -41 -130 -121 -155l-13 34c36 15 53 28 65 47c-31 13 -44 36 -44 61c0 32 22 62 65 62
c18 0 31 -6 43 -18c3 -11 5 -20 5 -31z" />
    <glyph glyph-name="uni1E6C" unicode="&#x1e6c;" horiz-adv-x="588" 
d="M55 481l37 183h542l-31 -183h-64l3 129h-127l-57 -300c-15 -84 -31 -168 -45 -253l94 -10l-9 -47h-307l10 47l93 10l55 297c16 85 31 171 45 256h-130l-44 -129h-65zM218 -202c-33 0 -58 23 -58 61c0 41 33 74 69 74c34 0 58 -25 58 -62c0 -40 -33 -73 -69 -73z" />
    <glyph glyph-name="uni1E6E" unicode="&#x1e6e;" horiz-adv-x="588" 
d="M55 481l37 183h542l-31 -183h-64l3 129h-127l-57 -300c-15 -84 -31 -168 -45 -253l94 -10l-9 -47h-307l10 47l93 10l55 297c16 85 31 171 45 256h-130l-44 -129h-65zM99 -175l15 70h240l-15 -70h-240z" />
    <glyph glyph-name="Ugrave" unicode="&#xd9;" horiz-adv-x="699" 
d="M309 -17c-139 0 -220 67 -220 197c0 31 5 64 12 98l14 81c15 81 30 164 44 248l-82 9l9 48h288l-9 -48l-82 -9l-60 -325c-6 -30 -11 -56 -11 -96c0 -80 51 -125 127 -125c113 0 168 53 200 222l61 323l-95 10l9 48h237l-9 -48l-83 -10l-63 -337
c-39 -206 -141 -286 -287 -286zM490 740l-20 -29c-47 20 -95 41 -142 64c-42 21 -53 43 -53 61c0 23 19 42 46 42c20 0 38 -10 68 -38c34 -32 68 -66 101 -100z" />
    <glyph glyph-name="Uacute" unicode="&#xda;" horiz-adv-x="699" 
d="M309 -17c-139 0 -220 67 -220 197c0 31 5 64 12 98l14 81c15 81 30 164 44 248l-82 9l9 48h288l-9 -48l-82 -9l-60 -325c-6 -30 -11 -56 -11 -96c0 -80 51 -125 127 -125c113 0 168 53 200 222l61 323l-95 10l9 48h237l-9 -48l-83 -10l-63 -337
c-39 -206 -141 -286 -287 -286zM373 733c38 34 76 68 115 101c33 28 47 37 73 37c27 0 45 -18 45 -42c0 -19 -8 -40 -58 -61c-52 -21 -105 -42 -158 -63z" />
    <glyph glyph-name="Ucircumflex" unicode="&#xdb;" horiz-adv-x="699" 
d="M309 -17c-139 0 -220 67 -220 197c0 31 5 64 12 98l14 81c15 81 30 164 44 248l-82 9l9 48h288l-9 -48l-82 -9l-60 -325c-6 -30 -11 -56 -11 -96c0 -80 51 -125 127 -125c113 0 168 53 200 222l61 323l-95 10l9 48h237l-9 -48l-83 -10l-63 -337
c-39 -206 -141 -286 -287 -286zM500 867l117 -137l-25 -26l-127 89l-153 -89l-16 27l157 136h47z" />
    <glyph glyph-name="Udieresis" unicode="&#xdc;" horiz-adv-x="699" 
d="M309 -17c-139 0 -220 67 -220 197c0 31 5 64 12 98l14 81c15 81 30 164 44 248l-82 9l9 48h288l-9 -48l-82 -9l-60 -325c-6 -30 -11 -56 -11 -96c0 -80 51 -125 127 -125c113 0 168 53 200 222l61 323l-95 10l9 48h237l-9 -48l-83 -10l-63 -337
c-39 -206 -141 -286 -287 -286zM342 732c-27 0 -54 19 -54 51c0 42 34 66 65 66c30 0 53 -21 53 -50c0 -41 -31 -67 -64 -67zM567 732c-26 0 -52 19 -52 51c0 42 32 66 63 66s54 -21 54 -50c0 -41 -31 -67 -65 -67z" />
    <glyph glyph-name="Umacron" unicode="&#x16a;" horiz-adv-x="699" 
d="M309 -17c-139 0 -220 67 -220 197c0 31 5 64 12 98l14 81c15 81 30 164 44 248l-82 9l9 48h288l-9 -48l-82 -9l-60 -325c-6 -30 -11 -56 -11 -96c0 -80 51 -125 127 -125c113 0 168 53 200 222l61 323l-95 10l9 48h237l-9 -48l-83 -10l-63 -337
c-39 -206 -141 -286 -287 -286zM312 745l15 70h286l-16 -70h-285z" />
    <glyph glyph-name="Uring" unicode="&#x16e;" horiz-adv-x="699" 
d="M309 -17c-139 0 -220 67 -220 197c0 31 5 64 12 98l14 81c15 81 30 164 44 248l-82 9l9 48h288l-9 -48l-82 -9l-60 -325c-6 -30 -11 -56 -11 -96c0 -80 51 -125 127 -125c113 0 168 53 200 222l61 323l-95 10l9 48h237l-9 -48l-83 -10l-63 -337
c-39 -206 -141 -286 -287 -286zM462 745c34 0 57 28 57 64c0 26 -15 49 -47 49c-33 0 -60 -27 -60 -64c0 -28 18 -49 50 -49zM459 705c-50 0 -93 31 -93 85c0 68 54 107 108 107s92 -32 92 -85c0 -68 -52 -107 -107 -107z" />
    <glyph glyph-name="Uhungarumlaut" unicode="&#x170;" horiz-adv-x="699" 
d="M309 -17c-139 0 -220 67 -220 197c0 31 5 64 12 98l14 81c15 81 30 164 44 248l-82 9l9 48h288l-9 -48l-82 -9l-60 -325c-6 -30 -11 -56 -11 -96c0 -80 51 -125 127 -125c113 0 168 53 200 222l61 323l-95 10l9 48h237l-9 -48l-83 -10l-63 -337
c-39 -206 -141 -286 -287 -286zM327 731l78 119c18 27 38 38 57 38c23 0 40 -11 40 -32c0 -20 -8 -34 -30 -52l-116 -96zM496 731l78 119c18 27 38 38 57 38c22 0 40 -11 40 -32c0 -20 -9 -34 -31 -52l-116 -96z" />
    <glyph glyph-name="Uogonek" unicode="&#x172;" horiz-adv-x="699" 
d="M385 -237c-57 0 -89 30 -89 77c0 55 45 104 100 155v1c-24 -9 -55 -13 -87 -13c-139 0 -220 67 -220 197c0 31 5 64 12 98l14 81c15 81 30 164 44 248l-82 9l9 48h288l-9 -48l-82 -9l-60 -325c-6 -30 -11 -56 -11 -96c0 -80 51 -125 127 -125c113 0 168 53 200 222
l61 323l-95 10l9 48h237l-9 -48l-83 -10l-63 -337c-22 -117 -62 -182 -114 -230c-59 -54 -109 -114 -109 -169c0 -35 20 -53 48 -53c15 0 32 4 48 11l12 -28c-25 -20 -57 -37 -96 -37z" />
    <glyph glyph-name="Ubreve" unicode="&#x16c;" horiz-adv-x="699" 
d="M309 -17c-139 0 -220 67 -220 197c0 31 5 64 12 98l14 81c15 81 30 164 44 248l-82 9l9 48h288l-9 -48l-82 -9l-60 -325c-6 -30 -11 -56 -11 -96c0 -80 51 -125 127 -125c113 0 168 53 200 222l61 323l-95 10l9 48h237l-9 -48l-83 -10l-63 -337
c-39 -206 -141 -286 -287 -286zM446 719c-77 0 -127 52 -141 129l32 15c21 -42 66 -71 121 -71s97 29 127 72l32 -16c-23 -63 -77 -129 -171 -129z" />
    <glyph glyph-name="uni01D3" unicode="&#x1d3;" horiz-adv-x="699" 
d="M309 -17c-139 0 -220 67 -220 197c0 31 5 64 12 98l14 81c15 81 30 164 44 248l-82 9l9 48h288l-9 -48l-82 -9l-60 -325c-6 -30 -11 -56 -11 -96c0 -80 51 -125 127 -125c113 0 168 53 200 222l61 323l-95 10l9 48h237l-9 -48l-83 -10l-63 -337
c-39 -206 -141 -286 -287 -286zM344 877l118 -94l144 95l21 -25l-140 -136h-67l-105 137z" />
    <glyph glyph-name="uni01D7" unicode="&#x1d7;" horiz-adv-x="699" 
d="M309 -17c-139 0 -220 67 -220 197c0 31 5 64 12 98l14 81c15 81 30 164 44 248l-82 9l9 48h288l-9 -48l-82 -9l-60 -325c-6 -30 -11 -56 -11 -96c0 -80 51 -125 127 -125c113 0 168 53 200 222l61 323l-95 10l9 48h237l-9 -48l-83 -10l-63 -337
c-39 -206 -141 -286 -287 -286zM339 732c-28 0 -55 19 -55 51c0 42 33 66 65 66c31 0 53 -21 53 -50c0 -41 -30 -67 -63 -67zM581 732c-26 0 -53 19 -53 51c0 42 32 66 63 66s54 -21 54 -50c0 -41 -31 -67 -64 -67zM469 838l-28 31l72 96c27 35 44 48 71 48
c24 0 44 -16 44 -40c0 -22 -6 -36 -46 -62z" />
    <glyph glyph-name="uni01D9" unicode="&#x1d9;" horiz-adv-x="699" 
d="M309 -17c-139 0 -220 67 -220 197c0 31 5 64 12 98l14 81c15 81 30 164 44 248l-82 9l9 48h288l-9 -48l-82 -9l-60 -325c-6 -30 -11 -56 -11 -96c0 -80 51 -125 127 -125c113 0 168 53 200 222l61 323l-95 10l9 48h237l-9 -48l-83 -10l-63 -337
c-39 -206 -141 -286 -287 -286zM339 732c-28 0 -55 19 -55 51c0 42 33 66 65 66c31 0 53 -21 53 -50c0 -41 -30 -67 -63 -67zM581 732c-26 0 -53 19 -53 51c0 42 32 66 63 66s54 -21 54 -50c0 -41 -31 -67 -64 -67zM436 855l-105 133l30 22l117 -90l145 92l21 -25l-141 -132
h-67z" />
    <glyph glyph-name="uni01DB" unicode="&#x1db;" horiz-adv-x="699" 
d="M309 -17c-139 0 -220 67 -220 197c0 31 5 64 12 98l14 81c15 81 30 164 44 248l-82 9l9 48h288l-9 -48l-82 -9l-60 -325c-6 -30 -11 -56 -11 -96c0 -80 51 -125 127 -125c113 0 168 53 200 222l61 323l-95 10l9 48h237l-9 -48l-83 -10l-63 -337
c-39 -206 -141 -286 -287 -286zM339 732c-28 0 -55 19 -55 51c0 42 33 66 65 66c31 0 53 -21 53 -50c0 -41 -30 -67 -63 -67zM581 732c-26 0 -53 19 -53 51c0 42 32 66 63 66s54 -21 54 -50c0 -41 -31 -67 -64 -67zM491 838l-113 73c-41 26 -47 40 -47 62c0 24 20 40 44 40
c26 0 44 -13 70 -48l73 -96z" />
    <glyph glyph-name="uni01D5" unicode="&#x1d5;" horiz-adv-x="699" 
d="M309 -17c-139 0 -220 67 -220 197c0 31 5 64 12 98l14 81c15 81 30 164 44 248l-82 9l9 48h288l-9 -48l-82 -9l-60 -325c-6 -30 -11 -56 -11 -96c0 -80 51 -125 127 -125c113 0 168 53 200 222l61 323l-95 10l9 48h237l-9 -48l-83 -10l-63 -337
c-39 -206 -141 -286 -287 -286zM339 732c-28 0 -55 19 -55 51c0 42 33 66 65 66c31 0 53 -21 53 -50c0 -41 -30 -67 -63 -67zM581 732c-26 0 -53 19 -53 51c0 42 32 66 63 66s54 -21 54 -50c0 -41 -31 -67 -64 -67zM335 903l15 70h286l-16 -70h-285z" />
    <glyph glyph-name="uni1EE4" unicode="&#x1ee4;" horiz-adv-x="699" 
d="M309 -17c-139 0 -220 67 -220 197c0 31 5 64 12 98l14 81c15 81 30 164 44 248l-82 9l9 48h288l-9 -48l-82 -9l-60 -325c-6 -30 -11 -56 -11 -96c0 -80 51 -125 127 -125c113 0 168 53 200 222l61 323l-95 10l9 48h237l-9 -48l-83 -10l-63 -337
c-39 -206 -141 -286 -287 -286zM281 -202c-33 0 -58 23 -58 61c0 41 33 74 69 74c34 0 58 -25 58 -62c0 -40 -33 -73 -69 -73z" />
    <glyph glyph-name="uni1EE6" unicode="&#x1ee6;" horiz-adv-x="699" 
d="M309 -17c-139 0 -220 67 -220 197c0 31 5 64 12 98l14 81c15 81 30 164 44 248l-82 9l9 48h288l-9 -48l-82 -9l-60 -325c-6 -30 -11 -56 -11 -96c0 -80 51 -125 127 -125c113 0 168 53 200 222l61 323l-95 10l9 48h237l-9 -48l-83 -10l-63 -337
c-39 -206 -141 -286 -287 -286zM443 713l-4 36c41 8 55 17 55 33c0 15 -21 24 -79 29l19 84c89 -8 125 -42 125 -88c0 -56 -48 -86 -116 -94z" />
    <glyph glyph-name="Uhorn" unicode="&#x1af;" horiz-adv-x="699" 
d="M89 180c0 31 5 64 12 98l14 81c15 81 30 164 44 248l-82 9l9 48h288l-9 -48l-82 -9l-60 -325c-6 -30 -11 -56 -11 -96c0 -80 51 -125 127 -125c113 0 168 53 200 222l61 323l-95 10l9 48h121c63 0 91 9 91 37c0 22 -17 39 -17 68c0 27 20 52 51 52c14 0 25 -3 38 -15
c4 -12 5 -25 5 -39c0 -85 -57 -133 -141 -145l-66 -353c-39 -206 -141 -286 -287 -286c-139 0 -220 67 -220 197z" />
    <glyph glyph-name="uni1EE8" unicode="&#x1ee8;" horiz-adv-x="699" 
d="M89 180c0 31 5 64 12 98l14 81c15 81 30 164 44 248l-82 9l9 48h288l-9 -48l-82 -9l-60 -325c-6 -30 -11 -56 -11 -96c0 -80 51 -125 127 -125c113 0 168 53 200 222l61 323l-95 10l9 48h121c63 0 91 9 91 37c0 22 -17 39 -17 68c0 27 20 52 51 52c14 0 25 -3 38 -15
c4 -12 5 -25 5 -39c0 -85 -57 -133 -141 -145l-66 -353c-39 -206 -141 -286 -287 -286c-139 0 -220 67 -220 197zM373 733c38 34 76 68 115 101c33 28 47 37 73 37c27 0 45 -18 45 -42c0 -19 -8 -40 -58 -61c-52 -21 -105 -42 -158 -63z" />
    <glyph glyph-name="uni1EF0" unicode="&#x1ef0;" horiz-adv-x="699" 
d="M89 180c0 31 5 64 12 98l14 81c15 81 30 164 44 248l-82 9l9 48h288l-9 -48l-82 -9l-60 -325c-6 -30 -11 -56 -11 -96c0 -80 51 -125 127 -125c113 0 168 53 200 222l61 323l-95 10l9 48h121c63 0 91 9 91 37c0 22 -17 39 -17 68c0 27 20 52 51 52c14 0 25 -3 38 -15
c4 -12 5 -25 5 -39c0 -85 -57 -133 -141 -145l-66 -353c-39 -206 -141 -286 -287 -286c-139 0 -220 67 -220 197zM281 -202c-33 0 -58 23 -58 61c0 41 33 74 69 74c34 0 58 -25 58 -62c0 -40 -33 -73 -69 -73z" />
    <glyph glyph-name="uni1EEA" unicode="&#x1eea;" horiz-adv-x="699" 
d="M89 180c0 31 5 64 12 98l14 81c15 81 30 164 44 248l-82 9l9 48h288l-9 -48l-82 -9l-60 -325c-6 -30 -11 -56 -11 -96c0 -80 51 -125 127 -125c113 0 168 53 200 222l61 323l-95 10l9 48h121c63 0 91 9 91 37c0 22 -17 39 -17 68c0 27 20 52 51 52c14 0 25 -3 38 -15
c4 -12 5 -25 5 -39c0 -85 -57 -133 -141 -145l-66 -353c-39 -206 -141 -286 -287 -286c-139 0 -220 67 -220 197zM490 740l-20 -29c-47 20 -95 41 -142 64c-42 21 -53 43 -53 61c0 23 19 42 46 42c20 0 38 -10 68 -38c34 -32 68 -66 101 -100z" />
    <glyph glyph-name="uni1EEC" unicode="&#x1eec;" horiz-adv-x="699" 
d="M89 180c0 31 5 64 12 98l14 81c15 81 30 164 44 248l-82 9l9 48h288l-9 -48l-82 -9l-60 -325c-6 -30 -11 -56 -11 -96c0 -80 51 -125 127 -125c113 0 168 53 200 222l61 323l-95 10l9 48h121c63 0 91 9 91 37c0 22 -17 39 -17 68c0 27 20 52 51 52c14 0 25 -3 38 -15
c4 -12 5 -25 5 -39c0 -85 -57 -133 -141 -145l-66 -353c-39 -206 -141 -286 -287 -286c-139 0 -220 67 -220 197zM443 713l-4 36c41 8 55 17 55 33c0 15 -21 24 -79 29l19 84c89 -8 125 -42 125 -88c0 -56 -48 -86 -116 -94z" />
    <glyph glyph-name="uni1EEE" unicode="&#x1eee;" horiz-adv-x="699" 
d="M89 180c0 31 5 64 12 98l14 81c15 81 30 164 44 248l-82 9l9 48h288l-9 -48l-82 -9l-60 -325c-6 -30 -11 -56 -11 -96c0 -80 51 -125 127 -125c113 0 168 53 200 222l61 323l-95 10l9 48h121c63 0 91 9 91 37c0 22 -17 39 -17 68c0 27 20 52 51 52c14 0 25 -3 38 -15
c4 -12 5 -25 5 -39c0 -85 -57 -133 -141 -145l-66 -353c-39 -206 -141 -286 -287 -286c-139 0 -220 67 -220 197zM282 727c25 84 71 134 128 134c31 0 50 -14 70 -32c18 -15 33 -38 60 -38c29 0 54 27 75 70l31 -14c-26 -82 -70 -133 -126 -133c-32 0 -52 14 -70 29
c-19 17 -35 40 -62 40c-29 0 -54 -26 -74 -68z" />
    <glyph glyph-name="Utilde" unicode="&#x168;" horiz-adv-x="699" 
d="M309 -17c-139 0 -220 67 -220 197c0 31 5 64 12 98l14 81c15 81 30 164 44 248l-82 9l9 48h288l-9 -48l-82 -9l-60 -325c-6 -30 -11 -56 -11 -96c0 -80 51 -125 127 -125c113 0 168 53 200 222l61 323l-95 10l9 48h237l-9 -48l-83 -10l-63 -337
c-39 -206 -141 -286 -287 -286zM282 727c25 84 71 134 128 134c31 0 50 -14 70 -32c18 -15 33 -38 60 -38c29 0 54 27 75 70l31 -14c-26 -82 -70 -133 -126 -133c-32 0 -52 14 -70 29c-19 17 -35 40 -62 40c-29 0 -54 -26 -74 -68z" />
    <glyph glyph-name="Wacute" unicode="&#x1e82;" horiz-adv-x="880" 
d="M167 -6l-58 614l-67 8l10 48h278l-10 -48l-86 -10l27 -447l209 446l-85 11l10 48h275l-9 -48l-90 -11l50 -453l201 452l-82 12l9 48h219l-9 -48l-80 -12l-278 -610h-67l-62 497l-237 -497h-68zM454 733c38 34 76 68 115 101c33 28 47 37 73 37c27 0 45 -18 45 -42
c0 -19 -8 -40 -58 -61c-52 -21 -105 -42 -158 -63z" />
    <glyph glyph-name="Wcircumflex" unicode="&#x174;" horiz-adv-x="880" 
d="M167 -6l-58 614l-67 8l10 48h278l-10 -48l-86 -10l27 -447l209 446l-85 11l10 48h275l-9 -48l-90 -11l50 -453l201 452l-82 12l9 48h219l-9 -48l-80 -12l-278 -610h-67l-62 497l-237 -497h-68zM581 867l117 -137l-25 -26l-127 89l-153 -89l-16 27l157 136h47z" />
    <glyph glyph-name="Wdieresis" unicode="&#x1e84;" horiz-adv-x="880" 
d="M167 -6l-58 614l-67 8l10 48h278l-10 -48l-86 -10l27 -447l209 446l-85 11l10 48h275l-9 -48l-90 -11l50 -453l201 452l-82 12l9 48h219l-9 -48l-80 -12l-278 -610h-67l-62 497l-237 -497h-68zM423 732c-27 0 -54 19 -54 51c0 42 34 66 65 66c30 0 53 -21 53 -50
c0 -41 -31 -67 -64 -67zM648 732c-26 0 -52 19 -52 51c0 42 32 66 63 66s54 -21 54 -50c0 -41 -31 -67 -65 -67z" />
    <glyph glyph-name="Wgrave" unicode="&#x1e80;" horiz-adv-x="880" 
d="M167 -6l-58 614l-67 8l10 48h278l-10 -48l-86 -10l27 -447l209 446l-85 11l10 48h275l-9 -48l-90 -11l50 -453l201 452l-82 12l9 48h219l-9 -48l-80 -12l-278 -610h-67l-62 497l-237 -497h-68zM571 740l-20 -29c-47 20 -95 41 -142 64c-42 21 -53 43 -53 61
c0 23 19 42 46 42c20 0 38 -10 68 -38c34 -32 68 -66 101 -100z" />
    <glyph glyph-name="Yacute" unicode="&#xdd;" horiz-adv-x="564" 
d="M42 616l10 48h286l-9 -48l-82 -10l83 -273l174 271l-75 12l9 48h213l-9 -48l-81 -13l-215 -326c-13 -73 -26 -146 -38 -220l94 -10l-10 -47h-306l9 47l92 10l41 213l-114 338zM314 733c38 34 76 68 115 101c33 28 47 37 73 37c27 0 45 -18 45 -42c0 -19 -8 -40 -58 -61
c-52 -21 -105 -42 -158 -63z" />
    <glyph glyph-name="Ydieresis" unicode="&#x178;" horiz-adv-x="564" 
d="M42 616l10 48h286l-9 -48l-82 -10l83 -273l174 271l-75 12l9 48h213l-9 -48l-81 -13l-215 -326c-13 -73 -26 -146 -38 -220l94 -10l-10 -47h-306l9 47l92 10l41 213l-114 338zM283 732c-27 0 -54 19 -54 51c0 42 34 66 65 66c30 0 53 -21 53 -50c0 -41 -31 -67 -64 -67z
M508 732c-26 0 -52 19 -52 51c0 42 32 66 63 66s54 -21 54 -50c0 -41 -31 -67 -65 -67z" />
    <glyph glyph-name="Ycircumflex" unicode="&#x176;" horiz-adv-x="564" 
d="M42 616l10 48h286l-9 -48l-82 -10l83 -273l174 271l-75 12l9 48h213l-9 -48l-81 -13l-215 -326c-13 -73 -26 -146 -38 -220l94 -10l-10 -47h-306l9 47l92 10l41 213l-114 338zM441 867l117 -137l-25 -26l-127 89l-153 -89l-16 27l157 136h47z" />
    <glyph glyph-name="uni1E8E" unicode="&#x1e8e;" horiz-adv-x="564" 
d="M42 616l10 48h286l-9 -48l-82 -10l83 -273l174 271l-75 12l9 48h213l-9 -48l-81 -13l-215 -326c-13 -73 -26 -146 -38 -220l94 -10l-10 -47h-306l9 47l92 10l41 213l-114 338zM400 722c-34 0 -58 23 -58 61c0 41 32 73 68 73c35 0 58 -25 58 -61c0 -40 -33 -73 -68 -73z
" />
    <glyph glyph-name="uni1EF4" unicode="&#x1ef4;" horiz-adv-x="564" 
d="M42 616l10 48h286l-9 -48l-82 -10l83 -273l174 271l-75 12l9 48h213l-9 -48l-81 -13l-215 -326c-13 -73 -26 -146 -38 -220l94 -10l-10 -47h-306l9 47l92 10l41 213l-114 338zM208 -202c-33 0 -58 23 -58 61c0 41 33 74 69 74c34 0 58 -25 58 -62c0 -40 -33 -73 -69 -73z
" />
    <glyph glyph-name="Ygrave" unicode="&#x1ef2;" horiz-adv-x="564" 
d="M42 616l10 48h286l-9 -48l-82 -10l83 -273l174 271l-75 12l9 48h213l-9 -48l-81 -13l-215 -326c-13 -73 -26 -146 -38 -220l94 -10l-10 -47h-306l9 47l92 10l41 213l-114 338zM431 740l-20 -29c-47 20 -95 41 -142 64c-42 21 -53 43 -53 61c0 23 19 42 46 42
c20 0 38 -10 68 -38c34 -32 68 -66 101 -100z" />
    <glyph glyph-name="uni1EF6" unicode="&#x1ef6;" horiz-adv-x="564" 
d="M42 616l10 48h286l-9 -48l-82 -10l83 -273l174 271l-75 12l9 48h213l-9 -48l-81 -13l-215 -326c-13 -73 -26 -146 -38 -220l94 -10l-10 -47h-306l9 47l92 10l41 213l-114 338zM384 713l-4 36c41 8 55 17 55 33c0 15 -21 24 -79 29l19 84c89 -8 125 -42 125 -88
c0 -56 -48 -86 -116 -94z" />
    <glyph glyph-name="uni1EF8" unicode="&#x1ef8;" horiz-adv-x="564" 
d="M42 616l10 48h286l-9 -48l-82 -10l83 -273l174 271l-75 12l9 48h213l-9 -48l-81 -13l-215 -326c-13 -73 -26 -146 -38 -220l94 -10l-10 -47h-306l9 47l92 10l41 213l-114 338zM223 727c25 84 71 134 128 134c31 0 50 -14 70 -32c18 -15 33 -38 60 -38c29 0 54 27 75 70
l31 -14c-26 -82 -70 -133 -126 -133c-32 0 -52 14 -70 29c-19 17 -35 40 -62 40c-29 0 -54 -26 -74 -68z" />
    <glyph glyph-name="Zacute" unicode="&#x179;" horiz-adv-x="541" 
d="M-22 0l8 40l438 570h-248l-47 -129h-69l39 183h476l-8 -41l-439 -569h264l46 128h69l-39 -182h-490zM266 733c38 34 76 68 115 101c33 28 47 37 73 37c27 0 45 -18 45 -42c0 -19 -8 -40 -58 -61c-52 -21 -105 -42 -158 -63z" />
    <glyph glyph-name="Zcaron" unicode="&#x17d;" horiz-adv-x="541" 
d="M-22 0l8 40l438 570h-248l-47 -129h-69l39 183h476l-8 -41l-439 -569h264l46 128h69l-39 -182h-490zM237 877l118 -94l144 95l21 -25l-140 -136h-67l-105 137z" />
    <glyph glyph-name="Zdotaccent" unicode="&#x17b;" horiz-adv-x="541" 
d="M-22 0l8 40l438 570h-248l-47 -129h-69l39 183h476l-8 -41l-439 -569h264l46 128h69l-39 -182h-490zM352 722c-34 0 -58 23 -58 61c0 41 32 73 68 73c35 0 58 -25 58 -61c0 -40 -33 -73 -68 -73z" />
    <glyph glyph-name="uni1E92" unicode="&#x1e92;" horiz-adv-x="541" 
d="M-22 0l8 40l438 570h-248l-47 -129h-69l39 183h476l-8 -41l-439 -569h264l46 128h69l-39 -182h-490zM204 -202c-33 0 -58 23 -58 61c0 41 33 74 69 74c34 0 58 -25 58 -62c0 -40 -33 -73 -69 -73z" />
    <glyph glyph-name="Eth" unicode="&#xd0;" horiz-adv-x="695" 
d="M96 616l10 48h270c185 0 293 -114 293 -278c0 -249 -186 -386 -400 -386h-282l10 47l83 10l48 257h-95l10 52h95c15 80 29 160 42 240zM384 314h-138l-1 -4c-17 -86 -32 -173 -46 -259h71c175 0 272 165 272 341c0 141 -74 220 -209 220h-31l-46 -246h137z" />
    <glyph glyph-name="Thorn" unicode="&#xde;" horiz-adv-x="578" 
d="M245 310c-7 -38 -14 -75 -21 -113h47c113 0 175 64 175 165c0 79 -42 122 -131 122h-37zM96 616l10 48h287l-10 -48l-82 -9l-13 -72h37c167 0 241 -68 241 -177c0 -119 -104 -212 -303 -212h-48c-5 -30 -10 -59 -15 -89l85 -10l-10 -47h-288l10 47l83 9l56 298
c15 84 30 168 44 252z" />
    <glyph glyph-name="Eng" unicode="&#x14a;" horiz-adv-x="720" 
d="M-19 0l9 47l82 12l104 545l-2 3l-83 9l9 48h180l257 -489l27 153l47 275l-106 13l10 48h245l-9 -48l-86 -13l-70 -399c-27 -159 -51 -218 -105 -275c-49 -51 -95 -69 -141 -69s-85 19 -93 61c11 41 41 53 71 53c29 0 53 -12 77 -36l20 -19c29 24 51 51 68 89l-276 518
l-37 -197l-51 -269l104 -13l-8 -47h-243z" />
    <glyph glyph-name="uni018F" unicode="&#x18f;" horiz-adv-x="622" 
d="M263 -17c-148 0 -226 91 -226 238c0 56 10 102 22 150h420c1 20 2 41 2 62c0 128 -62 181 -146 181c-59 0 -114 -23 -165 -64l-29 38c62 59 137 92 220 92c148 0 243 -95 243 -280c0 -216 -147 -417 -341 -417zM271 36c94 0 177 104 202 280h-302
c-9 -38 -14 -72 -14 -124c0 -113 49 -156 114 -156z" />
    <glyph glyph-name="agrave" unicode="&#xe0;" horiz-adv-x="546" 
d="M367 -14c-38 0 -66 25 -67 74c0 12 1 23 3 34c-57 -64 -122 -108 -176 -108c-52 0 -100 36 -100 129c0 176 185 378 323 378c26 0 47 -11 66 -28l61 35l18 -11l-80 -352c-5 -22 -8 -39 -8 -50c0 -13 9 -21 21 -21c22 0 52 26 85 67l27 -19c-37 -61 -102 -128 -173 -128z
M138 161c0 -62 23 -89 57 -89c31 0 66 21 115 72l57 263c-18 9 -37 16 -57 16c-27 0 -59 -15 -90 -45c-47 -47 -82 -138 -82 -217zM371 552l-27 -16c-35 43 -68 81 -104 125c-21 23 -33 40 -33 63c0 27 23 47 50 47c29 0 47 -13 62 -59c19 -54 34 -106 52 -160z" />
    <glyph glyph-name="aacute" unicode="&#xe1;" horiz-adv-x="546" 
d="M367 -14c-38 0 -66 25 -67 74c0 12 1 23 3 34c-57 -64 -122 -108 -176 -108c-52 0 -100 36 -100 129c0 176 185 378 323 378c26 0 47 -11 66 -28l61 35l18 -11l-80 -352c-5 -22 -8 -39 -8 -50c0 -13 9 -21 21 -21c22 0 52 26 85 67l27 -19c-37 -61 -102 -128 -173 -128z
M138 161c0 -62 23 -89 57 -89c31 0 66 21 115 72l57 263c-18 9 -37 16 -57 16c-27 0 -59 -15 -90 -45c-47 -47 -82 -138 -82 -217zM343 553c21 53 41 107 62 160c17 43 38 58 64 58c25 0 49 -17 49 -45c0 -23 -12 -44 -35 -68c-38 -41 -75 -81 -113 -122z" />
    <glyph glyph-name="acircumflex" unicode="&#xe2;" horiz-adv-x="546" 
d="M138 161c0 -62 23 -89 57 -89c31 0 66 21 115 72l57 263c-18 9 -37 16 -57 16c-27 0 -59 -15 -90 -45c-47 -47 -82 -138 -82 -217zM367 -14c-38 0 -66 25 -67 74c0 12 1 23 3 34c-57 -64 -122 -108 -176 -108c-52 0 -100 36 -100 129c0 176 185 378 323 378
c26 0 47 -11 66 -28l61 35l18 -11l-80 -352c-5 -22 -8 -39 -8 -50c0 -13 9 -21 21 -21c22 0 52 26 85 67l27 -19c-37 -61 -102 -128 -173 -128zM493 545l-111 115l-145 -115l-24 27l160 176h48l102 -179z" />
    <glyph glyph-name="atilde" unicode="&#xe3;" horiz-adv-x="546" 
d="M138 161c0 -62 23 -89 57 -89c31 0 66 21 115 72l57 263c-18 9 -37 16 -57 16c-27 0 -59 -15 -90 -45c-47 -47 -82 -138 -82 -217zM367 -14c-38 0 -66 25 -67 74c0 12 1 23 3 34c-57 -64 -122 -108 -176 -108c-52 0 -100 36 -100 129c0 176 185 378 323 378
c26 0 47 -11 66 -28l61 35l18 -11l-80 -352c-5 -22 -8 -39 -8 -50c0 -13 9 -21 21 -21c22 0 52 26 85 67l27 -19c-37 -61 -102 -128 -173 -128zM209 585c26 88 68 136 120 136c30 0 48 -14 64 -30c18 -19 32 -40 55 -40c28 0 49 27 69 70l32 -12c-27 -87 -67 -136 -119 -136
c-29 0 -49 13 -66 30c-16 18 -31 40 -55 40c-27 0 -48 -26 -69 -69z" />
    <glyph glyph-name="adieresis" unicode="&#xe4;" horiz-adv-x="546" 
d="M138 161c0 -62 23 -89 57 -89c31 0 66 21 115 72l57 263c-18 9 -37 16 -57 16c-27 0 -59 -15 -90 -45c-47 -47 -82 -138 -82 -217zM367 -14c-38 0 -66 25 -67 74c0 12 1 23 3 34c-57 -64 -122 -108 -176 -108c-52 0 -100 36 -100 129c0 176 185 378 323 378
c26 0 47 -11 66 -28l61 35l18 -11l-80 -352c-5 -22 -8 -39 -8 -50c0 -13 9 -21 21 -21c22 0 52 26 85 67l27 -19c-37 -61 -102 -128 -173 -128zM276 611c-30 0 -56 20 -56 54c0 43 34 69 68 69c31 0 55 -22 55 -53c0 -43 -32 -70 -67 -70zM484 611c-29 0 -55 20 -55 54
c0 43 33 69 66 69c32 0 56 -22 56 -53c0 -43 -32 -70 -67 -70z" />
    <glyph glyph-name="amacron" unicode="&#x101;" horiz-adv-x="546" 
d="M138 161c0 -62 23 -89 57 -89c31 0 66 21 115 72l57 263c-18 9 -37 16 -57 16c-27 0 -59 -15 -90 -45c-47 -47 -82 -138 -82 -217zM367 -14c-38 0 -66 25 -67 74c0 12 1 23 3 34c-57 -64 -122 -108 -176 -108c-52 0 -100 36 -100 129c0 176 185 378 323 378
c26 0 47 -11 66 -28l61 35l18 -11l-80 -352c-5 -22 -8 -39 -8 -50c0 -13 9 -21 21 -21c22 0 52 26 85 67l27 -19c-37 -61 -102 -128 -173 -128zM251 607l15 70h240l-15 -70h-240z" />
    <glyph glyph-name="abreve" unicode="&#x103;" horiz-adv-x="546" 
d="M138 161c0 -62 23 -89 57 -89c31 0 66 21 115 72l57 263c-18 9 -37 16 -57 16c-27 0 -59 -15 -90 -45c-47 -47 -82 -138 -82 -217zM367 -14c-38 0 -66 25 -67 74c0 12 1 23 3 34c-57 -64 -122 -108 -176 -108c-52 0 -100 36 -100 129c0 176 185 378 323 378
c26 0 47 -11 66 -28l61 35l18 -11l-80 -352c-5 -22 -8 -39 -8 -50c0 -13 9 -21 21 -21c22 0 52 26 85 67l27 -19c-37 -61 -102 -128 -173 -128zM362 569c-99 0 -138 70 -141 149l38 15c18 -50 51 -87 109 -87c60 0 104 35 131 87l37 -12c-20 -70 -73 -152 -174 -152z" />
    <glyph glyph-name="uni1EAF" unicode="&#x1eaf;" horiz-adv-x="546" 
d="M138 161c0 -62 23 -89 57 -89c31 0 66 21 115 72l57 263c-18 9 -37 16 -57 16c-27 0 -59 -15 -90 -45c-47 -47 -82 -138 -82 -217zM367 -14c-38 0 -66 25 -67 74c0 12 1 23 3 34c-57 -64 -122 -108 -176 -108c-52 0 -100 36 -100 129c0 176 185 378 323 378
c26 0 47 -11 66 -28l61 35l18 -11l-80 -352c-5 -22 -8 -39 -8 -50c0 -13 9 -21 21 -21c22 0 52 26 85 67l27 -19c-37 -61 -102 -128 -173 -128zM361 566c-88 0 -135 61 -137 137l38 11c17 -45 49 -77 103 -77c59 0 98 26 125 77l36 -11c-18 -67 -69 -137 -165 -137zM368 676
l-32 25l46 97c19 41 40 55 63 55c21 0 43 -14 43 -42c0 -20 -9 -35 -33 -57z" />
    <glyph glyph-name="uni1EB7" unicode="&#x1eb7;" horiz-adv-x="546" 
d="M138 161c0 -62 23 -89 57 -89c31 0 66 21 115 72l57 263c-18 9 -37 16 -57 16c-27 0 -59 -15 -90 -45c-47 -47 -82 -138 -82 -217zM367 -14c-38 0 -66 25 -67 74c0 12 1 23 3 34c-57 -64 -122 -108 -176 -108c-52 0 -100 36 -100 129c0 176 185 378 323 378
c26 0 47 -11 66 -28l61 35l18 -11l-80 -352c-5 -22 -8 -39 -8 -50c0 -13 9 -21 21 -21c22 0 52 26 85 67l27 -19c-37 -61 -102 -128 -173 -128zM362 569c-99 0 -138 70 -141 149l38 15c18 -50 51 -87 109 -87c60 0 104 35 131 87l37 -12c-20 -70 -73 -152 -174 -152z
M214 -202c-33 0 -58 23 -58 61c0 41 33 74 69 74c34 0 58 -25 58 -62c0 -40 -33 -73 -69 -73z" />
    <glyph glyph-name="uni1EB1" unicode="&#x1eb1;" horiz-adv-x="546" 
d="M138 161c0 -62 23 -89 57 -89c31 0 66 21 115 72l57 263c-18 9 -37 16 -57 16c-27 0 -59 -15 -90 -45c-47 -47 -82 -138 -82 -217zM367 -14c-38 0 -66 25 -67 74c0 12 1 23 3 34c-57 -64 -122 -108 -176 -108c-52 0 -100 36 -100 129c0 176 185 378 323 378
c26 0 47 -11 66 -28l61 35l18 -11l-80 -352c-5 -22 -8 -39 -8 -50c0 -13 9 -21 21 -21c22 0 52 26 85 67l27 -19c-37 -61 -102 -128 -173 -128zM361 566c-88 0 -135 61 -137 137l38 11c17 -45 49 -77 103 -77c59 0 98 26 125 77l36 -11c-18 -67 -69 -137 -165 -137zM385 676
l-74 68c-32 30 -42 46 -42 66c0 27 24 43 45 43c26 0 45 -16 62 -55l43 -95z" />
    <glyph glyph-name="uni1EB3" unicode="&#x1eb3;" horiz-adv-x="546" 
d="M138 161c0 -62 23 -89 57 -89c31 0 66 21 115 72l57 263c-18 9 -37 16 -57 16c-27 0 -59 -15 -90 -45c-47 -47 -82 -138 -82 -217zM367 -14c-38 0 -66 25 -67 74c0 12 1 23 3 34c-57 -64 -122 -108 -176 -108c-52 0 -100 36 -100 129c0 176 185 378 323 378
c26 0 47 -11 66 -28l61 35l18 -11l-80 -352c-5 -22 -8 -39 -8 -50c0 -13 9 -21 21 -21c22 0 52 26 85 67l27 -19c-37 -61 -102 -128 -173 -128zM361 566c-88 0 -135 61 -137 137l38 11c17 -45 49 -77 103 -77c59 0 98 26 125 77l36 -11c-18 -67 -69 -137 -165 -137zM350 689
l-5 36c41 9 56 18 56 33s-21 25 -79 30l18 83c89 -8 126 -41 126 -88c0 -56 -48 -86 -116 -94z" />
    <glyph glyph-name="uni1EB5" unicode="&#x1eb5;" horiz-adv-x="546" 
d="M138 161c0 -62 23 -89 57 -89c31 0 66 21 115 72l57 263c-18 9 -37 16 -57 16c-27 0 -59 -15 -90 -45c-47 -47 -82 -138 -82 -217zM367 -14c-38 0 -66 25 -67 74c0 12 1 23 3 34c-57 -64 -122 -108 -176 -108c-52 0 -100 36 -100 129c0 176 185 378 323 378
c26 0 47 -11 66 -28l61 35l18 -11l-80 -352c-5 -22 -8 -39 -8 -50c0 -13 9 -21 21 -21c22 0 52 26 85 67l27 -19c-37 -61 -102 -128 -173 -128zM361 566c-88 0 -135 61 -137 137l38 11c17 -45 49 -77 103 -77c59 0 98 26 125 77l36 -11c-18 -67 -69 -137 -165 -137zM255 730
l-30 12c12 60 48 99 102 99c31 0 49 -11 68 -23c23 -13 40 -24 64 -24c26 0 44 14 59 48l30 -13c-12 -63 -45 -98 -97 -98c-29 0 -52 11 -70 23c-21 13 -41 24 -66 24c-26 0 -46 -16 -60 -48z" />
    <glyph glyph-name="uni01CE" unicode="&#x1ce;" horiz-adv-x="546" 
d="M138 161c0 -62 23 -89 57 -89c31 0 66 21 115 72l57 263c-18 9 -37 16 -57 16c-27 0 -59 -15 -90 -45c-47 -47 -82 -138 -82 -217zM367 -14c-38 0 -66 25 -67 74c0 12 1 23 3 34c-57 -64 -122 -108 -176 -108c-52 0 -100 36 -100 129c0 176 185 378 323 378
c26 0 47 -11 66 -28l61 35l18 -11l-80 -352c-5 -22 -8 -39 -8 -50c0 -13 9 -21 21 -21c22 0 52 26 85 67l27 -19c-37 -61 -102 -128 -173 -128zM273 759l100 -114l144 115l26 -25l-157 -180h-53l-92 182z" />
    <glyph glyph-name="uni1EA5" unicode="&#x1ea5;" horiz-adv-x="546" 
d="M138 161c0 -62 23 -89 57 -89c31 0 66 21 115 72l57 263c-18 9 -37 16 -57 16c-27 0 -59 -15 -90 -45c-47 -47 -82 -138 -82 -217zM367 -14c-38 0 -66 25 -67 74c0 12 1 23 3 34c-57 -64 -122 -108 -176 -108c-52 0 -100 36 -100 129c0 176 185 378 323 378
c26 0 47 -11 66 -28l61 35l18 -11l-80 -352c-5 -22 -8 -39 -8 -50c0 -13 9 -21 21 -21c22 0 52 26 85 67l27 -19c-37 -61 -102 -128 -173 -128zM238 536l-23 29l145 156h48l112 -159l-28 -25l-117 104zM494 640l-25 30l49 72c27 41 45 50 64 50c22 0 40 -16 40 -41
c0 -22 -13 -41 -49 -61z" />
    <glyph glyph-name="uni1EAD" unicode="&#x1ead;" horiz-adv-x="546" 
d="M138 161c0 -62 23 -89 57 -89c31 0 66 21 115 72l57 263c-18 9 -37 16 -57 16c-27 0 -59 -15 -90 -45c-47 -47 -82 -138 -82 -217zM367 -14c-38 0 -66 25 -67 74c0 12 1 23 3 34c-57 -64 -122 -108 -176 -108c-52 0 -100 36 -100 129c0 176 185 378 323 378
c26 0 47 -11 66 -28l61 35l18 -11l-80 -352c-5 -22 -8 -39 -8 -50c0 -13 9 -21 21 -21c22 0 52 26 85 67l27 -19c-37 -61 -102 -128 -173 -128zM493 545l-111 115l-145 -115l-24 27l160 176h48l102 -179zM214 -202c-33 0 -58 23 -58 61c0 41 33 74 69 74c34 0 58 -25 58 -62
c0 -40 -33 -73 -69 -73z" />
    <glyph glyph-name="uni1EA7" unicode="&#x1ea7;" horiz-adv-x="546" 
d="M138 161c0 -62 23 -89 57 -89c31 0 66 21 115 72l57 263c-18 9 -37 16 -57 16c-27 0 -59 -15 -90 -45c-47 -47 -82 -138 -82 -217zM367 -14c-38 0 -66 25 -67 74c0 12 1 23 3 34c-57 -64 -122 -108 -176 -108c-52 0 -100 36 -100 129c0 176 185 378 323 378
c26 0 47 -11 66 -28l61 35l18 -11l-80 -352c-5 -22 -8 -39 -8 -50c0 -13 9 -21 21 -21c22 0 52 26 85 67l27 -19c-37 -61 -102 -128 -173 -128zM238 536l-23 29l145 156h48l112 -159l-28 -25l-117 104zM256 641l-74 49c-34 20 -48 39 -48 61c0 24 18 41 42 41
c21 0 39 -11 63 -52l45 -70z" />
    <glyph glyph-name="uni1EA9" unicode="&#x1ea9;" horiz-adv-x="546" 
d="M138 161c0 -62 23 -89 57 -89c31 0 66 21 115 72l57 263c-18 9 -37 16 -57 16c-27 0 -59 -15 -90 -45c-47 -47 -82 -138 -82 -217zM367 -14c-38 0 -66 25 -67 74c0 12 1 23 3 34c-57 -64 -122 -108 -176 -108c-52 0 -100 36 -100 129c0 176 185 378 323 378
c26 0 47 -11 66 -28l61 35l18 -11l-80 -352c-5 -22 -8 -39 -8 -50c0 -13 9 -21 21 -21c22 0 52 26 85 67l27 -19c-37 -61 -102 -128 -173 -128zM238 536l-23 29l145 156h48l112 -159l-28 -25l-117 104zM488 632l-7 38c39 10 54 27 54 47c0 26 -16 34 -69 42l19 83
c79 -8 111 -44 111 -103c0 -58 -46 -99 -108 -107z" />
    <glyph glyph-name="uni1EAB" unicode="&#x1eab;" horiz-adv-x="546" 
d="M138 161c0 -62 23 -89 57 -89c31 0 66 21 115 72l57 263c-18 9 -37 16 -57 16c-27 0 -59 -15 -90 -45c-47 -47 -82 -138 -82 -217zM367 -14c-38 0 -66 25 -67 74c0 12 1 23 3 34c-57 -64 -122 -108 -176 -108c-52 0 -100 36 -100 129c0 176 185 378 323 378
c26 0 47 -11 66 -28l61 35l18 -11l-80 -352c-5 -22 -8 -39 -8 -50c0 -13 9 -21 21 -21c22 0 52 26 85 67l27 -19c-37 -61 -102 -128 -173 -128zM238 536l-23 29l145 146h48l112 -149l-28 -25l-117 96zM267 712l-30 11c12 60 49 99 103 99c31 0 48 -11 68 -22
c22 -14 40 -25 63 -25c26 0 45 14 59 48l30 -13c-12 -62 -46 -98 -97 -98c-30 0 -51 11 -70 23c-20 14 -41 25 -65 25c-27 0 -47 -17 -61 -48z" />
    <glyph glyph-name="uni1EA1" unicode="&#x1ea1;" horiz-adv-x="546" 
d="M138 161c0 -62 23 -89 57 -89c31 0 66 21 115 72l57 263c-18 9 -37 16 -57 16c-27 0 -59 -15 -90 -45c-47 -47 -82 -138 -82 -217zM367 -14c-38 0 -66 25 -67 74c0 12 1 23 3 34c-57 -64 -122 -108 -176 -108c-52 0 -100 36 -100 129c0 176 185 378 323 378
c26 0 47 -11 66 -28l61 35l18 -11l-80 -352c-5 -22 -8 -39 -8 -50c0 -13 9 -21 21 -21c22 0 52 26 85 67l27 -19c-37 -61 -102 -128 -173 -128zM214 -202c-33 0 -58 23 -58 61c0 41 33 74 69 74c34 0 58 -25 58 -62c0 -40 -33 -73 -69 -73z" />
    <glyph glyph-name="uni1EA3" unicode="&#x1ea3;" horiz-adv-x="546" 
d="M138 161c0 -62 23 -89 57 -89c31 0 66 21 115 72l57 263c-18 9 -37 16 -57 16c-27 0 -59 -15 -90 -45c-47 -47 -82 -138 -82 -217zM367 -14c-38 0 -66 25 -67 74c0 12 1 23 3 34c-57 -64 -122 -108 -176 -108c-52 0 -100 36 -100 129c0 176 185 378 323 378
c26 0 47 -11 66 -28l61 35l18 -11l-80 -352c-5 -22 -8 -39 -8 -50c0 -13 9 -21 21 -21c22 0 52 26 85 67l27 -19c-37 -61 -102 -128 -173 -128zM352 554l-8 40c45 9 61 26 61 48c0 26 -24 35 -87 44l18 80c93 -8 134 -44 134 -101c0 -61 -44 -102 -118 -111z" />
    <glyph glyph-name="aring" unicode="&#xe5;" horiz-adv-x="546" 
d="M138 161c0 -62 23 -89 57 -89c31 0 66 21 115 72l57 263c-18 9 -37 16 -57 16c-27 0 -59 -15 -90 -45c-47 -47 -82 -138 -82 -217zM367 -14c-38 0 -66 25 -67 74c0 12 1 23 3 34c-57 -64 -122 -108 -176 -108c-52 0 -100 36 -100 129c0 176 185 378 323 378
c26 0 47 -11 66 -28l61 35l18 -11l-80 -352c-5 -22 -8 -39 -8 -50c0 -13 9 -21 21 -21c22 0 52 26 85 67l27 -19c-37 -61 -102 -128 -173 -128zM375 595c37 0 67 33 67 72c0 28 -17 56 -54 56c-40 0 -66 -36 -66 -72c0 -29 17 -56 53 -56zM373 551c-59 0 -105 37 -105 96
c0 76 62 120 122 120c58 0 106 -36 106 -95c0 -78 -62 -121 -123 -121z" />
    <glyph glyph-name="aogonek" unicode="&#x105;" horiz-adv-x="546" 
d="M138 161c0 -62 23 -89 57 -89c31 0 67 22 116 73l56 262c-18 9 -37 16 -57 16c-27 0 -59 -15 -90 -45c-47 -47 -82 -138 -82 -217zM382 -237c-57 0 -89 30 -89 77c0 53 42 100 92 148v1c-9 -3 -13 -3 -18 -3c-38 0 -68 24 -68 74c0 12 1 22 2 32
c-57 -63 -120 -106 -174 -106c-52 0 -100 36 -100 129c0 176 185 378 323 378c26 0 48 -11 67 -29l61 36l17 -11l-80 -352c-5 -22 -8 -39 -8 -50c0 -13 9 -21 21 -21c22 0 52 26 85 67l27 -19c-20 -34 -50 -67 -81 -96c-53 -49 -89 -98 -89 -148c0 -36 20 -55 49 -55
c15 0 32 4 47 11l13 -26c-26 -21 -58 -37 -97 -37z" />
    <glyph glyph-name="ae" unicode="&#xe6;" horiz-adv-x="712" 
d="M138 161c0 -62 23 -89 57 -89c32 0 68 22 114 70c-1 10 -2 20 -2 31c0 83 31 163 81 222c-24 19 -53 28 -78 28c-27 0 -59 -15 -90 -45c-47 -47 -82 -138 -82 -217zM567 445c-58 0 -147 -105 -154 -226c151 47 200 117 200 172c0 35 -19 54 -46 54zM469 -14
c-75 0 -132 40 -153 117c-59 -69 -130 -117 -189 -117c-52 0 -100 36 -100 129c0 176 185 378 323 378c36 0 68 -19 93 -47c42 30 91 47 143 47c76 0 119 -38 119 -100c0 -73 -80 -157 -292 -215c6 -74 43 -106 101 -106c61 0 106 37 135 73l26 -19
c-42 -73 -115 -140 -206 -140z" />
    <glyph glyph-name="ccedilla" unicode="&#xe7;" horiz-adv-x="438" 
d="M146 -88l37 74c-89 5 -150 72 -150 188c0 170 129 319 275 319c67 0 110 -32 124 -83c-3 -31 -28 -50 -56 -50s-47 21 -64 45l-30 44c-84 -42 -140 -148 -140 -254c0 -84 43 -123 109 -123c47 0 91 33 125 73l25 -19c-37 -68 -106 -127 -182 -138l-26 -53
c63 -22 92 -45 92 -88c0 -42 -40 -78 -109 -78c-36 0 -70 10 -91 23l15 31c20 -9 40 -14 62 -14c33 0 55 16 55 44c0 33 -27 49 -71 59z" />
    <glyph glyph-name="cacute" unicode="&#x107;" horiz-adv-x="438" 
d="M194 -14c-95 0 -161 67 -161 188c0 170 129 319 275 319c67 0 110 -32 124 -83c-3 -31 -28 -50 -56 -50s-47 21 -64 45l-30 44c-84 -42 -140 -148 -140 -254c0 -84 43 -123 109 -123c47 0 91 33 125 73l25 -19c-41 -75 -121 -140 -207 -140zM303 553c21 53 41 107 62 160
c17 43 38 58 64 58c25 0 49 -17 49 -45c0 -23 -12 -44 -35 -68c-38 -41 -75 -81 -113 -122z" />
    <glyph glyph-name="ccaron" unicode="&#x10d;" horiz-adv-x="438" 
d="M194 -14c-95 0 -161 67 -161 188c0 170 129 319 275 319c67 0 110 -32 124 -83c-3 -31 -28 -50 -56 -50s-47 21 -64 45l-30 44c-84 -42 -140 -148 -140 -254c0 -84 43 -123 109 -123c47 0 91 33 125 73l25 -19c-41 -75 -121 -140 -207 -140zM233 759l100 -114l144 115
l26 -25l-157 -180h-53l-92 182z" />
    <glyph glyph-name="ccircumflex" unicode="&#x109;" horiz-adv-x="438" 
d="M194 -14c-95 0 -161 67 -161 188c0 170 129 319 275 319c67 0 110 -32 124 -83c-3 -31 -28 -50 -56 -50s-47 21 -64 45l-30 44c-84 -42 -140 -148 -140 -254c0 -84 43 -123 109 -123c47 0 91 33 125 73l25 -19c-41 -75 -121 -140 -207 -140zM453 545l-111 115l-145 -115
l-24 27l160 176h48l102 -179z" />
    <glyph glyph-name="cdotaccent" unicode="&#x10b;" horiz-adv-x="438" 
d="M194 -14c-95 0 -161 67 -161 188c0 170 129 319 275 319c67 0 110 -32 124 -83c-3 -31 -28 -50 -56 -50s-47 21 -64 45l-30 44c-84 -42 -140 -148 -140 -254c0 -84 43 -123 109 -123c47 0 91 33 125 73l25 -19c-41 -75 -121 -140 -207 -140zM340 610c-33 0 -58 23 -58 61
c0 41 33 74 69 74c34 0 58 -25 58 -62c0 -40 -33 -73 -69 -73z" />
    <glyph glyph-name="dcaron" unicode="&#x10f;" horiz-adv-x="564" 
d="M139 164c0 -65 24 -92 59 -92c32 0 68 22 117 76l53 257c-18 13 -36 18 -58 18c-34 0 -70 -19 -95 -47c-45 -47 -76 -138 -76 -212zM369 -14c-40 0 -66 26 -66 68c0 11 0 23 3 42c-57 -66 -126 -110 -181 -110c-51 0 -97 36 -97 134c0 171 177 373 319 373
c15 0 29 -2 41 -8l30 148l-86 10l4 33l191 54l14 -11l-121 -581c-5 -24 -7 -40 -7 -51c0 -13 8 -21 19 -21c21 0 54 25 86 67l27 -20c-39 -64 -105 -127 -176 -127zM662 740c32 0 40 -18 40 -34c0 -33 -28 -85 -53 -131l-39 -70l-39 4l45 221c17 7 29 10 46 10z" />
    <glyph glyph-name="dcroat" unicode="&#x111;" horiz-adv-x="548" 
d="M139 164c0 -65 24 -92 59 -92c32 0 69 23 118 77l49 239c-17 13 -35 18 -57 18c-34 0 -69 -20 -94 -47c-44 -46 -75 -127 -75 -195zM369 -14c-40 0 -66 26 -66 68c0 12 0 24 2 42c-56 -66 -125 -110 -180 -110c-51 0 -97 36 -97 134c0 162 176 356 318 356
c14 0 27 -2 39 -7l13 63h-149l9 40h148l13 61l-87 10l4 33l191 54l14 -11l-31 -147h97l-9 -40h-96l-82 -394c-5 -24 -7 -40 -7 -51c0 -13 8 -21 19 -21c21 0 54 25 86 67l27 -20c-39 -64 -105 -127 -176 -127z" />
    <glyph glyph-name="uni1E0D" unicode="&#x1e0d;" horiz-adv-x="548" 
d="M139 164c0 -65 24 -92 59 -92c32 0 68 22 117 76l53 257c-18 13 -36 18 -58 18c-34 0 -70 -19 -95 -47c-45 -47 -76 -138 -76 -212zM369 -14c-40 0 -66 26 -66 68c0 11 0 23 3 42c-57 -66 -126 -110 -181 -110c-51 0 -97 36 -97 134c0 171 177 373 319 373
c15 0 29 -2 41 -8l30 148l-86 10l4 33l191 54l14 -11l-121 -581c-5 -24 -7 -40 -7 -51c0 -13 8 -21 19 -21c21 0 54 25 86 67l27 -20c-39 -64 -105 -127 -176 -127zM222 -202c-33 0 -58 23 -58 61c0 41 33 74 69 74c34 0 58 -25 58 -62c0 -40 -33 -73 -69 -73z" />
    <glyph glyph-name="uni1E0F" unicode="&#x1e0f;" horiz-adv-x="548" 
d="M139 164c0 -65 24 -92 59 -92c32 0 68 22 117 76l53 257c-18 13 -36 18 -58 18c-34 0 -70 -19 -95 -47c-45 -47 -76 -138 -76 -212zM369 -14c-40 0 -66 26 -66 68c0 11 0 23 3 42c-57 -66 -126 -110 -181 -110c-51 0 -97 36 -97 134c0 171 177 373 319 373
c15 0 29 -2 41 -8l30 148l-86 10l4 33l191 54l14 -11l-121 -581c-5 -24 -7 -40 -7 -51c0 -13 8 -21 19 -21c21 0 54 25 86 67l27 -20c-39 -64 -105 -127 -176 -127zM103 -175l15 70h240l-15 -70h-240z" />
    <glyph glyph-name="egrave" unicode="&#xe8;" horiz-adv-x="439" 
d="M293 445c-58 0 -147 -105 -154 -226c151 47 200 117 200 172c0 35 -19 54 -46 54zM195 -14c-95 0 -162 64 -162 187c0 167 124 320 279 320c76 0 119 -38 119 -100c0 -73 -80 -157 -292 -215c6 -74 43 -106 101 -106c61 0 106 37 135 73l26 -19
c-42 -73 -115 -140 -206 -140zM336 552l-27 -16c-35 43 -68 81 -104 125c-21 23 -33 40 -33 63c0 27 23 47 50 47c29 0 47 -13 62 -59c19 -54 34 -106 52 -160z" />
    <glyph glyph-name="eacute" unicode="&#xe9;" horiz-adv-x="439" 
d="M293 445c-58 0 -147 -105 -154 -226c151 47 200 117 200 172c0 35 -19 54 -46 54zM195 -14c-95 0 -162 64 -162 187c0 167 124 320 279 320c76 0 119 -38 119 -100c0 -73 -80 -157 -292 -215c6 -74 43 -106 101 -106c61 0 106 37 135 73l26 -19
c-42 -73 -115 -140 -206 -140zM308 553c21 53 41 107 62 160c17 43 38 58 64 58c25 0 49 -17 49 -45c0 -23 -12 -44 -35 -68c-38 -41 -75 -81 -113 -122z" />
    <glyph glyph-name="ecircumflex" unicode="&#xea;" horiz-adv-x="439" 
d="M293 445c-58 0 -147 -105 -154 -226c151 47 200 117 200 172c0 35 -19 54 -46 54zM195 -14c-95 0 -162 64 -162 187c0 167 124 320 279 320c76 0 119 -38 119 -100c0 -73 -80 -157 -292 -215c6 -74 43 -106 101 -106c61 0 106 37 135 73l26 -19
c-42 -73 -115 -140 -206 -140zM458 545l-111 115l-145 -115l-24 27l160 176h48l102 -179z" />
    <glyph glyph-name="ecaron" unicode="&#x11b;" horiz-adv-x="439" 
d="M293 445c-58 0 -147 -105 -154 -226c151 47 200 117 200 172c0 35 -19 54 -46 54zM195 -14c-95 0 -162 64 -162 187c0 167 124 320 279 320c76 0 119 -38 119 -100c0 -73 -80 -157 -292 -215c6 -74 43 -106 101 -106c61 0 106 37 135 73l26 -19
c-42 -73 -115 -140 -206 -140zM238 759l100 -114l144 115l26 -25l-157 -180h-53l-92 182z" />
    <glyph glyph-name="edieresis" unicode="&#xeb;" horiz-adv-x="439" 
d="M293 445c-58 0 -147 -105 -154 -226c151 47 200 117 200 172c0 35 -19 54 -46 54zM195 -14c-95 0 -162 64 -162 187c0 167 124 320 279 320c76 0 119 -38 119 -100c0 -73 -80 -157 -292 -215c6 -74 43 -106 101 -106c61 0 106 37 135 73l26 -19
c-42 -73 -115 -140 -206 -140zM241 611c-30 0 -56 20 -56 54c0 43 34 69 68 69c31 0 55 -22 55 -53c0 -43 -32 -70 -67 -70zM449 611c-29 0 -55 20 -55 54c0 43 33 69 66 69c32 0 56 -22 56 -53c0 -43 -32 -70 -67 -70z" />
    <glyph glyph-name="emacron" unicode="&#x113;" horiz-adv-x="439" 
d="M293 445c-58 0 -147 -105 -154 -226c151 47 200 117 200 172c0 35 -19 54 -46 54zM195 -14c-95 0 -162 64 -162 187c0 167 124 320 279 320c76 0 119 -38 119 -100c0 -73 -80 -157 -292 -215c6 -74 43 -106 101 -106c61 0 106 37 135 73l26 -19
c-42 -73 -115 -140 -206 -140zM216 607l15 70h240l-15 -70h-240z" />
    <glyph glyph-name="edotaccent" unicode="&#x117;" horiz-adv-x="439" 
d="M293 445c-58 0 -147 -105 -154 -226c151 47 200 117 200 172c0 35 -19 54 -46 54zM195 -14c-95 0 -162 64 -162 187c0 167 124 320 279 320c76 0 119 -38 119 -100c0 -73 -80 -157 -292 -215c6 -74 43 -106 101 -106c61 0 106 37 135 73l26 -19
c-42 -73 -115 -140 -206 -140zM345 610c-33 0 -58 23 -58 61c0 41 33 74 69 74c34 0 58 -25 58 -62c0 -40 -33 -73 -69 -73z" />
    <glyph glyph-name="eogonek" unicode="&#x119;" horiz-adv-x="439" 
d="M293 445c-58 0 -147 -105 -154 -226c151 47 200 117 200 172c0 35 -19 54 -46 54zM231 -237c-58 0 -89 30 -89 77c0 54 43 102 96 151v1c-7 -3 -25 -6 -43 -6c-95 0 -162 64 -162 187c0 167 124 320 279 320c76 0 119 -38 119 -100c0 -73 -80 -157 -292 -215
c6 -74 43 -106 101 -106c61 0 106 37 135 73l26 -19c-23 -37 -50 -70 -87 -102c-57 -51 -95 -101 -95 -154c0 -35 21 -53 49 -53c14 0 30 4 46 11l13 -28c-26 -20 -57 -37 -96 -37z" />
    <glyph glyph-name="ebreve" unicode="&#x115;" horiz-adv-x="439" 
d="M293 445c-58 0 -147 -105 -154 -226c151 47 200 117 200 172c0 35 -19 54 -46 54zM195 -14c-95 0 -162 64 -162 187c0 167 124 320 279 320c76 0 119 -38 119 -100c0 -73 -80 -157 -292 -215c6 -74 43 -106 101 -106c61 0 106 37 135 73l26 -19
c-42 -73 -115 -140 -206 -140zM327 569c-99 0 -138 70 -141 149l38 15c18 -50 51 -87 109 -87c60 0 104 35 131 87l37 -12c-20 -70 -73 -152 -174 -152z" />
    <glyph glyph-name="uni1EBF" unicode="&#x1ebf;" horiz-adv-x="439" 
d="M293 445c-58 0 -147 -105 -154 -226c151 47 200 117 200 172c0 35 -19 54 -46 54zM195 -14c-95 0 -162 64 -162 187c0 167 124 320 279 320c76 0 119 -38 119 -100c0 -73 -80 -157 -292 -215c6 -74 43 -106 101 -106c61 0 106 37 135 73l26 -19
c-42 -73 -115 -140 -206 -140zM203 536l-23 29l145 156h48l112 -159l-28 -25l-117 104zM459 640l-25 30l49 72c27 41 45 50 64 50c22 0 40 -16 40 -41c0 -22 -13 -41 -49 -61z" />
    <glyph glyph-name="uni1EC7" unicode="&#x1ec7;" horiz-adv-x="439" 
d="M293 445c-58 0 -147 -105 -154 -226c151 47 200 117 200 172c0 35 -19 54 -46 54zM195 -14c-95 0 -162 64 -162 187c0 167 124 320 279 320c76 0 119 -38 119 -100c0 -73 -80 -157 -292 -215c6 -74 43 -106 101 -106c61 0 106 37 135 73l26 -19
c-42 -73 -115 -140 -206 -140zM458 545l-111 115l-145 -115l-24 27l160 176h48l102 -179zM166 -202c-33 0 -58 23 -58 61c0 41 33 74 69 74c34 0 58 -25 58 -62c0 -40 -33 -73 -69 -73z" />
    <glyph glyph-name="uni1EC1" unicode="&#x1ec1;" horiz-adv-x="439" 
d="M293 445c-58 0 -147 -105 -154 -226c151 47 200 117 200 172c0 35 -19 54 -46 54zM195 -14c-95 0 -162 64 -162 187c0 167 124 320 279 320c76 0 119 -38 119 -100c0 -73 -80 -157 -292 -215c6 -74 43 -106 101 -106c61 0 106 37 135 73l26 -19
c-42 -73 -115 -140 -206 -140zM203 536l-23 29l145 156h48l112 -159l-28 -25l-117 104zM221 641l-74 49c-34 20 -48 39 -48 61c0 24 18 41 42 41c21 0 39 -11 63 -52l45 -70z" />
    <glyph glyph-name="uni1EC3" unicode="&#x1ec3;" horiz-adv-x="439" 
d="M293 445c-58 0 -147 -105 -154 -226c151 47 200 117 200 172c0 35 -19 54 -46 54zM195 -14c-95 0 -162 64 -162 187c0 167 124 320 279 320c76 0 119 -38 119 -100c0 -73 -80 -157 -292 -215c6 -74 43 -106 101 -106c61 0 106 37 135 73l26 -19
c-42 -73 -115 -140 -206 -140zM203 536l-23 29l145 156h48l112 -159l-28 -25l-117 104zM453 632l-7 38c39 10 54 27 54 47c0 26 -16 34 -69 42l19 83c79 -8 111 -44 111 -103c0 -58 -46 -99 -108 -107z" />
    <glyph glyph-name="uni1EC5" unicode="&#x1ec5;" horiz-adv-x="439" 
d="M293 445c-58 0 -147 -105 -154 -226c151 47 200 117 200 172c0 35 -19 54 -46 54zM195 -14c-95 0 -162 64 -162 187c0 167 124 320 279 320c76 0 119 -38 119 -100c0 -73 -80 -157 -292 -215c6 -74 43 -106 101 -106c61 0 106 37 135 73l26 -19
c-42 -73 -115 -140 -206 -140zM203 536l-23 29l145 146h48l112 -149l-28 -25l-117 96zM232 712l-30 11c12 60 49 99 103 99c31 0 48 -11 68 -22c22 -14 40 -25 63 -25c26 0 45 14 59 48l30 -13c-12 -62 -46 -98 -97 -98c-30 0 -51 11 -70 23c-20 14 -41 25 -65 25
c-27 0 -47 -17 -61 -48z" />
    <glyph glyph-name="uni1EB9" unicode="&#x1eb9;" horiz-adv-x="439" 
d="M293 445c-58 0 -147 -105 -154 -226c151 47 200 117 200 172c0 35 -19 54 -46 54zM195 -14c-95 0 -162 64 -162 187c0 167 124 320 279 320c76 0 119 -38 119 -100c0 -73 -80 -157 -292 -215c6 -74 43 -106 101 -106c61 0 106 37 135 73l26 -19
c-42 -73 -115 -140 -206 -140zM166 -202c-33 0 -58 23 -58 61c0 41 33 74 69 74c34 0 58 -25 58 -62c0 -40 -33 -73 -69 -73z" />
    <glyph glyph-name="uni1EBB" unicode="&#x1ebb;" horiz-adv-x="439" 
d="M293 445c-58 0 -147 -105 -154 -226c151 47 200 117 200 172c0 35 -19 54 -46 54zM195 -14c-95 0 -162 64 -162 187c0 167 124 320 279 320c76 0 119 -38 119 -100c0 -73 -80 -157 -292 -215c6 -74 43 -106 101 -106c61 0 106 37 135 73l26 -19
c-42 -73 -115 -140 -206 -140zM317 554l-8 40c45 9 61 26 61 48c0 26 -24 35 -87 44l18 80c93 -8 134 -44 134 -101c0 -61 -44 -102 -118 -111z" />
    <glyph glyph-name="uni1EBD" unicode="&#x1ebd;" horiz-adv-x="439" 
d="M293 445c-58 0 -147 -105 -154 -226c151 47 200 117 200 172c0 35 -19 54 -46 54zM195 -14c-95 0 -162 64 -162 187c0 167 124 320 279 320c76 0 119 -38 119 -100c0 -73 -80 -157 -292 -215c6 -74 43 -106 101 -106c61 0 106 37 135 73l26 -19
c-42 -73 -115 -140 -206 -140zM174 585c26 88 68 136 120 136c30 0 48 -14 64 -30c18 -19 32 -40 55 -40c28 0 49 27 69 70l32 -12c-27 -87 -67 -136 -119 -136c-29 0 -49 13 -66 30c-16 18 -31 40 -55 40c-27 0 -48 -26 -69 -69z" />
    <glyph glyph-name="gbreve" unicode="&#x11f;" horiz-adv-x="509" 
d="M217 153c-29 0 -53 5 -74 14c-20 -22 -22 -33 -22 -45c0 -17 10 -37 50 -42l117 -12c111 -12 149 -55 149 -115c0 -107 -132 -191 -309 -191c-105 0 -174 35 -174 104c0 56 57 106 122 136c-34 14 -48 40 -48 67c0 45 33 79 87 114c-35 25 -53 65 -53 110
c0 109 90 200 202 200c70 0 119 -37 134 -91c20 83 56 109 98 109c16 0 27 -3 37 -8c4 -7 8 -14 8 -24c0 -50 -37 -66 -109 -85c-6 -16 -10 -33 -15 -53c-29 -122 -94 -188 -200 -188zM235 190c49 0 87 48 87 157c0 68 -30 109 -68 109c-59 0 -88 -62 -88 -152
c0 -66 21 -114 69 -114zM291 569c-99 0 -138 70 -141 149l38 15c18 -50 51 -87 109 -87c60 0 104 35 131 87l37 -12c-20 -70 -73 -152 -174 -152zM49 -100c0 -54 49 -85 130 -85c99 0 161 36 161 91c0 35 -26 62 -112 72l-98 10c-7 1 -15 1 -22 2c-38 -27 -59 -55 -59 -90z
" />
    <glyph glyph-name="gdotaccent" unicode="&#x121;" horiz-adv-x="509" 
d="M217 153c-29 0 -53 5 -74 14c-20 -22 -22 -33 -22 -45c0 -17 10 -37 50 -42l117 -12c111 -12 149 -55 149 -115c0 -107 -132 -191 -309 -191c-105 0 -174 35 -174 104c0 56 57 106 122 136c-34 14 -48 40 -48 67c0 45 33 79 87 114c-35 25 -53 65 -53 110
c0 109 90 200 202 200c70 0 119 -37 134 -91c20 83 56 109 98 109c16 0 27 -3 37 -8c4 -7 8 -14 8 -24c0 -50 -37 -66 -109 -85c-6 -16 -10 -33 -15 -53c-29 -122 -94 -188 -200 -188zM235 190c49 0 87 48 87 157c0 68 -30 109 -68 109c-59 0 -88 -62 -88 -152
c0 -66 21 -114 69 -114zM309 610c-33 0 -58 23 -58 61c0 41 33 74 69 74c34 0 58 -25 58 -62c0 -40 -33 -73 -69 -73zM49 -100c0 -54 49 -85 130 -85c99 0 161 36 161 91c0 35 -26 62 -112 72l-98 10c-7 1 -15 1 -22 2c-38 -27 -59 -55 -59 -90z" />
    <glyph glyph-name="uni0123" unicode="&#x123;" horiz-adv-x="509" 
d="M217 153c-29 0 -53 5 -74 14c-20 -22 -22 -33 -22 -45c0 -17 10 -37 50 -42l117 -12c111 -12 149 -55 149 -115c0 -107 -132 -191 -309 -191c-105 0 -174 35 -174 104c0 56 57 106 122 136c-34 14 -48 40 -48 67c0 45 33 79 87 114c-35 25 -53 65 -53 110
c0 109 90 200 202 200c70 0 119 -37 134 -91c20 83 56 109 98 109c16 0 27 -3 37 -8c4 -7 8 -14 8 -24c0 -50 -37 -66 -109 -85c-6 -16 -10 -33 -15 -53c-29 -122 -94 -188 -200 -188zM235 190c49 0 87 48 87 157c0 68 -30 109 -68 109c-59 0 -88 -62 -88 -152
c0 -66 21 -114 69 -114zM252 630c0 83 41 130 121 155l13 -34c-36 -15 -53 -28 -65 -47c31 -13 44 -36 44 -61c0 -32 -22 -62 -65 -62c-18 0 -31 6 -43 18c-3 11 -5 20 -5 31zM49 -100c0 -54 49 -85 130 -85c99 0 161 36 161 91c0 35 -26 62 -112 72l-98 10
c-7 1 -15 1 -22 2c-38 -27 -59 -55 -59 -90z" />
    <glyph glyph-name="gcaron" unicode="&#x1e7;" horiz-adv-x="509" 
d="M217 153c-29 0 -53 5 -74 14c-20 -22 -22 -33 -22 -45c0 -17 10 -37 50 -42l117 -12c111 -12 149 -55 149 -115c0 -107 -132 -191 -309 -191c-105 0 -174 35 -174 104c0 56 57 106 122 136c-34 14 -48 40 -48 67c0 45 33 79 87 114c-35 25 -53 65 -53 110
c0 109 90 200 202 200c70 0 119 -37 134 -91c20 83 56 109 98 109c16 0 27 -3 37 -8c4 -7 8 -14 8 -24c0 -50 -37 -66 -109 -85c-6 -16 -10 -33 -15 -53c-29 -122 -94 -188 -200 -188zM235 190c49 0 87 48 87 157c0 68 -30 109 -68 109c-59 0 -88 -62 -88 -152
c0 -66 21 -114 69 -114zM202 759l100 -114l144 115l26 -25l-157 -180h-53l-92 182zM49 -100c0 -54 49 -85 130 -85c99 0 161 36 161 91c0 35 -26 62 -112 72l-98 10c-7 1 -15 1 -22 2c-38 -27 -59 -55 -59 -90z" />
    <glyph glyph-name="gcircumflex" unicode="&#x11d;" horiz-adv-x="509" 
d="M217 153c-29 0 -53 5 -74 14c-20 -22 -22 -33 -22 -45c0 -17 10 -37 50 -42l117 -12c111 -12 149 -55 149 -115c0 -107 -132 -191 -309 -191c-105 0 -174 35 -174 104c0 56 57 106 122 136c-34 14 -48 40 -48 67c0 45 33 79 87 114c-35 25 -53 65 -53 110
c0 109 90 200 202 200c70 0 119 -37 134 -91c20 83 56 109 98 109c16 0 27 -3 37 -8c4 -7 8 -14 8 -24c0 -50 -37 -66 -109 -85c-6 -16 -10 -33 -15 -53c-29 -122 -94 -188 -200 -188zM235 190c49 0 87 48 87 157c0 68 -30 109 -68 109c-59 0 -88 -62 -88 -152
c0 -66 21 -114 69 -114zM422 545l-111 115l-145 -115l-24 27l160 176h48l102 -179zM49 -100c0 -54 49 -85 130 -85c99 0 161 36 161 91c0 35 -26 62 -112 72l-98 10c-7 1 -15 1 -22 2c-38 -27 -59 -55 -59 -90z" />
    <glyph glyph-name="uni1E21" unicode="&#x1e21;" horiz-adv-x="509" 
d="M217 153c-29 0 -53 5 -74 14c-20 -22 -22 -33 -22 -45c0 -17 10 -37 50 -42l117 -12c111 -12 149 -55 149 -115c0 -107 -132 -191 -309 -191c-105 0 -174 35 -174 104c0 56 57 106 122 136c-34 14 -48 40 -48 67c0 45 33 79 87 114c-35 25 -53 65 -53 110
c0 109 90 200 202 200c70 0 119 -37 134 -91c20 83 56 109 98 109c16 0 27 -3 37 -8c4 -7 8 -14 8 -24c0 -50 -37 -66 -109 -85c-6 -16 -10 -33 -15 -53c-29 -122 -94 -188 -200 -188zM235 190c49 0 87 48 87 157c0 68 -30 109 -68 109c-59 0 -88 -62 -88 -152
c0 -66 21 -114 69 -114zM180 607l15 70h240l-15 -70h-240zM49 -100c0 -54 49 -85 130 -85c99 0 161 36 161 91c0 35 -26 62 -112 72l-98 10c-7 1 -15 1 -22 2c-38 -27 -59 -55 -59 -90z" />
    <glyph glyph-name="uni00670303" horiz-adv-x="509" 
d="M217 153c-29 0 -53 5 -74 14c-20 -22 -22 -33 -22 -45c0 -17 10 -37 50 -42l117 -12c111 -12 149 -55 149 -115c0 -107 -132 -191 -309 -191c-105 0 -174 35 -174 104c0 56 57 106 122 136c-34 14 -48 40 -48 67c0 45 33 79 87 114c-35 25 -53 65 -53 110
c0 109 90 200 202 200c70 0 119 -37 134 -91c20 83 56 109 98 109c16 0 27 -3 37 -8c4 -7 8 -14 8 -24c0 -50 -37 -66 -109 -85c-6 -16 -10 -33 -15 -53c-29 -122 -94 -188 -200 -188zM235 190c49 0 87 48 87 157c0 68 -30 109 -68 109c-59 0 -88 -62 -88 -152
c0 -66 21 -114 69 -114zM138 585c26 88 68 136 120 136c30 0 48 -14 64 -30c18 -19 32 -40 55 -40c28 0 49 27 69 70l32 -12c-27 -87 -67 -136 -119 -136c-29 0 -49 13 -66 30c-16 18 -31 40 -55 40c-27 0 -48 -26 -69 -69zM49 -100c0 -54 49 -85 130 -85
c99 0 161 36 161 91c0 35 -26 62 -112 72l-98 10c-7 1 -15 1 -22 2c-38 -27 -59 -55 -59 -90z" />
    <glyph glyph-name="hbar" unicode="&#x127;" horiz-adv-x="562" 
d="M43 -8l-12 10l93 450c5 25 11 50 16 75h-84l9 52h85l9 57l-80 9l4 31l191 54l12 -11l-29 -140h166l-10 -52h-167l-33 -161c66 66 143 112 205 112c43 0 71 -26 71 -77c0 -29 -7 -61 -15 -94l-41 -170c-6 -24 -11 -40 -11 -50c0 -14 7 -21 18 -21c20 0 52 24 86 67l27 -20
c-39 -63 -106 -127 -183 -127c-40 0 -63 20 -63 53c0 27 8 51 17 87l35 146c8 33 15 62 15 81c0 28 -12 39 -31 39c-32 0 -80 -24 -139 -74l-22 -105c-17 -78 -29 -142 -40 -213z" />
    <glyph glyph-name="uni1E2B" unicode="&#x1e2b;" horiz-adv-x="562" 
d="M43 -8l-12 10l93 450c13 61 25 121 35 182l-80 9l4 33l191 54l12 -11l-70 -336c67 65 145 110 207 110c43 0 71 -25 71 -76c0 -29 -7 -60 -15 -92l-46 -188c-6 -24 -11 -40 -11 -50c0 -14 7 -21 18 -21c20 0 52 24 86 67l27 -20c-39 -63 -106 -127 -183 -127
c-40 0 -63 20 -63 53c0 27 8 51 17 87l40 163c8 33 14 63 14 81c0 29 -12 39 -30 39c-33 0 -80 -24 -140 -75l-26 -121c-17 -78 -29 -142 -40 -213zM195 -227c-99 0 -138 70 -141 149l38 15c18 -50 51 -87 109 -87c60 0 104 35 131 87l37 -12c-20 -70 -73 -152 -174 -152z
" />
    <glyph glyph-name="hcircumflex" unicode="&#x125;" horiz-adv-x="562" 
d="M43 -8l-12 10l93 450c13 61 25 121 35 182l-80 9l4 33l191 54l12 -11l-70 -336c67 65 145 110 207 110c43 0 71 -25 71 -76c0 -29 -7 -60 -15 -92l-46 -188c-6 -24 -11 -40 -11 -50c0 -14 7 -21 18 -21c20 0 52 24 86 67l27 -20c-39 -63 -106 -127 -183 -127
c-40 0 -63 20 -63 53c0 27 8 51 17 87l40 163c8 33 14 63 14 81c0 29 -12 39 -30 39c-33 0 -80 -24 -140 -75l-26 -121c-17 -78 -29 -142 -40 -213zM441 915l117 -137l-25 -26l-127 89l-153 -89l-16 27l157 136h47z" />
    <glyph glyph-name="uni1E25" unicode="&#x1e25;" horiz-adv-x="562" 
d="M43 -8l-12 10l93 450c13 61 25 121 35 182l-80 9l4 33l191 54l12 -11l-70 -336c67 65 145 110 207 110c43 0 71 -25 71 -76c0 -29 -7 -60 -15 -92l-46 -188c-6 -24 -11 -40 -11 -50c0 -14 7 -21 18 -21c20 0 52 24 86 67l27 -20c-39 -63 -106 -127 -183 -127
c-40 0 -63 20 -63 53c0 27 8 51 17 87l40 163c8 33 14 63 14 81c0 29 -12 39 -30 39c-33 0 -80 -24 -140 -75l-26 -121c-17 -78 -29 -142 -40 -213zM197 -202c-33 0 -58 23 -58 61c0 41 33 74 69 74c34 0 58 -25 58 -62c0 -40 -33 -73 -69 -73z" />
    <glyph glyph-name="igrave" unicode="&#xec;" horiz-adv-x="312" 
d="M60 44c0 22 5 51 12 86l56 268l-84 9l5 33l190 54l15 -12l-73 -345c-5 -22 -8 -39 -8 -50c0 -13 9 -21 19 -21c21 0 48 22 84 67l28 -20c-42 -63 -100 -127 -179 -127c-37 0 -65 20 -65 58zM223 552l-27 -16c-35 43 -68 81 -104 125c-21 23 -33 40 -33 63
c0 27 23 47 50 47c29 0 47 -13 62 -59c19 -54 34 -106 52 -160z" />
    <glyph glyph-name="iacute" unicode="&#xed;" horiz-adv-x="312" 
d="M60 44c0 22 5 51 12 86l56 268l-84 9l5 33l190 54l15 -12l-73 -345c-5 -22 -8 -39 -8 -50c0 -13 9 -21 19 -21c21 0 48 22 84 67l28 -20c-42 -63 -100 -127 -179 -127c-37 0 -65 20 -65 58zM195 553c21 53 41 107 62 160c17 43 38 58 64 58c25 0 49 -17 49 -45
c0 -23 -12 -44 -35 -68c-38 -41 -75 -81 -113 -122z" />
    <glyph glyph-name="icircumflex" unicode="&#xee;" horiz-adv-x="312" 
d="M60 44c0 22 5 51 12 86l56 268l-84 9l5 33l190 54l15 -12l-73 -345c-5 -22 -8 -39 -8 -50c0 -13 9 -21 19 -21c21 0 48 22 84 67l28 -20c-42 -63 -100 -127 -179 -127c-37 0 -65 20 -65 58zM345 545l-111 115l-145 -115l-24 27l160 176h48l102 -179z" />
    <glyph glyph-name="idieresis" unicode="&#xef;" horiz-adv-x="312" 
d="M60 44c0 22 5 51 12 86l56 268l-84 9l5 33l190 54l15 -12l-73 -345c-5 -22 -8 -39 -8 -50c0 -13 9 -21 19 -21c21 0 48 22 84 67l28 -20c-42 -63 -100 -127 -179 -127c-37 0 -65 20 -65 58zM139 611c-30 0 -56 20 -56 54c0 43 34 69 67 69c31 0 55 -22 55 -53
c0 -43 -32 -70 -66 -70zM323 611c-29 0 -55 20 -55 54c0 43 33 69 66 69c32 0 56 -22 56 -53c0 -43 -32 -70 -67 -70z" />
    <glyph glyph-name="idieresis.narrow" horiz-adv-x="312" 
d="M158 611c-28 0 -52 19 -52 54c0 42 32 69 64 69c30 0 51 -21 51 -52c0 -43 -29 -71 -63 -71zM313 611c-27 0 -51 19 -51 54c0 42 31 69 63 69c31 0 51 -21 51 -52c0 -43 -31 -71 -63 -71zM60 44c0 22 5 51 12 86l56 268l-84 9l5 33l190 54l15 -12l-73 -345
c-5 -22 -8 -39 -8 -50c0 -13 9 -21 19 -21c21 0 48 22 84 67l28 -20c-42 -63 -100 -127 -179 -127c-37 0 -65 20 -65 58z" />
    <glyph glyph-name="imacron" unicode="&#x12b;" horiz-adv-x="312" 
d="M60 44c0 22 5 51 12 86l56 268l-84 9l5 33l190 54l15 -12l-73 -345c-5 -22 -8 -39 -8 -50c0 -13 9 -21 19 -21c21 0 48 22 84 67l28 -20c-42 -63 -100 -127 -179 -127c-37 0 -65 20 -65 58zM103 607l15 70h240l-15 -70h-240z" />
    <glyph glyph-name="iogonek" unicode="&#x12f;" horiz-adv-x="312" 
d="M148 -237c-58 0 -89 30 -89 77c0 53 42 101 93 149v1c-4 -2 -14 -4 -27 -4c-37 0 -65 20 -65 58c0 22 5 51 12 86l56 267l-84 10l5 33l190 54l15 -12l-73 -345c-5 -22 -8 -39 -8 -50c0 -13 9 -21 19 -21c21 0 48 22 84 67l28 -20c-23 -33 -51 -64 -80 -92
c-52 -50 -88 -100 -88 -151c0 -35 21 -53 49 -53c14 0 31 4 46 11l13 -28c-26 -21 -58 -37 -96 -37zM230 610c-34 0 -62 24 -62 62c0 41 34 73 70 73s62 -25 62 -61c0 -42 -34 -74 -70 -74z" />
    <glyph glyph-name="i.trk" horiz-adv-x="312" 
d="M60 44c0 22 5 51 12 86l56 268l-84 9l5 33l190 54l15 -12l-73 -345c-5 -22 -8 -39 -8 -50c0 -13 9 -21 19 -21c21 0 48 22 84 67l28 -20c-42 -63 -100 -127 -179 -127c-37 0 -65 20 -65 58zM230 610c-34 0 -62 24 -62 62c0 41 34 73 70 73s62 -25 62 -61
c0 -42 -34 -74 -70 -74z" />
    <glyph glyph-name="uni01D0" unicode="&#x1d0;" horiz-adv-x="312" 
d="M60 44c0 22 5 51 12 86l56 268l-84 9l5 33l190 54l15 -12l-73 -345c-5 -22 -8 -39 -8 -50c0 -13 9 -21 19 -21c21 0 48 22 84 67l28 -20c-42 -63 -100 -127 -179 -127c-37 0 -65 20 -65 58zM125 759l100 -114l144 115l26 -25l-157 -180h-53l-92 182z" />
    <glyph glyph-name="uni1ECB" unicode="&#x1ecb;" horiz-adv-x="312" 
d="M60 44c0 22 5 51 12 86l56 268l-84 9l5 33l190 54l15 -12l-73 -345c-5 -22 -8 -39 -8 -50c0 -13 9 -21 19 -21c21 0 48 22 84 67l28 -20c-42 -63 -100 -127 -179 -127c-37 0 -65 20 -65 58zM111 -202c-33 0 -58 23 -58 61c0 41 33 74 69 74c34 0 58 -25 58 -62
c0 -40 -33 -73 -69 -73zM230 610c-34 0 -62 24 -62 62c0 41 34 73 70 73s62 -25 62 -61c0 -42 -34 -74 -70 -74z" />
    <glyph glyph-name="uni1EC9" unicode="&#x1ec9;" horiz-adv-x="312" 
d="M60 44c0 22 5 51 12 86l56 268l-84 9l5 33l190 54l15 -12l-73 -345c-5 -22 -8 -39 -8 -50c0 -13 9 -21 19 -21c21 0 48 22 84 67l28 -20c-42 -63 -100 -127 -179 -127c-37 0 -65 20 -65 58zM204 554l-8 40c45 9 61 26 61 48c0 26 -24 35 -87 44l18 80
c93 -8 134 -44 134 -101c0 -61 -44 -102 -118 -111z" />
    <glyph glyph-name="itilde" unicode="&#x129;" horiz-adv-x="312" 
d="M60 44c0 22 5 51 12 86l56 268l-84 9l5 33l190 54l15 -12l-73 -345c-5 -22 -8 -39 -8 -50c0 -13 9 -21 19 -21c21 0 48 22 84 67l28 -20c-42 -63 -100 -127 -179 -127c-37 0 -65 20 -65 58zM61 585c26 88 68 136 120 136c30 0 48 -14 64 -30c18 -19 32 -40 55 -40
c28 0 49 27 69 70l32 -12c-27 -87 -67 -136 -119 -136c-29 0 -49 13 -66 30c-16 18 -31 40 -55 40c-27 0 -48 -26 -69 -69z" />
    <glyph glyph-name="dotlessi" unicode="&#x131;" horiz-adv-x="312" 
d="M60 44c0 22 5 51 12 86l56 268l-84 9l5 33l190 54l15 -12l-73 -345c-5 -22 -8 -39 -8 -50c0 -13 9 -21 19 -21c21 0 48 22 84 67l28 -20c-42 -63 -100 -127 -179 -127c-37 0 -65 20 -65 58z" />
    <glyph glyph-name="uni0237" unicode="&#x237;" horiz-adv-x="269" 
d="M-79 -242l-7 30c33 14 57 28 78 56c28 38 49 92 70 205l66 349l-84 9l5 33l187 54l15 -12l-85 -439c-20 -98 -54 -170 -107 -219c-35 -37 -82 -61 -138 -66z" />
    <glyph glyph-name="jcircumflex" unicode="&#x135;" horiz-adv-x="269" 
d="M-79 -242l-7 30c33 14 57 28 78 56c28 38 49 92 70 205l66 349l-84 9l5 33l187 54l15 -12l-85 -439c-20 -98 -54 -170 -107 -219c-35 -37 -82 -61 -138 -66zM345 545l-111 115l-145 -115l-24 27l160 176h48l102 -179z" />
    <glyph glyph-name="uni0137" unicode="&#x137;" horiz-adv-x="500" 
d="M31 2l93 450c12 61 24 121 34 182l-80 9l5 33l189 54l13 -11l-90 -436l254 205c30 -3 51 -28 51 -57c0 -28 -21 -47 -72 -66l-228 -104l34 -4c61 -9 99 -43 123 -98l30 -67c19 -43 33 -53 61 -56l40 -4l-5 -32c-30 -10 -55 -14 -83 -14c-55 0 -93 15 -121 89l-31 83
c-21 54 -32 70 -62 80l-5 -25c-16 -78 -28 -142 -40 -213l-98 -8zM261 -112c0 -83 -41 -130 -121 -155l-13 34c36 15 53 28 65 47c-31 13 -44 36 -44 61c0 32 22 62 65 62c18 0 31 -6 43 -18c3 -11 5 -20 5 -31z" />
    <glyph glyph-name="kgreenlandic" unicode="&#x138;" horiz-adv-x="513" 
d="M57 -8l-13 10l83 396l-83 9l5 33l187 54l16 -13l-25 -124l-20 -92l258 223c31 -3 52 -28 52 -57c0 -28 -23 -43 -73 -66l-228 -118l34 -4c62 -9 98 -41 124 -92l30 -59c20 -42 33 -53 61 -56l40 -4l-6 -32c-29 -10 -54 -14 -83 -14c-55 0 -92 16 -120 89l-29 74
c-21 51 -34 65 -66 75l-2 1l-3 -13c-15 -71 -28 -140 -41 -212z" />
    <glyph glyph-name="lacute" unicode="&#x13a;" horiz-adv-x="293" 
d="M114 -14c-39 0 -67 21 -67 63c0 20 5 47 14 94l62 309c13 60 25 121 35 182l-80 9l5 33l191 54l13 -11l-120 -581c-6 -23 -8 -40 -8 -50c0 -14 10 -22 21 -22c19 0 47 23 83 67l27 -20c-41 -63 -98 -127 -176 -127zM204 778c38 34 76 68 115 101c33 28 47 37 73 37
c27 0 45 -18 45 -42c0 -19 -8 -40 -58 -61c-52 -21 -105 -42 -158 -63z" />
    <glyph glyph-name="lcaron" unicode="&#x13e;" horiz-adv-x="308" 
d="M114 -14c-39 0 -67 21 -67 63c0 20 5 47 14 94l62 309c13 60 25 121 35 182l-80 9l5 33l191 54l13 -11l-120 -581c-6 -23 -8 -40 -8 -50c0 -14 10 -22 21 -22c19 0 47 23 83 67l27 -20c-41 -63 -98 -127 -176 -127zM406 740c32 0 40 -18 40 -34c0 -33 -28 -85 -53 -131
l-39 -70l-39 4l45 221c17 7 29 10 46 10z" />
    <glyph glyph-name="uni013C" unicode="&#x13c;" horiz-adv-x="293" 
d="M114 -14c-39 0 -67 21 -67 63c0 20 5 47 14 94l62 309c13 60 25 121 35 182l-80 9l5 33l191 54l13 -11l-120 -581c-6 -23 -8 -40 -8 -50c0 -14 10 -22 21 -22c19 0 47 23 83 67l27 -20c-41 -63 -98 -127 -176 -127zM170 -112c0 -83 -41 -130 -121 -155l-13 34
c36 15 53 28 65 47c-31 13 -44 36 -44 61c0 32 22 62 65 62c18 0 31 -6 43 -18c3 -11 5 -20 5 -31z" />
    <glyph glyph-name="ldot" unicode="&#x140;" horiz-adv-x="325" 
d="M114 -14c-39 0 -67 21 -67 63c0 20 5 47 14 94l62 309c13 60 25 121 35 182l-80 9l5 33l191 54l13 -11l-120 -581c-6 -23 -8 -40 -8 -50c0 -14 10 -22 21 -22c19 0 47 23 83 67l27 -20c-41 -63 -98 -127 -176 -127zM317 291c-42 0 -71 30 -71 68c0 47 39 82 84 82
c42 0 70 -31 70 -68c0 -47 -39 -82 -83 -82z" />
    <glyph glyph-name="uni1E37" unicode="&#x1e37;" horiz-adv-x="293" 
d="M114 -14c-39 0 -67 21 -67 63c0 20 5 47 14 94l62 309c13 60 25 121 35 182l-80 9l5 33l191 54l13 -11l-120 -581c-6 -23 -8 -40 -8 -50c0 -14 10 -22 21 -22c19 0 47 23 83 67l27 -20c-41 -63 -98 -127 -176 -127zM103 -202c-33 0 -58 23 -58 61c0 41 33 74 69 74
c34 0 58 -25 58 -62c0 -40 -33 -73 -69 -73z" />
    <glyph glyph-name="uni1E39" unicode="&#x1e39;" horiz-adv-x="293" 
d="M114 -14c-39 0 -67 21 -67 63c0 20 5 47 14 94l62 309c13 60 25 121 35 182l-80 9l5 33l191 54l13 -11l-120 -581c-6 -23 -8 -40 -8 -50c0 -14 10 -22 21 -22c19 0 47 23 83 67l27 -20c-41 -63 -98 -127 -176 -127zM103 -202c-33 0 -58 23 -58 61c0 41 33 74 69 74
c34 0 58 -25 58 -62c0 -40 -33 -73 -69 -73zM138 841l15 70h240l-15 -70h-240z" />
    <glyph glyph-name="uni1E3B" unicode="&#x1e3b;" horiz-adv-x="293" 
d="M114 -14c-39 0 -67 21 -67 63c0 20 5 47 14 94l62 309c13 60 25 121 35 182l-80 9l5 33l191 54l13 -11l-120 -581c-6 -23 -8 -40 -8 -50c0 -14 10 -22 21 -22c19 0 47 23 83 67l27 -20c-41 -63 -98 -127 -176 -127zM-16 -175l15 70h240l-15 -70h-240z" />
    <glyph glyph-name="lslash" unicode="&#x142;" horiz-adv-x="293" 
d="M114 -14c-39 0 -67 21 -67 63c0 20 5 47 14 94l36 181l-86 -42l12 62l87 42l13 66c13 60 25 121 35 182l-80 9l5 33l191 54l13 -11l-59 -286l92 46l-13 -62l-92 -44l-48 -235c-6 -23 -8 -40 -8 -50c0 -14 10 -22 21 -22c19 0 47 23 83 67l27 -20
c-41 -63 -98 -127 -176 -127z" />
    <glyph glyph-name="uni1E3F" unicode="&#x1e3f;" horiz-adv-x="840" 
d="M57 -8l-13 10l83 396l-83 9l5 33l187 54l16 -13l-20 -96c67 64 143 108 205 108c42 0 70 -25 70 -76c0 -11 -1 -22 -3 -32c65 64 137 108 198 108c43 0 70 -25 70 -76c0 -29 -7 -60 -15 -92l-46 -188c-6 -24 -10 -40 -10 -50c0 -14 7 -21 17 -21c23 0 50 22 86 67l27 -20
c-42 -64 -104 -127 -182 -127c-40 0 -63 20 -63 53c0 27 7 51 16 87l40 163c8 33 15 63 15 81c0 29 -11 39 -31 39c-31 0 -75 -24 -133 -74l-25 -123c-15 -71 -29 -140 -42 -212l-97 -8l-12 10l66 312c4 22 8 43 8 59c0 26 -11 36 -29 36c-33 0 -80 -23 -139 -73l-27 -124
c-15 -71 -28 -140 -41 -212zM456 553c21 53 41 107 62 160c17 43 38 58 64 58c25 0 49 -17 49 -45c0 -23 -12 -44 -35 -68c-38 -41 -75 -81 -113 -122z" />
    <glyph glyph-name="uni1E43" unicode="&#x1e43;" horiz-adv-x="840" 
d="M57 -8l-13 10l83 396l-83 9l5 33l187 54l16 -13l-20 -96c67 64 143 108 205 108c42 0 70 -25 70 -76c0 -11 -1 -22 -3 -32c65 64 137 108 198 108c43 0 70 -25 70 -76c0 -29 -7 -60 -15 -92l-46 -188c-6 -24 -10 -40 -10 -50c0 -14 7 -21 17 -21c23 0 50 22 86 67l27 -20
c-42 -64 -104 -127 -182 -127c-40 0 -63 20 -63 53c0 27 7 51 16 87l40 163c8 33 15 63 15 81c0 29 -11 39 -31 39c-31 0 -75 -24 -133 -74l-25 -123c-15 -71 -29 -140 -42 -212l-97 -8l-12 10l66 312c4 22 8 43 8 59c0 26 -11 36 -29 36c-33 0 -80 -23 -139 -73l-27 -124
c-15 -71 -28 -140 -41 -212zM345 -202c-33 0 -58 23 -58 61c0 41 33 74 69 74c34 0 58 -25 58 -62c0 -40 -33 -73 -69 -73z" />
    <glyph glyph-name="nacute" unicode="&#x144;" horiz-adv-x="577" 
d="M57 -8l-13 10l83 396l-83 9l5 33l187 54l16 -13l-20 -97c67 64 145 109 207 109c42 0 70 -25 70 -76c0 -29 -7 -60 -15 -92l-46 -188c-6 -24 -10 -40 -10 -50c0 -14 6 -21 17 -21c21 0 52 24 86 67l28 -20c-39 -63 -107 -127 -184 -127c-39 0 -62 20 -62 53
c0 27 7 51 16 87l40 163c8 33 15 63 15 81c0 29 -12 39 -31 39c-32 0 -81 -25 -141 -76l-26 -121c-15 -71 -28 -140 -41 -212zM324 553c21 53 41 107 62 160c17 43 38 58 64 58c25 0 49 -17 49 -45c0 -23 -12 -44 -35 -68c-38 -41 -75 -81 -113 -122z" />
    <glyph glyph-name="ncaron" unicode="&#x148;" horiz-adv-x="577" 
d="M57 -8l-13 10l83 396l-83 9l5 33l187 54l16 -13l-20 -97c67 64 145 109 207 109c42 0 70 -25 70 -76c0 -29 -7 -60 -15 -92l-46 -188c-6 -24 -10 -40 -10 -50c0 -14 6 -21 17 -21c21 0 52 24 86 67l28 -20c-39 -63 -107 -127 -184 -127c-39 0 -62 20 -62 53
c0 27 7 51 16 87l40 163c8 33 15 63 15 81c0 29 -12 39 -31 39c-32 0 -81 -25 -141 -76l-26 -121c-15 -71 -28 -140 -41 -212zM254 759l100 -114l144 115l26 -25l-157 -180h-53l-92 182z" />
    <glyph glyph-name="uni01F9" unicode="&#x1f9;" horiz-adv-x="577" 
d="M57 -8l-13 10l83 396l-83 9l5 33l187 54l16 -13l-20 -97c67 64 145 109 207 109c42 0 70 -25 70 -76c0 -29 -7 -60 -15 -92l-46 -188c-6 -24 -10 -40 -10 -50c0 -14 6 -21 17 -21c21 0 52 24 86 67l28 -20c-39 -63 -107 -127 -184 -127c-39 0 -62 20 -62 53
c0 27 7 51 16 87l40 163c8 33 15 63 15 81c0 29 -12 39 -31 39c-32 0 -81 -25 -141 -76l-26 -121c-15 -71 -28 -140 -41 -212zM352 552l-27 -16c-35 43 -68 81 -104 125c-21 23 -33 40 -33 63c0 27 23 47 50 47c29 0 47 -13 62 -59c19 -54 34 -106 52 -160z" />
    <glyph glyph-name="ntilde" unicode="&#xf1;" horiz-adv-x="577" 
d="M57 -8l-13 10l83 396l-83 9l5 33l187 54l16 -13l-20 -97c67 64 145 109 207 109c42 0 70 -25 70 -76c0 -29 -7 -60 -15 -92l-46 -188c-6 -24 -10 -40 -10 -50c0 -14 6 -21 17 -21c21 0 52 24 86 67l28 -20c-39 -63 -107 -127 -184 -127c-39 0 -62 20 -62 53
c0 27 7 51 16 87l40 163c8 33 15 63 15 81c0 29 -12 39 -31 39c-32 0 -81 -25 -141 -76l-26 -121c-15 -71 -28 -140 -41 -212zM190 585c26 88 68 136 120 136c30 0 48 -14 64 -30c18 -19 32 -40 55 -40c28 0 49 27 69 70l32 -12c-27 -87 -67 -136 -119 -136
c-29 0 -49 13 -66 30c-16 18 -31 40 -55 40c-27 0 -48 -26 -69 -69z" />
    <glyph glyph-name="uni0146" unicode="&#x146;" horiz-adv-x="577" 
d="M57 -8l-13 10l83 396l-83 9l5 33l187 54l16 -13l-20 -97c67 64 145 109 207 109c42 0 70 -25 70 -76c0 -29 -7 -60 -15 -92l-46 -188c-6 -24 -10 -40 -10 -50c0 -14 6 -21 17 -21c21 0 52 24 86 67l28 -20c-39 -63 -107 -127 -184 -127c-39 0 -62 20 -62 53
c0 27 7 51 16 87l40 163c8 33 15 63 15 81c0 29 -12 39 -31 39c-32 0 -81 -25 -141 -76l-26 -121c-15 -71 -28 -140 -41 -212zM279 -112c0 -83 -41 -130 -121 -155l-13 34c36 15 53 28 65 47c-31 13 -44 36 -44 61c0 32 22 62 65 62c18 0 31 -6 43 -18c3 -11 5 -20 5 -31z
" />
    <glyph glyph-name="uni1E45" unicode="&#x1e45;" horiz-adv-x="577" 
d="M57 -8l-13 10l83 396l-83 9l5 33l187 54l16 -13l-20 -97c67 64 145 109 207 109c42 0 70 -25 70 -76c0 -29 -7 -60 -15 -92l-46 -188c-6 -24 -10 -40 -10 -50c0 -14 6 -21 17 -21c21 0 52 24 86 67l28 -20c-39 -63 -107 -127 -184 -127c-39 0 -62 20 -62 53
c0 27 7 51 16 87l40 163c8 33 15 63 15 81c0 29 -12 39 -31 39c-32 0 -81 -25 -141 -76l-26 -121c-15 -71 -28 -140 -41 -212zM361 610c-33 0 -58 23 -58 61c0 41 33 74 69 74c34 0 58 -25 58 -62c0 -40 -33 -73 -69 -73z" />
    <glyph glyph-name="napostrophe" unicode="&#x149;" horiz-adv-x="845" 
d="M222 742c26 0 43 -7 59 -26c3 -13 4 -21 4 -34c0 -110 -65 -180 -160 -219l-18 39c53 25 85 48 106 91l-20 10c-29 14 -44 33 -44 65c0 43 32 74 73 74zM325 -8l-13 10l83 396l-83 9l5 33l187 54l16 -13l-20 -97c67 64 145 109 207 109c42 0 70 -25 70 -76
c0 -29 -7 -60 -15 -92l-46 -188c-6 -24 -10 -40 -10 -50c0 -14 6 -21 17 -21c21 0 52 24 86 67l28 -20c-39 -63 -107 -127 -184 -127c-39 0 -62 20 -62 53c0 27 7 51 16 87l40 163c8 33 15 63 15 81c0 29 -12 39 -31 39c-32 0 -81 -25 -141 -76l-26 -121
c-15 -71 -28 -140 -41 -212z" />
    <glyph glyph-name="uni1E47" unicode="&#x1e47;" horiz-adv-x="577" 
d="M57 -8l-13 10l83 396l-83 9l5 33l187 54l16 -13l-20 -97c67 64 145 109 207 109c42 0 70 -25 70 -76c0 -29 -7 -60 -15 -92l-46 -188c-6 -24 -10 -40 -10 -50c0 -14 6 -21 17 -21c21 0 52 24 86 67l28 -20c-39 -63 -107 -127 -184 -127c-39 0 -62 20 -62 53
c0 27 7 51 16 87l40 163c8 33 15 63 15 81c0 29 -12 39 -31 39c-32 0 -81 -25 -141 -76l-26 -121c-15 -71 -28 -140 -41 -212zM212 -202c-33 0 -58 23 -58 61c0 41 33 74 69 74c34 0 58 -25 58 -62c0 -40 -33 -73 -69 -73z" />
    <glyph glyph-name="uni1E49" unicode="&#x1e49;" horiz-adv-x="577" 
d="M57 -8l-13 10l83 396l-83 9l5 33l187 54l16 -13l-20 -97c67 64 145 109 207 109c42 0 70 -25 70 -76c0 -29 -7 -60 -15 -92l-46 -188c-6 -24 -10 -40 -10 -50c0 -14 6 -21 17 -21c21 0 52 24 86 67l28 -20c-39 -63 -107 -127 -184 -127c-39 0 -62 20 -62 53
c0 27 7 51 16 87l40 163c8 33 15 63 15 81c0 29 -12 39 -31 39c-32 0 -81 -25 -141 -76l-26 -121c-15 -71 -28 -140 -41 -212zM93 -175l15 70h240l-15 -70h-240z" />
    <glyph glyph-name="ograve" unicode="&#xf2;" horiz-adv-x="511" 
d="M211 -14c-100 0 -180 61 -180 183c0 174 123 324 277 324c102 0 177 -60 177 -183c0 -170 -120 -324 -274 -324zM223 33c89 0 149 148 149 285c0 94 -31 128 -76 128c-87 0 -152 -142 -152 -284c0 -95 34 -129 79 -129zM330 552l-27 -16c-35 43 -68 81 -104 125
c-21 23 -33 40 -33 63c0 27 23 47 50 47c29 0 47 -13 62 -59c19 -54 34 -106 52 -160z" />
    <glyph glyph-name="oacute" unicode="&#xf3;" horiz-adv-x="511" 
d="M211 -14c-100 0 -180 61 -180 183c0 174 123 324 277 324c102 0 177 -60 177 -183c0 -170 -120 -324 -274 -324zM223 33c89 0 149 148 149 285c0 94 -31 128 -76 128c-87 0 -152 -142 -152 -284c0 -95 34 -129 79 -129zM302 553c21 53 41 107 62 160c17 43 38 58 64 58
c25 0 49 -17 49 -45c0 -23 -12 -44 -35 -68c-38 -41 -75 -81 -113 -122z" />
    <glyph glyph-name="uni014F" unicode="&#x14f;" horiz-adv-x="511" 
d="M211 -14c-100 0 -180 61 -180 183c0 174 123 324 277 324c102 0 177 -60 177 -183c0 -170 -120 -324 -274 -324zM223 33c89 0 149 148 149 285c0 94 -31 128 -76 128c-87 0 -152 -142 -152 -284c0 -95 34 -129 79 -129zM321 569c-99 0 -138 70 -141 149l38 15
c18 -50 51 -87 109 -87c60 0 104 35 131 87l37 -12c-20 -70 -73 -152 -174 -152z" />
    <glyph glyph-name="ocircumflex" unicode="&#xf4;" horiz-adv-x="511" 
d="M223 33c89 0 149 148 149 285c0 94 -31 128 -76 128c-87 0 -152 -142 -152 -284c0 -95 34 -129 79 -129zM211 -14c-100 0 -180 61 -180 183c0 174 123 324 277 324c102 0 177 -60 177 -183c0 -170 -120 -324 -274 -324zM452 545l-111 115l-145 -115l-24 27l160 176h48
l102 -179z" />
    <glyph glyph-name="otilde" unicode="&#xf5;" horiz-adv-x="511" 
d="M211 -14c-100 0 -180 61 -180 183c0 174 123 324 277 324c102 0 177 -60 177 -183c0 -170 -120 -324 -274 -324zM223 33c89 0 149 148 149 285c0 94 -31 128 -76 128c-87 0 -152 -142 -152 -284c0 -95 34 -129 79 -129zM168 585c26 88 68 136 120 136c30 0 48 -14 64 -30
c18 -19 32 -40 55 -40c28 0 49 27 69 70l32 -12c-27 -87 -67 -136 -119 -136c-29 0 -49 13 -66 30c-16 18 -31 40 -55 40c-27 0 -48 -26 -69 -69z" />
    <glyph glyph-name="odieresis" unicode="&#xf6;" horiz-adv-x="511" 
d="M211 -14c-100 0 -180 61 -180 183c0 174 123 324 277 324c102 0 177 -60 177 -183c0 -170 -120 -324 -274 -324zM223 33c89 0 149 148 149 285c0 94 -31 128 -76 128c-87 0 -152 -142 -152 -284c0 -95 34 -129 79 -129zM235 611c-30 0 -56 20 -56 54c0 43 34 69 68 69
c31 0 55 -22 55 -53c0 -43 -32 -70 -67 -70zM443 611c-29 0 -55 20 -55 54c0 43 33 69 66 69c32 0 56 -22 56 -53c0 -43 -32 -70 -67 -70z" />
    <glyph glyph-name="omacron" unicode="&#x14d;" horiz-adv-x="511" 
d="M211 -14c-100 0 -180 61 -180 183c0 174 123 324 277 324c102 0 177 -60 177 -183c0 -170 -120 -324 -274 -324zM223 33c89 0 149 148 149 285c0 94 -31 128 -76 128c-87 0 -152 -142 -152 -284c0 -95 34 -129 79 -129zM210 607l15 70h240l-15 -70h-240z" />
    <glyph glyph-name="ohungarumlaut" unicode="&#x151;" horiz-adv-x="511" 
d="M211 -14c-100 0 -180 61 -180 183c0 174 123 324 277 324c102 0 177 -60 177 -183c0 -170 -120 -324 -274 -324zM223 33c89 0 149 148 149 285c0 94 -31 128 -76 128c-87 0 -152 -142 -152 -284c0 -95 34 -129 79 -129zM213 577l77 136c22 42 43 56 64 56
c24 0 40 -14 40 -37c0 -20 -10 -42 -38 -69l-113 -108zM367 577l76 136c23 42 44 56 65 56c24 0 40 -14 40 -37c0 -20 -10 -42 -39 -69l-112 -108z" />
    <glyph glyph-name="uni01D2" unicode="&#x1d2;" horiz-adv-x="511" 
d="M223 33c89 0 149 148 149 285c0 94 -31 128 -76 128c-87 0 -152 -142 -152 -284c0 -95 34 -129 79 -129zM211 -14c-100 0 -180 61 -180 183c0 174 123 324 277 324c102 0 177 -60 177 -183c0 -170 -120 -324 -274 -324zM232 759l100 -114l144 115l26 -25l-157 -180h-53
l-92 182z" />
    <glyph glyph-name="uni1ED1" unicode="&#x1ed1;" horiz-adv-x="511" 
d="M223 33c89 0 149 148 149 285c0 94 -31 128 -76 128c-87 0 -152 -142 -152 -284c0 -95 34 -129 79 -129zM211 -14c-100 0 -180 61 -180 183c0 174 123 324 277 324c102 0 177 -60 177 -183c0 -170 -120 -324 -274 -324zM453 640l-25 30l49 72c27 41 45 50 64 50
c22 0 40 -16 40 -41c0 -22 -13 -41 -49 -61zM197 536l-23 29l145 156h48l112 -159l-28 -25l-117 104z" />
    <glyph glyph-name="uni1ED9" unicode="&#x1ed9;" horiz-adv-x="511" 
d="M184 -202c-33 0 -58 23 -58 61c0 41 33 74 69 74c34 0 58 -25 58 -62c0 -40 -33 -73 -69 -73zM223 33c89 0 149 148 149 285c0 94 -31 128 -76 128c-87 0 -152 -142 -152 -284c0 -95 34 -129 79 -129zM211 -14c-100 0 -180 61 -180 183c0 174 123 324 277 324
c102 0 177 -60 177 -183c0 -170 -120 -324 -274 -324zM452 545l-111 115l-145 -115l-24 27l160 176h48l102 -179z" />
    <glyph glyph-name="uni1ED3" unicode="&#x1ed3;" horiz-adv-x="511" 
d="M223 33c89 0 149 148 149 285c0 94 -31 128 -76 128c-87 0 -152 -142 -152 -284c0 -95 34 -129 79 -129zM211 -14c-100 0 -180 61 -180 183c0 174 123 324 277 324c102 0 177 -60 177 -183c0 -170 -120 -324 -274 -324zM215 641l-74 49c-34 20 -48 39 -48 61
c0 24 18 41 42 41c21 0 39 -11 63 -52l45 -70zM197 536l-23 29l145 156h48l112 -159l-28 -25l-117 104z" />
    <glyph glyph-name="uni1ED5" unicode="&#x1ed5;" horiz-adv-x="511" 
d="M223 33c89 0 149 148 149 285c0 94 -31 128 -76 128c-87 0 -152 -142 -152 -284c0 -95 34 -129 79 -129zM211 -14c-100 0 -180 61 -180 183c0 174 123 324 277 324c102 0 177 -60 177 -183c0 -170 -120 -324 -274 -324zM197 536l-23 29l145 156h48l112 -159l-28 -25
l-117 104zM447 632l-7 38c39 10 54 27 54 47c0 26 -16 34 -69 42l19 83c79 -8 111 -44 111 -103c0 -58 -46 -99 -108 -107z" />
    <glyph glyph-name="uni1ED7" unicode="&#x1ed7;" horiz-adv-x="511" 
d="M223 33c89 0 149 148 149 285c0 94 -31 128 -76 128c-87 0 -152 -142 -152 -284c0 -95 34 -129 79 -129zM211 -14c-100 0 -180 61 -180 183c0 174 123 324 277 324c102 0 177 -60 177 -183c0 -170 -120 -324 -274 -324zM197 536l-23 29l145 146h48l112 -149l-28 -25
l-117 96zM226 712l-30 11c12 60 49 99 103 99c31 0 48 -11 68 -22c22 -14 40 -25 63 -25c26 0 45 14 59 48l30 -13c-12 -62 -46 -98 -97 -98c-30 0 -51 11 -70 23c-20 14 -41 25 -65 25c-27 0 -47 -17 -61 -48z" />
    <glyph glyph-name="uni1ECD" unicode="&#x1ecd;" horiz-adv-x="511" 
d="M211 -14c-100 0 -180 61 -180 183c0 174 123 324 277 324c102 0 177 -60 177 -183c0 -170 -120 -324 -274 -324zM223 33c89 0 149 148 149 285c0 94 -31 128 -76 128c-87 0 -152 -142 -152 -284c0 -95 34 -129 79 -129zM184 -202c-33 0 -58 23 -58 61c0 41 33 74 69 74
c34 0 58 -25 58 -62c0 -40 -33 -73 -69 -73z" />
    <glyph glyph-name="uni1ECF" unicode="&#x1ecf;" horiz-adv-x="511" 
d="M211 -14c-100 0 -180 61 -180 183c0 174 123 324 277 324c102 0 177 -60 177 -183c0 -170 -120 -324 -274 -324zM223 33c89 0 149 148 149 285c0 94 -31 128 -76 128c-87 0 -152 -142 -152 -284c0 -95 34 -129 79 -129zM311 554l-8 40c45 9 61 26 61 48
c0 26 -24 35 -87 44l18 80c93 -8 134 -44 134 -101c0 -61 -44 -102 -118 -111z" />
    <glyph glyph-name="ohorn" unicode="&#x1a1;" horiz-adv-x="511" 
d="M223 33c89 0 149 148 149 285c0 94 -31 128 -76 128c-87 0 -152 -142 -152 -284c0 -95 34 -129 79 -129zM211 -14c-100 0 -180 61 -180 183c0 174 123 324 277 324c59 0 108 -20 140 -60c26 14 42 36 42 63c0 28 -17 46 -17 71c0 30 22 52 52 52c14 0 24 -3 37 -14
c4 -15 5 -26 5 -39c0 -70 -45 -133 -101 -163c12 -25 19 -56 19 -93c0 -170 -120 -324 -274 -324z" />
    <glyph glyph-name="uni1EDB" unicode="&#x1edb;" horiz-adv-x="511" 
d="M223 33c89 0 149 148 149 285c0 94 -31 128 -76 128c-87 0 -152 -142 -152 -284c0 -95 34 -129 79 -129zM211 -14c-100 0 -180 61 -180 183c0 174 123 324 277 324c59 0 108 -20 140 -60c26 14 42 36 42 63c0 28 -17 46 -17 71c0 30 22 52 52 52c14 0 24 -3 37 -14
c4 -15 5 -26 5 -39c0 -70 -45 -133 -101 -163c12 -25 19 -56 19 -93c0 -170 -120 -324 -274 -324zM302 553c21 53 41 107 62 160c17 43 38 58 64 58c25 0 49 -17 49 -45c0 -23 -12 -44 -35 -68c-38 -41 -75 -81 -113 -122z" />
    <glyph glyph-name="uni1EE3" unicode="&#x1ee3;" horiz-adv-x="511" 
d="M184 -202c-33 0 -58 23 -58 61c0 41 33 74 69 74c34 0 58 -25 58 -62c0 -40 -33 -73 -69 -73zM223 33c89 0 149 148 149 285c0 94 -31 128 -76 128c-87 0 -152 -142 -152 -284c0 -95 34 -129 79 -129zM211 -14c-100 0 -180 61 -180 183c0 174 123 324 277 324
c59 0 108 -20 140 -60c26 14 42 36 42 63c0 28 -17 46 -17 71c0 30 22 52 52 52c14 0 24 -3 37 -14c4 -15 5 -26 5 -39c0 -70 -45 -133 -101 -163c12 -25 19 -56 19 -93c0 -170 -120 -324 -274 -324z" />
    <glyph glyph-name="uni1EDD" unicode="&#x1edd;" horiz-adv-x="511" 
d="M223 33c89 0 149 148 149 285c0 94 -31 128 -76 128c-87 0 -152 -142 -152 -284c0 -95 34 -129 79 -129zM211 -14c-100 0 -180 61 -180 183c0 174 123 324 277 324c59 0 108 -20 140 -60c26 14 42 36 42 63c0 28 -17 46 -17 71c0 30 22 52 52 52c14 0 24 -3 37 -14
c4 -15 5 -26 5 -39c0 -70 -45 -133 -101 -163c12 -25 19 -56 19 -93c0 -170 -120 -324 -274 -324zM330 552l-27 -16c-35 43 -68 81 -104 125c-21 23 -33 40 -33 63c0 27 23 47 50 47c29 0 47 -13 62 -59c19 -54 34 -106 52 -160z" />
    <glyph glyph-name="uni1EDF" unicode="&#x1edf;" horiz-adv-x="511" 
d="M223 33c89 0 149 148 149 285c0 94 -31 128 -76 128c-87 0 -152 -142 -152 -284c0 -95 34 -129 79 -129zM211 -14c-100 0 -180 61 -180 183c0 174 123 324 277 324c59 0 108 -20 140 -60c26 14 42 36 42 63c0 28 -17 46 -17 71c0 30 22 52 52 52c14 0 24 -3 37 -14
c4 -15 5 -26 5 -39c0 -70 -45 -133 -101 -163c12 -25 19 -56 19 -93c0 -170 -120 -324 -274 -324zM311 554l-8 40c45 9 61 26 61 48c0 26 -24 35 -87 44l18 80c93 -8 134 -44 134 -101c0 -61 -44 -102 -118 -111z" />
    <glyph glyph-name="uni1EE1" unicode="&#x1ee1;" horiz-adv-x="511" 
d="M223 33c89 0 149 148 149 285c0 94 -31 128 -76 128c-87 0 -152 -142 -152 -284c0 -95 34 -129 79 -129zM211 -14c-100 0 -180 61 -180 183c0 174 123 324 277 324c59 0 108 -20 140 -60c26 14 42 36 42 63c0 28 -17 46 -17 71c0 30 22 52 52 52c14 0 24 -3 37 -14
c4 -15 5 -26 5 -39c0 -70 -45 -133 -101 -163c12 -25 19 -56 19 -93c0 -170 -120 -324 -274 -324zM168 585c26 88 68 136 120 136c30 0 48 -14 64 -30c18 -19 32 -40 55 -40c28 0 49 27 69 70l32 -12c-27 -87 -67 -136 -119 -136c-29 0 -49 13 -66 30c-16 18 -31 40 -55 40
c-27 0 -48 -26 -69 -69z" />
    <glyph glyph-name="oslash" unicode="&#xf8;" horiz-adv-x="511" 
d="M524 479l-64 -64c16 -27 25 -62 25 -105c0 -170 -120 -324 -274 -324c-52 0 -99 17 -132 50l-64 -63l-34 31l71 70c-14 26 -21 58 -21 95c0 174 123 324 277 324c49 0 92 -14 123 -42l60 60zM139 162v-1l230 228c-13 44 -39 57 -73 57c-91 0 -157 -142 -157 -284zM223 33
c92 0 154 148 154 285v15l-232 -231c12 -53 41 -69 78 -69z" />
    <glyph glyph-name="oe" unicode="&#x153;" horiz-adv-x="769" 
d="M624 445c-58 0 -148 -105 -155 -226c151 47 201 117 201 172c0 35 -20 54 -46 54zM209 -14c-103 0 -178 61 -178 183c0 174 123 324 277 324c67 0 121 -30 151 -94c48 57 114 94 185 94c75 0 118 -38 118 -100c0 -73 -81 -157 -293 -215c6 -74 43 -106 101 -106
c61 0 106 37 135 73l26 -19c-44 -76 -116 -140 -204 -140c-65 0 -120 32 -143 94c-46 -58 -107 -94 -175 -94zM223 33c89 0 149 148 149 285c0 94 -31 128 -76 128c-87 0 -152 -142 -152 -284c0 -95 34 -129 79 -129z" />
    <glyph glyph-name="racute" unicode="&#x155;" horiz-adv-x="429" 
d="M44 2l83 396l-83 9l5 33l178 54l16 -13l-24 -144c44 85 102 156 158 156c32 0 60 -12 73 -39c0 -40 -22 -70 -60 -70c-23 0 -45 12 -67 34c-52 -50 -89 -110 -120 -174l-7 -32c-15 -71 -28 -140 -41 -212l-98 -8zM278 553c21 53 41 107 62 160c17 43 38 58 64 58
c25 0 49 -17 49 -45c0 -23 -12 -44 -35 -68c-38 -41 -75 -81 -113 -122z" />
    <glyph glyph-name="uni0157" unicode="&#x157;" horiz-adv-x="429" 
d="M44 2l83 396l-83 9l5 33l178 54l16 -13l-24 -144c44 85 102 156 158 156c32 0 60 -12 73 -39c0 -40 -22 -70 -60 -70c-23 0 -45 12 -67 34c-52 -50 -89 -110 -120 -174l-7 -32c-15 -71 -28 -140 -41 -212l-98 -8zM144 -112c0 -83 -41 -130 -121 -155l-13 34
c36 15 53 28 65 47c-31 13 -44 36 -44 61c0 32 22 62 65 62c18 0 31 -6 43 -18c3 -11 5 -20 5 -31z" />
    <glyph glyph-name="rcaron" unicode="&#x159;" horiz-adv-x="429" 
d="M44 2l83 396l-83 9l5 33l178 54l16 -13l-24 -144c44 85 102 156 158 156c32 0 60 -12 73 -39c0 -40 -22 -70 -60 -70c-23 0 -45 12 -67 34c-52 -50 -89 -110 -120 -174l-7 -32c-15 -71 -28 -140 -41 -212l-98 -8zM208 759l100 -114l144 115l26 -25l-157 -180h-53l-92 182
z" />
    <glyph glyph-name="uni1E5B" unicode="&#x1e5b;" horiz-adv-x="429" 
d="M44 2l83 396l-83 9l5 33l178 54l16 -13l-24 -144c44 85 102 156 158 156c32 0 60 -12 73 -39c0 -40 -22 -70 -60 -70c-23 0 -45 12 -67 34c-52 -50 -89 -110 -120 -174l-7 -32c-15 -71 -28 -140 -41 -212l-98 -8zM77 -202c-33 0 -58 23 -58 61c0 41 33 74 69 74
c34 0 58 -25 58 -62c0 -40 -33 -73 -69 -73z" />
    <glyph glyph-name="uni1E5D" unicode="&#x1e5d;" horiz-adv-x="429" 
d="M44 2l83 396l-83 9l5 33l178 54l16 -13l-24 -144c44 85 102 156 158 156c32 0 60 -12 73 -39c0 -40 -22 -70 -60 -70c-23 0 -45 12 -67 34c-52 -50 -89 -110 -120 -174l-7 -32c-15 -71 -28 -140 -41 -212l-98 -8zM77 -202c-33 0 -58 23 -58 61c0 41 33 74 69 74
c34 0 58 -25 58 -62c0 -40 -33 -73 -69 -73zM186 607l15 70h240l-15 -70h-240z" />
    <glyph glyph-name="uni1E5F" unicode="&#x1e5f;" horiz-adv-x="429" 
d="M44 2l83 396l-83 9l5 33l178 54l16 -13l-24 -144c44 85 102 156 158 156c32 0 60 -12 73 -39c0 -40 -22 -70 -60 -70c-23 0 -45 12 -67 34c-52 -50 -89 -110 -120 -174l-7 -32c-15 -71 -28 -140 -41 -212l-98 -8zM-42 -175l15 70h240l-15 -70h-240z" />
    <glyph glyph-name="sacute" unicode="&#x15b;" horiz-adv-x="390" 
d="M152 -14c-82 0 -128 38 -137 103c5 24 23 40 47 40c32 0 51 -17 60 -54l11 -49h10c59 0 94 30 94 76c0 32 -14 58 -67 98c-53 42 -90 80 -90 144c0 82 65 149 174 149c75 0 119 -31 133 -93c-5 -24 -21 -38 -47 -38c-25 0 -48 17 -61 54l-12 37h-2c-61 0 -84 -36 -84 -76
c0 -41 22 -66 77 -107c60 -47 83 -79 83 -137c0 -82 -69 -147 -189 -147zM254 553c21 53 41 107 62 160c17 43 38 58 64 58c25 0 49 -17 49 -45c0 -23 -12 -44 -35 -68c-38 -41 -75 -81 -113 -122z" />
    <glyph glyph-name="scaron" unicode="&#x161;" horiz-adv-x="390" 
d="M152 -14c-82 0 -128 38 -137 103c5 24 23 40 47 40c32 0 51 -17 60 -54l11 -49h10c59 0 94 30 94 76c0 32 -14 58 -67 98c-53 42 -90 80 -90 144c0 82 65 149 174 149c75 0 119 -31 133 -93c-5 -24 -21 -38 -47 -38c-25 0 -48 17 -61 54l-12 37h-2c-61 0 -84 -36 -84 -76
c0 -41 22 -66 77 -107c60 -47 83 -79 83 -137c0 -82 -69 -147 -189 -147zM184 759l100 -114l144 115l26 -25l-157 -180h-53l-92 182z" />
    <glyph glyph-name="uni015F" unicode="&#x15f;" horiz-adv-x="390" 
d="M101 -88l37 74c-73 4 -115 42 -123 103c5 24 23 40 47 40c32 0 51 -17 60 -54l11 -49h10c59 0 94 30 94 76c0 32 -14 58 -67 98c-53 42 -90 80 -90 144c0 82 65 149 174 149c75 0 119 -31 133 -93c-5 -24 -21 -38 -47 -38c-25 0 -48 17 -61 54l-12 37h-2
c-61 0 -84 -36 -84 -76c0 -41 22 -66 77 -107c60 -47 83 -79 83 -137c0 -77 -61 -139 -167 -146l-26 -52c63 -22 92 -45 92 -88c0 -42 -40 -78 -109 -78c-36 0 -70 10 -91 23l15 31c20 -9 40 -14 62 -14c33 0 55 16 55 44c0 33 -27 49 -71 59z" />
    <glyph glyph-name="uni0219" unicode="&#x219;" horiz-adv-x="390" 
d="M152 -14c-82 0 -128 38 -137 103c5 24 23 40 47 40c32 0 51 -17 60 -54l11 -49h10c59 0 94 30 94 76c0 32 -14 58 -67 98c-53 42 -90 80 -90 144c0 82 65 149 174 149c75 0 119 -31 133 -93c-5 -24 -21 -38 -47 -38c-25 0 -48 17 -61 54l-12 37h-2c-61 0 -84 -36 -84 -76
c0 -41 22 -66 77 -107c60 -47 83 -79 83 -137c0 -82 -69 -147 -189 -147zM189 -112c0 -83 -41 -130 -121 -155l-13 34c36 15 53 28 65 47c-31 13 -44 36 -44 61c0 32 22 62 65 62c18 0 31 -6 43 -18c3 -11 5 -20 5 -31z" />
    <glyph glyph-name="scircumflex" unicode="&#x15d;" horiz-adv-x="390" 
d="M152 -14c-82 0 -128 38 -137 103c5 24 23 40 47 40c32 0 51 -17 60 -54l11 -49h10c59 0 94 30 94 76c0 32 -14 58 -67 98c-53 42 -90 80 -90 144c0 82 65 149 174 149c75 0 119 -31 133 -93c-5 -24 -21 -38 -47 -38c-25 0 -48 17 -61 54l-12 37h-2c-61 0 -84 -36 -84 -76
c0 -41 22 -66 77 -107c60 -47 83 -79 83 -137c0 -82 -69 -147 -189 -147zM404 545l-111 115l-145 -115l-24 27l160 176h48l102 -179z" />
    <glyph glyph-name="uni1E61" unicode="&#x1e61;" horiz-adv-x="390" 
d="M152 -14c-82 0 -128 38 -137 103c5 24 23 40 47 40c32 0 51 -17 60 -54l11 -49h10c59 0 94 30 94 76c0 32 -14 58 -67 98c-53 42 -90 80 -90 144c0 82 65 149 174 149c75 0 119 -31 133 -93c-5 -24 -21 -38 -47 -38c-25 0 -48 17 -61 54l-12 37h-2c-61 0 -84 -36 -84 -76
c0 -41 22 -66 77 -107c60 -47 83 -79 83 -137c0 -82 -69 -147 -189 -147zM291 610c-33 0 -58 23 -58 61c0 41 33 74 69 74c34 0 58 -25 58 -62c0 -40 -33 -73 -69 -73z" />
    <glyph glyph-name="uni1E63" unicode="&#x1e63;" horiz-adv-x="390" 
d="M152 -14c-82 0 -128 38 -137 103c5 24 23 40 47 40c32 0 51 -17 60 -54l11 -49h10c59 0 94 30 94 76c0 32 -14 58 -67 98c-53 42 -90 80 -90 144c0 82 65 149 174 149c75 0 119 -31 133 -93c-5 -24 -21 -38 -47 -38c-25 0 -48 17 -61 54l-12 37h-2c-61 0 -84 -36 -84 -76
c0 -41 22 -66 77 -107c60 -47 83 -79 83 -137c0 -82 -69 -147 -189 -147zM122 -202c-33 0 -58 23 -58 61c0 41 33 74 69 74c34 0 58 -25 58 -62c0 -40 -33 -73 -69 -73z" />
    <glyph glyph-name="longs" unicode="&#x17f;" horiz-adv-x="315" 
d="M-63 -244c-55 0 -92 22 -105 65c4 28 24 48 53 48c31 0 53 -20 75 -48l13 -16c12 12 24 28 36 50c22 42 36 99 51 186c24 144 44 280 66 427c31 211 141 275 231 275c60 0 113 -34 122 -75c-5 -29 -29 -46 -53 -46c-30 0 -51 17 -77 53l-19 30c-41 -26 -74 -79 -95 -209
c-23 -145 -43 -301 -73 -455c-20 -102 -47 -177 -99 -227c-41 -40 -86 -58 -126 -58z" />
    <glyph glyph-name="germandbls" unicode="&#xdf;" horiz-adv-x="545" 
d="M-63 -244c-55 0 -92 22 -105 65c4 28 24 48 53 48c31 0 53 -20 75 -48l13 -16c12 12 24 28 36 50c22 42 36 99 52 186c24 142 43 280 65 427c30 196 134 275 265 275c104 0 158 -41 158 -107c0 -68 -51 -107 -119 -151c-39 -27 -60 -56 -60 -94c0 -45 23 -79 72 -120
c58 -47 80 -80 80 -142c0 -80 -69 -143 -174 -143c-82 0 -125 32 -135 95c6 24 22 39 46 39c29 0 47 -16 55 -52l10 -45h8c59 0 94 33 94 80c0 32 -13 57 -63 96c-51 41 -80 84 -80 142c0 64 45 109 105 165c50 46 67 81 67 124c0 50 -30 78 -70 78
c-81 0 -126 -70 -150 -212c-25 -151 -45 -311 -71 -447c-19 -110 -49 -185 -101 -235c-41 -40 -86 -58 -126 -58z" />
    <glyph glyph-name="tcaron" unicode="&#x165;" horiz-adv-x="337" 
d="M126 -14c-38 0 -67 20 -67 60c0 22 4 49 12 86l64 296h-89l9 42l96 10l57 135h72l-29 -136h116l-11 -58l-116 3l-60 -286c-5 -23 -8 -40 -8 -50c0 -14 10 -22 21 -22c23 0 48 22 85 67l28 -20c-40 -63 -104 -127 -180 -127zM420 759c32 0 40 -18 40 -34
c0 -33 -28 -85 -53 -131l-39 -70l-39 4l45 221c17 7 29 10 46 10z" />
    <glyph glyph-name="uni0163" unicode="&#x163;" horiz-adv-x="337" 
d="M74 -88l38 75c-31 5 -53 24 -53 59c0 22 4 49 12 86l64 296h-89l9 42l96 10l57 135h72l-29 -136h116l-11 -58l-116 3l-60 -286c-5 -23 -8 -40 -8 -50c0 -14 10 -22 21 -22c23 0 48 22 85 67l28 -20c-36 -57 -92 -115 -159 -125l-26 -53c63 -22 92 -45 92 -88
c0 -42 -40 -78 -109 -78c-36 0 -70 10 -91 23l15 31c20 -9 40 -14 62 -14c33 0 55 16 55 44c0 33 -27 49 -71 59z" />
    <glyph glyph-name="uni021B" unicode="&#x21b;" horiz-adv-x="337" 
d="M126 -14c-38 0 -67 20 -67 60c0 22 4 49 12 86l64 296h-89l9 42l96 10l57 135h72l-29 -136h116l-11 -58l-116 3l-60 -286c-5 -23 -8 -40 -8 -50c0 -14 10 -22 21 -22c23 0 48 22 85 67l28 -20c-40 -63 -104 -127 -180 -127zM181 -112c0 -83 -41 -130 -121 -155l-13 34
c36 15 53 28 65 47c-31 13 -44 36 -44 61c0 32 22 62 65 62c18 0 31 -6 43 -18c3 -11 5 -20 5 -31z" />
    <glyph glyph-name="uni1E97" unicode="&#x1e97;" horiz-adv-x="337" 
d="M126 -14c-38 0 -67 20 -67 60c0 22 4 49 12 86l64 296h-89l9 42l96 10l57 135h72l-29 -136h116l-11 -58l-116 3l-60 -286c-5 -23 -8 -40 -8 -50c0 -14 10 -22 21 -22c23 0 48 22 85 67l28 -20c-40 -63 -104 -127 -180 -127zM176 706c-30 0 -56 20 -56 54
c0 43 34 69 67 69c31 0 55 -22 55 -53c0 -43 -32 -70 -66 -70zM360 706c-29 0 -55 20 -55 54c0 43 33 69 66 69c32 0 56 -22 56 -53c0 -43 -32 -70 -67 -70z" />
    <glyph glyph-name="uni1E6D" unicode="&#x1e6d;" horiz-adv-x="337" 
d="M126 -14c-38 0 -67 20 -67 60c0 22 4 49 12 86l64 296h-89l9 42l96 10l57 135h72l-29 -136h116l-11 -58l-116 3l-60 -286c-5 -23 -8 -40 -8 -50c0 -14 10 -22 21 -22c23 0 48 22 85 67l28 -20c-40 -63 -104 -127 -180 -127zM114 -202c-33 0 -58 23 -58 61
c0 41 33 74 69 74c34 0 58 -25 58 -62c0 -40 -33 -73 -69 -73z" />
    <glyph glyph-name="uni1E6F" unicode="&#x1e6f;" horiz-adv-x="337" 
d="M126 -14c-38 0 -67 20 -67 60c0 22 4 49 12 86l64 296h-89l9 42l96 10l57 135h72l-29 -136h116l-11 -58l-116 3l-60 -286c-5 -23 -8 -40 -8 -50c0 -14 10 -22 21 -22c23 0 48 22 85 67l28 -20c-40 -63 -104 -127 -180 -127zM-5 -175l15 70h240l-15 -70h-240z" />
    <glyph glyph-name="ugrave" unicode="&#xf9;" horiz-adv-x="581" 
d="M399 -14c-36 0 -65 25 -65 72c0 9 1 19 5 37c-71 -69 -135 -109 -194 -109c-46 0 -80 28 -80 79c0 32 9 74 17 110l50 223l-86 9l5 34l192 53l15 -13l-65 -286c-8 -34 -13 -61 -13 -82c0 -29 14 -41 36 -41c35 0 72 21 130 69l32 152c11 56 22 113 32 170l99 31l16 -13
l-73 -344c-5 -22 -8 -39 -8 -50c0 -13 9 -21 20 -21c22 0 48 22 85 67l27 -20c-42 -63 -100 -127 -177 -127zM360 552l-27 -16c-35 43 -68 81 -104 125c-21 23 -33 40 -33 63c0 27 23 47 50 47c29 0 47 -13 62 -59c19 -54 34 -106 52 -160z" />
    <glyph glyph-name="uacute" unicode="&#xfa;" horiz-adv-x="581" 
d="M399 -14c-36 0 -65 25 -65 72c0 9 1 19 5 37c-71 -69 -135 -109 -194 -109c-46 0 -80 28 -80 79c0 32 9 74 17 110l50 223l-86 9l5 34l192 53l15 -13l-65 -286c-8 -34 -13 -61 -13 -82c0 -29 14 -41 36 -41c35 0 72 21 130 69l32 152c11 56 22 113 32 170l99 31l16 -13
l-73 -344c-5 -22 -8 -39 -8 -50c0 -13 9 -21 20 -21c22 0 48 22 85 67l27 -20c-42 -63 -100 -127 -177 -127zM332 553c21 53 41 107 62 160c17 43 38 58 64 58c25 0 49 -17 49 -45c0 -23 -12 -44 -35 -68c-38 -41 -75 -81 -113 -122z" />
    <glyph glyph-name="ucircumflex" unicode="&#xfb;" horiz-adv-x="581" 
d="M399 -14c-36 0 -65 25 -65 72c0 9 1 19 5 37c-71 -69 -135 -109 -194 -109c-46 0 -80 28 -80 79c0 32 9 74 17 110l50 223l-86 9l5 34l192 53l15 -13l-65 -286c-8 -34 -13 -61 -13 -82c0 -29 14 -41 36 -41c35 0 72 21 130 69l32 152c11 56 22 113 32 170l99 31l16 -13
l-73 -344c-5 -22 -8 -39 -8 -50c0 -13 9 -21 20 -21c22 0 48 22 85 67l27 -20c-42 -63 -100 -127 -177 -127zM482 545l-111 115l-145 -115l-24 27l160 176h48l102 -179z" />
    <glyph glyph-name="udieresis" unicode="&#xfc;" horiz-adv-x="581" 
d="M399 -14c-36 0 -65 25 -65 72c0 9 1 19 5 37c-71 -69 -135 -109 -194 -109c-46 0 -80 28 -80 79c0 32 9 74 17 110l50 223l-86 9l5 34l192 53l15 -13l-65 -286c-8 -34 -13 -61 -13 -82c0 -29 14 -41 36 -41c35 0 72 21 130 69l32 152c11 56 22 113 32 170l99 31l16 -13
l-73 -344c-5 -22 -8 -39 -8 -50c0 -13 9 -21 20 -21c22 0 48 22 85 67l27 -20c-42 -63 -100 -127 -177 -127zM265 611c-30 0 -56 20 -56 54c0 43 34 69 68 69c31 0 55 -22 55 -53c0 -43 -32 -70 -67 -70zM473 611c-29 0 -55 20 -55 54c0 43 33 69 66 69c32 0 56 -22 56 -53
c0 -43 -32 -70 -67 -70z" />
    <glyph glyph-name="umacron" unicode="&#x16b;" horiz-adv-x="581" 
d="M399 -14c-36 0 -65 25 -65 72c0 9 1 19 5 37c-71 -69 -135 -109 -194 -109c-46 0 -80 28 -80 79c0 32 9 74 17 110l50 223l-86 9l5 34l192 53l15 -13l-65 -286c-8 -34 -13 -61 -13 -82c0 -29 14 -41 36 -41c35 0 72 21 130 69l32 152c11 56 22 113 32 170l99 31l16 -13
l-73 -344c-5 -22 -8 -39 -8 -50c0 -13 9 -21 20 -21c22 0 48 22 85 67l27 -20c-42 -63 -100 -127 -177 -127zM240 607l15 70h240l-15 -70h-240z" />
    <glyph glyph-name="uring" unicode="&#x16f;" horiz-adv-x="581" 
d="M399 -14c-36 0 -65 25 -65 72c0 9 1 19 5 37c-71 -69 -135 -109 -194 -109c-46 0 -80 28 -80 79c0 32 9 74 17 110l50 223l-86 9l5 34l192 53l15 -13l-65 -286c-8 -34 -13 -61 -13 -82c0 -29 14 -41 36 -41c35 0 72 21 130 69l32 152c11 56 22 113 32 170l99 31l16 -13
l-73 -344c-5 -22 -8 -39 -8 -50c0 -13 9 -21 20 -21c22 0 48 22 85 67l27 -20c-42 -63 -100 -127 -177 -127zM364 595c37 0 67 33 67 72c0 28 -17 56 -54 56c-40 0 -66 -36 -66 -72c0 -29 17 -56 53 -56zM362 551c-59 0 -105 37 -105 96c0 76 62 120 122 120
c58 0 106 -36 106 -95c0 -78 -62 -121 -123 -121z" />
    <glyph glyph-name="uhungarumlaut" unicode="&#x171;" horiz-adv-x="581" 
d="M399 -14c-36 0 -65 25 -65 72c0 9 1 19 5 37c-71 -69 -135 -109 -194 -109c-46 0 -80 28 -80 79c0 32 9 74 17 110l50 223l-86 9l5 34l192 53l15 -13l-65 -286c-8 -34 -13 -61 -13 -82c0 -29 14 -41 36 -41c35 0 72 21 130 69l32 152c11 56 22 113 32 170l99 31l16 -13
l-73 -344c-5 -22 -8 -39 -8 -50c0 -13 9 -21 20 -21c22 0 48 22 85 67l27 -20c-42 -63 -100 -127 -177 -127zM243 577l77 136c22 42 43 56 64 56c24 0 40 -14 40 -37c0 -20 -10 -42 -38 -69l-113 -108zM397 577l76 136c23 42 44 56 65 56c24 0 40 -14 40 -37
c0 -20 -10 -42 -39 -69l-112 -108z" />
    <glyph glyph-name="uogonek" unicode="&#x173;" horiz-adv-x="581" 
d="M420 -237c-57 0 -89 30 -89 77c0 53 42 100 93 148v1c-10 -2 -17 -3 -25 -3c-36 0 -65 25 -65 72c0 9 1 20 3 35c-70 -68 -133 -107 -192 -107c-46 0 -80 28 -80 79c0 32 9 74 17 110l50 223l-86 9l5 34l192 53l15 -13l-65 -286c-8 -34 -13 -61 -13 -82
c0 -29 14 -41 36 -41c35 0 72 21 130 69l1 4l31 148c11 56 22 113 32 170l99 31l16 -13l-73 -344c-5 -22 -8 -39 -8 -50c0 -13 9 -21 20 -21c22 0 48 22 85 67l27 -20c-22 -32 -49 -64 -82 -96c-47 -45 -85 -95 -85 -147c0 -35 20 -53 47 -53c15 0 32 4 48 11l12 -27
c-25 -21 -57 -38 -96 -38z" />
    <glyph glyph-name="ubreve" unicode="&#x16d;" horiz-adv-x="581" 
d="M399 -14c-36 0 -65 25 -65 72c0 9 1 19 5 37c-71 -69 -135 -109 -194 -109c-46 0 -80 28 -80 79c0 32 9 74 17 110l50 223l-86 9l5 34l192 53l15 -13l-65 -286c-8 -34 -13 -61 -13 -82c0 -29 14 -41 36 -41c35 0 72 21 130 69l32 152c11 56 22 113 32 170l99 31l16 -13
l-73 -344c-5 -22 -8 -39 -8 -50c0 -13 9 -21 20 -21c22 0 48 22 85 67l27 -20c-42 -63 -100 -127 -177 -127zM351 569c-99 0 -138 70 -141 149l38 15c18 -50 51 -87 109 -87c60 0 104 35 131 87l37 -12c-20 -70 -73 -152 -174 -152z" />
    <glyph glyph-name="uni01D4" unicode="&#x1d4;" horiz-adv-x="581" 
d="M399 -14c-36 0 -65 25 -65 72c0 9 1 19 5 37c-71 -69 -135 -109 -194 -109c-46 0 -80 28 -80 79c0 32 9 74 17 110l50 223l-86 9l5 34l192 53l15 -13l-65 -286c-8 -34 -13 -61 -13 -82c0 -29 14 -41 36 -41c35 0 72 21 130 69l32 152c11 56 22 113 32 170l99 31l16 -13
l-73 -344c-5 -22 -8 -39 -8 -50c0 -13 9 -21 20 -21c22 0 48 22 85 67l27 -20c-42 -63 -100 -127 -177 -127zM262 759l100 -114l144 115l26 -25l-157 -180h-53l-92 182z" />
    <glyph glyph-name="uni01D8" unicode="&#x1d8;" horiz-adv-x="581" 
d="M399 -14c-36 0 -65 25 -65 72c0 9 1 19 5 37c-71 -69 -135 -109 -194 -109c-46 0 -80 28 -80 79c0 32 9 74 17 110l50 223l-86 9l5 34l192 53l15 -13l-65 -286c-8 -34 -13 -61 -13 -82c0 -29 14 -41 36 -41c35 0 72 21 130 69l32 152c11 56 22 113 32 170l99 31l16 -13
l-73 -344c-5 -22 -8 -39 -8 -50c0 -13 9 -21 20 -21c22 0 48 22 85 67l27 -20c-42 -63 -100 -127 -177 -127zM248 567c-30 0 -56 20 -56 54c0 43 33 69 67 69c31 0 56 -21 56 -53c0 -43 -33 -70 -67 -70zM470 567c-30 0 -56 20 -56 54c0 43 33 69 67 69c31 0 55 -21 55 -53
c0 -43 -31 -70 -66 -70zM373 684l-32 24l46 98c19 41 41 55 64 55c20 0 42 -15 42 -42c0 -21 -10 -36 -32 -57z" />
    <glyph glyph-name="uni01DA" unicode="&#x1da;" horiz-adv-x="581" 
d="M399 -14c-36 0 -65 25 -65 72c0 9 1 19 5 37c-71 -69 -135 -109 -194 -109c-46 0 -80 28 -80 79c0 32 9 74 17 110l50 223l-86 9l5 34l192 53l15 -13l-65 -286c-8 -34 -13 -61 -13 -82c0 -29 14 -41 36 -41c35 0 72 21 130 69l32 152c11 56 22 113 32 170l99 31l16 -13
l-73 -344c-5 -22 -8 -39 -8 -50c0 -13 9 -21 20 -21c22 0 48 22 85 67l27 -20c-42 -63 -100 -127 -177 -127zM245 567c-29 0 -54 20 -54 54c0 43 32 69 66 69c31 0 56 -21 56 -53c0 -43 -32 -70 -68 -70zM472 567c-30 0 -56 20 -56 54c0 43 33 69 67 69c31 0 54 -21 54 -53
c0 -43 -31 -70 -65 -70zM341 702l-105 137l30 23l117 -94l145 95l21 -25l-141 -136h-67z" />
    <glyph glyph-name="uni01DC" unicode="&#x1dc;" horiz-adv-x="581" 
d="M399 -14c-36 0 -65 25 -65 72c0 9 1 19 5 37c-71 -69 -135 -109 -194 -109c-46 0 -80 28 -80 79c0 32 9 74 17 110l50 223l-86 9l5 34l192 53l15 -13l-65 -286c-8 -34 -13 -61 -13 -82c0 -29 14 -41 36 -41c35 0 72 21 130 69l32 152c11 56 22 113 32 170l99 31l16 -13
l-73 -344c-5 -22 -8 -39 -8 -50c0 -13 9 -21 20 -21c22 0 48 22 85 67l27 -20c-42 -63 -100 -127 -177 -127zM248 567c-30 0 -56 20 -56 54c0 43 33 69 67 69c31 0 56 -21 56 -53c0 -43 -33 -70 -67 -70zM470 567c-30 0 -56 20 -56 54c0 43 33 69 67 69c31 0 55 -21 55 -53
c0 -43 -31 -70 -66 -70zM370 684l-73 67c-33 30 -42 46 -42 66c0 28 23 44 45 44c25 0 44 -16 61 -55l43 -96z" />
    <glyph glyph-name="uni01D6" unicode="&#x1d6;" horiz-adv-x="581" 
d="M399 -14c-36 0 -65 25 -65 72c0 9 1 19 5 37c-71 -69 -135 -109 -194 -109c-46 0 -80 28 -80 79c0 32 9 74 17 110l50 223l-86 9l5 34l192 53l15 -13l-65 -286c-8 -34 -13 -61 -13 -82c0 -29 14 -41 36 -41c35 0 72 21 130 69l32 152c11 56 22 113 32 170l99 31l16 -13
l-73 -344c-5 -22 -8 -39 -8 -50c0 -13 9 -21 20 -21c22 0 48 22 85 67l27 -20c-42 -63 -100 -127 -177 -127zM245 567c-29 0 -54 20 -54 54c0 43 32 69 66 69c31 0 56 -21 56 -53c0 -43 -32 -70 -68 -70zM472 567c-30 0 -56 20 -56 54c0 43 33 69 67 69c31 0 54 -21 54 -53
c0 -43 -31 -70 -65 -70zM265 748l15 70h240l-15 -70h-240z" />
    <glyph glyph-name="uni1EE5" unicode="&#x1ee5;" horiz-adv-x="581" 
d="M399 -14c-36 0 -65 25 -65 72c0 9 1 19 5 37c-71 -69 -135 -109 -194 -109c-46 0 -80 28 -80 79c0 32 9 74 17 110l50 223l-86 9l5 34l192 53l15 -13l-65 -286c-8 -34 -13 -61 -13 -82c0 -29 14 -41 36 -41c35 0 72 21 130 69l32 152c11 56 22 113 32 170l99 31l16 -13
l-73 -344c-5 -22 -8 -39 -8 -50c0 -13 9 -21 20 -21c22 0 48 22 85 67l27 -20c-42 -63 -100 -127 -177 -127zM242 -202c-33 0 -58 23 -58 61c0 41 33 74 69 74c34 0 58 -25 58 -62c0 -40 -33 -73 -69 -73z" />
    <glyph glyph-name="uni1EE7" unicode="&#x1ee7;" horiz-adv-x="581" 
d="M399 -14c-36 0 -65 25 -65 72c0 9 1 19 5 37c-71 -69 -135 -109 -194 -109c-46 0 -80 28 -80 79c0 32 9 74 17 110l50 223l-86 9l5 34l192 53l15 -13l-65 -286c-8 -34 -13 -61 -13 -82c0 -29 14 -41 36 -41c35 0 72 21 130 69l32 152c11 56 22 113 32 170l99 31l16 -13
l-73 -344c-5 -22 -8 -39 -8 -50c0 -13 9 -21 20 -21c22 0 48 22 85 67l27 -20c-42 -63 -100 -127 -177 -127zM341 554l-8 40c45 9 61 26 61 48c0 26 -24 35 -87 44l18 80c93 -8 134 -44 134 -101c0 -61 -44 -102 -118 -111z" />
    <glyph glyph-name="uhorn" unicode="&#x1b0;" horiz-adv-x="581" 
d="M399 -14c-36 0 -65 25 -65 72c0 9 1 19 5 37c-71 -69 -135 -109 -194 -109c-46 0 -80 28 -80 79c0 32 9 74 17 110l50 223l-86 9l5 34l192 53l15 -13l-65 -286c-8 -34 -13 -61 -13 -82c0 -29 14 -41 36 -41c35 0 72 21 130 69l32 152c11 56 22 113 32 170l81 25
c43 13 80 31 80 64c0 28 -16 46 -16 71c0 30 22 52 51 52c15 0 25 -3 37 -14c4 -14 6 -26 6 -39c0 -77 -58 -143 -129 -163l-68 -322c-5 -22 -8 -39 -8 -50c0 -13 9 -21 20 -21c22 0 48 22 85 67l27 -20c-42 -63 -100 -127 -177 -127z" />
    <glyph glyph-name="uni1EE9" unicode="&#x1ee9;" horiz-adv-x="581" 
d="M399 -14c-36 0 -65 25 -65 72c0 9 1 19 5 37c-71 -69 -135 -109 -194 -109c-46 0 -80 28 -80 79c0 32 9 74 17 110l50 223l-86 9l5 34l192 53l15 -13l-65 -286c-8 -34 -13 -61 -13 -82c0 -29 14 -41 36 -41c35 0 72 21 130 69l32 152c11 56 22 113 32 170l81 25
c43 13 80 31 80 64c0 28 -16 46 -16 71c0 30 22 52 51 52c15 0 25 -3 37 -14c4 -14 6 -26 6 -39c0 -77 -58 -143 -129 -163l-68 -322c-5 -22 -8 -39 -8 -50c0 -13 9 -21 20 -21c22 0 48 22 85 67l27 -20c-42 -63 -100 -127 -177 -127zM332 553c21 53 41 107 62 160
c17 43 38 58 64 58c25 0 49 -17 49 -45c0 -23 -12 -44 -35 -68c-38 -41 -75 -81 -113 -122z" />
    <glyph glyph-name="uni1EF1" unicode="&#x1ef1;" horiz-adv-x="581" 
d="M399 -14c-36 0 -65 25 -65 72c0 9 1 19 5 37c-71 -69 -135 -109 -194 -109c-46 0 -80 28 -80 79c0 32 9 74 17 110l50 223l-86 9l5 34l192 53l15 -13l-65 -286c-8 -34 -13 -61 -13 -82c0 -29 14 -41 36 -41c35 0 72 21 130 69l32 152c11 56 22 113 32 170l81 25
c43 13 80 31 80 64c0 28 -16 46 -16 71c0 30 22 52 51 52c15 0 25 -3 37 -14c4 -14 6 -26 6 -39c0 -77 -58 -143 -129 -163l-68 -322c-5 -22 -8 -39 -8 -50c0 -13 9 -21 20 -21c22 0 48 22 85 67l27 -20c-42 -63 -100 -127 -177 -127zM242 -202c-33 0 -58 23 -58 61
c0 41 33 74 69 74c34 0 58 -25 58 -62c0 -40 -33 -73 -69 -73z" />
    <glyph glyph-name="uni1EEB" unicode="&#x1eeb;" horiz-adv-x="581" 
d="M399 -14c-36 0 -65 25 -65 72c0 9 1 19 5 37c-71 -69 -135 -109 -194 -109c-46 0 -80 28 -80 79c0 32 9 74 17 110l50 223l-86 9l5 34l192 53l15 -13l-65 -286c-8 -34 -13 -61 -13 -82c0 -29 14 -41 36 -41c35 0 72 21 130 69l32 152c11 56 22 113 32 170l81 25
c43 13 80 31 80 64c0 28 -16 46 -16 71c0 30 22 52 51 52c15 0 25 -3 37 -14c4 -14 6 -26 6 -39c0 -77 -58 -143 -129 -163l-68 -322c-5 -22 -8 -39 -8 -50c0 -13 9 -21 20 -21c22 0 48 22 85 67l27 -20c-42 -63 -100 -127 -177 -127zM360 552l-27 -16
c-35 43 -68 81 -104 125c-21 23 -33 40 -33 63c0 27 23 47 50 47c29 0 47 -13 62 -59c19 -54 34 -106 52 -160z" />
    <glyph glyph-name="uni1EED" unicode="&#x1eed;" horiz-adv-x="581" 
d="M399 -14c-36 0 -65 25 -65 72c0 9 1 19 5 37c-71 -69 -135 -109 -194 -109c-46 0 -80 28 -80 79c0 32 9 74 17 110l50 223l-86 9l5 34l192 53l15 -13l-65 -286c-8 -34 -13 -61 -13 -82c0 -29 14 -41 36 -41c35 0 72 21 130 69l32 152c11 56 22 113 32 170l81 25
c43 13 80 31 80 64c0 28 -16 46 -16 71c0 30 22 52 51 52c15 0 25 -3 37 -14c4 -14 6 -26 6 -39c0 -77 -58 -143 -129 -163l-68 -322c-5 -22 -8 -39 -8 -50c0 -13 9 -21 20 -21c22 0 48 22 85 67l27 -20c-42 -63 -100 -127 -177 -127zM341 554l-8 40c45 9 61 26 61 48
c0 26 -24 35 -87 44l18 80c93 -8 134 -44 134 -101c0 -61 -44 -102 -118 -111z" />
    <glyph glyph-name="uni1EEF" unicode="&#x1eef;" horiz-adv-x="581" 
d="M399 -14c-36 0 -65 25 -65 72c0 9 1 19 5 37c-71 -69 -135 -109 -194 -109c-46 0 -80 28 -80 79c0 32 9 74 17 110l50 223l-86 9l5 34l192 53l15 -13l-65 -286c-8 -34 -13 -61 -13 -82c0 -29 14 -41 36 -41c35 0 72 21 130 69l32 152c11 56 22 113 32 170l81 25
c43 13 80 31 80 64c0 28 -16 46 -16 71c0 30 22 52 51 52c15 0 25 -3 37 -14c4 -14 6 -26 6 -39c0 -77 -58 -143 -129 -163l-68 -322c-5 -22 -8 -39 -8 -50c0 -13 9 -21 20 -21c22 0 48 22 85 67l27 -20c-42 -63 -100 -127 -177 -127zM198 585c26 88 68 136 120 136
c30 0 48 -14 64 -30c18 -19 32 -40 55 -40c28 0 49 27 69 70l32 -12c-27 -87 -67 -136 -119 -136c-29 0 -49 13 -66 30c-16 18 -31 40 -55 40c-27 0 -48 -26 -69 -69z" />
    <glyph glyph-name="utilde" unicode="&#x169;" horiz-adv-x="581" 
d="M399 -14c-36 0 -65 25 -65 72c0 9 1 19 5 37c-71 -69 -135 -109 -194 -109c-46 0 -80 28 -80 79c0 32 9 74 17 110l50 223l-86 9l5 34l192 53l15 -13l-65 -286c-8 -34 -13 -61 -13 -82c0 -29 14 -41 36 -41c35 0 72 21 130 69l32 152c11 56 22 113 32 170l99 31l16 -13
l-73 -344c-5 -22 -8 -39 -8 -50c0 -13 9 -21 20 -21c22 0 48 22 85 67l27 -20c-42 -63 -100 -127 -177 -127zM198 585c26 88 68 136 120 136c30 0 48 -14 64 -30c18 -19 32 -40 55 -40c28 0 49 27 69 70l32 -12c-27 -87 -67 -136 -119 -136c-29 0 -49 13 -66 30
c-16 18 -31 40 -55 40c-27 0 -48 -26 -69 -69z" />
    <glyph glyph-name="wacute" unicode="&#x1e83;" horiz-adv-x="762" 
d="M157 -1c-7 146 -18 262 -33 369c-5 34 -13 38 -26 38c-16 0 -32 -15 -57 -50l-23 21c44 77 89 116 137 116c47 0 67 -24 74 -80c12 -83 18 -193 21 -294c64 108 125 228 182 357h64c9 -125 19 -250 28 -373c57 74 99 139 144 219l-10 35c-6 19 -13 44 -13 61
c0 53 33 77 73 77c17 0 30 -6 38 -14c8 -10 11 -21 11 -45c0 -25 -7 -54 -48 -129c-48 -90 -131 -204 -232 -310l-51 -5l-9 7c-9 101 -17 201 -25 300c-48 -94 -113 -211 -180 -302l-56 -5zM458 553c21 53 41 107 62 160c17 43 38 58 64 58c25 0 49 -17 49 -45
c0 -23 -12 -44 -35 -68c-38 -41 -75 -81 -113 -122z" />
    <glyph glyph-name="wcircumflex" unicode="&#x175;" horiz-adv-x="762" 
d="M157 -1c-7 146 -18 262 -33 369c-5 34 -13 38 -26 38c-16 0 -32 -15 -57 -50l-23 21c44 77 89 116 137 116c47 0 67 -24 74 -80c12 -83 18 -193 21 -294c64 108 125 228 182 357h64c9 -125 19 -250 28 -373c57 74 99 139 144 219l-10 35c-6 19 -13 44 -13 61
c0 53 33 77 73 77c17 0 30 -6 38 -14c8 -10 11 -21 11 -45c0 -25 -7 -54 -48 -129c-48 -90 -131 -204 -232 -310l-51 -5l-9 7c-9 101 -17 201 -25 300c-48 -94 -113 -211 -180 -302l-56 -5zM608 545l-111 115l-145 -115l-24 27l160 176h48l102 -179z" />
    <glyph glyph-name="wdieresis" unicode="&#x1e85;" horiz-adv-x="762" 
d="M157 -1c-7 146 -18 262 -33 369c-5 34 -13 38 -26 38c-16 0 -32 -15 -57 -50l-23 21c44 77 89 116 137 116c47 0 67 -24 74 -80c12 -83 18 -193 21 -294c64 108 125 228 182 357h64c9 -125 19 -250 28 -373c57 74 99 139 144 219l-10 35c-6 19 -13 44 -13 61
c0 53 33 77 73 77c17 0 30 -6 38 -14c8 -10 11 -21 11 -45c0 -25 -7 -54 -48 -129c-48 -90 -131 -204 -232 -310l-51 -5l-9 7c-9 101 -17 201 -25 300c-48 -94 -113 -211 -180 -302l-56 -5zM391 611c-30 0 -56 20 -56 54c0 43 34 69 68 69c31 0 55 -22 55 -53
c0 -43 -32 -70 -67 -70zM599 611c-29 0 -55 20 -55 54c0 43 33 69 66 69c32 0 56 -22 56 -53c0 -43 -32 -70 -67 -70z" />
    <glyph glyph-name="wgrave" unicode="&#x1e81;" horiz-adv-x="762" 
d="M157 -1c-7 146 -18 262 -33 369c-5 34 -13 38 -26 38c-16 0 -32 -15 -57 -50l-23 21c44 77 89 116 137 116c47 0 67 -24 74 -80c12 -83 18 -193 21 -294c64 108 125 228 182 357h64c9 -125 19 -250 28 -373c57 74 99 139 144 219l-10 35c-6 19 -13 44 -13 61
c0 53 33 77 73 77c17 0 30 -6 38 -14c8 -10 11 -21 11 -45c0 -25 -7 -54 -48 -129c-48 -90 -131 -204 -232 -310l-51 -5l-9 7c-9 101 -17 201 -25 300c-48 -94 -113 -211 -180 -302l-56 -5zM486 552l-27 -16c-35 43 -68 81 -104 125c-21 23 -33 40 -33 63c0 27 23 47 50 47
c29 0 47 -13 62 -59c19 -54 34 -106 52 -160z" />
    <glyph glyph-name="yacute" unicode="&#xfd;" horiz-adv-x="505" 
d="M-10 -234c-46 0 -77 27 -79 70c7 32 31 50 63 50s54 -17 85 -50c30 21 65 51 94 80c10 10 19 20 28 30c-14 125 -32 223 -51 360c-12 90 -17 100 -33 100c-14 0 -28 -11 -56 -50l-23 21c47 81 94 116 139 116s65 -25 75 -122c12 -115 22 -220 29 -320
c55 116 86 198 116 306c31 113 48 140 87 140c27 0 48 -17 48 -44c0 -30 -10 -52 -31 -94c-22 -41 -45 -85 -81 -145c-37 -62 -77 -133 -133 -212c-29 -41 -59 -84 -106 -134c-58 -62 -113 -102 -171 -102zM307 553c21 53 41 107 62 160c17 43 38 58 64 58
c25 0 49 -17 49 -45c0 -23 -12 -44 -35 -68c-38 -41 -75 -81 -113 -122z" />
    <glyph glyph-name="ydieresis" unicode="&#xff;" horiz-adv-x="505" 
d="M-10 -234c-46 0 -77 27 -79 70c7 32 31 50 63 50s54 -17 85 -50c30 21 65 51 94 80c10 10 19 20 28 30c-14 125 -32 223 -51 360c-12 90 -17 100 -33 100c-14 0 -28 -11 -56 -50l-23 21c47 81 94 116 139 116s65 -25 75 -122c12 -115 22 -220 29 -320
c55 116 86 198 116 306c31 113 48 140 87 140c27 0 48 -17 48 -44c0 -30 -10 -52 -31 -94c-22 -41 -45 -85 -81 -145c-37 -62 -77 -133 -133 -212c-29 -41 -59 -84 -106 -134c-58 -62 -113 -102 -171 -102zM240 611c-30 0 -56 20 -56 54c0 43 34 69 68 69
c31 0 55 -22 55 -53c0 -43 -32 -70 -67 -70zM448 611c-29 0 -55 20 -55 54c0 43 33 69 66 69c32 0 56 -22 56 -53c0 -43 -32 -70 -67 -70z" />
    <glyph glyph-name="ycircumflex" unicode="&#x177;" horiz-adv-x="505" 
d="M-10 -234c-46 0 -77 27 -79 70c7 32 31 50 63 50s54 -17 85 -50c30 21 65 51 94 80c10 10 19 20 28 30c-14 125 -32 223 -51 360c-12 90 -17 100 -33 100c-14 0 -28 -11 -56 -50l-23 21c47 81 94 116 139 116s65 -25 75 -122c12 -115 22 -220 29 -320
c55 116 86 198 116 306c31 113 48 140 87 140c27 0 48 -17 48 -44c0 -30 -10 -52 -31 -94c-22 -41 -45 -85 -81 -145c-37 -62 -77 -133 -133 -212c-29 -41 -59 -84 -106 -134c-58 -62 -113 -102 -171 -102zM457 545l-111 115l-145 -115l-24 27l160 176h48l102 -179z" />
    <glyph glyph-name="uni1E8F" unicode="&#x1e8f;" horiz-adv-x="505" 
d="M-10 -234c-46 0 -77 27 -79 70c7 32 31 50 63 50s54 -17 85 -50c30 21 65 51 94 80c10 10 19 20 28 30c-14 125 -32 223 -51 360c-12 90 -17 100 -33 100c-14 0 -28 -11 -56 -50l-23 21c47 81 94 116 139 116s65 -25 75 -122c12 -115 22 -220 29 -320
c55 116 86 198 116 306c31 113 48 140 87 140c27 0 48 -17 48 -44c0 -30 -10 -52 -31 -94c-22 -41 -45 -85 -81 -145c-37 -62 -77 -133 -133 -212c-29 -41 -59 -84 -106 -134c-58 -62 -113 -102 -171 -102zM344 610c-33 0 -58 23 -58 61c0 41 33 74 69 74
c34 0 58 -25 58 -62c0 -40 -33 -73 -69 -73z" />
    <glyph glyph-name="uni1EF5" unicode="&#x1ef5;" horiz-adv-x="505" 
d="M-10 -234c-46 0 -77 27 -79 70c7 32 31 50 63 50s54 -17 85 -50c30 21 65 51 94 80c10 10 19 20 28 30c-14 125 -32 223 -51 360c-12 90 -17 100 -33 100c-14 0 -28 -11 -56 -50l-23 21c47 81 94 116 139 116s65 -25 75 -122c12 -115 22 -220 29 -320
c55 116 86 198 116 306c31 113 48 140 87 140c27 0 48 -17 48 -44c0 -30 -10 -52 -31 -94c-22 -41 -45 -85 -81 -145c-37 -62 -77 -133 -133 -212c-29 -41 -59 -84 -106 -134c-58 -62 -113 -102 -171 -102zM289 -233c-33 0 -58 23 -58 61c0 41 33 74 69 74
c34 0 58 -25 58 -62c0 -40 -33 -73 -69 -73z" />
    <glyph glyph-name="ygrave" unicode="&#x1ef3;" horiz-adv-x="505" 
d="M-10 -234c-46 0 -77 27 -79 70c7 32 31 50 63 50s54 -17 85 -50c30 21 65 51 94 80c10 10 19 20 28 30c-14 125 -32 223 -51 360c-12 90 -17 100 -33 100c-14 0 -28 -11 -56 -50l-23 21c47 81 94 116 139 116s65 -25 75 -122c12 -115 22 -220 29 -320
c55 116 86 198 116 306c31 113 48 140 87 140c27 0 48 -17 48 -44c0 -30 -10 -52 -31 -94c-22 -41 -45 -85 -81 -145c-37 -62 -77 -133 -133 -212c-29 -41 -59 -84 -106 -134c-58 -62 -113 -102 -171 -102zM335 552l-27 -16c-35 43 -68 81 -104 125c-21 23 -33 40 -33 63
c0 27 23 47 50 47c29 0 47 -13 62 -59c19 -54 34 -106 52 -160z" />
    <glyph glyph-name="uni1EF7" unicode="&#x1ef7;" horiz-adv-x="505" 
d="M-10 -234c-46 0 -77 27 -79 70c7 32 31 50 63 50s54 -17 85 -50c30 21 65 51 94 80c10 10 19 20 28 30c-14 125 -32 223 -51 360c-12 90 -17 100 -33 100c-14 0 -28 -11 -56 -50l-23 21c47 81 94 116 139 116s65 -25 75 -122c12 -115 22 -220 29 -320
c55 116 86 198 116 306c31 113 48 140 87 140c27 0 48 -17 48 -44c0 -30 -10 -52 -31 -94c-22 -41 -45 -85 -81 -145c-37 -62 -77 -133 -133 -212c-29 -41 -59 -84 -106 -134c-58 -62 -113 -102 -171 -102zM316 554l-8 40c45 9 61 26 61 48c0 26 -24 35 -87 44l18 80
c93 -8 134 -44 134 -101c0 -61 -44 -102 -118 -111z" />
    <glyph glyph-name="uni1EF9" unicode="&#x1ef9;" horiz-adv-x="505" 
d="M-10 -234c-46 0 -77 27 -79 70c7 32 31 50 63 50s54 -17 85 -50c30 21 65 51 94 80c10 10 19 20 28 30c-14 125 -32 223 -51 360c-12 90 -17 100 -33 100c-14 0 -28 -11 -56 -50l-23 21c47 81 94 116 139 116s65 -25 75 -122c12 -115 22 -220 29 -320
c55 116 86 198 116 306c31 113 48 140 87 140c27 0 48 -17 48 -44c0 -30 -10 -52 -31 -94c-22 -41 -45 -85 -81 -145c-37 -62 -77 -133 -133 -212c-29 -41 -59 -84 -106 -134c-58 -62 -113 -102 -171 -102zM173 585c26 88 68 136 120 136c30 0 48 -14 64 -30
c18 -19 32 -40 55 -40c28 0 49 27 69 70l32 -12c-27 -87 -67 -136 -119 -136c-29 0 -49 13 -66 30c-16 18 -31 40 -55 40c-27 0 -48 -26 -69 -69z" />
    <glyph glyph-name="zacute" unicode="&#x17a;" horiz-adv-x="480" 
d="M46 271l21 159l79 64c84 -26 160 -51 243 -87l34 72l63 11l10 -10c-13 -38 -51 -86 -108 -138c-80 -74 -163 -141 -243 -210c75 -46 130 -60 176 -60c25 0 46 5 65 14c-27 31 -35 47 -35 68c0 35 26 57 57 60c27 -9 39 -34 39 -63c0 -84 -92 -177 -175 -177
c-57 0 -110 25 -176 108l-33 -82l-69 -7l-8 7c21 40 42 74 88 115c82 75 168 146 252 223c-66 19 -125 32 -198 47l-37 -121zM298 553c21 53 41 107 62 160c17 43 38 58 64 58c25 0 49 -17 49 -45c0 -23 -12 -44 -35 -68c-38 -41 -75 -81 -113 -122z" />
    <glyph glyph-name="zcaron" unicode="&#x17e;" horiz-adv-x="480" 
d="M46 271l21 159l79 64c84 -26 160 -51 243 -87l34 72l63 11l10 -10c-13 -38 -51 -86 -108 -138c-80 -74 -163 -141 -243 -210c75 -46 130 -60 176 -60c25 0 46 5 65 14c-27 31 -35 47 -35 68c0 35 26 57 57 60c27 -9 39 -34 39 -63c0 -84 -92 -177 -175 -177
c-57 0 -110 25 -176 108l-33 -82l-69 -7l-8 7c21 40 42 74 88 115c82 75 168 146 252 223c-66 19 -125 32 -198 47l-37 -121zM228 759l100 -114l144 115l26 -25l-157 -180h-53l-92 182z" />
    <glyph glyph-name="zdotaccent" unicode="&#x17c;" horiz-adv-x="480" 
d="M46 271l21 159l79 64c84 -26 160 -51 243 -87l34 72l63 11l10 -10c-13 -38 -51 -86 -108 -138c-80 -74 -163 -141 -243 -210c75 -46 130 -60 176 -60c25 0 46 5 65 14c-27 31 -35 47 -35 68c0 35 26 57 57 60c27 -9 39 -34 39 -63c0 -84 -92 -177 -175 -177
c-57 0 -110 25 -176 108l-33 -82l-69 -7l-8 7c21 40 42 74 88 115c82 75 168 146 252 223c-66 19 -125 32 -198 47l-37 -121zM335 610c-33 0 -58 23 -58 61c0 41 33 74 69 74c34 0 58 -25 58 -62c0 -40 -33 -73 -69 -73z" />
    <glyph glyph-name="uni1E93" unicode="&#x1e93;" horiz-adv-x="480" 
d="M150 -202c-33 0 -58 23 -58 61c0 41 33 74 69 74c34 0 58 -25 58 -62c0 -40 -33 -73 -69 -73zM46 271l21 159l79 64c84 -26 160 -51 243 -87l34 72l63 11l10 -10c-13 -38 -51 -86 -108 -138c-80 -74 -163 -141 -243 -210c75 -46 130 -60 176 -60c25 0 46 5 65 14
c-27 31 -35 47 -35 68c0 35 26 57 57 60c27 -9 39 -34 39 -63c0 -84 -92 -177 -175 -177c-57 0 -110 25 -176 108l-33 -82l-69 -7l-8 7c21 40 42 74 88 115c82 75 168 146 252 223c-66 19 -125 32 -198 47l-37 -121z" />
    <glyph glyph-name="eth" unicode="&#xf0;" horiz-adv-x="506" 
d="M213 -14c-106 0 -182 65 -182 190c0 177 124 310 263 310c32 0 58 -9 78 -26c-12 54 -30 99 -59 138l-128 -66l-19 40l117 62c-25 26 -55 49 -93 70l26 39c48 -20 90 -46 126 -78l119 62l21 -42l-106 -54c68 -77 105 -178 105 -297c0 -211 -121 -348 -268 -348zM223 33
c84 0 151 133 151 291c0 85 -30 113 -76 113c-86 0 -154 -122 -154 -267c0 -99 32 -137 79 -137z" />
    <glyph glyph-name="thorn" unicode="&#xfe;" horiz-adv-x="525" 
d="M193 -14c-20 0 -37 4 -54 12c-13 -62 -24 -121 -35 -181l87 -14l-7 -37h-266l8 37l71 12l131 623c15 73 28 134 38 195l-83 10l5 33l191 54l14 -11l-71 -339c58 70 133 113 190 113c53 0 97 -33 97 -130c0 -178 -167 -377 -316 -377zM340 409c-34 0 -81 -29 -127 -78
l-51 -247c21 -18 42 -27 65 -27c43 0 82 25 115 73c34 49 57 125 57 189c0 62 -20 90 -59 90z" />
    <glyph glyph-name="eng" unicode="&#x14b;" horiz-adv-x="586" 
d="M57 -8l-13 10l83 396l-83 9l5 33l187 54l16 -13l-20 -97c67 64 145 109 207 109c42 0 70 -25 70 -76c0 -29 -6 -60 -13 -92l-58 -282c-20 -98 -53 -170 -106 -219c-35 -37 -82 -61 -138 -66l-7 30c33 14 57 28 77 56c29 38 48 92 71 205l47 240c6 33 12 63 12 81
c0 29 -12 39 -31 39c-32 0 -81 -25 -141 -76l-26 -121c-15 -71 -28 -140 -41 -212z" />
    <glyph glyph-name="uni0259" unicode="&#x259;" horiz-adv-x="453" 
d="M139 -14c-77 0 -117 42 -117 105c0 79 84 160 301 222c-6 70 -35 101 -87 101c-64 0 -115 -38 -147 -78l-25 20c43 72 119 137 210 137c93 0 155 -62 155 -180c0 -171 -134 -327 -290 -327zM113 94c0 -39 19 -60 51 -60c59 0 154 112 160 240
c-156 -53 -211 -120 -211 -180z" />
    <glyph glyph-name="uni0251" unicode="&#x251;" horiz-adv-x="546" 
d="M138 161c0 -62 23 -89 57 -89c31 0 66 21 115 72l57 263c-18 9 -37 16 -57 16c-27 0 -59 -15 -90 -45c-47 -47 -82 -138 -82 -217zM367 -14c-38 0 -66 25 -67 74c0 12 1 23 3 34c-57 -64 -122 -108 -176 -108c-52 0 -100 36 -100 129c0 176 185 378 323 378
c26 0 47 -11 66 -28l61 35l18 -11l-80 -352c-5 -22 -8 -39 -8 -50c0 -13 9 -21 21 -21c22 0 52 26 85 67l27 -19c-37 -61 -102 -128 -173 -128z" />
    <glyph glyph-name="uni0261" unicode="&#x261;" horiz-adv-x="500" 
d="M130 -244c-102 0 -150 36 -160 125c7 24 26 45 56 45c37 0 55 -16 64 -76l8 -50h10c54 0 94 18 128 51c43 43 60 130 76 262c-59 -68 -127 -117 -184 -117c-51 0 -100 36 -100 129c0 171 184 368 322 368c26 0 47 -10 66 -28l61 35l17 -11l-32 -141l-46 -235
c-22 -158 -44 -238 -92 -286c-54 -54 -119 -71 -194 -71zM139 171c0 -62 23 -89 58 -89c32 0 71 24 124 84l46 241c-18 10 -37 16 -57 16c-27 0 -59 -15 -90 -45c-45 -45 -81 -131 -81 -207z" />
    <glyph glyph-name="ampersand" unicode="&#x26;" horiz-adv-x="718" 
d="M321 -14c-170 0 -273 82 -273 210c0 92 52 181 162 216c-19 30 -27 59 -27 89c0 94 77 179 211 179c84 0 140 -33 154 -91c-4 -23 -18 -40 -48 -40c-26 0 -46 13 -62 51l-17 41h-9c-94 0 -147 -54 -147 -146c0 -22 3 -44 16 -67c7 0 15 1 23 1c64 0 96 -23 96 -52
c0 -28 -19 -42 -50 -42c-39 0 -78 14 -113 46c-59 -36 -79 -94 -79 -150c0 -100 80 -157 182 -157c99 0 163 43 163 107c0 46 -26 74 -99 80l9 54c127 8 193 71 237 190l84 -38c-47 -107 -120 -163 -232 -183c43 -22 60 -64 60 -110c0 -108 -90 -188 -241 -188z" />
    <glyph glyph-name="zero.slash" horiz-adv-x="529" 
d="M211 -12c-64 0 -115 27 -145 78l-70 -78l-28 23l81 91c-10 30 -16 65 -16 105c0 251 136 443 299 443c67 0 117 -25 146 -76l69 76l28 -23l-81 -90c10 -28 15 -62 15 -102c0 -260 -142 -447 -298 -447zM133 198v-8l275 306c-9 81 -43 106 -80 106
c-101 0 -195 -190 -195 -404zM215 36c105 0 196 203 196 412v3l-276 -307c9 -83 39 -108 80 -108z" />
    <glyph glyph-name="zero" unicode="0" horiz-adv-x="529" 
d="M211 -12c-109 0 -178 78 -178 219c0 251 137 443 299 443c112 0 177 -72 177 -215c0 -260 -142 -447 -298 -447zM219 36c91 0 183 203 183 412c0 119 -36 154 -78 154c-88 0 -183 -190 -183 -404c0 -127 32 -162 78 -162z" />
    <glyph glyph-name="one" unicode="1" horiz-adv-x="529" 
d="M36 0l9 41l128 14l102 506l-125 -7l9 41l234 56l11 -10l-33 -143l-60 -289c-10 -50 -20 -102 -30 -153l135 -15l-9 -41h-371z" />
    <glyph glyph-name="two" unicode="2" horiz-adv-x="529" 
d="M21 0l15 73l146 135c156 145 207 213 207 291c0 68 -37 103 -100 103c-25 0 -47 -4 -69 -13l-5 -65c-6 -66 -27 -84 -60 -84c-27 0 -45 18 -48 49c27 120 106 164 215 164c121 0 177 -65 177 -152c0 -113 -100 -179 -270 -318l-100 -83h314l-20 -100h-402z" />
    <glyph glyph-name="three" unicode="3" horiz-adv-x="529" 
d="M221 -14c-110 0 -181 49 -181 168c11 24 28 36 49 35c32 0 49 -20 50 -70l2 -76c20 -7 41 -10 66 -10c76 0 143 50 143 151c0 77 -45 116 -119 116h-32l10 48h33c74 0 148 49 148 151c0 73 -42 106 -98 106c-20 0 -41 -3 -61 -10l-9 -66c-6 -41 -26 -63 -57 -63
c-21 0 -42 14 -48 32c14 99 88 155 201 155c120 0 176 -65 176 -149c0 -85 -63 -151 -169 -178c94 -19 139 -68 139 -150c0 -119 -110 -190 -243 -190z" />
    <glyph glyph-name="four" unicode="4" horiz-adv-x="529" 
d="M253 -13l34 166h-277l15 71l380 415h79l-84 -411h103l-14 -75h-105l-34 -166h-97zM240 397l-154 -169h217l62 304z" />
    <glyph glyph-name="five" unicode="5" horiz-adv-x="529" 
d="M202 -14c-107 0 -166 59 -165 162c11 22 30 32 51 32c39 0 49 -24 52 -81l3 -60c15 -5 33 -7 55 -7c82 0 152 60 152 170c0 82 -40 133 -114 133c-40 0 -68 -9 -90 -21l-30 10l77 315h324l-20 -99h-279l-43 -172c31 11 65 18 97 18c122 0 190 -70 190 -175
c0 -144 -117 -225 -260 -225z" />
    <glyph glyph-name="six" unicode="6" horiz-adv-x="529" 
d="M163 196c0 -117 36 -165 101 -165c60 0 112 64 112 170c0 87 -37 122 -105 122c-31 0 -63 -5 -98 -25c-7 -33 -10 -67 -10 -102zM246 -14c-118 0 -193 81 -193 222c0 236 201 434 476 444l4 -39c-188 -25 -305 -131 -350 -275c45 31 89 46 142 46c101 0 159 -68 159 -168
c0 -150 -121 -230 -238 -230z" />
    </font>
</defs>
</svg>
