<svg id="a" data-name="h_org_subject" xmlns="http://www.w3.org/2000/svg" viewBox="0 0 132.65 30.62">
  <g>
    <path d="M30.09,28.62c-.34,0-.61-.26-.61-.6s.27-.6,.61-.6c.32,0,.6,.28,.6,.6s-.27,.6-.6,.6m.02-1.36c-.44,0-.78,.34-.78,.76s.34,.76,.76,.76,.76-.34,.76-.76-.34-.76-.74-.76" fill="#d00000"/>
    <path d="M30.09,28.62c-.34,0-.61-.26-.61-.6s.27-.6,.61-.6c.32,0,.6,.28,.6,.6,0,.34-.27,.6-.6,.6" fill="#fff"/>
    <g>
      <path d="M11.16,21.2v6.62H.94v-6.62h1.89V7.57H.94V.95H9.65l9.84,15.52V7.57h-1.89V.95h10.22V7.57h-1.89v13.63h1.89v6.62h-8.71L9.27,12.3v8.9h1.89ZM27.82,.38h-10.79v7.76h1.89v6.38L10.13,.64l-.15-.27H.38v7.76h1.89v12.49H.38v7.76H11.73v-7.76h-1.89v-6.38l8.8,13.88,.17,.27h9.58v-7.76h-1.89V8.14h1.89V.38h-.57Z" fill="#fff"/>
      <polygon points="19.49 16.47 9.65 .95 .94 .95 .94 7.57 2.84 7.57 2.84 21.2 .94 21.2 .94 27.82 11.16 27.82 11.16 21.2 9.27 21.2 9.27 12.3 19.12 27.82 27.82 27.82 27.82 21.2 25.93 21.2 25.93 7.57 27.82 7.57 27.82 .95 17.6 .95 17.6 7.57 19.49 7.57 19.49 16.47" fill="#d00000"/>
      <path d="M28.39,.95v7.19h-1.89v12.49h1.89v7.76h-9.58l-.17-.27L9.84,14.25v6.38h1.89v7.76H.38v-7.76h1.89V8.14H.38V.38H9.95l.17,.27,8.8,13.87v-6.38h-1.89V.38h11.36V.95Zm-.57-.95h-11.17V8.52h1.89v4.7L10.45,.44l-.27-.44H0V8.52H1.89v11.73H0v8.52H12.11v-8.52h-1.89v-4.69l8.1,12.78,.29,.44h10.16v-8.52h-1.89V8.52h1.89V0h-.94Zm2.2,27.96h.07c.07-.02,.11-.05,.11-.15,0-.06-.02-.09-.07-.11h-.19v.26h.08Zm-.23-.4h.27c.11,0,.15,0,.21,.04,.07,.04,.11,.11,.11,.21,0,.08-.02,.13-.06,.19-.02,.04-.05,.04-.11,.08h-.02l.21,.4h-.15l-.19-.38h-.11v.38h-.15v-.91Z" fill="#d00000"/>
    </g>
  </g>
  <text transform="translate(35.4 17.62)" fill="#d00000" font-family="Oswald-Medium, Oswald" font-size="8" letter-spacing="-.02em">
    <tspan x="0" y="0" class="org_first_line">YOUR ORGANIZATION HERE</tspan>
  </text>
  <text transform="translate(35.4 28.65)" fill="#000" font-family="SourceSerif4-SemiboldIt, &apos;Source Serif 4&apos;" font-size="6.25" font-weight="700" letter-spacing="0em">
    <tspan x="0" y="0" class="subject_first_line">Subject Name</tspan>
  </text>
</svg>