<svg data-name="v_acronym_2_subject" xmlns="http://www.w3.org/2000/svg" viewBox="0 0 126.34 82.55">
  <g>
    <path class="n_main_color" d="M79.38,28.62c-.34,0-.61-.26-.61-.6s.27-.6,.61-.6c.32,0,.6,.28,.6,.6s-.27,.6-.6,.6m.02-1.36c-.44,0-.78,.34-.78,.76s.34,.76,.76,.76,.76-.34,.76-.76-.34-.76-.74-.76" fill="#d00000"/>
    <path class="n_secondary_color" d="M79.38,28.62c-.34,0-.61-.26-.61-.6s.27-.6,.61-.6c.32,0,.6,.28,.6,.6,0,.34-.27,.6-.6,.6" fill="#fff"/>
    <g>
      <path class="n_secondary_color" d="M60.45,21.2v6.62h-10.22v-6.62h1.89V7.57h-1.89V.95h8.71l9.84,15.52V7.57h-1.89V.95h10.22V7.57h-1.89v13.63h1.89v6.62h-8.71l-9.84-15.52v8.9h1.89ZM77.11,.38h-10.79v7.76h1.89v6.38L59.41,.64l-.15-.27h-9.6v7.76h1.89v12.49h-1.89v7.76h11.36v-7.76h-1.89v-6.38l8.8,13.88,.17,.27h9.58v-7.76h-1.89V8.14h1.89V.38h-.57Z" fill="#fff"/>
      <polygon class="n_main_color" points="68.78 16.47 58.93 .95 50.23 .95 50.23 7.57 52.12 7.57 52.12 21.2 50.23 21.2 50.23 27.82 60.45 27.82 60.45 21.2 58.56 21.2 58.56 12.3 68.4 27.82 77.11 27.82 77.11 21.2 75.21 21.2 75.21 7.57 77.11 7.57 77.11 .95 66.89 .95 66.89 7.57 68.78 7.57 68.78 16.47" fill="#d00000"/>
      <path class="n_main_color" d="M77.67,.95v7.19h-1.89v12.49h1.89v7.76h-9.58l-.17-.27-8.8-13.88v6.38h1.89v7.76h-11.36v-7.76h1.89V8.14h-1.89V.38h9.58l.17,.27,8.8,13.87v-6.38h-1.89V.38h11.36V.95Zm-.57-.95h-11.17V8.52h1.89v4.7L59.73,.44l-.27-.44h-10.18V8.52h1.89v11.73h-1.89v8.52h12.11v-8.52h-1.89v-4.69l8.1,12.78,.29,.44h10.16v-8.52h-1.89V8.52h1.89V0h-.94Zm2.2,27.96h.07c.07-.02,.11-.05,.11-.15,0-.06-.02-.09-.07-.11h-.19v.26h.08Zm-.23-.4h.27c.11,0,.15,0,.21,.04,.07,.04,.11,.11,.11,.21,0,.08-.02,.13-.06,.19-.02,.04-.05,.04-.11,.08h-.02l.21,.4h-.15l-.19-.38h-.11v.38h-.15v-.91Z" fill="#d00000"/>
    </g>
  </g>
  <text style="text-align: center; transform-origin: center center;" text-anchor="middle" transform="scale(.93 1)" font-family="Oswald-Medium, Oswald"><tspan class="text_main_color" fill="#d00000" font-size="15" letter-spacing="-.02em"><tspan class="acronym_first_line" x="63.17" y="46.49">ACRONYM</tspan></tspan><tspan class="text_main_color" fill="#d00000" font-size="15" letter-spacing="-.02em"><tspan class="acronym_second_line" x="63.17" y="62.49">ACRONYM SECOND LINE</tspan></tspan><tspan class="text_secondary_color" fill="#000" font-size="10.25" letter-spacing="-.02em"><tspan class="acronym_subject" x="63.17" y="79.24">SUBJECT ACRONYM</tspan></tspan></text>
</svg>