<svg id="a" data-name="v_acronym" xmlns="http://www.w3.org/2000/svg" viewBox="0 0 121.38 51.33">
  <g>
    <path d="M76.9,28.62c-.34,0-.61-.26-.61-.6s.27-.6,.61-.6c.32,0,.6,.28,.6,.6s-.27,.6-.6,.6m.02-1.36c-.44,0-.78,.34-.78,.76s.34,.76,.76,.76,.76-.34,.76-.76-.34-.76-.74-.76" fill="#d00000"/>
    <path d="M76.9,28.62c-.34,0-.61-.26-.61-.6s.27-.6,.61-.6c.32,0,.6,.28,.6,.6,0,.34-.27,.6-.6,.6" fill="#fff"/>
    <g>
      <path d="M57.97,21.2v6.62h-10.22v-6.62h1.89V7.57h-1.89V.95h8.71l9.84,15.52V7.57h-1.89V.95h10.22V7.57h-1.89v13.63h1.89v6.62h-8.71l-9.84-15.52v8.9h1.89ZM74.63,.38h-10.79v7.76h1.89v6.38L56.93,.64l-.15-.27h-9.6v7.76h1.89v12.49h-1.89v7.76h11.36v-7.76h-1.89v-6.38l8.8,13.88,.17,.27h9.58v-7.76h-1.89V8.14h1.89V.38h-.57Z" fill="#fff"/>
      <polygon points="66.3 16.47 56.45 .95 47.75 .95 47.75 7.57 49.64 7.57 49.64 21.2 47.75 21.2 47.75 27.82 57.97 27.82 57.97 21.2 56.08 21.2 56.08 12.3 65.92 27.82 74.63 27.82 74.63 21.2 72.73 21.2 72.73 7.57 74.63 7.57 74.63 .95 64.41 .95 64.41 7.57 66.3 7.57 66.3 16.47" fill="#d00000"/>
      <path d="M75.19,.95v7.19h-1.89v12.49h1.89v7.76h-9.58l-.17-.27-8.8-13.88v6.38h1.89v7.76h-11.36v-7.76h1.89V8.14h-1.89V.38h9.58l.17,.27,8.8,13.87v-6.38h-1.89V.38h11.36V.95Zm-.57-.95h-11.17V8.52h1.89v4.7L57.25,.44l-.27-.44h-10.18V8.52h1.89v11.73h-1.89v8.52h12.11v-8.52h-1.89v-4.69l8.1,12.78,.29,.44h10.16v-8.52h-1.89V8.52h1.89V0h-.94Zm2.2,27.96h.07c.07-.02,.11-.05,.11-.15,0-.06-.02-.09-.07-.11h-.19v.26h.08Zm-.23-.4h.27c.11,0,.15,0,.21,.04,.07,.04,.11,.11,.11,.21,0,.08-.02,.13-.06,.19-.02,.04-.05,.04-.11,.08h-.02l.21,.4h-.15l-.19-.38h-.11v.38h-.15v-.91Z" fill="#d00000"/>
      <rect x="19.23" y="0" width="82.91" height="28.94" fill="none"/>
    </g>
  </g>
  <text style="text-align: center;" text-anchor="middle" fill="#d00000" font-family="Oswald-Medium, Oswald" font-size="15" letter-spacing="-.02em">
    <tspan x="60.69" y="46.49" class="acronym_first_line">ACRONYM</tspan>
  </text>
</svg>