<svg data-name="v_acronym_subject" xmlns="http://www.w3.org/2000/svg" viewBox="0 0 102.15 63.55">
  <g>
    <path class="n_main_color" d="M67.28,28.62c-.34,0-.61-.26-.61-.6s.27-.6,.61-.6c.32,0,.6,.28,.6,.6s-.27,.6-.6,.6m.02-1.36c-.44,0-.78,.34-.78,.76s.34,.76,.76,.76,.76-.34,.76-.76-.34-.76-.74-.76" fill="#d00000"/>
    <path class="n_secondary_color" d="M67.28,28.62c-.34,0-.61-.26-.61-.6s.27-.6,.61-.6c.32,0,.6,.28,.6,.6,0,.34-.27,.6-.6,.6" fill="#fff"/>
    <g>
      <path class="n_secondary_color" d="M48.35,21.2v6.62h-10.22v-6.62h1.89V7.57h-1.89V.95h8.71l9.84,15.52V7.57h-1.89V.95h10.22V7.57h-1.89v13.63h1.89v6.62h-8.71l-9.84-15.52v8.9h1.89ZM65.01,.38h-10.79v7.76h1.89v6.38L47.31,.64l-.15-.27h-9.6v7.76h1.89v12.49h-1.89v7.76h11.36v-7.76h-1.89v-6.38l8.8,13.88,.17,.27h9.58v-7.76h-1.89V8.14h1.89V.38h-.57Z" fill="#fff"/>
      <polygon class="n_main_color" points="56.68 16.47 46.84 .95 38.13 .95 38.13 7.57 40.03 7.57 40.03 21.2 38.13 21.2 38.13 27.82 48.35 27.82 48.35 21.2 46.46 21.2 46.46 12.3 56.31 27.82 65.01 27.82 65.01 21.2 63.12 21.2 63.12 7.57 65.01 7.57 65.01 .95 54.79 .95 54.79 7.57 56.68 7.57 56.68 16.47" fill="#d00000"/>
      <path class="n_main_color" d="M65.58,.95v7.19h-1.89v12.49h1.89v7.76h-9.58l-.17-.27-8.8-13.88v6.38h1.89v7.76h-11.36v-7.76h1.89V8.14h-1.89V.38h9.58l.17,.27,8.8,13.87v-6.38h-1.89V.38h11.36V.95Zm-.57-.95h-11.17V8.52h1.89v4.7L47.63,.44l-.27-.44h-10.18V8.52h1.89v11.73h-1.89v8.52h12.11v-8.52h-1.89v-4.69l8.1,12.78,.29,.44h10.16v-8.52h-1.89V8.52h1.89V0h-.94Zm2.2,27.96h.07c.07-.02,.11-.05,.11-.15,0-.06-.02-.09-.07-.11h-.19v.26h.08Zm-.23-.4h.27c.11,0,.15,0,.21,.04,.07,.04,.11,.11,.11,.21,0,.08-.02,.13-.06,.19-.02,.04-.05,.04-.11,.08h-.02l.21,.4h-.15l-.19-.38h-.11v.38h-.15v-.91Z" fill="#d00000"/>
    </g>
  </g>
  <text style="text-align: center;" text-anchor="middle" transform="translate(51.075, 0) scale(.93 1)" font-family="Oswald-Medium, Oswald"><tspan class="text_main_color" fill="#d00000" font-size="15" letter-spacing="-.02em"><tspan class="acronym_first_line" x="0" y="46.49">ACRONYM</tspan></tspan><tspan class="text_secondary_color" fill="#000" font-size="10.25" letter-spacing="-.02em"><tspan class="acronym_subject" x="0" y="60.24">ACRONYM SUBJECT</tspan></tspan></text>
</svg>