<svg data-name="v_extension_4h" xmlns="http://www.w3.org/2000/svg" viewBox="0 0 217.79 62.69">
  <g>
    <g>
      <path class="clover_color" d="M142.84,24.93s.09,0,.13-.02c.08-.03,.17-.09,.24-.18,.07-.09,.11-.19,.11-.29s-.04-.21-.12-.31l-.03-.04-.19,.14,.03,.04c.05,.06,.08,.12,.08,.18,0,.06-.02,.11-.06,.16-.03,.04-.07,.07-.13,.09-.02,0-.05,.01-.07,.01-.03,0-.06,0-.08-.01-.06-.02-.13-.06-.19-.11-.05-.04-.09-.09-.13-.14-.03-.05-.04-.1-.04-.15,0-.05,.03-.11,.07-.16,.04-.05,.08-.07,.12-.08,.04-.01,.1,0,.17,.02l.04,.02,.1-.21-.05-.02c-.1-.04-.2-.05-.3-.03-.09,.02-.18,.08-.25,.16-.06,.08-.1,.16-.11,.26-.02,.09,0,.18,.04,.28,.04,.09,.1,.17,.19,.24,.08,.07,.18,.12,.27,.14,.05,.01,.1,.02,.15,.02m-17.66-9.7c-.1,.02-.39,.02-.6,.02-.25,0-.55,0-.89,0-.43,0-.92-.01-1.42-.01-1.52,0-2.51,.05-3.12,.16-.03,0-2.2,.41-3.77,2.83-.53,.82-.69,1.71-.47,2.65,.26,1.1,.98,1.96,1.41,2.21,.04,.02,.08,.05,.14,.08,.42,.22,1.41,.74,1.79,1.99,.53,1.74,1.86,2.79,3.58,2.82,3.29-.11,4.74-3.03,5.37-5.45,.11-.74,.22-1.36,.33-1.96,.07-.35,.13-.69,.19-1.06,.05-.12,.18-.19,.31-.19,.06,0,.21,.02,.25,.21-.6,6.49,.73,9.26,1.3,10.44,.1,.22,.18,.37,.21,.48v.04h2.86l-.06-.07s-1.04-1.28-1.88-3.24c-.59-1.37-1.24-4.12-1.15-7.33,0-.14,.11-.45,.25-.51,.04-.02,.08-.04,.12-.04,.16,0,.23,.21,.23,.21,0,.02,.5,2.25,.5,2.6,.26,1.72,.95,3.2,1.98,4.28,.96,1.01,2.15,1.58,3.35,1.62h.06c1.36,0,2.24-.7,2.75-1.29,.5-.57,.73-1.16,.77-1.29h0s.02-.07,.04-.11c.17-.5,.46-1.35,1.73-2.07,1.01-.53,1.7-1.65,1.76-2.87,.05-.9-.22-2.62-2.47-4.1-1.13-.92-2.59-1.08-5.44-1.08-.5,0-1.04,0-1.63,.01-.29,0-.58,0-.9,0-.02,0-.05,0-.08,0-.22,0-.35-.16-.35-.31-.01-.16,.11-.34,.46-.38,.13-.01,.42-.02,.8-.03,1.24-.03,3.55-.08,5.22-.54,2.25-.78,3.79-2.57,3.93-4.57,.11-1.56-.67-2.88-2.15-3.63-1.75-.71-2.28-2.06-2.45-2.51-.66-1.19-1.83-1.88-3.19-1.88-1.86,0-4.13,1.3-5.01,4.22-.36,1.55-.45,4.23-.49,5.52-.02,.19-.22,.42-.41,.42-.15,0-.27-.15-.33-.43-.05-.21-.07-.62-.09-1.19-.04-1.02-.11-2.55-.42-4.3-.93-2.57-2.88-4.23-4.95-4.23-1.14,0-2.17,.49-2.98,1.43-.36,.47-.53,.82-.68,1.12-.32,.65-.52,1.04-2.26,1.92-1.01,.63-2.06,1.85-1.98,3.39,.43,3.82,4.2,4.81,4.24,4.82,.01,0,1.16,.27,5.62,.46,.25,.03,.41,.15,.41,.32,0,.18-.13,.34-.31,.38m-3.82,9.42l-.9-.89,1.54-1.55-1.49-1.48-1.54,1.54-.9-.9,4.01-4.03,.9,.89-1.62,1.63,1.49,1.48,1.62-1.63,.9,.89-4.01,4.03Zm12.05-4.92l1.62,1.63,1.49-1.48-1.62-1.63,.9-.89,4.01,4.03-.9,.9-1.54-1.54-1.49,1.48,1.54,1.55-.9,.89-4.01-4.03,.9-.89Zm2.67-15.31l.88,.91-1.57,1.51,1.46,1.51,1.57-1.51,.88,.91-4.09,3.95-.88-.91,1.65-1.6-1.46-1.51-1.65,1.59-.88-.91,4.09-3.95Zm-11.21,4.86l-1.65-1.59-1.46,1.51,1.65,1.6-.88,.91-4.09-3.95,.88-.91,1.57,1.51,1.46-1.51-1.56-1.51,.88-.91,4.09,3.95-.88,.91Zm19.48,12.61c.02,.07,.05,.14,.08,.22,.05,.11,.12,.22,.19,.32,.07,.1,.14,.18,.21,.23l.04,.03,.14-.17-.03-.03c-.08-.07-.14-.14-.19-.21-.07-.1-.14-.21-.19-.33-.05-.12-.08-.22-.09-.31v-.02l-.13-.11-.48,.58,.17,.14,.29-.35Zm-4.61,5.69l.18,.14,.02-.07s.02-.09,.03-.15c0-.02,0-.04,0-.05l.6,.48,.14-.17-.89-.71-.1,.12v.03s.04,.09,.05,.15c0,.07,0,.14-.02,.2v.03Zm3.75-4.74l-.13-.1-.48,.58,.17,.14,.29-.35c.02,.07,.05,.15,.08,.23,.05,.11,.12,.22,.19,.32,.07,.1,.15,.18,.21,.23l.04,.03,.14-.17-.03-.03c-.08-.07-.14-.14-.19-.21-.07-.1-.13-.21-.18-.33-.05-.12-.08-.22-.1-.31v-.02Zm-1.99,3.62s.07,.02,.1,.02c.04,0,.08,0,.13-.03,.07-.03,.14-.08,.21-.16,.07-.08,.11-.17,.12-.25,0-.08,0-.15-.05-.22-.04-.06-.1-.13-.19-.2l-.51-.41-.15,.18,.51,.41c.11,.09,.14,.15,.15,.19,0,.05-.02,.11-.07,.17-.03,.04-.06,.06-.1,.08-.04,.01-.07,.01-.1,0-.04-.01-.09-.04-.15-.1l-.51-.41-.14,.18,.51,.41c.09,.07,.17,.12,.24,.14m.71-.75c.06,0,.12-.02,.17-.04,.07-.03,.13-.09,.19-.16,.05-.06,.08-.13,.1-.2,.02-.07,.02-.14,0-.2-.02-.06-.06-.11-.1-.15-.06-.04-.11-.07-.17-.07-.06,0-.12,0-.19,.04-.04,.02-.11,.07-.2,.14-.11,.09-.15,.1-.16,.1-.02,0-.04,0-.06-.02-.02-.01-.03-.04-.03-.08,0-.03,.02-.08,.07-.13,.04-.05,.08-.08,.12-.09,.04,0,.09,0,.13,.03l.04,.03,.13-.18-.04-.03c-.06-.04-.12-.06-.19-.07-.07,0-.13,0-.2,.04-.06,.03-.12,.08-.17,.14-.05,.06-.08,.12-.1,.18-.02,.07-.02,.13,0,.19,.02,.06,.06,.11,.11,.15,.04,.03,.09,.06,.15,.06,.05,0,.11,0,.17-.03,.04-.02,.11-.06,.19-.12,.09-.07,.13-.1,.15-.1,.03-.02,.06-.02,.08-.02,.02,0,.04,0,.06,.02,.02,.01,.03,.03,.03,.06,0,.02,0,.05,0,.08-.01,.03-.03,.07-.06,.1-.03,.04-.07,.07-.11,.09-.04,.02-.07,.03-.1,.02-.04,0-.07-.02-.11-.04l-.04-.03-.12,.18,.04,.02c.06,.05,.13,.07,.2,.09,.02,0,.03,0,.05,0m1.39-3.3c-.05,.06-.08,.13-.08,.21,0,.07,.03,.15,.08,.22,.04,.07,.12,.15,.22,.23,.16,.13,.3,.2,.42,.2h0c.1,0,.19-.04,.26-.13,.06-.06,.08-.13,.08-.21,0-.07-.03-.15-.08-.22-.05-.07-.12-.14-.22-.23-.08-.07-.16-.11-.22-.14-.06-.03-.12-.05-.18-.05-.06,0-.11,0-.16,.02-.05,.02-.1,.06-.14,.11m.26,.08h.02s.12,.03,.28,.16c.15,.13,.2,.2,.21,.24,.01,.05,.01,.09-.02,.12-.03,.03-.07,.05-.12,.04-.04,0-.12-.03-.27-.16-.16-.13-.21-.2-.22-.25-.01-.04,0-.08,.02-.11,.02-.03,.06-.04,.1-.04m-3.01,4.95c.1-.01,.18-.06,.26-.15,.07-.09,.11-.18,.09-.28,0-.1-.05-.18-.14-.24-.06-.05-.12-.07-.18-.08-.04,0-.08,0-.11,.01,0-.02,0-.05-.01-.07-.01-.05-.04-.1-.09-.13-.07-.05-.15-.07-.24-.07-.08,.01-.16,.06-.23,.14-.07,.08-.09,.16-.08,.25,0,.08,.04,.16,.12,.21,.05,.04,.1,.06,.15,.06,.03,0,.05,0,.07,0,0,.04,0,.07,0,.11,.02,.07,.06,.12,.11,.17,.07,.05,.15,.08,.23,.08,.02,0,.03,0,.04,0m-.31-.61s-.05,.05-.08,.05h0s-.06,0-.08-.03c-.02-.02-.04-.04-.04-.08,0-.03,0-.06,.03-.08,.02-.03,.05-.04,.08-.05h.01s.06,0,.08,.03c.03,.02,.04,.04,.04,.07,0,.03,0,.06-.03,.08m.18,.35s-.06-.07-.07-.11c0-.04,0-.08,.04-.12,.03-.03,.07-.06,.11-.06h.02s.07,.01,.11,.04c.04,.03,.06,.06,.07,.11,0,.04-.01,.08-.04,.12-.02,.02-.04,.04-.07,.05-.03,.01-.05,.01-.08,0-.03,0-.05-.02-.08-.04" fill="#339967"/>
      <polygon class="clover_h_color" points="121.36 24.65 120.46 23.75 121.99 22.21 120.51 20.73 118.97 22.27 118.07 21.38 122.08 17.35 122.98 18.24 121.36 19.87 122.85 21.35 124.47 19.72 125.37 20.62 121.36 24.65" fill="#fff"/>
      <polygon class="clover_h_color" points="133.41 19.72 135.03 21.35 136.51 19.87 134.89 18.24 135.79 17.35 139.8 21.38 138.91 22.27 137.37 20.73 135.88 22.21 137.42 23.75 136.52 24.65 132.51 20.62 133.41 19.72" fill="#fff"/>
      <polygon class="clover_h_color" points="136.08 4.42 136.96 5.33 135.4 6.84 136.86 8.35 138.42 6.84 139.3 7.75 135.21 11.7 134.33 10.79 135.99 9.19 134.53 7.69 132.87 9.28 131.99 8.37 136.08 4.42" fill="#fff"/>
      <polygon class="clover_h_color" points="124.87 9.28 123.22 7.69 121.76 9.19 123.41 10.79 122.53 11.7 118.44 7.75 119.32 6.84 120.89 8.35 122.34 6.84 120.78 5.33 121.66 4.42 125.75 8.37 124.87 9.28" fill="#fff"/>
    </g>
    <g>
      <line class="center_line" x1="108.95" x2="108.95" y2="31.5" fill="none" stroke="#000" stroke-miterlimit="10" stroke-width=".5"/>
      <g>
        <path class="n_main_color" d="M102.89,30.15c-.34,0-.61-.26-.61-.6s.27-.6,.61-.6c.32,0,.6,.28,.6,.6s-.27,.6-.6,.6m.02-1.36c-.44,0-.78,.34-.78,.76s.34,.76,.76,.76,.76-.34,.76-.76-.34-.76-.74-.76" fill="#d00000"/>
        <path class="n_secondary_color" d="M102.89,30.15c-.34,0-.61-.26-.61-.6s.27-.6,.61-.6c.32,0,.6,.28,.6,.6,0,.34-.27,.6-.6,.6" fill="#fff"/>
        <g>
          <path class="n_secondary_color" d="M83.96,22.73v6.62h-10.22v-6.62h1.89V9.1h-1.89V2.48h8.71l9.84,15.52V9.1h-1.89V2.48h10.22v6.62h-1.89v13.63h1.89v6.62h-8.71l-9.84-15.52v8.9h1.89ZM100.61,1.91h-10.79v7.76h1.89v6.38l-8.8-13.87-.15-.27h-9.6v7.76h1.89v12.49h-1.89v7.76h11.36v-7.76h-1.89v-6.38l8.8,13.88,.17,.27h9.58v-7.76h-1.89V9.67h1.89V1.91h-.57Z" fill="#fff"/>
          <polygon class="n_main_color" points="92.29 18 82.44 2.48 73.74 2.48 73.74 9.1 75.63 9.1 75.63 22.73 73.74 22.73 73.74 29.35 83.96 29.35 83.96 22.73 82.06 22.73 82.06 13.83 91.91 29.35 100.61 29.35 100.61 22.73 98.72 22.73 98.72 9.1 100.61 9.1 100.61 2.48 90.39 2.48 90.39 9.1 92.29 9.1 92.29 18" fill="#d00000"/>
          <path class="n_main_color" d="M101.18,2.48v7.19h-1.89v12.49h1.89v7.76h-9.58l-.17-.27-8.8-13.88v6.38h1.89v7.76h-11.36v-7.76h1.89V9.67h-1.89V1.91h9.58l.17,.27,8.8,13.87v-6.38h-1.89V1.91h11.36v.57Zm-.57-.95h-11.17V10.05h1.89v4.7L83.24,1.97l-.27-.44h-10.18V10.05h1.89v11.73h-1.89v8.52h12.11v-8.52h-1.89v-4.69l8.1,12.78,.29,.44h10.16v-8.52h-1.89V10.05h1.89V1.53h-.94Zm2.2,27.96h.07c.07-.02,.11-.05,.11-.15,0-.06-.02-.09-.07-.11h-.19v.26h.08Zm-.23-.4h.27c.11,0,.15,0,.21,.04,.07,.04,.11,.11,.11,.21,0,.08-.02,.13-.06,.19-.02,.04-.05,.04-.11,.08h-.02l.21,.4h-.15l-.19-.38h-.11v.38h-.15v-.91Z" fill="#d00000"/>
        </g>
      </g>
    </g>
  </g>
  <text style="text-align: center;" text-anchor="middle" class="text_main_color" transform="translate(108.895,0) scale(.93 1)" fill="#d00000" font-family="Oswald-Medium, Oswald" font-size="19.62" letter-spacing="-.02em"><tspan x="0" y="52.72">EXTENSION</tspan></text>
  <text style="text-align: center;" text-anchor="middle" class="text_secondary_color" transform="translate(108.895,0)" fill="#000" font-family="SourceSerif4-SemiboldIt, &apos;Source Serif 4&apos;" font-size="6.25" font-weight="700" letter-spacing="-0.01em"><tspan class="extension" x="0" y="60.72">County</tspan></text>
</svg>