<svg data-name="v_social" xmlns="http://www.w3.org/2000/svg" viewBox="0 0 79.92 79.92">
  <rect class="n_secondary_color" width="79.92" height="79.92" fill="#d00000"/>
  <g>
    <path class="n_main_color" d="M55.85,44.7c-.44,0-.77,.34-.77,.76s.34,.76,.75,.76,.76-.34,.76-.76-.34-.76-.73-.76h0Zm-.02,1.36c-.34,0-.6-.27-.6-.61s.27-.6,.6-.6,.61,.28,.61,.6c0,.34-.27,.61-.61,.61h0Zm0,0" fill="#fff"/>
    <path class="n_main_color" d="M45.26,33.94l-9.82-15.49h-8.69v6.61h1.89v13.6h-1.89v6.61h10.2v-6.61h-1.89v-8.88l9.82,15.49h8.69v-6.61h-1.89v-13.6h1.89v-6.61h-10.2v6.61h1.89v8.88Zm0,0" fill="#fff"/>
    <path class="n_main_color" d="M55.53,45.01h.26c.12,0,.15,0,.21,.04,.08,.04,.12,.11,.12,.21,0,.07-.02,.13-.06,.19-.02,.04-.06,.04-.11,.08h-.02l.21,.39h-.15l-.19-.38h-.11v.38h-.15v-.91Zm.22,.39h.07c.08-.02,.12-.05,.12-.15,0-.06-.02-.1-.08-.11h-.19v.26h.07Zm-2.19-27.9h-11.14v8.5h1.89v4.69l-8.08-12.75-.27-.44h-10.16v8.5h1.89v11.71h-1.89v8.5h12.09v-8.5h-1.89v-4.69l8.08,12.75,.28,.44h10.14v-8.5h-1.89v-11.71h1.89v-8.5h-.94Zm.57,.94v7.18h-1.89v12.47h1.89v7.74h-9.56l-.17-.27-8.78-13.85v6.37h1.89v7.74h-11.33v-7.74h1.89v-12.47h-1.89v-7.74h9.56l.17,.27,8.78,13.85v-6.37h-1.89v-7.74h11.33v.57Zm0,0" fill="#fff"/>
  </g>
  <text style="text-align: center; transform-origin: center center;" text-anchor="middle" transform="scale(.93 1)" class="text_main_color" fill="#fff" font-family="Oswald-Medium, Oswald" font-size="15" letter-spacing="-.02em"><tspan class="acronym_first_line" x="39.96" y="64.21">ACRONYM</tspan></text>
</svg>