<?xml version="1.0"?>
<svg version="1.1" xmlns="http://www.w3.org/2000/svg" class="preview" viewBox="0 0 102.9428 38"><path fill="#d00000" d="M48.164,7.112c0,1.044-0.516,1.56-1.56,1.56l-0.684,0c-1.044,0-1.56-0.516-1.56-1.56l0-5.424c0-1.044,0.516-1.56,1.56-1.56l0.684,0c1.044,0,1.56,0.516,1.56,1.56l0,5.424z M46.88,1.748c0-0.336-0.156-0.492-0.48-0.492l-0.264,0c-0.336,0-0.492,0.156-0.492,0.492l0,5.304c0,0.336,0.156,0.492,0.492,0.492l0.264,0c0.324,0,0.48-0.156,0.48-0.492l0-5.304z M53.0642,8.6l-1.392,0l-1.308-5.652l0.012,1.476l0,4.176l-1.152,0l0-8.4l1.5,0l1.2,5.184l-0.012-1.404l0-3.78l1.152,0l0,8.4z M54.1484,0.2l2.856,0l0,1.164l-1.572,0l0,2.376l1.512,0l0,1.164l-1.512,0l0,2.532l1.596,0l0,1.164l-2.88,0l0-8.4z"/><path fill="#d00000" d="M47.276,14.292c0.564,0.408,0.744,0.768,0.744,1.452l0,1.368c0,1.044-0.516,1.56-1.56,1.56l-0.564,0c-1.044,0-1.548-0.516-1.548-1.548l0-1.776l1.248,0l0,1.728c0,0.324,0.156,0.48,0.492,0.48l0.168,0c0.336,0,0.492-0.156,0.492-0.48l0-1.152c0-0.348-0.12-0.504-0.36-0.684l-1.296-0.948c-0.576-0.408-0.744-0.804-0.744-1.452l0-1.152c0-1.044,0.516-1.56,1.56-1.56l0.54,0c1.032,0,1.548,0.516,1.548,1.548l0,1.524l-1.26,0l0-1.476c0-0.324-0.156-0.48-0.48-0.48l-0.156,0c-0.324,0-0.48,0.156-0.48,0.48l0,0.936c0,0.348,0.12,0.516,0.36,0.684z M52.8122,17.112c0,1.044-0.516,1.56-1.56,1.56l-0.684,0c-1.044,0-1.56-0.516-1.56-1.56l0-5.424c0-1.044,0.516-1.56,1.56-1.56l0.684,0c1.044,0,1.56,0.516,1.56,1.56l0,5.424z M51.5282,11.748c0-0.336-0.156-0.492-0.48-0.492l-0.264,0c-0.336,0-0.492,0.156-0.492,0.492l0,5.304c0,0.336,0.156,0.492,0.492,0.492l0.264,0c0.324,0,0.48-0.156,0.48-0.492l0-5.304z M57.4244,10.2l1.908,0l0,8.4l-1.26,0l0-6.384l-0.912,6.384l-1.26,0l-0.924-6.468l0,6.468l-1.104,0l0-8.4l1.92,0l0.804,6.108z M60.4166,10.2l2.856,0l0,1.164l-1.572,0l0,2.376l1.512,0l0,1.164l-1.512,0l0,2.532l1.596,0l0,1.164l-2.88,0l0-8.4z M66.4688,18.6l-1.284,0l0-7.236l-1.152,0l0-1.164l3.588,0l0,1.164l-1.152,0l0,7.236z M69.725,13.74l1.236,0l0-3.54l1.284,0l0,8.4l-1.284,0l0-3.696l-1.236,0l0,3.696l-1.284,0l0-8.4l1.284,0l0,3.54z M74.6252,10.2l0,8.4l-1.284,0l0-8.4l1.284,0z M79.5614,18.6l-1.392,0l-1.308-5.652l0.012,1.476l0,4.176l-1.152,0l0-8.4l1.5,0l1.2,5.184l-0.012-1.404l0-3.78l1.152,0l0,8.4z M83.1776,15.12l-0.672,0l0-1.104l1.92,0l0,3.096c0,1.044-0.516,1.56-1.56,1.56l-0.684,0c-1.044,0-1.56-0.516-1.56-1.56l0-5.424c0-1.044,0.516-1.56,1.56-1.56l0.672,0c1.044,0,1.548,0.516,1.548,1.548l0,1.356l-1.26,0l0-1.284c0-0.336-0.156-0.492-0.48-0.492l-0.264,0c-0.336,0-0.492,0.156-0.492,0.492l0,5.304c0,0.336,0.156,0.492,0.492,0.492l0.288,0c0.336,0,0.492-0.156,0.492-0.492l0-1.932z M87.4721,10.2l2.856,0l0,1.164l-1.572,0l0,2.376l1.512,0l0,1.164l-1.512,0l0,2.532l1.596,0l0,1.164l-2.88,0l0-8.4z M91.3523,10.2l1.284,0l0,7.236l1.416,0l0,1.164l-2.7,0l0-8.4z M97.8485,14.292c0.564,0.408,0.744,0.768,0.744,1.452l0,1.368c0,1.044-0.516,1.56-1.56,1.56l-0.564,0c-1.044,0-1.548-0.516-1.548-1.548l0-1.776l1.248,0l0,1.728c0,0.324,0.156,0.48,0.492,0.48l0.168,0c0.336,0,0.492-0.156,0.492-0.48l0-1.152c0-0.348-0.12-0.504-0.36-0.684l-1.296-0.948c-0.576-0.408-0.744-0.804-0.744-1.452l0-1.152c0-1.044,0.516-1.56,1.56-1.56l0.54,0c1.032,0,1.548,0.516,1.548,1.548l0,1.524l-1.26,0l0-1.476c0-0.324-0.156-0.48-0.48-0.48l-0.156,0c-0.324,0-0.48,0.156-0.48,0.48l0,0.936c0,0.348,0.12,0.516,0.36,0.684z M99.6047,10.2l2.856,0l0,1.164l-1.572,0l0,2.376l1.512,0l0,1.164l-1.512,0l0,2.532l1.596,0l0,1.164l-2.88,0l0-8.4z"/><path fill="#000000" d="M43.755,28.933c-0.371,0-0.616-0.203-0.616-0.441c0-0.21,0.161-0.378,0.399-0.378c0.266,0,0.497,0.182,0.644,0.476c0.119-0.189,0.21-0.518,0.294-1.12l0.399-2.849l-0.742,0l0.021-0.126l0.784-0.273l0.021-0.14c0.112-0.707,0.364-1.12,0.742-1.456c0.301-0.273,0.616-0.413,0.987-0.413c0.378,0,0.644,0.217,0.644,0.462c0,0.224-0.154,0.399-0.413,0.399c-0.238,0-0.518-0.182-0.686-0.567c-0.259,0.217-0.42,0.518-0.574,1.561l-0.028,0.196l0.854,0l-0.063,0.357l-0.84,0l-0.287,2.079c-0.133,0.952-0.343,1.456-0.756,1.876c-0.238,0.245-0.511,0.357-0.784,0.357z M47.542,27.477c-0.735,0-1.211-0.455-1.211-1.288c0-1.008,0.763-2.051,1.806-2.051c0.735,0,1.197,0.448,1.197,1.288c0,1.008-0.749,2.051-1.792,2.051z M47.703,27.232c0.581,0,0.854-1.099,0.854-1.827c0-0.623-0.21-1.022-0.588-1.022c-0.581,0-0.854,1.099-0.854,1.82c0,0.63,0.203,1.029,0.588,1.029z M50.587,27.477c-0.595,0-0.728-0.518-0.609-1.148l0.287-1.526l-0.448-0.287l0-0.07l1.239-0.35l0.028,0.021l-0.378,2.016c-0.091,0.49-0.049,0.77,0.378,0.77c0.259,0,0.455-0.084,0.728-0.245l0.336-1.855l-0.455-0.287l0-0.07l1.246-0.35l0.028,0.021l-0.469,2.604c-0.056,0.294,0.014,0.357,0.637,0.378l0.014,0.049c-0.308,0.196-0.637,0.329-0.917,0.329c-0.364,0-0.476-0.245-0.441-0.623l-0.035-0.021c-0.448,0.434-0.819,0.644-1.169,0.644z M55.949,27.477c-0.322,0-0.448-0.175-0.448-0.413c0-0.105,0.021-0.252,0.049-0.371l0.231-1.211c0.091-0.504,0.049-0.784-0.378-0.784c-0.245,0-0.42,0.077-0.707,0.238l-0.413,2.464l-0.707,0l0.434-2.597l-0.441-0.287l0-0.07l1.19-0.35l0.028,0.021l-0.098,0.651l0.028,0.021c0.476-0.434,0.847-0.651,1.204-0.651c0.567,0,0.707,0.483,0.581,1.148l-0.273,1.435c-0.056,0.294,0.035,0.364,0.637,0.378l0.014,0.049c-0.308,0.196-0.658,0.329-0.931,0.329z M58.021,27.477c-0.497,0-0.924-0.413-0.924-1.12c0-1.05,1.001-2.219,2.1-2.219c0.084,0,0.168,0.007,0.252,0.028l0.21-1.26l-0.441-0.287l0-0.07l1.232-0.35l0.028,0.021l-0.756,4.501c-0.049,0.301,0.035,0.364,0.637,0.378l0.014,0.049c-0.308,0.196-0.665,0.329-0.952,0.329c-0.301,0-0.434-0.217-0.434-0.532l-0.035-0.021c-0.28,0.343-0.539,0.553-0.931,0.553z M58.448,26.973c0.224,0,0.371-0.098,0.574-0.266l0.315-1.834c-0.175-0.238-0.399-0.371-0.609-0.371c-0.518,0-0.868,0.91-0.868,1.673c0,0.511,0.21,0.798,0.588,0.798z M63.173,23.599c-0.203,0-0.371-0.154-0.371-0.406c0-0.308,0.217-0.63,0.525-0.63c0.203,0,0.357,0.147,0.357,0.406c0,0.301-0.203,0.63-0.511,0.63z M62.676,27.477c-0.392,0-0.511-0.252-0.427-0.672l0.364-2.002l-0.455-0.287l0-0.07l1.26-0.35l0.028,0.021l-0.469,2.597c-0.056,0.301,0.014,0.371,0.644,0.385l0.014,0.049c-0.315,0.196-0.679,0.329-0.959,0.329z M64.825,27.463c-0.567,0-0.714-0.301-0.609-0.882l0.329-1.96l-0.504,0l0.014-0.105l0.714-0.532l0.567-0.651l0.126,0.035l-0.154,0.896l0.889,0l-0.063,0.357l-0.882,0l-0.308,1.799c-0.042,0.266-0.042,0.413,0.063,0.497c0.084,0.07,0.238,0.105,0.532,0.105c0.105,0,0.238-0.007,0.385-0.021l0,0.098c-0.301,0.168-0.721,0.364-1.099,0.364z"/><path fill="#000000" d="M46.688,35.477c-0.322,0-0.448-0.175-0.448-0.413c0-0.105,0.021-0.252,0.049-0.371l0.231-1.211c0.091-0.504,0.049-0.784-0.378-0.784c-0.245,0-0.42,0.077-0.707,0.238l-0.413,2.464l-0.707,0l0.434-2.597l-0.441-0.287l0-0.07l1.19-0.35l0.028,0.021l-0.098,0.651l0.028,0.021c0.476-0.434,0.847-0.651,1.204-0.651c0.567,0,0.707,0.483,0.581,1.148l-0.273,1.435c-0.056,0.294,0.035,0.364,0.637,0.378l0.014,0.049c-0.308,0.196-0.658,0.329-0.931,0.329z M48.732,35.477c-0.483,0-0.896-0.413-0.896-1.106c0-1.064,1.001-2.233,2.072-2.233c0.182,0,0.357,0.042,0.539,0.133l0.371-0.203l0.049,0.028l-0.462,2.625c-0.049,0.28,0,0.357,0.637,0.378l0.014,0.049c-0.308,0.196-0.665,0.329-0.945,0.329c-0.308,0-0.434-0.217-0.441-0.532l-0.035-0.021c-0.273,0.343-0.539,0.553-0.903,0.553z M49.138,34.973c0.224,0,0.371-0.098,0.574-0.266l0.315-1.834c-0.168-0.238-0.378-0.371-0.588-0.371c-0.483,0-0.84,0.91-0.84,1.687c0,0.497,0.21,0.784,0.539,0.784z M53.744,35.477c-0.329,0-0.448-0.175-0.448-0.413c0-0.105,0.021-0.252,0.049-0.371l0.224-1.211c0.091-0.504,0.049-0.784-0.371-0.784c-0.245,0-0.427,0.077-0.714,0.238l-0.413,2.464l-0.707,0l0.749-4.494l-0.441-0.287l0-0.07l1.232-0.35l0.028,0.021l-0.413,2.52l0.028,0.014c0.462-0.413,0.812-0.616,1.169-0.616c0.567,0,0.707,0.483,0.581,1.148l-0.273,1.435c-0.056,0.294,0.035,0.364,0.637,0.378l0.014,0.049c-0.308,0.196-0.658,0.329-0.931,0.329z M58.826,35.477c-0.322,0-0.448-0.175-0.448-0.413c0-0.105,0.021-0.252,0.049-0.371l0.231-1.211c0.091-0.504,0.049-0.784-0.378-0.784c-0.245,0-0.42,0.077-0.707,0.238l-0.413,2.464l-0.707,0l0.434-2.597l-0.441-0.287l0-0.07l1.19-0.35l0.028,0.021l-0.098,0.651l0.028,0.021c0.476-0.434,0.847-0.651,1.204-0.651c0.567,0,0.707,0.483,0.581,1.148l-0.273,1.435c-0.056,0.294,0.035,0.364,0.637,0.378l0.014,0.049c-0.308,0.196-0.658,0.329-0.931,0.329z M61.003,35.554l-0.168-0.084l0.119-0.336c-0.07-1.078-0.21-1.862-0.315-2.163c-0.049-0.168-0.112-0.259-0.252-0.259c-0.084,0-0.224,0.035-0.441,0.105l-0.035-0.049c0.28-0.343,0.623-0.63,0.924-0.63c0.231,0,0.357,0.119,0.455,0.329c0.133,0.294,0.259,1.183,0.294,2.177l0.028,0.021c0.455-0.532,0.742-0.987,0.868-1.393c-0.154-0.203-0.252-0.427-0.252-0.623c0-0.308,0.189-0.511,0.427-0.511c0.252,0,0.413,0.217,0.413,0.546c0,0.672-0.819,1.701-2.065,2.87z M67.527,35.477c-0.322,0-0.441-0.175-0.441-0.413c0-0.105,0.021-0.252,0.049-0.371l0.224-1.211c0.098-0.539,0.056-0.784-0.322-0.784c-0.217,0-0.399,0.077-0.686,0.238l-0.413,2.464l-0.707,0l0.322-1.918c0.091-0.546,0.07-0.784-0.301-0.784c-0.224,0-0.399,0.077-0.686,0.238l-0.413,2.464l-0.714,0l0.441-2.597l-0.441-0.287l0-0.07l1.19-0.35l0.028,0.021l-0.098,0.651l0.028,0.021c0.476-0.434,0.854-0.651,1.197-0.651c0.385,0,0.546,0.28,0.553,0.637l0.028,0.021c0.469-0.434,0.861-0.658,1.211-0.658c0.483,0,0.637,0.441,0.504,1.148l-0.273,1.435c-0.049,0.28,0.014,0.364,0.637,0.378l0.021,0.049c-0.315,0.196-0.665,0.329-0.938,0.329z"/><path fill="#d00000" d="M37.681579 34.10526c-.544737 0-.971053.42632-.971053.94737S37.136842 36 37.657895 36c.521052 0 .947368-.42632.947368-.94737s-.426316-.94737-.923684-.94737zm-.02368 1.70527c-.426316 0-.757895-.33158-.757895-.7579 0-.42631.331579-.75789.757895-.75789.402631 0 .757894.35526.757894.75789 0 .42632-.331578.7579-.757894.7579z"/><path fill="#ffffff" d="M34.815789.47368h-13.5v9.71053h2.368422v7.98158L12.671053.80526l-.189474-.33158H.473684v9.71053h2.368421v15.63158H.473684v9.71053h14.210527v-9.71053h-2.368422v-7.98158l11.013158 17.36053.213158.33158h11.984211v-9.71053h-2.368421V10.18421h2.368421V.47368h-.710527zM13.973684 26.52632v8.28947H1.184211v-8.28947h2.368421V9.47368H1.184211V1.18421h10.894736l12.31579 19.42105V9.47368h-2.368421V1.18421h12.789473v8.28947h-2.368421v17.05264h2.368421v8.28947H23.921053l-12.31579-19.42105v11.13158h2.368421z"/><path fill="#ffffff" d="M37.657895 35.81053c-.426316 0-.757895-.33158-.757895-.7579 0-.42631.331579-.75789.757895-.75789.402631 0 .757894.35526.757894.75789 0 .42632-.331578.7579-.757894.7579z"/><path fill="#d00000" d="M24.394737 20.60526L12.078947 1.18421H1.184211v8.28947h2.368421v17.05264H1.184211v8.28947h12.789473v-8.28947h-2.368421V15.39474l12.31579 19.42105h10.894736v-8.28947h-2.368421V9.47368h2.368421V1.18421H22.026316v8.28947h2.368421v11.13158z"/><path fill="#d00000" d="M37.27894812 34.48421122h.33157896c.14210526 0 .1894737 0 .26052632.04736842.09473684.04736842.14210526.14210526.14210526.26052632 0 .09473684-.0236842.16578948-.07105263.2368421-.0236842.04736843-.07105263.04736843-.14210526.09473685h-.02368422l.26052633.49736844h-.1894737l-.2368421-.47368422h-.14210527v.47368422h-.18947368v-1.13684212zm.28421054.49736843h.09473684c.09473684-.0236842.14210527-.07105264.14210527-.1894737 0-.07105262-.0236842-.11842105-.09473685-.14210526h-.23684211v.33157895h.09473686zM34.815789 0H20.842105v10.65789H23.210526v5.87369L13.073684.54474 12.742105 0H0v10.65789H2.368421v14.68422H0V36H15.157895V25.34211H12.789474v-5.87369l10.136842 15.98684.355263.54474H36V25.34211H33.631579V10.65789H36V0h-1.184211zm.710527 1.18421v9h-2.368421v15.63158h2.368421v9.71053H23.542105l-.213158-.33158-11.013158-17.36053v7.98158h2.368422v9.71053H.473684v-9.71053h2.368421V10.18421H.473684V.47368h11.984211l.213158.33158 11.013158 17.36053v-7.98158h-2.368422V.47368h14.210527v.71053z"/></svg>
