<?xml version="1.0"?>
<svg version="1.1" xmlns="http://www.w3.org/2000/svg" class="preview" viewBox="0 0 129.904 38"><path fill="#d00000" d="M45.668,3.74l1.236,0l0-3.54l1.284,0l0,8.4l-1.284,0l0-3.696l-1.236,0l0,3.696l-1.284,0l0-8.4l1.284,0l0,3.54z M49.2722,0.2l2.856,0l0,1.164l-1.572,0l0,2.376l1.512,0l0,1.164l-1.512,0l0,2.532l1.596,0l0,1.164l-2.88,0l0-8.4z M54.4364,3.74l1.236,0l0-3.54l1.284,0l0,8.4l-1.284,0l0-3.696l-1.236,0l0,3.696l-1.284,0l0-8.4l1.284,0l0,3.54z M58.0406,0.2l2.856,0l0,1.164l-1.572,0l0,2.376l1.512,0l0,1.164l-1.512,0l0,2.532l1.596,0l0,1.164l-2.88,0l0-8.4z"/><path fill="#000000" d="M46.976,26.688c-0.376,0-0.512-0.2-0.512-0.472c0-0.12,0.024-0.288,0.056-0.424l0.256-1.384c0.104-0.576,0.056-0.896-0.424-0.896c-0.28,0-0.488,0.088-0.816,0.272l-0.472,2.816l-0.808,0l0.856-5.136l-0.504-0.328l0-0.08l1.408-0.4l0.032,0.024l-0.472,2.88l0.032,0.016c0.528-0.472,0.928-0.704,1.336-0.704c0.648,0,0.808,0.552,0.664,1.312l-0.312,1.64c-0.064,0.336,0.04,0.416,0.728,0.432l0.016,0.056c-0.352,0.224-0.752,0.376-1.064,0.376z M49.312,26.688c-0.552,0-1.024-0.472-1.024-1.264c0-1.216,1.144-2.552,2.368-2.552c0.208,0,0.408,0.048,0.616,0.152l0.424-0.232l0.056,0.032l-0.528,3c-0.056,0.32,0,0.408,0.728,0.432l0.016,0.056c-0.352,0.224-0.76,0.376-1.08,0.376c-0.352,0-0.496-0.248-0.504-0.608l-0.04-0.024c-0.312,0.392-0.616,0.632-1.032,0.632z M49.776,26.112c0.256,0,0.424-0.112,0.656-0.304l0.36-2.096c-0.192-0.272-0.432-0.424-0.672-0.424c-0.552,0-0.96,1.04-0.96,1.928c0,0.568,0.24,0.896,0.616,0.896z M53.296,26.688c-0.696,0-1.176-0.36-1.176-0.808c0-0.312,0.208-0.52,0.448-0.52c0.336,0,0.52,0.368,0.36,0.88c0.176,0.112,0.408,0.176,0.624,0.176c0.344,0,0.544-0.192,0.544-0.52c0-0.224-0.12-0.424-0.496-0.664l-0.344-0.224c-0.448-0.28-0.696-0.544-0.696-0.976c0-0.576,0.552-1.16,1.392-1.16c0.64,0,0.976,0.336,0.976,0.68c0,0.256-0.168,0.424-0.392,0.424c-0.296,0-0.512-0.304-0.552-0.752c-0.104-0.056-0.2-0.08-0.304-0.08c-0.304,0-0.456,0.232-0.456,0.488s0.176,0.456,0.472,0.632l0.4,0.248c0.456,0.28,0.688,0.56,0.688,0.96c0,0.632-0.544,1.216-1.488,1.216z M56.376,26.688c-0.568,0-1.056-0.472-1.056-1.28c0-1.2,1.144-2.536,2.4-2.536c0.096,0,0.192,0.008,0.288,0.032l0.24-1.44l-0.504-0.328l0-0.08l1.408-0.4l0.032,0.024l-0.864,5.144c-0.056,0.344,0.04,0.416,0.728,0.432l0.016,0.056c-0.352,0.224-0.76,0.376-1.088,0.376c-0.344,0-0.496-0.248-0.496-0.608l-0.04-0.024c-0.32,0.392-0.616,0.632-1.064,0.632z M56.864,26.112c0.256,0,0.424-0.112,0.656-0.304l0.36-2.096c-0.2-0.272-0.456-0.424-0.696-0.424c-0.592,0-0.992,1.04-0.992,1.912c0,0.584,0.24,0.912,0.672,0.912z M60.664,22.256c-0.232,0-0.424-0.176-0.424-0.464c0-0.352,0.248-0.72,0.6-0.72c0.232,0,0.408,0.168,0.408,0.464c0,0.344-0.232,0.72-0.584,0.72z M60.096,26.688c-0.448,0-0.584-0.288-0.488-0.768l0.416-2.288l-0.52-0.328l0-0.08l1.44-0.4l0.032,0.024l-0.536,2.968c-0.064,0.344,0.016,0.424,0.736,0.44l0.016,0.056c-0.36,0.224-0.776,0.376-1.096,0.376z M61.896,28.352c-0.424,0-0.68-0.304-0.68-0.656c0-0.264,0.16-0.496,0.432-0.496c0.344,0,0.528,0.36,0.512,0.8c0.352-0.192,0.752-0.672,1.024-1.176c-0.224-1.144-0.608-2.448-0.84-3.008c-0.088-0.208-0.168-0.288-0.32-0.288c-0.096,0-0.256,0.032-0.496,0.12l-0.048-0.064c0.312-0.384,0.672-0.712,1-0.712c0.28,0,0.424,0.136,0.56,0.4c0.208,0.384,0.504,1.448,0.664,2.528l0.04,0c0.304-0.968,0.576-2.136,0.72-2.992l0.064,0l0.736,0.352c-0.712,1.632-1.568,3.848-2.464,4.72c-0.312,0.304-0.584,0.472-0.904,0.472z"/><path fill="#000000" d="M45.344,35.776l-0.192-0.096l0.144-0.4c-0.08-1.232-0.232-2.112-0.344-2.456c-0.064-0.2-0.128-0.296-0.288-0.296c-0.104,0-0.264,0.04-0.512,0.12l-0.04-0.056c0.32-0.392,0.712-0.72,1.048-0.72c0.264,0,0.408,0.136,0.512,0.376c0.152,0.336,0.304,1.424,0.328,2.496l0.032,0.024c0.36-0.472,0.664-0.984,0.864-1.4c-0.08-0.472-0.144-0.888-0.192-1.2l0.744-0.32l0.064,0c0.112,0.984,0.232,1.904,0.368,2.904l0.032,0.016c0.488-0.592,0.768-1.128,0.888-1.592c-0.2-0.216-0.32-0.496-0.32-0.72c-0.008-0.352,0.2-0.584,0.48-0.584c0.288,0,0.472,0.248,0.48,0.64c0.016,0.784-0.824,1.96-2.184,3.264l-0.184-0.096l0.136-0.4l-0.232-1.4c-0.392,0.592-0.952,1.256-1.632,1.896z M52.504,35.688c-0.376,0-0.512-0.2-0.512-0.472c0-0.12,0.024-0.288,0.056-0.424l0.256-1.384c0.104-0.576,0.056-0.896-0.424-0.896c-0.28,0-0.488,0.088-0.816,0.272l-0.472,2.816l-0.808,0l0.856-5.136l-0.504-0.328l0-0.08l1.408-0.4l0.032,0.024l-0.472,2.88l0.032,0.016c0.528-0.472,0.928-0.704,1.336-0.704c0.648,0,0.808,0.552,0.664,1.312l-0.312,1.64c-0.064,0.336,0.04,0.416,0.728,0.432l0.016,0.056c-0.352,0.224-0.752,0.376-1.064,0.376z M54.84,35.688c-0.552,0-1.024-0.472-1.024-1.264c0-1.216,1.144-2.552,2.368-2.552c0.208,0,0.408,0.048,0.616,0.152l0.424-0.232l0.056,0.032l-0.528,3c-0.056,0.32,0,0.408,0.728,0.432l0.016,0.056c-0.352,0.224-0.76,0.376-1.08,0.376c-0.352,0-0.496-0.248-0.504-0.608l-0.04-0.024c-0.312,0.392-0.616,0.632-1.032,0.632z M55.304,35.112c0.256,0,0.424-0.112,0.656-0.304l0.36-2.096c-0.192-0.272-0.432-0.424-0.672-0.424c-0.552,0-0.96,1.04-0.96,1.928c0,0.568,0.24,0.896,0.616,0.896z M58.792,35.672c-0.648,0-0.816-0.344-0.696-1.008l0.376-2.24l-0.576,0l0.016-0.12l0.816-0.608l0.648-0.744l0.144,0.04l-0.176,1.024l1.016,0l-0.072,0.408l-1.008,0l-0.352,2.056c-0.048,0.304-0.048,0.472,0.072,0.568c0.096,0.08,0.272,0.12,0.608,0.12c0.12,0,0.272-0.008,0.44-0.024l0,0.112c-0.344,0.192-0.824,0.416-1.256,0.416z M63.024,35.688c-0.568,0-1.056-0.472-1.056-1.28c0-1.2,1.144-2.536,2.4-2.536c0.096,0,0.192,0.008,0.288,0.032l0.24-1.44l-0.504-0.328l0-0.08l1.408-0.4l0.032,0.024l-0.864,5.144c-0.056,0.344,0.04,0.416,0.728,0.432l0.016,0.056c-0.352,0.224-0.76,0.376-1.088,0.376c-0.344,0-0.496-0.248-0.496-0.608l-0.04-0.024c-0.32,0.392-0.616,0.632-1.064,0.632z M63.512,35.112c0.256,0,0.424-0.112,0.656-0.304l0.36-2.096c-0.2-0.272-0.456-0.424-0.696-0.424c-0.592,0-0.992,1.04-0.992,1.912c0,0.584,0.24,0.912,0.672,0.912z M67.4,35.688c-0.84,0-1.384-0.52-1.384-1.472c0-1.152,0.872-2.344,2.064-2.344c0.84,0,1.368,0.512,1.368,1.472c0,1.152-0.856,2.344-2.048,2.344z M67.584,35.408c0.664,0,0.976-1.256,0.976-2.088c0-0.712-0.24-1.168-0.672-1.168c-0.664,0-0.976,1.256-0.976,2.08c0,0.72,0.232,1.176,0.672,1.176z M70.768,33.608c1.024,0.04,1.408-0.608,1.408-1.096c0-0.224-0.112-0.384-0.328-0.384c-0.504,0-0.96,0.736-1.08,1.48z M70.744,33.824c-0.072,0.864,0.232,1.336,0.92,1.336c0.296,0,0.68-0.16,0.976-0.408l0.056,0.072c-0.288,0.504-0.872,0.864-1.472,0.864c-0.904,0-1.368-0.656-1.368-1.424c0-1.216,0.952-2.392,2.144-2.392c0.6,0,0.96,0.352,0.96,0.776c0,0.56-0.544,1.2-2.216,1.176z M74.288,35.688c-0.696,0-1.176-0.36-1.176-0.808c0-0.312,0.208-0.52,0.448-0.52c0.336,0,0.52,0.368,0.36,0.88c0.176,0.112,0.408,0.176,0.624,0.176c0.344,0,0.544-0.192,0.544-0.52c0-0.224-0.12-0.424-0.496-0.664l-0.344-0.224c-0.448-0.28-0.696-0.544-0.696-0.976c0-0.576,0.552-1.16,1.392-1.16c0.64,0,0.976,0.336,0.976,0.68c0,0.256-0.168,0.424-0.392,0.424c-0.296,0-0.512-0.304-0.552-0.752c-0.104-0.056-0.2-0.08-0.304-0.08c-0.304,0-0.456,0.232-0.456,0.488s0.176,0.456,0.472,0.632l0.4,0.248c0.456,0.28,0.688,0.56,0.688,0.96c0,0.632-0.544,1.216-1.488,1.216z M78.936,35.672c-0.648,0-0.816-0.344-0.696-1.008l0.376-2.24l-0.576,0l0.016-0.12l0.816-0.608l0.648-0.744l0.144,0.04l-0.176,1.024l1.016,0l-0.072,0.408l-1.008,0l-0.352,2.056c-0.048,0.304-0.048,0.472,0.072,0.568c0.096,0.08,0.272,0.12,0.608,0.12c0.12,0,0.272-0.008,0.44-0.024l0,0.112c-0.344,0.192-0.824,0.416-1.256,0.416z M83.312,35.688c-0.376,0-0.512-0.2-0.512-0.472c0-0.12,0.024-0.288,0.056-0.424l0.256-1.384c0.104-0.576,0.056-0.896-0.424-0.896c-0.28,0-0.488,0.088-0.816,0.272l-0.472,2.816l-0.808,0l0.856-5.136l-0.504-0.328l0-0.08l1.408-0.4l0.032,0.024l-0.472,2.88l0.032,0.016c0.528-0.472,0.928-0.704,1.336-0.704c0.648,0,0.808,0.552,0.664,1.312l-0.312,1.64c-0.064,0.336,0.04,0.416,0.728,0.432l0.016,0.056c-0.352,0.224-0.752,0.376-1.064,0.376z M85.648,35.688c-0.552,0-1.024-0.472-1.024-1.264c0-1.216,1.144-2.552,2.368-2.552c0.208,0,0.408,0.048,0.616,0.152l0.424-0.232l0.056,0.032l-0.528,3c-0.056,0.32,0,0.408,0.728,0.432l0.016,0.056c-0.352,0.224-0.76,0.376-1.08,0.376c-0.352,0-0.496-0.248-0.504-0.608l-0.04-0.024c-0.312,0.392-0.616,0.632-1.032,0.632z M86.112,35.112c0.256,0,0.424-0.112,0.656-0.304l0.36-2.096c-0.192-0.272-0.432-0.424-0.672-0.424c-0.552,0-0.96,1.04-0.96,1.928c0,0.568,0.24,0.896,0.616,0.896z M89.6,35.672c-0.648,0-0.816-0.344-0.696-1.008l0.376-2.24l-0.576,0l0.016-0.12l0.816-0.608l0.648-0.744l0.144,0.04l-0.176,1.024l1.016,0l-0.072,0.408l-1.008,0l-0.352,2.056c-0.048,0.304-0.048,0.472,0.072,0.568c0.096,0.08,0.272,0.12,0.608,0.12c0.12,0,0.272-0.008,0.44-0.024l0,0.112c-0.344,0.192-0.824,0.416-1.256,0.416z M93.704,33.608c1.024,0.04,1.408-0.608,1.408-1.096c0-0.224-0.112-0.384-0.328-0.384c-0.504,0-0.96,0.736-1.08,1.48z M93.68,33.824c-0.072,0.864,0.232,1.336,0.92,1.336c0.296,0,0.68-0.16,0.976-0.408l0.056,0.072c-0.288,0.504-0.872,0.864-1.472,0.864c-0.904,0-1.368-0.656-1.368-1.424c0-1.216,0.952-2.392,2.144-2.392c0.6,0,0.96,0.352,0.96,0.776c0,0.56-0.544,1.2-2.216,1.176z M97.344,35.776l-0.192-0.096l0.136-0.384c-0.08-1.232-0.24-2.128-0.36-2.472c-0.056-0.192-0.128-0.296-0.288-0.296c-0.096,0-0.256,0.04-0.504,0.12l-0.04-0.056c0.32-0.392,0.712-0.72,1.056-0.72c0.264,0,0.408,0.136,0.52,0.376c0.152,0.336,0.296,1.352,0.336,2.488l0.032,0.024c0.52-0.608,0.848-1.128,0.992-1.592c-0.176-0.232-0.288-0.488-0.288-0.712c0-0.352,0.216-0.584,0.488-0.584c0.288,0,0.472,0.248,0.472,0.624c0,0.768-0.936,1.944-2.36,3.28z M100.88,33.608c1.024,0.04,1.408-0.608,1.408-1.096c0-0.224-0.112-0.384-0.328-0.384c-0.504,0-0.96,0.736-1.08,1.48z M100.856,33.824c-0.072,0.864,0.232,1.336,0.92,1.336c0.296,0,0.68-0.16,0.976-0.408l0.056,0.072c-0.288,0.504-0.872,0.864-1.472,0.864c-0.904,0-1.368-0.656-1.368-1.424c0-1.216,0.952-2.392,2.144-2.392c0.6,0,0.96,0.352,0.96,0.776c0,0.56-0.544,1.2-2.216,1.176z M106.24,35.688c-0.368,0-0.512-0.2-0.512-0.472c0-0.12,0.024-0.288,0.056-0.424l0.264-1.384c0.104-0.576,0.056-0.896-0.432-0.896c-0.28,0-0.48,0.088-0.808,0.272l-0.472,2.816l-0.808,0l0.496-2.968l-0.504-0.328l0-0.08l1.36-0.4l0.032,0.024l-0.112,0.744l0.032,0.024c0.544-0.496,0.968-0.744,1.376-0.744c0.648,0,0.808,0.552,0.664,1.312l-0.312,1.64c-0.064,0.336,0.04,0.416,0.728,0.432l0.016,0.056c-0.352,0.224-0.752,0.376-1.064,0.376z M114,35.688c-0.368,0-0.504-0.2-0.504-0.472c0-0.12,0.024-0.288,0.056-0.424l0.256-1.384c0.112-0.616,0.064-0.896-0.368-0.896c-0.248,0-0.456,0.088-0.784,0.272l-0.472,2.816l-0.808,0l0.368-2.192c0.104-0.624,0.08-0.896-0.344-0.896c-0.256,0-0.456,0.088-0.784,0.272l-0.472,2.816l-0.816,0l0.504-2.968l-0.504-0.328l0-0.08l1.36-0.4l0.032,0.024l-0.112,0.744l0.032,0.024c0.544-0.496,0.976-0.744,1.368-0.744c0.44,0,0.624,0.32,0.632,0.728l0.032,0.024c0.536-0.496,0.984-0.752,1.384-0.752c0.552,0,0.728,0.504,0.576,1.312l-0.312,1.64c-0.056,0.32,0.016,0.416,0.728,0.432l0.024,0.056c-0.36,0.224-0.76,0.376-1.072,0.376z M116.24,33.608c1.024,0.04,1.408-0.608,1.408-1.096c0-0.224-0.112-0.384-0.328-0.384c-0.504,0-0.96,0.736-1.08,1.48z M116.216,33.824c-0.072,0.864,0.232,1.336,0.92,1.336c0.296,0,0.68-0.16,0.976-0.408l0.056,0.072c-0.288,0.504-0.872,0.864-1.472,0.864c-0.904,0-1.368-0.656-1.368-1.424c0-1.216,0.952-2.392,2.144-2.392c0.6,0,0.96,0.352,0.96,0.776c0,0.56-0.544,1.2-2.216,1.176z M119.728,35.688c-0.552,0-1.024-0.472-1.024-1.264c0-1.216,1.144-2.552,2.368-2.552c0.208,0,0.408,0.048,0.616,0.152l0.424-0.232l0.056,0.032l-0.528,3c-0.056,0.32,0,0.408,0.728,0.432l0.016,0.056c-0.352,0.224-0.76,0.376-1.08,0.376c-0.352,0-0.496-0.248-0.504-0.608l-0.04-0.024c-0.312,0.392-0.616,0.632-1.032,0.632z M120.192,35.112c0.256,0,0.424-0.112,0.656-0.304l0.36-2.096c-0.192-0.272-0.432-0.424-0.672-0.424c-0.552,0-0.96,1.04-0.96,1.928c0,0.568,0.24,0.896,0.616,0.896z M125.552,35.688c-0.368,0-0.512-0.2-0.512-0.472c0-0.12,0.024-0.288,0.056-0.424l0.264-1.384c0.104-0.576,0.056-0.896-0.432-0.896c-0.28,0-0.48,0.088-0.808,0.272l-0.472,2.816l-0.808,0l0.496-2.968l-0.504-0.328l0-0.08l1.36-0.4l0.032,0.024l-0.112,0.744l0.032,0.024c0.544-0.496,0.968-0.744,1.376-0.744c0.648,0,0.808,0.552,0.664,1.312l-0.312,1.64c-0.064,0.336,0.04,0.416,0.728,0.432l0.016,0.056c-0.352,0.224-0.752,0.376-1.064,0.376z M128.232,34.208c-0.512,0-0.96-0.288-0.96-0.816c0-0.56,0.44-0.808,1.024-1.088c0.576-0.272,0.944-0.496,0.944-0.92c0-0.44-0.288-0.736-0.768-0.736c-0.144,0-0.272,0.032-0.384,0.104c0.056,0.12,0.08,0.24,0.08,0.352c0,0.32-0.2,0.568-0.496,0.568c-0.256,0-0.496-0.192-0.496-0.512c0-0.448,0.472-0.776,1.216-0.776c0.88,0,1.544,0.544,1.544,1.312c0,0.76-0.544,1.032-1.12,1.248c-0.528,0.208-0.808,0.328-0.808,0.632c0,0.32,0.336,0.44,0.776,0.424l0.016,0.088c-0.144,0.072-0.352,0.12-0.568,0.12z M127.768,35.728c-0.288,0-0.528-0.24-0.528-0.528s0.24-0.52,0.528-0.52s0.52,0.232,0.52,0.52s-0.232,0.528-0.52,0.528z"/><path fill="#d00000" d="M37.681579 34.10526c-.544737 0-.971053.42632-.971053.94737S37.136842 36 37.657895 36c.521052 0 .947368-.42632.947368-.94737s-.426316-.94737-.923684-.94737zm-.02368 1.70527c-.426316 0-.757895-.33158-.757895-.7579 0-.42631.331579-.75789.757895-.75789.402631 0 .757894.35526.757894.75789 0 .42632-.331578.7579-.757894.7579z"/><path fill="#ffffff" d="M34.815789.47368h-13.5v9.71053h2.368422v7.98158L12.671053.80526l-.189474-.33158H.473684v9.71053h2.368421v15.63158H.473684v9.71053h14.210527v-9.71053h-2.368422v-7.98158l11.013158 17.36053.213158.33158h11.984211v-9.71053h-2.368421V10.18421h2.368421V.47368h-.710527zM13.973684 26.52632v8.28947H1.184211v-8.28947h2.368421V9.47368H1.184211V1.18421h10.894736l12.31579 19.42105V9.47368h-2.368421V1.18421h12.789473v8.28947h-2.368421v17.05264h2.368421v8.28947H23.921053l-12.31579-19.42105v11.13158h2.368421z"/><path fill="#ffffff" d="M37.657895 35.81053c-.426316 0-.757895-.33158-.757895-.7579 0-.42631.331579-.75789.757895-.75789.402631 0 .757894.35526.757894.75789 0 .42632-.331578.7579-.757894.7579z"/><path fill="#d00000" d="M24.394737 20.60526L12.078947 1.18421H1.184211v8.28947h2.368421v17.05264H1.184211v8.28947h12.789473v-8.28947h-2.368421V15.39474l12.31579 19.42105h10.894736v-8.28947h-2.368421V9.47368h2.368421V1.18421H22.026316v8.28947h2.368421v11.13158z"/><path fill="#d00000" d="M37.27894812 34.48421122h.33157896c.14210526 0 .1894737 0 .26052632.04736842.09473684.04736842.14210526.14210526.14210526.26052632 0 .09473684-.0236842.16578948-.07105263.2368421-.0236842.04736843-.07105263.04736843-.14210526.09473685h-.02368422l.26052633.49736844h-.1894737l-.2368421-.47368422h-.14210527v.47368422h-.18947368v-1.13684212zm.28421054.49736843h.09473684c.09473684-.0236842.14210527-.07105264.14210527-.1894737 0-.07105262-.0236842-.11842105-.09473685-.14210526h-.23684211v.33157895h.09473686zM34.815789 0H20.842105v10.65789H23.210526v5.87369L13.073684.54474 12.742105 0H0v10.65789H2.368421v14.68422H0V36H15.157895V25.34211H12.789474v-5.87369l10.136842 15.98684.355263.54474H36V25.34211H33.631579V10.65789H36V0h-1.184211zm.710527 1.18421v9h-2.368421v15.63158h2.368421v9.71053H23.542105l-.213158-.33158-11.013158-17.36053v7.98158h2.368422v9.71053H.473684v-9.71053h2.368421V10.18421H.473684V.47368h11.984211l.213158.33158 11.013158 17.36053v-7.98158h-2.368422V.47368h14.210527v.71053z"/></svg>
