<?xml version="1.0"?>
<svg version="1.1" xmlns="http://www.w3.org/2000/svg" class="preview" viewBox="0 0 59.184 38"><path fill="#d00000" d="M48.164,7.112c0,1.044-0.516,1.56-1.56,1.56l-0.684,0c-1.044,0-1.56-0.516-1.56-1.56l0-5.424c0-1.044,0.516-1.56,1.56-1.56l0.684,0c1.044,0,1.56,0.516,1.56,1.56l0,5.424z M46.88,1.748c0-0.336-0.156-0.492-0.48-0.492l-0.264,0c-0.336,0-0.492,0.156-0.492,0.492l0,5.304c0,0.336,0.156,0.492,0.492,0.492l0.264,0c0.324,0,0.48-0.156,0.48-0.492l0-5.304z M53.1362,8.6l-1.38,0l-1.248-4.116l0,4.116l-1.284,0l0-8.4l1.284,0l0,4.056l1.332-4.056l1.344,0l-1.44,4.128z"/><path fill="#d00000" d="M48.164,18.112c0,1.044-0.516,1.56-1.56,1.56l-0.684,0c-1.044,0-1.56-0.516-1.56-1.56l0-5.424c0-1.044,0.516-1.56,1.56-1.56l0.684,0c1.044,0,1.56,0.516,1.56,1.56l0,5.424z M46.88,12.748c0-0.336-0.156-0.492-0.48-0.492l-0.264,0c-0.336,0-0.492,0.156-0.492,0.492l0,5.304c0,0.336,0.156,0.492,0.492,0.492l0.264,0c0.324,0,0.48-0.156,0.48-0.492l0-5.304z M53.1362,19.6l-1.38,0l-1.248-4.116l0,4.116l-1.284,0l0-8.4l1.284,0l0,4.056l1.332-4.056l1.344,0l-1.44,4.128z M56.5724,11.188l1.212,8.412l-1.272,0l-0.168-1.32l-1.332,0l-0.156,1.32l-1.188,0l1.2-8.412l1.704,0z M55.6724,12.892l-0.516,4.248l1.044,0z"/><path fill="#000000" d="M45.6,35.688c-0.84,0-1.384-0.52-1.384-1.472c0-1.152,0.872-2.344,2.064-2.344c0.84,0,1.368,0.512,1.368,1.472c0,1.152-0.856,2.344-2.048,2.344z M45.784,35.408c0.664,0,0.976-1.256,0.976-2.088c0-0.712-0.24-1.168-0.672-1.168c-0.664,0-0.976,1.256-0.976,2.08c0,0.72,0.232,1.176,0.672,1.176z M50.68,35.688c-0.328,0-0.504-0.16-0.6-0.568c-0.256-1.032-0.36-1.232-0.848-1.304l-0.304,1.784l-0.808,0l0.864-5.136l-0.512-0.328l0-0.08l1.408-0.4l0.032,0.024l-0.648,3.912c0.648-0.16,1.104-0.44,1.304-0.648c-0.112-0.16-0.16-0.328-0.16-0.48c0-0.344,0.224-0.608,0.496-0.608c0.32,0,0.464,0.264,0.464,0.528c0,0.424-0.28,0.84-1.456,1.192l0,0.032c0.368,0.056,0.536,0.184,0.688,0.44c0.112,0.192,0.232,0.584,0.304,0.888c0.048,0.24,0.176,0.312,0.776,0.32l0.016,0.056c-0.32,0.224-0.696,0.376-1.016,0.376z M53.192,35.688c-0.84,0-1.384-0.52-1.384-1.472c0-1.152,0.872-2.344,2.064-2.344c0.84,0,1.368,0.512,1.368,1.472c0,1.152-0.856,2.344-2.048,2.344z M53.376,35.408c0.664,0,0.976-1.256,0.976-2.088c0-0.712-0.24-1.168-0.672-1.168c-0.664,0-0.976,1.256-0.976,2.08c0,0.72,0.232,1.176,0.672,1.176z M58.272,35.688c-0.328,0-0.504-0.16-0.6-0.568c-0.256-1.032-0.36-1.232-0.848-1.304l-0.304,1.784l-0.808,0l0.864-5.136l-0.512-0.328l0-0.08l1.408-0.4l0.032,0.024l-0.648,3.912c0.648-0.16,1.104-0.44,1.304-0.648c-0.112-0.16-0.16-0.328-0.16-0.48c0-0.344,0.224-0.608,0.496-0.608c0.32,0,0.464,0.264,0.464,0.528c0,0.424-0.28,0.84-1.456,1.192l0,0.032c0.368,0.056,0.536,0.184,0.688,0.44c0.112,0.192,0.232,0.584,0.304,0.888c0.048,0.24,0.176,0.312,0.776,0.32l0.016,0.056c-0.32,0.224-0.696,0.376-1.016,0.376z"/><path fill="#d00000" d="M37.681579 34.10526c-.544737 0-.971053.42632-.971053.94737S37.136842 36 37.657895 36c.521052 0 .947368-.42632.947368-.94737s-.426316-.94737-.923684-.94737zm-.02368 1.70527c-.426316 0-.757895-.33158-.757895-.7579 0-.42631.331579-.75789.757895-.75789.402631 0 .757894.35526.757894.75789 0 .42632-.331578.7579-.757894.7579z"/><path fill="#ffffff" d="M34.815789.47368h-13.5v9.71053h2.368422v7.98158L12.671053.80526l-.189474-.33158H.473684v9.71053h2.368421v15.63158H.473684v9.71053h14.210527v-9.71053h-2.368422v-7.98158l11.013158 17.36053.213158.33158h11.984211v-9.71053h-2.368421V10.18421h2.368421V.47368h-.710527zM13.973684 26.52632v8.28947H1.184211v-8.28947h2.368421V9.47368H1.184211V1.18421h10.894736l12.31579 19.42105V9.47368h-2.368421V1.18421h12.789473v8.28947h-2.368421v17.05264h2.368421v8.28947H23.921053l-12.31579-19.42105v11.13158h2.368421z"/><path fill="#ffffff" d="M37.657895 35.81053c-.426316 0-.757895-.33158-.757895-.7579 0-.42631.331579-.75789.757895-.75789.402631 0 .757894.35526.757894.75789 0 .42632-.331578.7579-.757894.7579z"/><path fill="#d00000" d="M24.394737 20.60526L12.078947 1.18421H1.184211v8.28947h2.368421v17.05264H1.184211v8.28947h12.789473v-8.28947h-2.368421V15.39474l12.31579 19.42105h10.894736v-8.28947h-2.368421V9.47368h2.368421V1.18421H22.026316v8.28947h2.368421v11.13158z"/><path fill="#d00000" d="M37.27894812 34.48421122h.33157896c.14210526 0 .1894737 0 .26052632.04736842.09473684.04736842.14210526.14210526.14210526.26052632 0 .09473684-.0236842.16578948-.07105263.2368421-.0236842.04736843-.07105263.04736843-.14210526.09473685h-.02368422l.26052633.49736844h-.1894737l-.2368421-.47368422h-.14210527v.47368422h-.18947368v-1.13684212zm.28421054.49736843h.09473684c.09473684-.0236842.14210527-.07105264.14210527-.1894737 0-.07105262-.0236842-.11842105-.09473685-.14210526h-.23684211v.33157895h.09473686zM34.815789 0H20.842105v10.65789H23.210526v5.87369L13.073684.54474 12.742105 0H0v10.65789H2.368421v14.68422H0V36H15.157895V25.34211H12.789474v-5.87369l10.136842 15.98684.355263.54474H36V25.34211H33.631579V10.65789H36V0h-1.184211zm.710527 1.18421v9h-2.368421v15.63158h2.368421v9.71053H23.542105l-.213158-.33158-11.013158-17.36053v7.98158h2.368422v9.71053H.473684v-9.71053h2.368421V10.18421H.473684V.47368h11.984211l.213158.33158 11.013158 17.36053v-7.98158h-2.368422V.47368h14.210527v.71053z"/></svg>
