<?xml version="1.0"?>
<svg version="1.1" xmlns="http://www.w3.org/2000/svg" class="preview" viewBox="0 0 200 80"><path fill="#d00000" d="M56.2339,46l6.664,0l0,2.716l-3.668,0l0,5.544l3.528,0l0,2.716l-3.528,0l0,5.908l3.724,0l0,2.716l-6.72,0l0-19.6z M74.0797,46l-2.688,9.688l2.744,9.912l-3.08,0l-1.652-7.028l-1.764,7.028l-2.884,0l2.744-9.66l-2.688-9.94l3.08,0l1.624,7l1.68-7l2.884,0z M81.2015,65.6l-2.996,0l0-16.884l-2.688,0l0-2.716l8.372,0l0,2.716l-2.688,0l0,16.884z M85.8033,46l6.664,0l0,2.716l-3.668,0l0,5.544l3.528,0l0,2.716l-3.528,0l0,5.908l3.724,0l0,2.716l-6.72,0l0-19.6z M103.8171,65.6l-3.248,0l-3.052-13.188l0.028,3.444l0,9.744l-2.688,0l0-19.6l3.5,0l2.8,12.096l-0.028-3.276l0-8.82l2.688,0l0,19.6z M113.0949,55.548c1.316,0.952,1.736,1.792,1.736,3.388l0,3.192c0,2.436-1.204,3.64-3.64,3.64l-1.316,0c-2.436,0-3.612-1.204-3.612-3.612l0-4.144l2.912,0l0,4.032c0,0.756,0.364,1.12,1.148,1.12l0.392,0c0.784,0,1.148-0.364,1.148-1.12l0-2.688c0-0.812-0.28-1.176-0.84-1.596l-3.024-2.212c-1.344-0.952-1.736-1.876-1.736-3.388l0-2.688c0-2.436,1.204-3.64,3.64-3.64l1.26,0c2.408,0,3.612,1.204,3.612,3.612l0,3.556l-2.94,0l0-3.444c0-0.756-0.364-1.12-1.12-1.12l-0.364,0c-0.756,0-1.12,0.364-1.12,1.12l0,2.184c0,0.812,0.28,1.204,0.84,1.596z M120.2167,46l0,19.6l-2.996,0l0-19.6l2.996,0z M131.5945,62.128c0,2.436-1.204,3.64-3.64,3.64l-1.596,0c-2.436,0-3.64-1.204-3.64-3.64l0-12.656c0-2.436,1.204-3.64,3.64-3.64l1.596,0c2.436,0,3.64,1.204,3.64,3.64l0,12.656z M128.5985,49.612c0-0.784-0.364-1.148-1.12-1.148l-0.616,0c-0.784,0-1.148,0.364-1.148,1.148l0,12.376c0,0.784,0.364,1.148,1.148,1.148l0.616,0c0.756,0,1.12-0.364,1.12-1.148l0-12.376z M143.0283,65.6l-3.248,0l-3.052-13.188l0.028,3.444l0,9.744l-2.688,0l0-19.6l3.5,0l2.8,12.096l-0.028-3.276l0-8.82l2.688,0l0,19.6z"/><path fill="#000000" d="M86.624,75.672c-0.648,0-0.816-0.344-0.696-1.008l0.376-2.24l-0.576,0l0.016-0.12l0.816-0.608l0.648-0.744l0.144,0.04l-0.176,1.024l1.016,0l-0.072,0.408l-1.008,0l-0.352,2.056c-0.048,0.304-0.048,0.472,0.072,0.568c0.096,0.08,0.272,0.12,0.608,0.12c0.12,0,0.272-0.008,0.44-0.024l0,0.112c-0.344,0.192-0.824,0.416-1.256,0.416z M88.384,75.6l0.496-2.968l-0.504-0.328l0-0.08l1.368-0.4l0.032,0.024l-0.152,0.912l0.032,0.024c0.28-0.504,0.68-0.92,1.072-0.92c0.328,0,0.528,0.2,0.528,0.472c0,0.28-0.216,0.52-0.488,0.52c-0.232,0-0.4-0.12-0.544-0.312c-0.216,0.072-0.408,0.216-0.6,0.448l-0.432,2.608l-0.808,0z M91.648,77.352c-0.424,0-0.68-0.304-0.68-0.656c0-0.264,0.16-0.496,0.432-0.496c0.344,0,0.528,0.36,0.512,0.8c0.352-0.192,0.752-0.672,1.024-1.176c-0.224-1.144-0.608-2.448-0.84-3.008c-0.088-0.208-0.168-0.288-0.32-0.288c-0.096,0-0.256,0.032-0.496,0.12l-0.048-0.064c0.312-0.384,0.672-0.712,1-0.712c0.28,0,0.424,0.136,0.56,0.4c0.208,0.384,0.504,1.448,0.664,2.528l0.04,0c0.304-0.968,0.576-2.136,0.72-2.992l0.064,0l0.736,0.352c-0.712,1.632-1.568,3.848-2.464,4.72c-0.312,0.304-0.584,0.472-0.904,0.472z M97.744,75.688c-0.552,0-1.024-0.472-1.024-1.264c0-1.216,1.144-2.552,2.368-2.552c0.208,0,0.408,0.048,0.616,0.152l0.424-0.232l0.056,0.032l-0.528,3c-0.056,0.32,0,0.408,0.728,0.432l0.016,0.056c-0.352,0.224-0.76,0.376-1.08,0.376c-0.352,0-0.496-0.248-0.504-0.608l-0.04-0.024c-0.312,0.392-0.616,0.632-1.032,0.632z M98.208,75.112c0.256,0,0.424-0.112,0.656-0.304l0.36-2.096c-0.192-0.272-0.432-0.424-0.672-0.424c-0.552,0-0.96,1.04-0.96,1.928c0,0.568,0.24,0.896,0.616,0.896z M101.856,77.352c-1.112,0-1.728-0.48-1.728-1.016c0-0.52,0.504-0.872,1.24-0.992l0.272-0.856c-0.52-0.136-0.824-0.544-0.824-1.064c0-0.808,0.736-1.552,1.68-1.552c0.408,0,0.744,0.128,0.96,0.368c0.264-0.32,0.544-0.52,0.792-0.52c0.28,0,0.448,0.184,0.448,0.408c0,0.248-0.152,0.432-0.376,0.432c-0.16,0-0.312-0.12-0.336-0.32l-0.44,0.104c0.12,0.176,0.192,0.392,0.192,0.648c0,0.808-0.728,1.544-1.672,1.544l-0.112,0c-0.056,0.24-0.008,0.304,0.312,0.416c1.152,0.4,1.392,0.712,1.392,1.168c0,0.624-0.68,1.232-1.8,1.232z M102.168,77.08c0.488,0,0.776-0.2,0.776-0.576s-0.48-0.68-1.56-1c-0.304,0.176-0.432,0.424-0.432,0.712c0,0.456,0.488,0.864,1.216,0.864z M102.184,74.304c0.496,0,0.728-0.816,0.728-1.376c0-0.464-0.176-0.808-0.536-0.808c-0.496,0-0.728,0.816-0.728,1.376c0,0.456,0.176,0.808,0.536,0.808z M105.416,75.688c-0.552,0-1.024-0.472-1.024-1.264c0-1.216,1.144-2.552,2.368-2.552c0.208,0,0.408,0.048,0.616,0.152l0.424-0.232l0.056,0.032l-0.528,3c-0.056,0.32,0,0.408,0.728,0.432l0.016,0.056c-0.352,0.224-0.76,0.376-1.08,0.376c-0.352,0-0.496-0.248-0.504-0.608l-0.04-0.024c-0.312,0.392-0.616,0.632-1.032,0.632z M105.88,75.112c0.256,0,0.424-0.112,0.656-0.304l0.36-2.096c-0.192-0.272-0.432-0.424-0.672-0.424c-0.552,0-0.96,1.04-0.96,1.928c0,0.568,0.24,0.896,0.616,0.896z M109.68,71.256c-0.232,0-0.424-0.176-0.424-0.464c0-0.352,0.248-0.72,0.6-0.72c0.232,0,0.408,0.168,0.408,0.464c0,0.344-0.232,0.72-0.584,0.72z M109.112,75.688c-0.448,0-0.584-0.288-0.488-0.768l0.416-2.288l-0.52-0.328l0-0.08l1.44-0.4l0.032,0.024l-0.536,2.968c-0.064,0.344,0.016,0.424,0.736,0.44l0.016,0.056c-0.36,0.224-0.776,0.376-1.096,0.376z M113.44,75.688c-0.368,0-0.512-0.2-0.512-0.472c0-0.12,0.024-0.288,0.056-0.424l0.264-1.384c0.104-0.576,0.056-0.896-0.432-0.896c-0.28,0-0.48,0.088-0.808,0.272l-0.472,2.816l-0.808,0l0.496-2.968l-0.504-0.328l0-0.08l1.36-0.4l0.032,0.024l-0.112,0.744l0.032,0.024c0.544-0.496,0.968-0.744,1.376-0.744c0.648,0,0.808,0.552,0.664,1.312l-0.312,1.64c-0.064,0.336,0.04,0.416,0.728,0.432l0.016,0.056c-0.352,0.224-0.752,0.376-1.064,0.376z"/><path fill="#d00000" transform="translate(50.5 0.1)" d="M42.79 36.46       a .76 .76 0 1 0 1.52 0         .76 .76 0 1 0 -1.52 0     m -.19 0     a .95 .95 0 1 0 1.9 0     .95 .95 0 1 0 -1.9 0"/><path fill="#ffffff" transform="translate(50.5 0.1)" d="M42.79 36.46         a .76 .76 0 1 0 1.52 0         .76 .76 0 1 0 -1.52 0"/><path fill="#ffffff" transform="translate(50.5 0.1)" d="M19.87,27.94h0v8.29H7.08V27.94H9.44V10.89H7.08V2.6H18L30.29,22V10.89H27.92V2.6H40.71v8.29H38.34V27.94h2.37v8.29H29.81L17.5,16.81V27.94ZM40.71,1.89H27.21V11.6h2.37v8l-11-17.36-.21-.33h-12V11.6H8.73V27.23H6.37v9.71H20.58V27.23H18.21v-8l11,17.35.21.33h12V27.23H39V11.6h2.37V1.89Z"/><path fill="#d00000" transform="translate(50.5 0.1)" d="M41.42,2.6v9H39V27.23h2.37v9.71h-12l-.21-.33-11-17.35v8h2.37v9.71H6.37V27.23H8.73V11.6H6.37V1.89h12l.21.33,11,17.35v-8H27.21V1.89H41.42Zm-.71-1.18h-14V12.07H29.1v5.87L19,2l-.35-.55H5.89V12.07H8.26V26.75H5.89V37.41H21V26.75H18.68V20.89l10.13,16,.35.55H41.89V26.75H39.52V12.07h2.37V1.41Z"/><path fill="#d00000" transform="translate(56, 0)" d="M24.75,22.12L24.75 22.12 12.43 2.7 1.54 2.7 1.54 10.99 3.91 10.99 3.91 28.04 1.54 28.04 1.54 36.33 14.33 36.33 14.33 28.04 11.96 28.04 11.96 16.91 24.28 36.33 35.17 36.33 35.17 28.04 32.8 28.04 32.8 10.99 35.17 10.99 35.17 2.7 22.38 2.7 22.38 10.99 24.75 10.99 24.75 22.12z"/><path fill="#d00000" transform="translate(50.5 0.1)" d="M43.46 36.39h.09a.17 .17,0,0,0,.14 -.18 .13 .13,0,0,0 -.09 -.14h -.24v.34Zm-.29 -.5h.33a.54 .54,0,0,1,.25,0,.29 .29,0,0,1,.15 .27 .34 .34,0,0,1 -.08 .23 .37 .37,0,0,1 -.13 .09h0l .26 .51h -.19l -.25 -.48h -.13V37h -.19Z"/><path fill="#129a63" transform="translate(144.6758,24.75) rotate(180) scale(-1,1)" d="M 0,0 C 0.043,-1.596 -0.626,-2.857 -1.375,-3.591 -1.853,-4.06 -2.473,-4.264 -2.961,-4.647 -3.408,-4.998 -3.925,-5.511 -4.23,-6.073 -4.515,-6.598 -4.55,-7.139 -4.759,-7.552 -5.232,-8.487 -6.088,-9.297 -7.138,-9.77 c -2.089,-0.941 -4.443,0.226 -5.552,1.214 -0.81,0.723 -1.752,1.868 -2.221,3.011 -0.528,1.286 -0.877,3.177 -1.163,4.858 -0.067,0.392 -0.169,1.387 -0.529,1.426 -0.983,0.108 -0.542,-3.036 -0.476,-3.855 0.361,-4.453 1.786,-7.509 3.701,-10.087 l -3.331,0 c -1.722,2.837 -2.364,7.326 -2.009,12.2 0.046,0.631 0.162,1.617 -0.159,1.742 -0.65,0.255 -0.712,-0.845 -0.793,-1.267 -0.297,-1.566 -0.58,-3.64 -1.11,-4.964 -0.799,-1.998 -3.091,-4.355 -5.552,-4.595 -2.255,-0.22 -3.885,1.121 -4.6,2.482 -0.226,0.429 -0.306,0.975 -0.582,1.479 -0.297,0.542 -0.738,1.074 -1.163,1.426 -0.416,0.343 -0.92,0.491 -1.322,0.792 -0.846,0.631 -2.202,2.448 -1.692,4.383 0.235,0.892 1.119,2.31 1.745,2.905 0.889,0.846 2.278,1.807 3.754,2.112 1.61,0.333 4.377,0.159 6.345,0.159 0.62,0 1.616,-0.154 1.692,0.37 0.091,0.63 -1.038,0.65 -1.692,0.686 -1.976,0.109 -4.881,0.089 -6.504,0.634 -2.352,0.79 -4.811,3.171 -4.811,5.968 0,1.353 0.568,2.431 1.322,3.168 0.776,0.761 1.72,1.021 2.485,1.532 1.433,0.957 1.626,2.374 2.644,3.433 0.692,0.719 1.947,1.441 3.225,1.479 1.798,0.052 3.119,-0.757 4.071,-1.532 0.627,-0.51 1.209,-1.28 1.692,-2.007 1.239,-1.866 1.069,-4.991 1.269,-7.922 0.042,-0.61 0.159,-1.214 0.582,-1.214 0.629,0 0.62,1.637 0.634,1.901 0.126,2.351 0.224,5.139 0.899,6.601 0.964,2.085 3.215,4.143 5.817,4.173 1.671,0.018 2.982,-0.766 3.807,-1.849 0.744,-0.977 1.171,-2.393 2.432,-3.169 0.851,-0.523 1.823,-0.836 2.485,-1.531 1.507,-1.584 1.5,-4.436 0.106,-6.285 -1.041,-1.381 -2.84,-2.712 -5.076,-3.01 -1.321,-0.176 -3.923,-0.343 -5.605,-0.423 -0.675,-0.032 -1.457,-0.03 -1.428,-0.581 0.032,-0.594 1.062,-0.422 1.692,-0.422 3.1,0 6.263,0.202 8.249,-0.792 C -1.874,3.865 -0.431,2.073 0,0"/><path fill="#129a63" transform="translate(140.91,34.26) rotate(180) scale(-1,1)" d="M 0,0 -0.128,-0.168 -0.761,0.316 C -0.751,0.211 -0.764,0.106 -0.8,0.002 l -0.152,0.117 c 0.019,0.054 0.028,0.123 0.028,0.204 -0.001,0.082 -0.021,0.153 -0.059,0.213 L -0.879,0.671 0,0 Z"/><path fill="#129a63" transform="translate(140.737,33.5) rotate(180) scale(-1,1)" d="m 0,0 c -0.052,-0.029 -0.101,-0.042 -0.148,-0.037 -0.047,0.005 -0.09,0.022 -0.128,0.051 -0.065,0.05 -0.102,0.114 -0.109,0.192 -0.008,0.078 0.02,0.159 0.084,0.243 0.064,0.083 0.135,0.132 0.213,0.145 C -0.011,0.607 0.061,0.589 0.126,0.539 0.167,0.508 0.195,0.47 0.21,0.425 0.226,0.38 0.227,0.332 0.215,0.281 0.271,0.314 0.328,0.329 0.385,0.326 0.442,0.322 0.495,0.302 0.544,0.265 0.625,0.203 0.671,0.127 0.682,0.037 0.693,-0.054 0.666,-0.141 0.601,-0.227 0.54,-0.306 0.468,-0.357 0.386,-0.377 0.289,-0.402 0.197,-0.381 0.111,-0.316 0.064,-0.279 0.029,-0.234 0.007,-0.181 -0.015,-0.127 -0.017,-0.067 0,0 m -0.142,0.163 c 0.033,-0.025 0.066,-0.036 0.1,-0.031 0.033,0.004 0.062,0.022 0.086,0.054 0.024,0.032 0.034,0.065 0.03,0.098 C 0.07,0.318 0.051,0.347 0.017,0.373 -0.014,0.397 -0.047,0.407 -0.08,0.402 -0.114,0.398 -0.142,0.38 -0.166,0.349 -0.191,0.317 -0.201,0.284 -0.196,0.25 -0.192,0.216 -0.174,0.187 -0.142,0.163 m 0.363,-0.301 c 0.046,-0.036 0.091,-0.052 0.135,-0.048 0.045,0.004 0.08,0.024 0.107,0.059 0.027,0.035 0.036,0.073 0.029,0.115 C 0.484,0.03 0.457,0.069 0.41,0.105 0.368,0.136 0.326,0.15 0.284,0.146 0.241,0.142 0.206,0.122 0.179,0.087 0.147,0.046 0.138,0.004 0.151,-0.038 c 0.013,-0.041 0.036,-0.075 0.07,-0.1"/><path fill="#129a63" transform="translate(141.0319,32.28) rotate(180) scale(-1,1)" d="m 0,0 0.135,0.176 0.474,-0.361 c 0.075,-0.058 0.125,-0.093 0.151,-0.105 0.042,-0.02 0.084,-0.024 0.128,-0.012 0.043,0.012 0.084,0.042 0.121,0.091 0.039,0.05 0.057,0.096 0.056,0.137 C 1.064,-0.033 1.051,0.002 1.025,0.03 0.999,0.058 0.952,0.098 0.882,0.151 L 0.399,0.52 0.534,0.697 0.993,0.346 C 1.098,0.266 1.169,0.204 1.205,0.161 1.241,0.119 1.264,0.073 1.274,0.025 1.285,-0.024 1.282,-0.076 1.267,-0.133 1.252,-0.189 1.218,-0.252 1.165,-0.321 1.101,-0.404 1.043,-0.46 0.991,-0.489 0.938,-0.517 0.887,-0.532 0.837,-0.533 0.787,-0.535 0.742,-0.527 0.702,-0.509 0.643,-0.482 0.565,-0.431 0.467,-0.356 L 0,0 Z"/><path fill="#129a63" transform="translate(142.26,31.9) rotate(180) scale(-1,1)" d="M 0,0 0.115,0.184 C 0.181,0.151 0.239,0.139 0.291,0.151 0.342,0.161 0.388,0.194 0.43,0.248 0.473,0.305 0.494,0.357 0.492,0.404 0.49,0.452 0.473,0.488 0.441,0.512 0.42,0.528 0.398,0.535 0.374,0.535 0.35,0.533 0.321,0.522 0.288,0.5 0.265,0.485 0.216,0.447 0.141,0.388 0.045,0.311 -0.035,0.266 -0.098,0.254 c -0.09,-0.017 -0.169,0.001 -0.238,0.054 -0.045,0.034 -0.077,0.079 -0.096,0.134 -0.02,0.055 -0.021,0.114 -0.005,0.177 0.016,0.063 0.049,0.128 0.101,0.195 0.084,0.11 0.171,0.174 0.262,0.193 C 0.017,1.025 0.104,1.005 0.187,0.946 L 0.058,0.764 C 0.007,0.791 -0.038,0.8 -0.076,0.79 -0.115,0.78 -0.154,0.751 -0.192,0.701 -0.231,0.649 -0.251,0.601 -0.252,0.556 -0.253,0.527 -0.242,0.503 -0.22,0.486 -0.199,0.47 -0.174,0.465 -0.146,0.472 -0.11,0.48 -0.049,0.519 0.037,0.589 0.123,0.66 0.193,0.707 0.246,0.732 0.299,0.757 0.354,0.766 0.409,0.761 0.465,0.755 0.52,0.732 0.576,0.689 0.626,0.651 0.662,0.601 0.685,0.54 0.707,0.478 0.709,0.414 0.692,0.347 0.674,0.28 0.636,0.208 0.578,0.132 0.493,0.021 0.402,-0.045 0.305,-0.065 0.209,-0.085 0.107,-0.063 0,0"/><path fill="#129a63" transform="translate(143.3116,30.35) rotate(180) scale(-1,1)" d="m 0,0 0.185,0.13 c 0.076,-0.1 0.114,-0.198 0.114,-0.295 0,-0.096 -0.036,-0.191 -0.108,-0.285 -0.089,-0.116 -0.201,-0.181 -0.338,-0.195 -0.136,-0.015 -0.274,0.031 -0.411,0.136 -0.146,0.111 -0.23,0.235 -0.253,0.372 -0.023,0.136 0.012,0.266 0.106,0.388 0.082,0.107 0.18,0.17 0.294,0.188 0.068,0.011 0.145,0 0.23,-0.034 L -0.273,0.199 C -0.326,0.223 -0.378,0.229 -0.43,0.216 -0.481,0.203 -0.525,0.174 -0.561,0.127 -0.61,0.062 -0.627,-0.008 -0.612,-0.084 c 0.016,-0.076 0.076,-0.153 0.18,-0.233 0.11,-0.084 0.204,-0.124 0.281,-0.12 0.078,0.003 0.141,0.037 0.19,0.101 0.035,0.047 0.051,0.098 0.047,0.155 C 0.082,-0.124 0.053,-0.064 0,0"/><path fill="#129a63" transform="translate(143.4054,29.43) rotate(180) scale(-1,1)" d="M 0,0 -0.156,0.119 0.283,0.692 0.404,0.599 C 0.415,0.516 0.445,0.417 0.495,0.301 0.544,0.186 0.608,0.078 0.687,-0.023 0.765,-0.124 0.844,-0.203 0.921,-0.262 L 0.797,-0.424 C 0.678,-0.329 0.574,-0.209 0.484,-0.066 0.395,0.077 0.33,0.226 0.292,0.381 L 0,0 Z"/><path fill="#129a63" transform="translate(143.971,28.3368) rotate(180) scale(-1,1)" d="M 0,0 C 0.065,0.084 0.146,0.127 0.243,0.129 0.358,0.131 0.498,0.068 0.664,-0.058 0.83,-0.185 0.927,-0.304 0.955,-0.417 0.979,-0.509 0.958,-0.598 0.894,-0.683 0.829,-0.767 0.744,-0.811 0.638,-0.813 0.533,-0.815 0.396,-0.752 0.228,-0.623 0.064,-0.498 -0.033,-0.378 -0.062,-0.266 -0.085,-0.173 -0.065,-0.085 0,0 M 0.139,-0.106 C 0.123,-0.126 0.116,-0.149 0.117,-0.175 0.118,-0.2 0.132,-0.23 0.159,-0.265 0.193,-0.309 0.262,-0.371 0.365,-0.449 0.467,-0.528 0.542,-0.577 0.588,-0.596 0.635,-0.615 0.67,-0.621 0.695,-0.615 c 0.025,0.005 0.045,0.018 0.06,0.038 0.015,0.02 0.023,0.043 0.022,0.069 -0.001,0.026 -0.015,0.056 -0.042,0.09 C 0.701,-0.374 0.632,-0.312 0.53,-0.234 0.427,-0.155 0.352,-0.106 0.306,-0.087 0.26,-0.068 0.224,-0.062 0.199,-0.067 0.174,-0.073 0.154,-0.086 0.139,-0.106"/><path fill="#129a63" transform="translate(144.4453,28.0718) rotate(180) scale(-1,1)" d="M 0,0 -0.156,0.119 0.283,0.692 0.404,0.599 C 0.415,0.516 0.445,0.417 0.495,0.302 0.544,0.186 0.608,0.078 0.687,-0.023 c 0.078,-0.1 0.157,-0.18 0.234,-0.239 L 0.797,-0.424 C 0.678,-0.329 0.574,-0.209 0.484,-0.066 0.395,0.077 0.331,0.226 0.292,0.381 L 0,0 Z"/><path fill="#ffffff" transform="translate(56, 0)" d="M63.09,15.01L58.08 10.15 59.06 9.14 61.03 11.05 62.96 9.07 60.99 7.16 61.97 6.16 66.97 11.02 65.99 12.02 63.8 9.89 61.88 11.87 64.07 14 63.09 15.01z"/><path fill="#ffffff" transform="translate(56, 0)" d="M74.49,10.89L79.55 6.08 80.52 7.1 78.52 8.99 80.43 10.99 82.42 9.1 83.39 10.12 78.33 14.93 77.36 13.91 79.58 11.8 77.67 9.8 75.45 11.9 74.49 10.89z"/><path fill="#ffffff" transform="translate(56, 0)" d="M79.17,21.77L84.6 26.16 83.72 27.25 81.58 25.52 79.84 27.67 81.98 29.4 81.1 30.49 75.67 26.11 76.55 25.02 78.93 26.93 80.67 24.79 78.29 22.87 79.17 21.77z"/><path fill="#ffffff" transform="translate(56, 0)" d="M65.96,25.93L60.65 30.45 59.74 29.38 61.83 27.6 60.04 25.5 57.94 27.27 57.03 26.2 62.35 21.68 63.26 22.75 60.93 24.73 62.73 26.84 65.05 24.86 65.96 25.93"/><path fill="#000000" transform="translate(50.5 0.1)" stroke="#000000" stroke-width="0.5pt" d="M51,0 L51,39 Z"/></svg>
