<?xml version="1.0"?>
<svg version="1.1" xmlns="http://www.w3.org/2000/svg" class="preview" viewBox="0 0 200 80"><path fill="#d00000" d="M92.2555,42.988l1.212,8.412l-1.272,0l-0.168-1.32l-1.332,0l-0.156,1.32l-1.188,0l1.2-8.412l1.704,0z M91.3555,44.692l-0.516,4.248l1.044,0z M96.8437,47.92l-0.672,0l0-1.104l1.92,0l0,3.096c0,1.044-0.516,1.56-1.56,1.56l-0.684,0c-1.044,0-1.56-0.516-1.56-1.56l0-5.424c0-1.044,0.516-1.56,1.56-1.56l0.672,0c1.044,0,1.548,0.516,1.548,1.548l0,1.356l-1.26,0l0-1.284c0-0.336-0.156-0.492-0.48-0.492l-0.264,0c-0.336,0-0.492,0.156-0.492,0.492l0,5.304c0,0.336,0.156,0.492,0.492,0.492l0.288,0c0.336,0,0.492-0.156,0.492-0.492l0-1.932z M101.8039,42.988l1.212,8.412l-1.272,0l-0.168-1.32l-1.332,0l-0.156,1.32l-1.188,0l1.2-8.412l1.704,0z M100.9039,44.692l-0.516,4.248l1.044,0z M105.1561,43l0,8.4l-1.284,0l0-8.4l1.284,0z M110.0923,51.4l-1.392,0l-1.308-5.652l0.012,1.476l0,4.176l-1.152,0l0-8.4l1.5,0l1.2,5.184l-0.012-1.404l0-3.78l1.152,0l0,8.4z"/><path fill="#000000" d="M93.908,64.688c-0.84,0-1.384-0.52-1.384-1.472c0-1.152,0.872-2.344,2.064-2.344c0.84,0,1.368,0.512,1.368,1.472c0,1.152-0.856,2.344-2.048,2.344z M94.092,64.408c0.664,0,0.976-1.256,0.976-2.088c0-0.712-0.24-1.168-0.672-1.168c-0.664,0-0.976,1.256-0.976,2.08c0,0.72,0.232,1.176,0.672,1.176z M98.988,64.688c-0.328,0-0.504-0.16-0.6-0.568c-0.256-1.032-0.36-1.232-0.848-1.304l-0.304,1.784l-0.808,0l0.864-5.136l-0.512-0.328l0-0.08l1.408-0.4l0.032,0.024l-0.648,3.912c0.648-0.16,1.104-0.44,1.304-0.648c-0.112-0.16-0.16-0.328-0.16-0.48c0-0.344,0.224-0.608,0.496-0.608c0.32,0,0.464,0.264,0.464,0.528c0,0.424-0.28,0.84-1.456,1.192l0,0.032c0.368,0.056,0.536,0.184,0.688,0.44c0.112,0.192,0.232,0.584,0.304,0.888c0.048,0.24,0.176,0.312,0.776,0.32l0.016,0.056c-0.32,0.224-0.696,0.376-1.016,0.376z M101.1,64.688c-0.552,0-1.024-0.472-1.024-1.264c0-1.216,1.144-2.552,2.368-2.552c0.208,0,0.408,0.048,0.616,0.152l0.424-0.232l0.056,0.032l-0.528,3c-0.056,0.32,0,0.408,0.728,0.432l0.016,0.056c-0.352,0.224-0.76,0.376-1.08,0.376c-0.352,0-0.496-0.248-0.504-0.608l-0.04-0.024c-0.312,0.392-0.616,0.632-1.032,0.632z M101.564,64.112c0.256,0,0.424-0.112,0.656-0.304l0.36-2.096c-0.192-0.272-0.432-0.424-0.672-0.424c-0.552,0-0.96,1.04-0.96,1.928c0,0.568,0.24,0.896,0.616,0.896z M104.396,66.352c-0.424,0-0.68-0.304-0.68-0.656c0-0.264,0.16-0.496,0.432-0.496c0.344,0,0.528,0.36,0.512,0.8c0.352-0.192,0.752-0.672,1.024-1.176c-0.224-1.144-0.608-2.448-0.84-3.008c-0.088-0.208-0.168-0.288-0.32-0.288c-0.096,0-0.256,0.032-0.496,0.12l-0.048-0.064c0.312-0.384,0.672-0.712,1-0.712c0.28,0,0.424,0.136,0.56,0.4c0.208,0.384,0.504,1.448,0.664,2.528l0.04,0c0.304-0.968,0.576-2.136,0.72-2.992l0.064,0l0.736,0.352c-0.712,1.632-1.568,3.848-2.464,4.72c-0.312,0.304-0.584,0.472-0.904,0.472z"/><path fill="#d00000" d="M119.68205 34.10526c-.54474 0-.97105.42632-.97105.94737s.42631.94737.94737.94737c.52105 0 .94736-.42632.94736-.94737s-.42631-.94737-.92368-.94737zm-.0237 1.70527c-.42632 0-.7579-.33158-.7579-.7579 0-.42631.33158-.75789.7579-.75789.40263 0 .75789.35526.75789.75789 0 .42632-.33157.7579-.75789.7579z"/><path fill="#ffffff" d="M116.81579.4736797h-13.5V10.18421h2.36842v7.98158L94.67105.8052597l-.189474-.33158H82.473681V10.18421h2.368421v15.63158h-2.368421v9.71053h14.210527v-9.71053h-2.368422v-7.98158l11.013164 17.36053.21316.33158H117.52632v-9.71053h-2.36842V10.18421h2.36842V.4736797h-.71053zM95.973681 26.52632v8.28947H83.184208v-8.28947h2.368421V9.47368h-2.368421V1.1842097h10.894736L106.39474 20.60526V9.47368h-2.36843V1.1842097h12.78948V9.47368h-2.36842v17.05264h2.36842v8.28947h-10.89474L93.60526 15.39474v11.13158h2.368421z"/><path fill="#ffffff" d="M119.65837 35.81053c-.42632 0-.7579-.33158-.7579-.7579 0-.42631.33158-.75789.7579-.75789.40263 0 .75789.35526.75789.75789 0 .42632-.33158.7579-.75789.7579z"/><path fill="#d00000" d="M106.39474 20.60526L94.078946 1.1842097H83.18421V9.47368h2.368421v17.05264H83.18421v8.28947h12.789473v-8.28947h-2.368421V15.39474l12.315788 19.42105h10.89474v-8.28947h-2.36842V9.47368h2.36842V1.1842097h-12.78947V9.47368h2.36842v11.13158z"/><path fill="#d00000" d="M119.27942132 34.48421092h.33157896c.14210526 0 .1894737 0 .26052632.04736842.09473684.04736842.14210526.14210526.14210526.26052632 0 .09473684-.0236842.16578948-.07105263.2368421-.0236842.04736843-.07105263.04736843-.14210526.09473685h-.02368422l.26052633.49736844h-.1894737l-.2368421-.47368422h-.14210527v.47368422h-.18947368v-1.13684212zm.28421054.49736843h.09473684c.09473684-.0236842.14210527-.07105264.14210527-.1894737 0-.07105262-.02368422-.11842105-.09473685-.14210526h-.23684211v.33157895h.09473686zM116.81579 0h-13.97368V10.65789h2.36842v5.87369L95.073684.5447397 94.742105 0H82V10.65789h2.368421v14.68422H82V36h15.157896V25.34211H94.789475v-5.87369l10.136845 15.98684.35526.54474H118V25.34211h-2.36842V10.65789H118V 0h-1.18421zm.71053 1.18421V10.18421h-2.36842v15.63158h2.36842v9.71053H105.54211l-.21316-.33158-11.013161-17.36053v7.98158h2.368422v9.71053H82.473684v-9.71053h2.368421V10.18421h-2.368421V.4736797h11.984211l.213158.33158L105.68421 18.16579v-7.98158h-2.36842V.4736797h14.21053v.71053z"/></svg>
