<?xml version="1.0"?>
<svg version="1.1" xmlns="http://www.w3.org/2000/svg" class="preview" viewBox="0 0 200 80"><path fill="#d00000" d="M78.28105,52.086l2.31,0l0,3.586c0,1.914-0.946,2.86-2.86,2.86l-1.166,0c-1.914,0-2.86-0.946-2.86-2.86l0-9.944c0-1.914,0.946-2.86,2.86-2.86l1.144,0c1.914,0,2.838,0.924,2.838,2.838l0,3.146l-2.31,0l0-3.014c0-0.616-0.286-0.902-0.88-0.902l-0.396,0c-0.616,0-0.902,0.286-0.902,0.902l0,9.724c0,0.616,0.286,0.902,0.902,0.902l0.44,0c0.594,0,0.88-0.286,0.88-0.902l0-3.476z M89.42075,55.672c0,1.914-0.946,2.86-2.86,2.86l-1.254,0c-1.914,0-2.86-0.946-2.86-2.86l0-9.944c0-1.914,0.946-2.86,2.86-2.86l1.254,0c1.914,0,2.86,0.946,2.86,2.86l0,9.944z M87.06675,45.838c0-0.616-0.286-0.902-0.88-0.902l-0.484,0c-0.616,0-0.902,0.286-0.902,0.902l0,9.724c0,0.616,0.286,0.902,0.902,0.902l0.484,0c0.594,0,0.88-0.286,0.88-0.902l0-9.724z M91.36445,43l2.354,0l0,13.266l2.596,0l0,2.134l-4.95,0l0-15.4z M97.97215,43l2.354,0l0,13.266l2.596,0l0,2.134l-4.95,0l0-15.4z M104.57985,43l5.236,0l0,2.134l-2.882,0l0,4.356l2.772,0l0,2.134l-2.772,0l0,4.642l2.926,0l0,2.134l-5.28,0l0-15.4z M116.33555,52.02l-1.232,0l0-2.024l3.52,0l0,5.676c0,1.914-0.946,2.86-2.86,2.86l-1.254,0c-1.914,0-2.86-0.946-2.86-2.86l0-9.944c0-1.914,0.946-2.86,2.86-2.86l1.232,0c1.914,0,2.838,0.946,2.838,2.838l0,2.486l-2.31,0l0-2.354c0-0.616-0.286-0.902-0.88-0.902l-0.484,0c-0.616,0-0.902,0.286-0.902,0.902l0,9.724c0,0.616,0.286,0.902,0.902,0.902l0.528,0c0.616,0,0.902-0.286,0.902-0.902l0-3.542z M120.54525,43l5.236,0l0,2.134l-2.882,0l0,4.356l2.772,0l0,2.134l-2.772,0l0,4.642l2.926,0l0,2.134l-5.28,0l0-15.4z"/><path fill="#000000" d="M64.678,69.77l0-1.216c0-0.384-0.192-0.576-0.56-0.576l-0.192,0c-0.368,0-0.56,0.192-0.56,0.576l0,0.688c0,0.32,0.096,0.496,0.384,0.672l1.52,0.96c0.688,0.432,0.992,0.816,0.992,1.664l0,1.056c0,1.296-0.656,1.952-1.952,1.952l-0.576,0c-1.296,0-1.936-0.656-1.936-1.936l0-1.344l1.568,0l0,1.296c0,0.384,0.176,0.576,0.56,0.576l0.208,0c0.384,0,0.576-0.192,0.576-0.576l0-0.752c0-0.304-0.112-0.496-0.384-0.672l-1.536-0.944c-0.672-0.432-0.976-0.832-0.976-1.664l0-1.008c0-1.296,0.656-1.952,1.952-1.952l0.544,0c1.296,0,1.936,0.656,1.936,1.936l0,1.264l-1.568,0z M70.4916,70.106l0-1.488c0-0.4-0.192-0.592-0.592-0.592l-0.192,0c-0.384,0-0.576,0.192-0.576,0.592l0,4.88c0,0.4,0.192,0.592,0.576,0.592l0.208,0c0.4,0,0.592-0.192,0.592-0.592l0-1.792l1.584,0l0,1.888c0,1.296-0.656,1.952-1.952,1.952l-0.672,0c-1.296,0-1.952-0.656-1.952-1.952l0-5.072c0-1.296,0.656-1.952,1.952-1.952l0.672,0c1.28,0,1.936,0.64,1.936,1.936l0,1.6l-1.584,0z M73.3772,75.45l0-11.36l1.616,0l0,3.152c0.416-0.368,0.848-0.672,1.52-0.672l0.08,0c0.928,0,1.408,0.528,1.408,1.504l0,7.376l-1.616,0l0-6.896c0-0.352-0.16-0.512-0.528-0.512c-0.304,0-0.56,0.096-0.864,0.272l0,7.136l-1.616,0z M82.0228,75.546l-0.752,0c-1.296,0-1.952-0.656-1.952-1.952l0-5.072c0-1.296,0.656-1.952,1.952-1.952l0.752,0c1.296,0,1.952,0.656,1.952,1.952l0,5.072c0,1.296-0.656,1.952-1.952,1.952z M81.7668,68.026l-0.256,0c-0.384,0-0.576,0.192-0.576,0.592l0,4.88c0,0.4,0.192,0.592,0.576,0.592l0.256,0c0.4,0,0.592-0.192,0.592-0.592l0-4.88c0-0.4-0.192-0.592-0.592-0.592z M87.9484,75.546l-0.752,0c-1.296,0-1.952-0.656-1.952-1.952l0-5.072c0-1.296,0.656-1.952,1.952-1.952l0.752,0c1.296,0,1.952,0.656,1.952,1.952l0,5.072c0,1.296-0.656,1.952-1.952,1.952z M87.6924,68.026l-0.256,0c-0.384,0-0.576,0.192-0.576,0.592l0,4.88c0,0.4,0.192,0.592,0.576,0.592l0.256,0c0.4,0,0.592-0.192,0.592-0.592l0-4.88c0-0.4-0.192-0.592-0.592-0.592z M91.234,75.45l0-11.36l1.616,0l0,11.36l-1.616,0z M99.584,75.546l-0.752,0c-1.296,0-1.952-0.656-1.952-1.952l0-5.072c0-1.296,0.656-1.952,1.952-1.952l0.752,0c1.296,0,1.952,0.656,1.952,1.952l0,5.072c0,1.296-0.656,1.952-1.952,1.952z M99.328,68.026l-0.256,0c-0.384,0-0.576,0.192-0.576,0.592l0,4.88c0,0.4,0.192,0.592,0.576,0.592l0.256,0c0.4,0,0.592-0.192,0.592-0.592l0-4.88c0-0.4-0.192-0.592-0.592-0.592z M103.1256,66.666l0-0.832c0-1.168,0.576-1.744,1.744-1.744l0.896,0l0,1.392l-0.576,0c-0.304,0-0.448,0.144-0.448,0.448l0,0.736l0.976,0l0,1.408l-0.976,0l0,7.376l-1.616,0l0-7.376l-0.496,0l0-1.408l0.496,0z M112.1956,69.77l0-1.216c0-0.384-0.192-0.576-0.56-0.576l-0.192,0c-0.368,0-0.56,0.192-0.56,0.576l0,0.688c0,0.32,0.096,0.496,0.384,0.672l1.52,0.96c0.688,0.432,0.992,0.816,0.992,1.664l0,1.056c0,1.296-0.656,1.952-1.952,1.952l-0.576,0c-1.296,0-1.936-0.656-1.936-1.936l0-1.344l1.568,0l0,1.296c0,0.384,0.176,0.576,0.56,0.576l0.208,0c0.384,0,0.576-0.192,0.576-0.576l0-0.752c0-0.304-0.112-0.496-0.384-0.672l-1.536-0.944c-0.672-0.432-0.976-0.832-0.976-1.664l0-1.008c0-1.296,0.656-1.952,1.952-1.952l0.544,0c1.296,0,1.936,0.656,1.936,1.936l0,1.264l-1.568,0z M117.7372,75.546l-0.752,0c-1.296,0-1.952-0.656-1.952-1.952l0-5.072c0-1.296,0.656-1.952,1.952-1.952l0.752,0c1.296,0,1.952,0.656,1.952,1.952l0,5.072c0,1.296-0.656,1.952-1.952,1.952z M117.4812,68.026l-0.256,0c-0.384,0-0.576,0.192-0.576,0.592l0,4.88c0,0.4,0.192,0.592,0.576,0.592l0.256,0c0.4,0,0.592-0.192,0.592-0.592l0-4.88c0-0.4-0.192-0.592-0.592-0.592z M125.5668,68.314l0,7.136l-1.632,0l0-6.912c0-0.336-0.144-0.496-0.48-0.496c-0.288,0-0.544,0.096-0.848,0.272l0,7.136l-1.616,0l0-8.784l1.6,0l0,0.576c0.416-0.368,0.88-0.672,1.52-0.672l0.064,0c0.624,0,1.04,0.256,1.248,0.736c0.464-0.432,0.96-0.736,1.648-0.736l0.048,0c0.896,0,1.392,0.528,1.392,1.488l0,7.392l-1.616,0l0-6.912c0-0.336-0.16-0.496-0.496-0.496c-0.288,0-0.544,0.096-0.832,0.272z M134.3404,71.69l-2.928,0l0,1.824c0,0.4,0.192,0.592,0.576,0.592l0.208,0c0.4,0,0.592-0.192,0.592-0.592l0-0.928l1.552,0l0,1.008c0,1.296-0.656,1.952-1.952,1.952l-0.624,0c-1.296,0-1.952-0.656-1.952-1.952l0-5.072c0-1.296,0.656-1.952,1.952-1.952l0.624,0c1.296,0,1.952,0.656,1.952,1.952l0,3.168z M131.4124,68.586l0,1.728l1.344,0l0-1.728c0-0.4-0.192-0.592-0.592-0.592l-0.176,0c-0.384,0-0.576,0.192-0.576,0.592z M137.594,68.074l0,7.376l-1.616,0l0-7.376l-0.576,0l0-1.408l0.576,0l0-1.44l1.616,0l0,1.44l0.848,0l0,1.408l-0.848,0z"/><path fill="#d00000" d="M119.68205 34.10526c-.54474 0-.97105.42632-.97105.94737s.42631.94737.94737.94737c.52105 0 .94736-.42632.94736-.94737s-.42631-.94737-.92368-.94737zm-.0237 1.70527c-.42632 0-.7579-.33158-.7579-.7579 0-.42631.33158-.75789.7579-.75789.40263 0 .75789.35526.75789.75789 0 .42632-.33157.7579-.75789.7579z"/><path fill="#ffffff" d="M116.81579.4736797h-13.5V10.18421h2.36842v7.98158L94.67105.8052597l-.189474-.33158H82.473681V10.18421h2.368421v15.63158h-2.368421v9.71053h14.210527v-9.71053h-2.368422v-7.98158l11.013164 17.36053.21316.33158H117.52632v-9.71053h-2.36842V10.18421h2.36842V.4736797h-.71053zM95.973681 26.52632v8.28947H83.184208v-8.28947h2.368421V9.47368h-2.368421V1.1842097h10.894736L106.39474 20.60526V9.47368h-2.36843V1.1842097h12.78948V9.47368h-2.36842v17.05264h2.36842v8.28947h-10.89474L93.60526 15.39474v11.13158h2.368421z"/><path fill="#ffffff" d="M119.65837 35.81053c-.42632 0-.7579-.33158-.7579-.7579 0-.42631.33158-.75789.7579-.75789.40263 0 .75789.35526.75789.75789 0 .42632-.33158.7579-.75789.7579z"/><path fill="#d00000" d="M106.39474 20.60526L94.078946 1.1842097H83.18421V9.47368h2.368421v17.05264H83.18421v8.28947h12.789473v-8.28947h-2.368421V15.39474l12.315788 19.42105h10.89474v-8.28947h-2.36842V9.47368h2.36842V1.1842097h-12.78947V9.47368h2.36842v11.13158z"/><path fill="#d00000" d="M119.27942132 34.48421092h.33157896c.14210526 0 .1894737 0 .26052632.04736842.09473684.04736842.14210526.14210526.14210526.26052632 0 .09473684-.0236842.16578948-.07105263.2368421-.0236842.04736843-.07105263.04736843-.14210526.09473685h-.02368422l.26052633.49736844h-.1894737l-.2368421-.47368422h-.14210527v.47368422h-.18947368v-1.13684212zm.28421054.49736843h.09473684c.09473684-.0236842.14210527-.07105264.14210527-.1894737 0-.07105262-.02368422-.11842105-.09473685-.14210526h-.23684211v.33157895h.09473686zM116.81579 0h-13.97368V10.65789h2.36842v5.87369L95.073684.5447397 94.742105 0H82V10.65789h2.368421v14.68422H82V36h15.157896V25.34211H94.789475v-5.87369l10.136845 15.98684.35526.54474H118V25.34211h-2.36842V10.65789H118V 0h-1.18421zm.71053 1.18421V10.18421h-2.36842v15.63158h2.36842v9.71053H105.54211l-.21316-.33158-11.013161-17.36053v7.98158h2.368422v9.71053H82.473684v-9.71053h2.368421V10.18421h-2.368421V.4736797h11.984211l.213158.33158L105.68421 18.16579v-7.98158h-2.36842V.4736797h14.21053v.71053z"/></svg>
