<?xml version="1.0"?>
<svg version="1.1" xmlns="http://www.w3.org/2000/svg" class="preview" viewBox="0 0 200 80"><path fill="#d00000" d="M69.0364,51.4l-1.284,0l0-7.236l-1.152,0l0-1.164l3.588,0l0,1.164l-1.152,0l0,7.236z M71.0086,43l2.856,0l0,1.164l-1.572,0l0,2.376l1.512,0l0,1.164l-1.512,0l0,2.532l1.596,0l0,1.164l-2.88,0l0-8.4z M77.7808,47.092c0.564,0.408,0.744,0.768,0.744,1.452l0,1.368c0,1.044-0.516,1.56-1.56,1.56l-0.564,0c-1.044,0-1.548-0.516-1.548-1.548l0-1.776l1.248,0l0,1.728c0,0.324,0.156,0.48,0.492,0.48l0.168,0c0.336,0,0.492-0.156,0.492-0.48l0-1.152c0-0.348-0.12-0.504-0.36-0.684l-1.296-0.948c-0.576-0.408-0.744-0.804-0.744-1.452l0-1.152c0-1.044,0.516-1.56,1.56-1.56l0.54,0c1.032,0,1.548,0.516,1.548,1.548l0,1.524l-1.26,0l0-1.476c0-0.324-0.156-0.48-0.48-0.48l-0.156,0c-0.324,0-0.48,0.156-0.48,0.48l0,0.936c0,0.348,0.12,0.516,0.36,0.684z M81.709,51.4l-1.284,0l0-7.236l-1.152,0l0-1.164l3.588,0l0,1.164l-1.152,0l0,7.236z M89.4595,49.912c0,1.044-0.516,1.56-1.56,1.56l-0.684,0c-1.044,0-1.56-0.516-1.56-1.56l0-5.424c0-1.044,0.516-1.56,1.56-1.56l0.684,0c1.044,0,1.56,0.516,1.56,1.56l0,5.424z M88.1755,44.548c0-0.336-0.156-0.492-0.48-0.492l-0.264,0c-0.336,0-0.492,0.156-0.492,0.492l0,5.304c0,0.336,0.156,0.492,0.492,0.492l0.264,0c0.324,0,0.48-0.156,0.48-0.492l0-5.304z M94.3597,51.4l-1.392,0l-1.308-5.652l0.012,1.476l0,4.176l-1.152,0l0-8.4l1.5,0l1.2,5.184l-0.012-1.404l0-3.78l1.152,0l0,8.4z M95.4439,43l2.856,0l0,1.164l-1.572,0l0,2.376l1.512,0l0,1.164l-1.512,0l0,2.532l1.596,0l0,1.164l-2.88,0l0-8.4z M102.6064,46.54l1.236,0l0-3.54l1.284,0l0,8.4l-1.284,0l0-3.696l-1.236,0l0,3.696l-1.284,0l0-8.4l1.284,0l0,3.54z M109.9426,43l0,6.912c0,1.044-0.516,1.56-1.56,1.56l-0.624,0c-1.044,0-1.56-0.516-1.56-1.56l0-6.912l1.284,0l0,6.852c0,0.336,0.156,0.492,0.492,0.492l0.204,0c0.324,0,0.48-0.156,0.48-0.492l0-6.852l1.284,0z M114.8548,51.4l-1.392,0l-1.308-5.652l0.012,1.476l0,4.176l-1.152,0l0-8.4l1.5,0l1.2,5.184l-0.012-1.404l0-3.78l1.152,0l0,8.4z M115.939,51.4l0-8.4l1.932,0c1.248,0,1.836,0.6,1.836,1.836l0,4.728c0,1.236-0.588,1.836-1.836,1.836l-1.932,0z M117.223,44.128l0,6.144l0.468,0c0.504,0,0.732-0.24,0.732-0.744l0-4.656c0-0.504-0.228-0.744-0.732-0.744l-0.468,0z M123.7072,47.44c0.528,0.144,0.744,0.468,0.744,1.104l0,2.856l-1.284,0l0-2.832c0-0.372-0.168-0.54-0.54-0.54l-0.576,0l0,3.372l-1.284,0l0-8.4l2.112,0c1.044,0,1.56,0.516,1.56,1.56l0,1.584c0,0.744-0.264,1.104-0.732,1.296z M123.1552,44.62c0-0.324-0.156-0.48-0.48-0.48l-0.624,0l0,2.772l0.576,0c0.36,0,0.528-0.168,0.528-0.516l0-1.776z M125.5114,43l2.856,0l0,1.164l-1.572,0l0,2.376l1.512,0l0,1.164l-1.512,0l0,2.532l1.596,0l0,1.164l-2.88,0l0-8.4z M129.3916,51.4l0-8.4l1.932,0c1.248,0,1.836,0.6,1.836,1.836l0,4.728c0,1.236-0.588,1.836-1.836,1.836l-1.932,0z M130.6756,44.128l0,6.144l0.468,0c0.504,0,0.732-0.24,0.732-0.744l0-4.656c0-0.504-0.228-0.744-0.732-0.744l-0.468,0z"/><path fill="#000000" d="M68.584,64.688c-0.84,0-1.384-0.52-1.384-1.472c0-1.152,0.872-2.344,2.064-2.344c0.84,0,1.368,0.512,1.368,1.472c0,1.152-0.856,2.344-2.048,2.344z M68.768,64.408c0.664,0,0.976-1.256,0.976-2.088c0-0.712-0.24-1.168-0.672-1.168c-0.664,0-0.976,1.256-0.976,2.08c0,0.72,0.232,1.176,0.672,1.176z M73.664,64.688c-0.328,0-0.504-0.16-0.6-0.568c-0.256-1.032-0.36-1.232-0.848-1.304l-0.304,1.784l-0.808,0l0.864-5.136l-0.512-0.328l0-0.08l1.408-0.4l0.032,0.024l-0.648,3.912c0.648-0.16,1.104-0.44,1.304-0.648c-0.112-0.16-0.16-0.328-0.16-0.48c0-0.344,0.224-0.608,0.496-0.608c0.32,0,0.464,0.264,0.464,0.528c0,0.424-0.28,0.84-1.456,1.192l0,0.032c0.368,0.056,0.536,0.184,0.688,0.44c0.112,0.192,0.232,0.584,0.304,0.888c0.048,0.24,0.176,0.312,0.776,0.32l0.016,0.056c-0.32,0.224-0.696,0.376-1.016,0.376z M77.52,64.776l-0.192-0.096l0.144-0.4c-0.08-1.232-0.232-2.112-0.344-2.456c-0.064-0.2-0.128-0.296-0.288-0.296c-0.104,0-0.264,0.04-0.512,0.12l-0.04-0.056c0.32-0.392,0.712-0.72,1.048-0.72c0.264,0,0.408,0.136,0.512,0.376c0.152,0.336,0.304,1.424,0.328,2.496l0.032,0.024c0.36-0.472,0.664-0.984,0.864-1.4c-0.08-0.472-0.144-0.888-0.192-1.2l0.744-0.32l0.064,0c0.112,0.984,0.232,1.904,0.368,2.904l0.032,0.016c0.488-0.592,0.768-1.128,0.888-1.592c-0.2-0.216-0.32-0.496-0.32-0.72c-0.008-0.352,0.2-0.584,0.48-0.584c0.288,0,0.472,0.248,0.48,0.64c0.016,0.784-0.824,1.96-2.184,3.264l-0.184-0.096l0.136-0.4l-0.232-1.4c-0.392,0.592-0.952,1.256-1.632,1.896z M84.68,64.688c-0.376,0-0.512-0.2-0.512-0.472c0-0.12,0.024-0.288,0.056-0.424l0.256-1.384c0.104-0.576,0.056-0.896-0.424-0.896c-0.28,0-0.488,0.088-0.816,0.272l-0.472,2.816l-0.808,0l0.856-5.136l-0.504-0.328l0-0.08l1.408-0.4l0.032,0.024l-0.472,2.88l0.032,0.016c0.528-0.472,0.928-0.704,1.336-0.704c0.648,0,0.808,0.552,0.664,1.312l-0.312,1.64c-0.064,0.336,0.04,0.416,0.728,0.432l0.016,0.056c-0.352,0.224-0.752,0.376-1.064,0.376z M87.016,64.688c-0.552,0-1.024-0.472-1.024-1.264c0-1.216,1.144-2.552,2.368-2.552c0.208,0,0.408,0.048,0.616,0.152l0.424-0.232l0.056,0.032l-0.528,3c-0.056,0.32,0,0.408,0.728,0.432l0.016,0.056c-0.352,0.224-0.76,0.376-1.08,0.376c-0.352,0-0.496-0.248-0.504-0.608l-0.04-0.024c-0.312,0.392-0.616,0.632-1.032,0.632z M87.48,64.112c0.256,0,0.424-0.112,0.656-0.304l0.36-2.096c-0.192-0.272-0.432-0.424-0.672-0.424c-0.552,0-0.96,1.04-0.96,1.928c0,0.568,0.24,0.896,0.616,0.896z M90.968,64.672c-0.648,0-0.816-0.344-0.696-1.008l0.376-2.24l-0.576,0l0.016-0.12l0.816-0.608l0.648-0.744l0.144,0.04l-0.176,1.024l1.016,0l-0.072,0.408l-1.008,0l-0.352,2.056c-0.048,0.304-0.048,0.472,0.072,0.568c0.096,0.08,0.272,0.12,0.608,0.12c0.12,0,0.272-0.008,0.44-0.024l0,0.112c-0.344,0.192-0.824,0.416-1.256,0.416z M95.168,64.688c-0.552,0-1.024-0.472-1.024-1.264c0-1.216,1.144-2.552,2.368-2.552c0.208,0,0.408,0.048,0.616,0.152l0.424-0.232l0.056,0.032l-0.528,3c-0.056,0.32,0,0.408,0.728,0.432l0.016,0.056c-0.352,0.224-0.76,0.376-1.08,0.376c-0.352,0-0.496-0.248-0.504-0.608l-0.04-0.024c-0.312,0.392-0.616,0.632-1.032,0.632z M95.632,64.112c0.256,0,0.424-0.112,0.656-0.304l0.36-2.096c-0.192-0.272-0.432-0.424-0.672-0.424c-0.552,0-0.96,1.04-0.96,1.928c0,0.568,0.24,0.896,0.616,0.896z M102.944,64.688c-0.368,0-0.504-0.2-0.504-0.472c0-0.12,0.024-0.288,0.056-0.424l0.256-1.384c0.112-0.616,0.064-0.896-0.368-0.896c-0.248,0-0.456,0.088-0.784,0.272l-0.472,2.816l-0.808,0l0.368-2.192c0.104-0.624,0.08-0.896-0.344-0.896c-0.256,0-0.456,0.088-0.784,0.272l-0.472,2.816l-0.816,0l0.504-2.968l-0.504-0.328l0-0.08l1.36-0.4l0.032,0.024l-0.112,0.744l0.032,0.024c0.544-0.496,0.976-0.744,1.368-0.744c0.44,0,0.624,0.32,0.632,0.728l0.032,0.024c0.536-0.496,0.984-0.752,1.384-0.752c0.552,0,0.728,0.504,0.576,1.312l-0.312,1.64c-0.056,0.32,0.016,0.416,0.728,0.432l0.024,0.056c-0.36,0.224-0.76,0.376-1.072,0.376z M107.192,60.256c-0.232,0-0.424-0.176-0.424-0.464c0-0.352,0.248-0.72,0.6-0.72c0.232,0,0.408,0.168,0.408,0.464c0,0.344-0.232,0.72-0.584,0.72z M106.624,64.688c-0.448,0-0.584-0.288-0.488-0.768l0.416-2.288l-0.52-0.328l0-0.08l1.44-0.4l0.032,0.024l-0.536,2.968c-0.064,0.344,0.016,0.424,0.736,0.44l0.016,0.056c-0.36,0.224-0.776,0.376-1.096,0.376z M110.824,64.776l-0.192-0.096l0.144-0.4c-0.08-1.232-0.232-2.112-0.344-2.456c-0.064-0.2-0.128-0.296-0.288-0.296c-0.104,0-0.264,0.04-0.512,0.12l-0.04-0.056c0.32-0.392,0.712-0.72,1.048-0.72c0.264,0,0.408,0.136,0.512,0.376c0.152,0.336,0.304,1.424,0.328,2.496l0.032,0.024c0.36-0.472,0.664-0.984,0.864-1.4c-0.08-0.472-0.144-0.888-0.192-1.2l0.744-0.32l0.064,0c0.112,0.984,0.232,1.904,0.368,2.904l0.032,0.016c0.488-0.592,0.768-1.128,0.888-1.592c-0.2-0.216-0.32-0.496-0.32-0.72c-0.008-0.352,0.2-0.584,0.48-0.584c0.288,0,0.472,0.248,0.48,0.64c0.016,0.784-0.824,1.96-2.184,3.264l-0.184-0.096l0.136-0.4l-0.232-1.4c-0.392,0.592-0.952,1.256-1.632,1.896z M115.368,64.6l0.496-2.968l-0.504-0.328l0-0.08l1.368-0.4l0.032,0.024l-0.152,0.912l0.032,0.024c0.28-0.504,0.68-0.92,1.072-0.92c0.328,0,0.528,0.2,0.528,0.472c0,0.28-0.216,0.52-0.488,0.52c-0.232,0-0.4-0.12-0.544-0.312c-0.216,0.072-0.408,0.216-0.6,0.448l-0.432,2.608l-0.808,0z M119.6,60.256c-0.232,0-0.424-0.176-0.424-0.464c0-0.352,0.248-0.72,0.6-0.72c0.232,0,0.408,0.168,0.408,0.464c0,0.344-0.232,0.72-0.584,0.72z M119.032,64.688c-0.448,0-0.584-0.288-0.488-0.768l0.416-2.288l-0.52-0.328l0-0.08l1.44-0.4l0.032,0.024l-0.536,2.968c-0.064,0.344,0.016,0.424,0.736,0.44l0.016,0.056c-0.36,0.224-0.776,0.376-1.096,0.376z M121.488,64.672c-0.648,0-0.816-0.344-0.696-1.008l0.376-2.24l-0.576,0l0.016-0.12l0.816-0.608l0.648-0.744l0.144,0.04l-0.176,1.024l1.016,0l-0.072,0.408l-1.008,0l-0.352,2.056c-0.048,0.304-0.048,0.472,0.072,0.568c0.096,0.08,0.272,0.12,0.608,0.12c0.12,0,0.272-0.008,0.44-0.024l0,0.112c-0.344,0.192-0.824,0.416-1.256,0.416z M124.4,60.256c-0.232,0-0.424-0.176-0.424-0.464c0-0.352,0.248-0.72,0.6-0.72c0.232,0,0.408,0.168,0.408,0.464c0,0.344-0.232,0.72-0.584,0.72z M123.832,64.688c-0.448,0-0.584-0.288-0.488-0.768l0.416-2.288l-0.52-0.328l0-0.08l1.44-0.4l0.032,0.024l-0.536,2.968c-0.064,0.344,0.016,0.424,0.736,0.44l0.016,0.056c-0.36,0.224-0.776,0.376-1.096,0.376z M128.16,64.688c-0.368,0-0.512-0.2-0.512-0.472c0-0.12,0.024-0.288,0.056-0.424l0.264-1.384c0.104-0.576,0.056-0.896-0.432-0.896c-0.28,0-0.48,0.088-0.808,0.272l-0.472,2.816l-0.808,0l0.496-2.968l-0.504-0.328l0-0.08l1.36-0.4l0.032,0.024l-0.112,0.744l0.032,0.024c0.544-0.496,0.968-0.744,1.376-0.744c0.648,0,0.808,0.552,0.664,1.312l-0.312,1.64c-0.064,0.336,0.04,0.416,0.728,0.432l0.016,0.056c-0.352,0.224-0.752,0.376-1.064,0.376z M130.656,66.352c-1.112,0-1.728-0.48-1.728-1.016c0-0.52,0.504-0.872,1.24-0.992l0.272-0.856c-0.52-0.136-0.824-0.544-0.824-1.064c0-0.808,0.736-1.552,1.68-1.552c0.408,0,0.744,0.128,0.96,0.368c0.264-0.32,0.544-0.52,0.792-0.52c0.28,0,0.448,0.184,0.448,0.408c0,0.248-0.152,0.432-0.376,0.432c-0.16,0-0.312-0.12-0.336-0.32l-0.44,0.104c0.12,0.176,0.192,0.392,0.192,0.648c0,0.808-0.728,1.544-1.672,1.544l-0.112,0c-0.056,0.24-0.008,0.304,0.312,0.416c1.152,0.4,1.392,0.712,1.392,1.168c0,0.624-0.68,1.232-1.8,1.232z M130.968,66.08c0.488,0,0.776-0.2,0.776-0.576s-0.48-0.68-1.56-1c-0.304,0.176-0.432,0.424-0.432,0.712c0,0.456,0.488,0.864,1.216,0.864z M130.984,63.304c0.496,0,0.728-0.816,0.728-1.376c0-0.464-0.176-0.808-0.536-0.808c-0.496,0-0.728,0.816-0.728,1.376c0,0.456,0.176,0.808,0.536,0.808z"/><path fill="#d00000" d="M119.68205 34.10526c-.54474 0-.97105.42632-.97105.94737s.42631.94737.94737.94737c.52105 0 .94736-.42632.94736-.94737s-.42631-.94737-.92368-.94737zm-.0237 1.70527c-.42632 0-.7579-.33158-.7579-.7579 0-.42631.33158-.75789.7579-.75789.40263 0 .75789.35526.75789.75789 0 .42632-.33157.7579-.75789.7579z"/><path fill="#ffffff" d="M116.81579.4736797h-13.5V10.18421h2.36842v7.98158L94.67105.8052597l-.189474-.33158H82.473681V10.18421h2.368421v15.63158h-2.368421v9.71053h14.210527v-9.71053h-2.368422v-7.98158l11.013164 17.36053.21316.33158H117.52632v-9.71053h-2.36842V10.18421h2.36842V.4736797h-.71053zM95.973681 26.52632v8.28947H83.184208v-8.28947h2.368421V9.47368h-2.368421V1.1842097h10.894736L106.39474 20.60526V9.47368h-2.36843V1.1842097h12.78948V9.47368h-2.36842v17.05264h2.36842v8.28947h-10.89474L93.60526 15.39474v11.13158h2.368421z"/><path fill="#ffffff" d="M119.65837 35.81053c-.42632 0-.7579-.33158-.7579-.7579 0-.42631.33158-.75789.7579-.75789.40263 0 .75789.35526.75789.75789 0 .42632-.33158.7579-.75789.7579z"/><path fill="#d00000" d="M106.39474 20.60526L94.078946 1.1842097H83.18421V9.47368h2.368421v17.05264H83.18421v8.28947h12.789473v-8.28947h-2.368421V15.39474l12.315788 19.42105h10.89474v-8.28947h-2.36842V9.47368h2.36842V1.1842097h-12.78947V9.47368h2.36842v11.13158z"/><path fill="#d00000" d="M119.27942132 34.48421092h.33157896c.14210526 0 .1894737 0 .26052632.04736842.09473684.04736842.14210526.14210526.14210526.26052632 0 .09473684-.0236842.16578948-.07105263.2368421-.0236842.04736843-.07105263.04736843-.14210526.09473685h-.02368422l.26052633.49736844h-.1894737l-.2368421-.47368422h-.14210527v.47368422h-.18947368v-1.13684212zm.28421054.49736843h.09473684c.09473684-.0236842.14210527-.07105264.14210527-.1894737 0-.07105262-.02368422-.11842105-.09473685-.14210526h-.23684211v.33157895h.09473686zM116.81579 0h-13.97368V10.65789h2.36842v5.87369L95.073684.5447397 94.742105 0H82V10.65789h2.368421v14.68422H82V36h15.157896V25.34211H94.789475v-5.87369l10.136845 15.98684.35526.54474H118V25.34211h-2.36842V10.65789H118V 0h-1.18421zm.71053 1.18421V10.18421h-2.36842v15.63158h2.36842v9.71053H105.54211l-.21316-.33158-11.013161-17.36053v7.98158h2.368422v9.71053H82.473684v-9.71053h2.368421V10.18421h-2.368421V.4736797h11.984211l.213158.33158L105.68421 18.16579v-7.98158h-2.36842V.4736797h14.21053v.71053z"/></svg>
