<?xml version="1.0"?>
<svg version="1.1" xmlns="http://www.w3.org/2000/svg" class="preview" viewBox="0 0 200 80"><path fill="#d00000" d="M78.6409,42.988l1.212,8.412l-1.272,0l-0.168-1.32l-1.332,0l-0.156,1.32l-1.188,0l1.2-8.412l1.704,0z M77.7409,44.692l-0.516,4.248l1.044,0z M80.6971,43l1.284,0l0,7.236l1.416,0l0,1.164l-2.7,0l0-8.4z M87.8533,43l1.908,0l0,8.4l-1.26,0l0-6.384l-0.912,6.384l-1.26,0l-0.924-6.468l0,6.468l-1.104,0l0-8.4l1.92,0l0.804,6.108z M94.6255,49.912c0,1.044-0.516,1.56-1.56,1.56l-0.684,0c-1.044,0-1.56-0.516-1.56-1.56l0-5.424c0-1.044,0.516-1.56,1.56-1.56l0.684,0c1.044,0,1.56,0.516,1.56,1.56l0,5.424z M93.3415,44.548c0-0.336-0.156-0.492-0.48-0.492l-0.264,0c-0.336,0-0.492,0.156-0.492,0.492l0,5.304c0,0.336,0.156,0.492,0.492,0.492l0.264,0c0.324,0,0.48-0.156,0.48-0.492l0-5.304z M98.5777,47.092c0.564,0.408,0.744,0.768,0.744,1.452l0,1.368c0,1.044-0.516,1.56-1.56,1.56l-0.564,0c-1.044,0-1.548-0.516-1.548-1.548l0-1.776l1.248,0l0,1.728c0,0.324,0.156,0.48,0.492,0.48l0.168,0c0.336,0,0.492-0.156,0.492-0.48l0-1.152c0-0.348-0.12-0.504-0.36-0.684l-1.296-0.948c-0.576-0.408-0.744-0.804-0.744-1.452l0-1.152c0-1.044,0.516-1.56,1.56-1.56l0.54,0c1.032,0,1.548,0.516,1.548,1.548l0,1.524l-1.26,0l0-1.476c0-0.324-0.156-0.48-0.48-0.48l-0.156,0c-0.324,0-0.48,0.156-0.48,0.48l0,0.936c0,0.348,0.12,0.516,0.36,0.684z M102.5059,51.4l-1.284,0l0-7.236l-1.152,0l0-1.164l3.588,0l0,1.164l-1.152,0l0,7.236z M106.4764,51.4l0-8.4l1.932,0c1.248,0,1.836,0.6,1.836,1.836l0,4.728c0,1.236-0.588,1.836-1.836,1.836l-1.932,0z M107.7604,44.128l0,6.144l0.468,0c0.504,0,0.732-0.24,0.732-0.744l0-4.656c0-0.504-0.228-0.744-0.732-0.744l-0.468,0z M115.0846,49.912c0,1.044-0.516,1.56-1.56,1.56l-0.684,0c-1.044,0-1.56-0.516-1.56-1.56l0-5.424c0-1.044,0.516-1.56,1.56-1.56l0.684,0c1.044,0,1.56,0.516,1.56,1.56l0,5.424z M113.8006,44.548c0-0.336-0.156-0.492-0.48-0.492l-0.264,0c-0.336,0-0.492,0.156-0.492,0.492l0,5.304c0,0.336,0.156,0.492,0.492,0.492l0.264,0c0.324,0,0.48-0.156,0.48-0.492l0-5.304z M119.9848,51.4l-1.392,0l-1.308-5.652l0.012,1.476l0,4.176l-1.152,0l0-8.4l1.5,0l1.2,5.184l-0.012-1.404l0-3.78l1.152,0l0,8.4z M121.069,43l2.856,0l0,1.164l-1.572,0l0,2.376l1.512,0l0,1.164l-1.512,0l0,2.532l1.596,0l0,1.164l-2.88,0l0-8.4z"/><path fill="#d00000" d="M119.68205 34.10526c-.54474 0-.97105.42632-.97105.94737s.42631.94737.94737.94737c.52105 0 .94736-.42632.94736-.94737s-.42631-.94737-.92368-.94737zm-.0237 1.70527c-.42632 0-.7579-.33158-.7579-.7579 0-.42631.33158-.75789.7579-.75789.40263 0 .75789.35526.75789.75789 0 .42632-.33157.7579-.75789.7579z"/><path fill="#ffffff" d="M116.81579.4736797h-13.5V10.18421h2.36842v7.98158L94.67105.8052597l-.189474-.33158H82.473681V10.18421h2.368421v15.63158h-2.368421v9.71053h14.210527v-9.71053h-2.368422v-7.98158l11.013164 17.36053.21316.33158H117.52632v-9.71053h-2.36842V10.18421h2.36842V.4736797h-.71053zM95.973681 26.52632v8.28947H83.184208v-8.28947h2.368421V9.47368h-2.368421V1.1842097h10.894736L106.39474 20.60526V9.47368h-2.36843V1.1842097h12.78948V9.47368h-2.36842v17.05264h2.36842v8.28947h-10.89474L93.60526 15.39474v11.13158h2.368421z"/><path fill="#ffffff" d="M119.65837 35.81053c-.42632 0-.7579-.33158-.7579-.7579 0-.42631.33158-.75789.7579-.75789.40263 0 .75789.35526.75789.75789 0 .42632-.33158.7579-.75789.7579z"/><path fill="#d00000" d="M106.39474 20.60526L94.078946 1.1842097H83.18421V9.47368h2.368421v17.05264H83.18421v8.28947h12.789473v-8.28947h-2.368421V15.39474l12.315788 19.42105h10.89474v-8.28947h-2.36842V9.47368h2.36842V1.1842097h-12.78947V9.47368h2.36842v11.13158z"/><path fill="#d00000" d="M119.27942132 34.48421092h.33157896c.14210526 0 .1894737 0 .26052632.04736842.09473684.04736842.14210526.14210526.14210526.26052632 0 .09473684-.0236842.16578948-.07105263.2368421-.0236842.04736843-.07105263.04736843-.14210526.09473685h-.02368422l.26052633.49736844h-.1894737l-.2368421-.47368422h-.14210527v.47368422h-.18947368v-1.13684212zm.28421054.49736843h.09473684c.09473684-.0236842.14210527-.07105264.14210527-.1894737 0-.07105262-.02368422-.11842105-.09473685-.14210526h-.23684211v.33157895h.09473686zM116.81579 0h-13.97368V10.65789h2.36842v5.87369L95.073684.5447397 94.742105 0H82V10.65789h2.368421v14.68422H82V36h15.157896V25.34211H94.789475v-5.87369l10.136845 15.98684.35526.54474H118V25.34211h-2.36842V10.65789H118V 0h-1.18421zm.71053 1.18421V10.18421h-2.36842v15.63158h2.36842v9.71053H105.54211l-.21316-.33158-11.013161-17.36053v7.98158h2.368422v9.71053H82.473684v-9.71053h2.368421V10.18421h-2.368421V.4736797h11.984211l.213158.33158L105.68421 18.16579v-7.98158h-2.36842V.4736797h14.21053v.71053z"/></svg>
