<?xml version="1.0"?>
<svg version="1.1" xmlns="http://www.w3.org/2000/svg" class="preview" viewBox="0 0 81.7616 38"><path fill="#da1a32 device-cmyk(0.02, 1.00, 0.85, 0.06)" d="M47.048,13.738l1.212,8.412l-1.272,0l-0.168-1.32l-1.332,0l-0.156,1.32l-1.188,0l1.2-8.412l1.704,0z M46.148,15.442l-0.516,4.248l1.044,0z M51.9962,17.842c0.564,0.408,0.744,0.768,0.744,1.452l0,1.368c0,1.044-0.516,1.56-1.56,1.56l-0.564,0c-1.044,0-1.548-0.516-1.548-1.548l0-1.776l1.248,0l0,1.728c0,0.324,0.156,0.48,0.492,0.48l0.168,0c0.336,0,0.492-0.156,0.492-0.48l0-1.152c0-0.348-0.12-0.504-0.36-0.684l-1.296-0.948c-0.576-0.408-0.744-0.804-0.744-1.452l0-1.152c0-1.044,0.516-1.56,1.56-1.56l0.54,0c1.032,0,1.548,0.516,1.548,1.548l0,1.524l-1.26,0l0-1.476c0-0.324-0.156-0.48-0.48-0.48l-0.156,0c-0.324,0-0.48,0.156-0.48,0.48l0,0.936c0,0.348,0.12,0.516,0.36,0.684z M53.7524,22.15l0-8.4l1.932,0c1.248,0,1.836,0.6,1.836,1.836l0,4.728c0,1.236-0.588,1.836-1.836,1.836l-1.932,0z M55.0364,14.878l0,6.144l0.468,0c0.504,0,0.732-0.24,0.732-0.744l0-4.656c0-0.504-0.228-0.744-0.732-0.744l-0.468,0z M61.4726,17.842c0.564,0.408,0.744,0.768,0.744,1.452l0,1.368c0,1.044-0.516,1.56-1.56,1.56l-0.564,0c-1.044,0-1.548-0.516-1.548-1.548l0-1.776l1.248,0l0,1.728c0,0.324,0.156,0.48,0.492,0.48l0.168,0c0.336,0,0.492-0.156,0.492-0.48l0-1.152c0-0.348-0.12-0.504-0.36-0.684l-1.296-0.948c-0.576-0.408-0.744-0.804-0.744-1.452l0-1.152c0-1.044,0.516-1.56,1.56-1.56l0.54,0c1.032,0,1.548,0.516,1.548,1.548l0,1.524l-1.26,0l0-1.476c0-0.324-0.156-0.48-0.48-0.48l-0.156,0c-0.324,0-0.48,0.156-0.48,0.48l0,0.936c0,0.348,0.12,0.516,0.36,0.684z M65.8928,13.738l1.212,8.412l-1.272,0l-0.168-1.32l-1.332,0l-0.156,1.32l-1.188,0l1.2-8.412l1.704,0z M64.9928,15.442l-0.516,4.248l1.044,0z M70.613,13.738l1.212,8.412l-1.272,0l-0.168-1.32l-1.332,0l-0.156,1.32l-1.188,0l1.2-8.412l1.704,0z M69.713,15.442l-0.516,4.248l1.044,0z M75.5612,17.842c0.564,0.408,0.744,0.768,0.744,1.452l0,1.368c0,1.044-0.516,1.56-1.56,1.56l-0.564,0c-1.044,0-1.548-0.516-1.548-1.548l0-1.776l1.248,0l0,1.728c0,0.324,0.156,0.48,0.492,0.48l0.168,0c0.336,0,0.492-0.156,0.492-0.48l0-1.152c0-0.348-0.12-0.504-0.36-0.684l-1.296-0.948c-0.576-0.408-0.744-0.804-0.744-1.452l0-1.152c0-1.044,0.516-1.56,1.56-1.56l0.54,0c1.032,0,1.548,0.516,1.548,1.548l0,1.524l-1.26,0l0-1.476c0-0.324-0.156-0.48-0.48-0.48l-0.156,0c-0.324,0-0.48,0.156-0.48,0.48l0,0.936c0,0.348,0.12,0.516,0.36,0.684z M77.3174,22.15l0-8.4l1.932,0c1.248,0,1.836,0.6,1.836,1.836l0,4.728c0,1.236-0.588,1.836-1.836,1.836l-1.932,0z M78.6014,14.878l0,6.144l0.468,0c0.504,0,0.732-0.24,0.732-0.744l0-4.656c0-0.504-0.228-0.744-0.732-0.744l-0.468,0z"/><path fill="#000000" d="M45.2,35.688c-0.552,0-1.024-0.472-1.024-1.264c0-1.216,1.144-2.552,2.368-2.552c0.208,0,0.408,0.048,0.616,0.152l0.424-0.232l0.056,0.032l-0.528,3c-0.056,0.32,0,0.408,0.728,0.432l0.016,0.056c-0.352,0.224-0.76,0.376-1.08,0.376c-0.352,0-0.496-0.248-0.504-0.608l-0.04-0.024c-0.312,0.392-0.616,0.632-1.032,0.632z M45.664,35.112c0.256,0,0.424-0.112,0.656-0.304l0.36-2.096c-0.192-0.272-0.432-0.424-0.672-0.424c-0.552,0-0.96,1.04-0.96,1.928c0,0.568,0.24,0.896,0.616,0.896z M49.184,35.688c-0.696,0-1.176-0.36-1.176-0.808c0-0.312,0.208-0.52,0.448-0.52c0.336,0,0.52,0.368,0.36,0.88c0.176,0.112,0.408,0.176,0.624,0.176c0.344,0,0.544-0.192,0.544-0.52c0-0.224-0.12-0.424-0.496-0.664l-0.344-0.224c-0.448-0.28-0.696-0.544-0.696-0.976c0-0.576,0.552-1.16,1.392-1.16c0.64,0,0.976,0.336,0.976,0.68c0,0.256-0.168,0.424-0.392,0.424c-0.296,0-0.512-0.304-0.552-0.752c-0.104-0.056-0.2-0.08-0.304-0.08c-0.304,0-0.456,0.232-0.456,0.488s0.176,0.456,0.472,0.632l0.4,0.248c0.456,0.28,0.688,0.56,0.688,0.96c0,0.632-0.544,1.216-1.488,1.216z M52.264,35.688c-0.568,0-1.056-0.472-1.056-1.28c0-1.2,1.144-2.536,2.4-2.536c0.096,0,0.192,0.008,0.288,0.032l0.24-1.44l-0.504-0.328l0-0.08l1.408-0.4l0.032,0.024l-0.864,5.144c-0.056,0.344,0.04,0.416,0.728,0.432l0.016,0.056c-0.352,0.224-0.76,0.376-1.088,0.376c-0.344,0-0.496-0.248-0.496-0.608l-0.04-0.024c-0.32,0.392-0.616,0.632-1.064,0.632z M52.752,35.112c0.256,0,0.424-0.112,0.656-0.304l0.36-2.096c-0.2-0.272-0.456-0.424-0.696-0.424c-0.592,0-0.992,1.04-0.992,1.912c0,0.584,0.24,0.912,0.672,0.912z"/><path fill="#da1a32 device-cmyk(0.02, 1.00, 0.85, 0.06)" d="M37.681579 34.10526c-.544737 0-.971053.42632-.971053.94737S37.136842 36 37.657895 36c.521052 0 .947368-.42632.947368-.94737s-.426316-.94737-.923684-.94737zm-.02368 1.70527c-.426316 0-.757895-.33158-.757895-.7579 0-.42631.331579-.75789.757895-.75789.402631 0 .757894.35526.757894.75789 0 .42632-.331578.7579-.757894.7579z"/><path fill="#ffffff" d="M34.815789.47368h-13.5v9.71053h2.368422v7.98158L12.671053.80526l-.189474-.33158H.473684v9.71053h2.368421v15.63158H.473684v9.71053h14.210527v-9.71053h-2.368422v-7.98158l11.013158 17.36053.213158.33158h11.984211v-9.71053h-2.368421V10.18421h2.368421V.47368h-.710527zM13.973684 26.52632v8.28947H1.184211v-8.28947h2.368421V9.47368H1.184211V1.18421h10.894736l12.31579 19.42105V9.47368h-2.368421V1.18421h12.789473v8.28947h-2.368421v17.05264h2.368421v8.28947H23.921053l-12.31579-19.42105v11.13158h2.368421z"/><path fill="#ffffff" d="M37.657895 35.81053c-.426316 0-.757895-.33158-.757895-.7579 0-.42631.331579-.75789.757895-.75789.402631 0 .757894.35526.757894.75789 0 .42632-.331578.7579-.757894.7579z"/><path fill="#da1a32 device-cmyk(0.02, 1.00, 0.85, 0.06)" d="M24.394737 20.60526L12.078947 1.18421H1.184211v8.28947h2.368421v17.05264H1.184211v8.28947h12.789473v-8.28947h-2.368421V15.39474l12.31579 19.42105h10.894736v-8.28947h-2.368421V9.47368h2.368421V1.18421H22.026316v8.28947h2.368421v11.13158z"/><path fill="#da1a32 device-cmyk(0.02, 1.00, 0.85, 0.06)" d="M37.27894812 34.48421122h.33157896c.14210526 0 .1894737 0 .26052632.04736842.09473684.04736842.14210526.14210526.14210526.26052632 0 .09473684-.0236842.16578948-.07105263.2368421-.0236842.04736843-.07105263.04736843-.14210526.09473685h-.02368422l.26052633.49736844h-.1894737l-.2368421-.47368422h-.14210527v.47368422h-.18947368v-1.13684212zm.28421054.49736843h.09473684c.09473684-.0236842.14210527-.07105264.14210527-.1894737 0-.07105262-.0236842-.11842105-.09473685-.14210526h-.23684211v.33157895h.09473686zM34.815789 0H20.842105v10.65789H23.210526v5.87369L13.073684.54474 12.742105 0H0v10.65789H2.368421v14.68422H0V36H15.157895V25.34211H12.789474v-5.87369l10.136842 15.98684.355263.54474H36V25.34211H33.631579V10.65789H36V0h-1.184211zm.710527 1.18421v9h-2.368421v15.63158h2.368421v9.71053H23.542105l-.213158-.33158-11.013158-17.36053v7.98158h2.368422v9.71053H.473684v-9.71053h2.368421V10.18421H.473684V.47368h11.984211l.213158.33158 11.013158 17.36053v-7.98158h-2.368422V.47368h14.210527v.71053z"/></svg>
