<?xml version="1.0"?>
<svg version="1.1" xmlns="http://www.w3.org/2000/svg" class="preview" viewBox="0 0 124.9682 36"><path fill="#d00000" d="M45.668,11.79l1.236,0l0-3.54l1.284,0l0,8.4l-1.284,0l0-3.696l-1.236,0l0,3.696l-1.284,0l0-8.4l1.284,0l0,3.54z M49.2722,8.25l2.856,0l0,1.164l-1.572,0l0,2.376l1.512,0l0,1.164l-1.512,0l0,2.532l1.596,0l0,1.164l-2.88,0l0-8.4z M54.4364,11.79l1.236,0l0-3.54l1.284,0l0,8.4l-1.284,0l0-3.696l-1.236,0l0,3.696l-1.284,0l0-8.4l1.284,0l0,3.54z M58.0406,8.25l2.856,0l0,1.164l-1.572,0l0,2.376l1.512,0l0,1.164l-1.512,0l0,2.532l1.596,0l0,1.164l-2.88,0l0-8.4z"/><path fill="#d00000" d="M46.556,27.65l-1.284,0l0-7.236l-1.152,0l0-1.164l3.588,0l0,1.164l-1.152,0l0,7.236z M51.4682,23.69c0.528,0.144,0.744,0.468,0.744,1.104l0,2.856l-1.284,0l0-2.832c0-0.372-0.168-0.54-0.54-0.54l-0.576,0l0,3.372l-1.284,0l0-8.4l2.112,0c1.044,0,1.56,0.516,1.56,1.56l0,1.584c0,0.744-0.264,1.104-0.732,1.296z M50.9162,20.87c0-0.324-0.156-0.48-0.48-0.48l-0.624,0l0,2.772l0.576,0c0.36,0,0.528-0.168,0.528-0.516l0-1.776z M56.9924,19.25l-1.38,5.412l0,2.988l-1.284,0l0-2.856l-1.38-5.544l1.32,0l0.72,3.576l0.768-3.576l1.236,0z M61.8989,27.65l-1.284,0l0-7.236l-1.152,0l0-1.164l3.588,0l0,1.164l-1.152,0l0,7.236z M66.8111,23.69c0.528,0.144,0.744,0.468,0.744,1.104l0,2.856l-1.284,0l0-2.832c0-0.372-0.168-0.54-0.54-0.54l-0.576,0l0,3.372l-1.284,0l0-8.4l2.112,0c1.044,0,1.56,0.516,1.56,1.56l0,1.584c0,0.744-0.264,1.104-0.732,1.296z M66.2591,20.87c0-0.324-0.156-0.48-0.48-0.48l-0.624,0l0,2.772l0.576,0c0.36,0,0.528-0.168,0.528-0.516l0-1.776z M72.3353,19.25l-1.38,5.412l0,2.988l-1.284,0l0-2.856l-1.38-5.544l1.32,0l0.72,3.576l0.768-3.576l1.236,0z M78.8018,19.25l0,6.912c0,1.044-0.516,1.56-1.56,1.56l-0.624,0c-1.044,0-1.56-0.516-1.56-1.56l0-6.912l1.284,0l0,6.852c0,0.336,0.156,0.492,0.492,0.492l0.204,0c0.324,0,0.48-0.156,0.48-0.492l0-6.852l1.284,0z M83.714,27.65l-1.392,0l-1.308-5.652l0.012,1.476l0,4.176l-1.152,0l0-8.4l1.5,0l1.2,5.184l-0.012-1.404l0-3.78l1.152,0l0,8.4z M86.9702,27.65l-1.284,0l0-7.236l-1.152,0l0-1.164l3.588,0l0,1.164l-1.152,0l0,7.236z M90.2384,19.25l0,8.4l-1.284,0l0-8.4l1.284,0z M91.3346,19.25l1.284,0l0,7.236l1.416,0l0,1.164l-2.7,0l0-8.4z M100.6571,19.25l-1.38,5.412l0,2.988l-1.284,0l0-2.856l-1.38-5.544l1.32,0l0.72,3.576l0.768-3.576l1.236,0z M105.1733,26.162c0,1.044-0.516,1.56-1.56,1.56l-0.684,0c-1.044,0-1.56-0.516-1.56-1.56l0-5.424c0-1.044,0.516-1.56,1.56-1.56l0.684,0c1.044,0,1.56,0.516,1.56,1.56l0,5.424z M103.8893,20.798c0-0.336-0.156-0.492-0.48-0.492l-0.264,0c-0.336,0-0.492,0.156-0.492,0.492l0,5.304c0,0.336,0.156,0.492,0.492,0.492l0.264,0c0.324,0,0.48-0.156,0.48-0.492l0-5.304z M109.9655,19.25l0,6.912c0,1.044-0.516,1.56-1.56,1.56l-0.624,0c-1.044,0-1.56-0.516-1.56-1.56l0-6.912l1.284,0l0,6.852c0,0.336,0.156,0.492,0.492,0.492l0.204,0c0.324,0,0.48-0.156,0.48-0.492l0-6.852l1.284,0z M113.036,19.25l2.796,0l0,1.164l-1.512,0l0,2.424l1.452,0l0,1.164l-1.452,0l0,3.648l-1.284,0l0-8.4z M119.7242,23.69c0.528,0.144,0.744,0.468,0.744,1.104l0,2.856l-1.284,0l0-2.832c0-0.372-0.168-0.54-0.54-0.54l-0.576,0l0,3.372l-1.284,0l0-8.4l2.112,0c1.044,0,1.56,0.516,1.56,1.56l0,1.584c0,0.744-0.264,1.104-0.732,1.296z M119.1722,20.87c0-0.324-0.156-0.48-0.48-0.48l-0.624,0l0,2.772l0.576,0c0.36,0,0.528-0.168,0.528-0.516l0-1.776z M125.2484,19.25l-1.38,5.412l0,2.988l-1.284,0l0-2.856l-1.38-5.544l1.32,0l0.72,3.576l0.768-3.576l1.236,0z"/><path fill="#d00000" d="M37.681579 34.10526c-.544737 0-.971053.42632-.971053.94737S37.136842 36 37.657895 36c.521052 0 .947368-.42632.947368-.94737s-.426316-.94737-.923684-.94737zm-.02368 1.70527c-.426316 0-.757895-.33158-.757895-.7579 0-.42631.331579-.75789.757895-.75789.402631 0 .757894.35526.757894.75789 0 .42632-.331578.7579-.757894.7579z"/><path fill="#ffffff" d="M34.815789.47368h-13.5v9.71053h2.368422v7.98158L12.671053.80526l-.189474-.33158H.473684v9.71053h2.368421v15.63158H.473684v9.71053h14.210527v-9.71053h-2.368422v-7.98158l11.013158 17.36053.213158.33158h11.984211v-9.71053h-2.368421V10.18421h2.368421V.47368h-.710527zM13.973684 26.52632v8.28947H1.184211v-8.28947h2.368421V9.47368H1.184211V1.18421h10.894736l12.31579 19.42105V9.47368h-2.368421V1.18421h12.789473v8.28947h-2.368421v17.05264h2.368421v8.28947H23.921053l-12.31579-19.42105v11.13158h2.368421z"/><path fill="#ffffff" d="M37.657895 35.81053c-.426316 0-.757895-.33158-.757895-.7579 0-.42631.331579-.75789.757895-.75789.402631 0 .757894.35526.757894.75789 0 .42632-.331578.7579-.757894.7579z"/><path fill="#d00000" d="M24.394737 20.60526L12.078947 1.18421H1.184211v8.28947h2.368421v17.05264H1.184211v8.28947h12.789473v-8.28947h-2.368421V15.39474l12.31579 19.42105h10.894736v-8.28947h-2.368421V9.47368h2.368421V1.18421H22.026316v8.28947h2.368421v11.13158z"/><path fill="#d00000" d="M37.27894812 34.48421122h.33157896c.14210526 0 .1894737 0 .26052632.04736842.09473684.04736842.14210526.14210526.14210526.26052632 0 .09473684-.0236842.16578948-.07105263.2368421-.0236842.04736843-.07105263.04736843-.14210526.09473685h-.02368422l.26052633.49736844h-.1894737l-.2368421-.47368422h-.14210527v.47368422h-.18947368v-1.13684212zm.28421054.49736843h.09473684c.09473684-.0236842.14210527-.07105264.14210527-.1894737 0-.07105262-.0236842-.11842105-.09473685-.14210526h-.23684211v.33157895h.09473686zM34.815789 0H20.842105v10.65789H23.210526v5.87369L13.073684.54474 12.742105 0H0v10.65789H2.368421v14.68422H0V36H15.157895V25.34211H12.789474v-5.87369l10.136842 15.98684.355263.54474H36V25.34211H33.631579V10.65789H36V0h-1.184211zm.710527 1.18421v9h-2.368421v15.63158h2.368421v9.71053H23.542105l-.213158-.33158-11.013158-17.36053v7.98158h2.368422v9.71053H.473684v-9.71053h2.368421V10.18421H.473684V.47368h11.984211l.213158.33158 11.013158 17.36053v-7.98158h-2.368422V.47368h14.210527v.71053z"/></svg>
