<?xml version="1.0"?>
<svg version="1.1" xmlns="http://www.w3.org/2000/svg" class="preview" viewBox="50 -20 100 100"><path fill="#d00000" d="M-100 -100 L300 -100 L300 100 L-100 100 Z"/><path fill="#ffffff" d="M83.1139,50.502c1.034,0.748,1.364,1.408,1.364,2.662l0,2.508c0,1.914-0.946,2.86-2.86,2.86l-1.034,0c-1.914,0-2.838-0.946-2.838-2.838l0-3.256l2.288,0l0,3.168c0,0.594,0.286,0.88,0.902,0.88l0.308,0c0.616,0,0.902-0.286,0.902-0.88l0-2.112c0-0.638-0.22-0.924-0.66-1.254l-2.376-1.738c-1.056-0.748-1.364-1.474-1.364-2.662l0-2.112c0-1.914,0.946-2.86,2.86-2.86l0.99,0c1.892,0,2.838,0.946,2.838,2.838l0,2.794l-2.31,0l0-2.706c0-0.594-0.286-0.88-0.88-0.88l-0.286,0c-0.594,0-0.88,0.286-0.88,0.88l0,1.716c0,0.638,0.22,0.946,0.66,1.254z M93.2636,55.672c0,1.914-0.946,2.86-2.86,2.86l-1.254,0c-1.914,0-2.86-0.946-2.86-2.86l0-9.944c0-1.914,0.946-2.86,2.86-2.86l1.254,0c1.914,0,2.86,0.946,2.86,2.86l0,9.944z M90.9096,45.838c0-0.616-0.286-0.902-0.88-0.902l-0.484,0c-0.616,0-0.902,0.286-0.902,0.902l0,9.724c0,0.616,0.286,0.902,0.902,0.902l0.484,0c0.594,0,0.88-0.286,0.88-0.902l0-9.724z M99.7393,52.086l2.31,0l0,3.586c0,1.914-0.946,2.86-2.86,2.86l-1.166,0c-1.914,0-2.86-0.946-2.86-2.86l0-9.944c0-1.914,0.946-2.86,2.86-2.86l1.144,0c1.914,0,2.838,0.924,2.838,2.838l0,3.146l-2.31,0l0-3.014c0-0.616-0.286-0.902-0.88-0.902l-0.396,0c-0.616,0-0.902,0.286-0.902,0.902l0,9.724c0,0.616,0.286,0.902,0.902,0.902l0.44,0c0.594,0,0.88-0.286,0.88-0.902l0-3.476z M106.325,43l0,15.4l-2.354,0l0-15.4l2.354,0z M113.2187,42.978l2.222,15.422l-2.332,0l-0.308-2.42l-2.442,0l-0.286,2.42l-2.178,0l2.2-15.422l3.124,0z M111.5687,46.102l-0.946,7.788l1.914,0z M116.9884,43l2.354,0l0,13.266l2.596,0l0,2.134l-4.95,0l0-15.4z"/><path fill="#ffffff" d="M119.68205 34.10526c-.54474 0-.97105.42632-.97105.94737s.42631.94737.94737.94737c.52105 0 .94736-.42632.94736-.94737s-.42631-.94737-.92368-.94737zm-.0237 1.70527c-.42632 0-.7579-.33158-.7579-.7579 0-.42631.33158-.75789.7579-.75789.40263 0 .75789.35526.75789.75789 0 .42632-.33157.7579-.75789.7579z"/><path fill="#d00000" d="M116.81579.4736797h-13.5V10.18421h2.36842v7.98158L94.67105.8052597l-.189474-.33158H82.473681V10.18421h2.368421v15.63158h-2.368421v9.71053h14.210527v-9.71053h-2.368422v-7.98158l11.013164 17.36053.21316.33158H117.52632v-9.71053h-2.36842V10.18421h2.36842V.4736797h-.71053zM95.973681 26.52632v8.28947H83.184208v-8.28947h2.368421V9.47368h-2.368421V1.1842097h10.894736L106.39474 20.60526V9.47368h-2.36843V1.1842097h12.78948V9.47368h-2.36842v17.05264h2.36842v8.28947h-10.89474L93.60526 15.39474v11.13158h2.368421z"/><path fill="#d00000" d="M119.65837 35.81053c-.42632 0-.7579-.33158-.7579-.7579 0-.42631.33158-.75789.7579-.75789.40263 0 .75789.35526.75789.75789 0 .42632-.33158.7579-.75789.7579z"/><path fill="#ffffff" d="M106.39474 20.60526L94.078946 1.1842097H83.18421V9.47368h2.368421v17.05264H83.18421v8.28947h12.789473v-8.28947h-2.368421V15.39474l12.315788 19.42105h10.89474v-8.28947h-2.36842V9.47368h2.36842V1.1842097h-12.78947V9.47368h2.36842v11.13158z"/><path fill="#ffffff" d="M119.27942132 34.48421092h.33157896c.14210526 0 .1894737 0 .26052632.04736842.09473684.04736842.14210526.14210526.14210526.26052632 0 .09473684-.0236842.16578948-.07105263.2368421-.0236842.04736843-.07105263.04736843-.14210526.09473685h-.02368422l.26052633.49736844h-.1894737l-.2368421-.47368422h-.14210527v.47368422h-.18947368v-1.13684212zm.28421054.49736843h.09473684c.09473684-.0236842.14210527-.07105264.14210527-.1894737 0-.07105262-.02368422-.11842105-.09473685-.14210526h-.23684211v.33157895h.09473686zM116.81579 0h-13.97368V10.65789h2.36842v5.87369L95.073684.5447397 94.742105 0H82V10.65789h2.368421v14.68422H82V36h15.157896V25.34211H94.789475v-5.87369l10.136845 15.98684.35526.54474H118V25.34211h-2.36842V10.65789H118V 0h-1.18421zm.71053 1.18421V10.18421h-2.36842v15.63158h2.36842v9.71053H105.54211l-.21316-.33158-11.013161-17.36053v7.98158h2.368422v9.71053H82.473684v-9.71053h2.368421V10.18421h-2.368421V.4736797h11.984211l.213158.33158L105.68421 18.16579v-7.98158h-2.36842V.4736797h14.21053v.71053z"/></svg>
